<svg width="14" height="24" viewBox="0 0 14 24" fill="none" xmlns="http://www.w3.org/2000/svg">
<path fill-rule="evenodd" clip-rule="evenodd" d="M1.00142 24C0.448156 24 0 23.5292 0 22.9479C0 22.3667 0.448156 21.8958 1.00142 21.8958H13.0006C13.5528 21.8958 14 22.3667 14 22.9479C14 23.5292 13.5518 24 13.0006 24H1.00142ZM0.435262 14.2376L5.96005 4.18462L11.2764 7.40967L5.75166 17.4627L0.435262 14.2376ZM6.54283 3.12409L11.8575 6.34914L12.5872 5.02309C13.3636 3.60851 13.1762 2.27617 12.5148 1.33564C12.0042 0.608553 11.2011 0.121062 10.3474 0.0200222C9.23985 -0.110185 8.04707 0.384607 7.26871 1.80023L6.54193 3.12417L6.54283 3.12409ZM4.96236 18.396L0.0612233 15.4232L0.00173369 20.3701C-0.0210711 20.9087 0.501467 21.1795 0.880201 20.9441L4.96122 18.3951L4.96236 18.396Z" fill="#652178"/>
</svg>
