<svg width="17" height="24" viewBox="0 0 17 24" fill="none" xmlns="http://www.w3.org/2000/svg">
<path d="M8.5 24C8.67059 24 8.83006 23.9205 8.93761 23.7842C9.26767 23.3602 17 13.3005 17 8.67771C17 3.8921 13.1876 0 8.5 0C3.81239 0 0 3.89588 0 8.67771C0 13.3005 7.73233 23.3564 8.06239 23.7842C8.16994 23.9205 8.32941 24 8.5 24ZM4.39463 9.01089C4.39463 6.69759 6.23408 4.81969 8.5 4.81969C10.7659 4.81969 12.6054 6.69759 12.6054 9.01089C12.6054 11.3242 10.7659 13.2021 8.5 13.2021C6.23408 13.2021 4.39463 11.328 4.39463 9.01089Z" fill="#E35F26"/>
</svg>
