<svg width="36" height="41" viewBox="0 0 36 41" fill="none" xmlns="http://www.w3.org/2000/svg">
<path d="M29.2514 13.5848C32.8506 13.5848 35.7792 10.589 35.7792 6.90372C35.7792 3.22007 32.8521 0.222656 29.2514 0.222656C25.6523 0.222656 22.7236 3.22016 22.7236 6.90372C22.7236 7.76817 22.8896 8.59353 23.1849 9.35268L12.2431 15.9151C11.045 14.4104 9.22305 13.4457 7.18209 13.4457C3.58295 13.4457 0.654297 16.4432 0.654297 20.1268C0.654297 23.8103 3.58303 26.8078 7.18209 26.8078C9.22144 26.8078 11.0451 25.8432 12.2431 24.3385L23.1849 30.9009C22.8912 31.66 22.7236 32.4837 22.7236 33.3498C22.7236 37.0335 25.6524 40.0309 29.2514 40.0309C32.8506 40.0309 35.7792 37.0334 35.7792 33.3498C35.7792 29.6662 32.8505 26.6688 29.2514 26.6688C27.2104 26.6688 25.3851 27.6334 24.187 29.1415L13.2452 22.5809C13.5406 21.82 13.7065 20.9947 13.7065 20.1268C13.7065 19.2607 13.5389 18.4336 13.2452 17.6728L24.187 11.1121C25.3867 12.6185 27.2104 13.5848 29.2514 13.5848ZM29.2514 28.7064C31.7537 28.7064 33.7882 30.7886 33.7882 33.3497C33.7882 35.9108 31.7538 37.9931 29.2514 37.9931C26.7491 37.9931 24.7146 35.9109 24.7146 33.3497C24.7146 30.7887 26.7507 28.7064 29.2514 28.7064ZM7.18214 24.7697C4.67985 24.7697 2.64534 22.6876 2.64534 20.1264C2.64534 17.5653 4.67972 15.4831 7.18214 15.4831C9.68442 15.4831 11.7189 17.5653 11.7189 20.1264C11.7189 22.6876 9.68289 24.7697 7.18214 24.7697ZM29.2514 2.26054C31.7537 2.26054 33.7882 4.34268 33.7882 6.90385C33.7882 9.4649 31.7538 11.5472 29.2514 11.5472C26.7491 11.5472 24.7146 9.46502 24.7146 6.90385C24.7146 4.34281 26.7507 2.26054 29.2514 2.26054Z" fill="black"/>
</svg>
