<svg width="37" height="37" viewBox="0 0 37 37" fill="none" xmlns="http://www.w3.org/2000/svg">
<path fill-rule="evenodd" clip-rule="evenodd" d="M36.155 27.4106L32.1291 23.3845C31.8829 23.1178 31.5842 22.905 31.2517 22.7594C30.9192 22.6138 30.5602 22.5387 30.1972 22.5387C29.8343 22.5387 29.4752 22.6138 29.1428 22.7594C28.8103 22.905 28.5115 23.1178 28.2653 23.3845L24.2395 27.2486C20.709 26.378 17.4877 24.5491 14.9307 21.9637C12.3738 19.3782 10.5806 16.1366 9.7491 12.5965L13.6129 8.7324C13.8796 8.48618 14.0924 8.18739 14.2379 7.85488C14.3835 7.52237 14.4586 7.16333 14.4586 6.80035C14.4586 6.43737 14.3835 6.07832 14.2379 5.74581C14.0924 5.4133 13.8796 5.11452 13.6129 4.8683L9.42797 0.845086C9.19788 0.579801 8.91347 0.36706 8.59401 0.221258C8.27455 0.0754551 7.9275 0 7.57635 0C7.22519 0 6.87814 0.0754551 6.55868 0.221258C6.23922 0.36706 5.95484 0.579801 5.72474 0.845086C4.27526 2.29468 2.9878 3.58222 1.53832 4.87124C-2.48752 9.05797 1.86093 18.8795 9.10538 26.4472C16.8345 34.3374 27.7821 39.8117 32.1291 35.4644C33.4166 34.0148 34.7055 32.7273 36.155 31.2777C36.4214 31.0313 36.6341 30.7325 36.7795 30.4C36.9249 30.0675 37 29.7085 37 29.3456C37 28.9827 36.9249 28.6237 36.7795 28.2912C36.6341 27.9587 36.4214 27.6599 36.155 27.4136V27.4106ZM33.5786 16.4606C33.6013 16.7946 33.7443 17.109 33.981 17.3458C34.2177 17.5825 34.5321 17.7254 34.866 17.7482C35.2258 17.7572 35.5756 17.6293 35.8447 17.3902C36.1137 17.1512 36.282 16.819 36.3155 16.4606C36.3089 14.4065 35.8703 12.3767 35.0281 10.5031C34.2655 8.57227 33.1147 6.81854 31.6469 5.35058C30.179 3.88262 28.4254 2.7317 26.4947 1.96911C24.6214 1.12669 22.5917 0.688005 20.5377 0.681565C20.1794 0.715053 19.8471 0.883365 19.6081 1.15246C19.3691 1.42155 19.2412 1.77136 19.2503 2.13116C19.273 2.46515 19.4159 2.7796 19.6526 3.01631C19.8893 3.25302 20.2038 3.39597 20.5377 3.4187C22.2484 3.41238 23.9437 3.74067 25.5284 4.3851C28.6702 5.80985 31.1876 8.32744 32.6123 11.4695C33.2566 13.0543 33.5849 14.7498 33.5786 16.4606ZM28.4229 16.7832C28.4139 17.143 28.5418 17.4928 28.7808 17.7619C29.0198 18.031 29.352 18.1993 29.7104 18.2328C29.8926 18.2299 30.0723 18.1891 30.238 18.1131C30.4036 18.037 30.5517 17.9274 30.6727 17.7911C30.7938 17.6548 30.8852 17.4948 30.9412 17.3213C30.9971 17.1478 31.0164 16.9646 30.9978 16.7832C31.0433 15.3451 30.7681 13.915 30.1921 12.5965C29.709 11.2649 28.9395 10.0555 27.938 9.05388C26.9364 8.05223 25.7271 7.28269 24.3956 6.79961C23.0772 6.22361 21.6472 5.94835 20.2092 5.99379C20.0279 5.97519 19.8447 5.99449 19.6712 6.05045C19.4977 6.10641 19.3377 6.19783 19.2014 6.31889C19.0652 6.43995 18.9555 6.58801 18.8795 6.7537C18.8034 6.91938 18.7627 7.09906 18.7597 7.28134C18.7932 7.63969 18.9615 7.97196 19.2306 8.21098C19.4997 8.44999 19.8494 8.57791 20.2092 8.56888C21.2646 8.54938 22.3107 8.76948 23.2687 9.21265C24.303 9.58732 25.2388 10.1918 26.0057 10.9805C26.7409 11.7898 27.3381 12.7145 27.7733 13.7176C28.2324 14.6703 28.4533 15.7203 28.417 16.7773L28.4229 16.7832Z" fill="white"/>
</svg>
