<svg width="35" height="41" viewBox="0 0 35 41" fill="none" xmlns="http://www.w3.org/2000/svg">
<path d="M17.2964 0.000204122C12.738 -0.0220109 8.35702 1.76986 5.11445 4.98271C1.87188 8.19557 0.0325654 12.5671 1.00255e-05 17.1381V31.9429C-0.00148506 32.7816 0.164255 33.6121 0.487483 34.3856C0.810711 35.1591 1.2849 35.86 1.88217 36.4471C3.09136 37.6472 4.72586 38.3175 6.42717 38.3109H9.73215C9.93311 38.8797 10.2604 39.3954 10.6893 39.8187C11.4544 40.5793 12.4894 41.0042 13.5667 41H16.28C17.3569 41.0041 18.3915 40.5798 19.1569 39.8201C19.5355 39.4484 19.836 39.0045 20.0409 38.5145C20.2458 38.0245 20.3508 37.4983 20.3498 36.967C20.3479 36.4365 20.2416 35.9115 20.037 35.4223C19.8324 34.933 19.5335 34.489 19.1574 34.1159C18.3924 33.3551 17.3574 32.9301 16.28 32.9341H13.5667C12.4894 32.9299 11.4546 33.355 10.6898 34.1159C10.2636 34.5405 9.93785 35.0556 9.73647 35.6232H6.42717C5.44405 35.6271 4.49954 35.2397 3.8009 34.5461C3.45576 34.2065 3.18174 33.8011 2.9949 33.3538C2.80807 32.9065 2.71218 32.4263 2.71287 31.9414V31.5893H8.81776C8.99487 31.5906 9.17048 31.5568 9.33456 31.4899C9.49864 31.423 9.64795 31.3244 9.77394 31.1996C9.89993 31.0747 10.0001 30.9262 10.0688 30.7625C10.1375 30.5988 10.1733 30.4231 10.1742 30.2455V18.8191C10.1733 18.6415 10.1375 18.4658 10.0688 18.3021C10.0001 18.1384 9.89993 17.9899 9.77394 17.865C9.64795 17.7402 9.49864 17.6415 9.33456 17.5747C9.17048 17.5078 8.99487 17.474 8.81776 17.4753H2.71287V17.1376C2.75696 13.2878 4.31295 9.61073 7.04328 6.90402C9.77361 4.19731 13.4581 2.6793 17.2974 2.6793C21.1366 2.6793 24.8211 4.19731 27.5514 6.90402C30.2818 9.61073 31.8378 13.2878 31.8819 17.1376V17.4753H25.777C25.5999 17.474 25.4242 17.5078 25.2602 17.5747C25.0961 17.6415 24.9468 17.7402 24.8208 17.865C24.6948 17.9899 24.5946 18.1384 24.5259 18.3021C24.4572 18.4658 24.4214 18.6415 24.4205 18.8191V30.2469C24.4214 30.4245 24.4572 30.6002 24.5259 30.764C24.5946 30.9277 24.6948 31.0762 24.8208 31.201C24.9468 31.3258 25.0961 31.4245 25.2602 31.4914C25.4242 31.5583 25.5999 31.592 25.777 31.5908H33.2373C33.4144 31.592 33.59 31.5583 33.7541 31.4914C33.9182 31.4245 34.0675 31.3258 34.1935 31.201C34.3195 31.0762 34.4197 30.9277 34.4884 30.764C34.5571 30.6002 34.5929 30.4245 34.5938 30.2469V17.14C34.5609 12.5687 32.7215 8.19706 29.4788 4.98392C26.2361 1.77078 21.855 -0.0214994 17.2964 0.000204122Z" fill="white"/>
</svg>
