<svg width="39" height="39" viewBox="0 0 39 39" fill="none" xmlns="http://www.w3.org/2000/svg">
<path d="M26.9597 28.5219V38.037H33.3031C35.9307 38.037 38.0607 35.907 38.0607 33.2794V18.8148C38.0611 17.9909 37.7409 17.1992 37.1679 16.6073L23.6912 2.0379C21.3133 -0.534917 17.3 -0.692884 14.7272 1.68502C14.605 1.79801 14.4872 1.91569 14.3743 2.0379L0.921412 16.6025C0.331025 17.1969 -0.0002229 18.0008 1.12534e-07 18.8386V33.2794C1.12534e-07 35.907 2.13006 38.037 4.75759 38.037H11.101V28.5219C11.1307 24.1975 14.6221 20.6662 18.8375 20.5645C23.194 20.4594 26.9265 24.0508 26.9597 28.5219Z" fill="white"/>
</svg>
