<svg width="40" height="40" viewBox="0 0 40 40" fill="none" xmlns="http://www.w3.org/2000/svg">
<rect x="0.904297" y="0.421875" width="38.9561" height="38.9561" rx="5.56516" fill="white"/>
<path d="M20.476 16.5283C22.5303 16.5283 24.2259 18.2239 24.2259 20.2783C24.2259 22.3652 22.5303 24.0282 20.476 24.0282C18.389 24.0282 16.726 22.3652 16.726 20.2783C16.726 18.2239 18.389 16.5283 20.476 16.5283ZM20.476 22.7239C21.8129 22.7239 22.889 21.6478 22.889 20.2783C22.889 18.9413 21.8129 17.8652 20.476 17.8652C19.1064 17.8652 18.0304 18.9413 18.0304 20.2783C18.0304 21.6478 19.139 22.7239 20.476 22.7239ZM25.2368 16.3979C25.2368 16.887 24.8455 17.2783 24.3564 17.2783C23.8673 17.2783 23.476 16.887 23.476 16.3979C23.476 15.9087 23.8673 15.5174 24.3564 15.5174C24.8455 15.5174 25.2368 15.9087 25.2368 16.3979ZM27.715 17.2783C27.7803 18.4848 27.7803 22.1043 27.715 23.3108C27.6498 24.4847 27.389 25.4956 26.5411 26.376C25.6933 27.2238 24.6499 27.4847 23.476 27.5499C22.2694 27.6151 18.6499 27.6151 17.4434 27.5499C16.2695 27.4847 15.2586 27.2238 14.3782 26.376C13.5304 25.4956 13.2695 24.4847 13.2043 23.3108C13.1391 22.1043 13.1391 18.4848 13.2043 17.2783C13.2695 16.1044 13.5304 15.0609 14.3782 14.2131C15.2586 13.3653 16.2695 13.1044 17.4434 13.0392C18.6499 12.974 22.2694 12.974 23.476 13.0392C24.6499 13.1044 25.6933 13.3653 26.5411 14.2131C27.389 15.0609 27.6498 16.1044 27.715 17.2783ZM26.1498 24.5826C26.5411 23.6369 26.4433 21.3543 26.4433 20.2783C26.4433 19.2348 26.5411 16.9522 26.1498 15.974C25.889 15.3544 25.3998 14.8327 24.7803 14.6044C23.802 14.2131 21.5194 14.3109 20.476 14.3109C19.3999 14.3109 17.1173 14.2131 16.1717 14.6044C15.5195 14.8653 15.0304 15.3544 14.7695 15.974C14.3782 16.9522 14.476 19.2348 14.476 20.2783C14.476 21.3543 14.3782 23.6369 14.7695 24.5826C15.0304 25.2347 15.5195 25.7239 16.1717 25.9847C17.1173 26.376 19.3999 26.2782 20.476 26.2782C21.5194 26.2782 23.802 26.376 24.7803 25.9847C25.3998 25.7239 25.9216 25.2347 26.1498 24.5826Z" fill="url(#paint0_linear_1054_10313)"/>
<defs>
<linearGradient id="paint0_linear_1054_10313" x1="20.476" y1="11.5391" x2="20.476" y2="28.2346" gradientUnits="userSpaceOnUse">
<stop stop-color="#B131B9"/>
<stop offset="1" stop-color="#FFB74E"/>
</linearGradient>
</defs>
</svg>
