<svg width="40" height="40" viewBox="0 0 40 40" fill="none" xmlns="http://www.w3.org/2000/svg">
<rect x="0.572266" y="0.421875" width="38.9561" height="38.9561" rx="5.56516" fill="white"/>
<path d="M16.1054 26.5391H13.0728V16.7892H16.1054V26.5391ZM14.5728 15.4848C13.6272 15.4848 12.8446 14.6696 12.8446 13.6914C12.8446 12.7457 13.6272 11.9631 14.5728 11.9631C15.5511 11.9631 16.3337 12.7457 16.3337 13.6914C16.3337 14.6696 15.5511 15.4848 14.5728 15.4848ZM27.4205 26.5391H24.4205V21.8108C24.4205 20.6696 24.3879 19.2348 22.8227 19.2348C21.2575 19.2348 21.0293 20.4413 21.0293 21.713V26.5391H17.9967V16.7892H20.8988V18.1261H20.9314C21.3553 17.3761 22.3336 16.5609 23.801 16.5609C26.8662 16.5609 27.4531 18.5826 27.4531 21.1913V26.5391H27.4205Z" fill="#003FBA"/>
</svg>
