<svg width="50" height="50" viewBox="0 0 50 50" fill="none" xmlns="http://www.w3.org/2000/svg">
<g clip-path="url(#clip0_2398_1047)">
<rect width="50" height="50" fill="white"/>
<path d="M47.8224 15.4821C47.7367 15.8052 47.5296 16.0752 47.2392 16.2423L46.3582 16.7491C46.7121 17.6554 47.0074 18.5845 47.2367 19.5234C47.1812 19.5111 47.1251 19.4982 47.069 19.4864C45.8853 19.0456 44.6751 18.643 43.4433 18.2799C43.3909 18.1344 43.3354 17.9895 43.2768 17.8446C42.9685 17.0573 42.6128 16.2953 42.209 15.5629C42.0727 15.3157 41.9316 15.0709 41.7848 14.8286C40.672 12.9938 39.2713 11.3557 37.643 9.97472C37.4889 9.8434 37.3354 9.71517 37.1788 9.59125C36.5246 9.06905 35.836 8.58693 35.1165 8.14735C34.8767 8.00123 34.6319 7.86005 34.3847 7.72318C32.5394 6.70407 30.5129 5.97164 28.365 5.5857C27.2139 5.37608 26.0302 5.26757 24.8212 5.26757C24.6874 5.26757 24.5561 5.27004 24.4223 5.2725C22.2213 5.31566 20.106 5.71702 18.1375 6.42355C17.7916 6.54501 17.4513 6.67879 17.1128 6.81998C16.262 7.18064 15.4445 7.59741 14.659 8.06905H14.6566C14.6239 8.08693 14.5937 8.10481 14.5635 8.12454C12.7263 9.23798 11.0826 10.6412 9.70221 12.2694C9.57089 12.4205 9.4445 12.5746 9.31873 12.7312C8.79592 13.3872 8.31133 14.0764 7.87483 14.7959C7.7281 15.0358 7.58691 15.2805 7.45066 15.5277C6.94018 16.4501 6.50245 17.4168 6.14548 18.4229C4.89888 18.8021 3.67569 19.2219 2.48026 19.6813C2.43833 19.6905 2.39641 19.7004 2.35449 19.7102C2.5641 18.8268 2.82921 17.9556 3.14733 17.103L7.07952 16.0197L7.13192 15.9291L7.34709 15.558L7.32551 15.5641L3.69789 16.5598C3.58876 16.5906 3.47779 16.6054 3.36682 16.6054C3.14733 16.6054 2.93032 16.5475 2.74105 16.439L2.40011 16.2423C2.10973 16.0752 1.90319 15.8052 1.81688 15.4821C1.73118 15.1591 1.77434 14.8212 1.9408 14.5333L4.23488 10.558C4.45991 10.172 4.8736 9.93218 5.32058 9.93218C5.54006 9.93218 5.75708 9.99014 5.94635 10.1011L6.82736 10.6085C7.34462 9.96486 7.89764 9.34895 8.48827 8.76079C8.98766 8.26079 9.508 7.78668 10.0481 7.33477L13.9864 8.36498L13.9932 8.36683L14.455 8.09926L14.4574 8.09679H14.4599L14.5512 8.04131L14.516 8.03267L10.6159 7.08508C10.4593 7.04686 10.323 6.95376 10.2324 6.82244C10.2299 6.82244 10.2299 6.81998 10.2299 6.81998C10.1492 6.74168 10.0808 6.65351 10.0253 6.55734L9.82859 6.2164C9.48519 5.62084 9.68988 4.85142 10.2879 4.50801L14.2608 2.21332C14.45 2.10234 14.6671 2.04439 14.8865 2.04439C15.3335 2.04439 15.7472 2.28668 15.9692 2.67324L16.4766 3.54871C17.9106 2.99322 19.3896 2.58446 20.8989 2.32737L23.8039 5.19174H24.3415L24.3255 5.17633L21.6461 2.53391C21.4087 2.29963 21.275 1.97657 21.275 1.64303V1.25216C21.275 0.560419 21.8354 0 22.524 0H27.1153C27.8045 0 28.365 0.560419 28.365 1.25216V2.26634C29.8816 2.49877 31.3631 2.88224 32.807 3.41492L33.8896 7.35018L34.2497 7.55857L34.352 7.61776H34.3545V7.61591L33.3496 3.97041C33.2614 3.64981 33.307 3.29901 33.4735 3.0111L33.6701 2.67016C33.8921 2.28668 34.3089 2.04439 34.7528 2.04439C34.9729 2.04439 35.1899 2.10234 35.3791 2.21332L39.3545 4.50801C39.95 4.85388 40.1572 5.62084 39.8113 6.2164L39.3015 7.09988C39.9426 7.61776 40.561 8.17016 41.1486 8.76079C41.6486 9.25832 42.1258 9.78052 42.5727 10.3181L41.5475 14.2633L41.8126 14.725L42.7669 11.0654C42.8526 10.7423 43.0647 10.4618 43.3526 10.2953L43.693 10.1011C43.8822 9.99014 44.0992 9.93218 44.3193 9.93218C44.7632 9.93218 45.18 10.172 45.402 10.558L47.696 14.5333C47.8656 14.8212 47.9081 15.1591 47.8224 15.4821Z" fill="#722875"/>
<path d="M1.83322 27.1302L1.81287 26.9434C1.81472 26.9606 1.81596 26.9773 1.81719 26.9945C1.81719 26.9933 1.81719 26.9921 1.81719 26.9908L1.81226 26.944C1.82027 27.0223 1.8252 27.0981 1.83507 27.1733C1.83507 27.1702 1.83507 27.1665 1.83445 27.1635V27.1622C1.83445 27.1622 1.83445 27.161 1.83445 27.1598C1.83445 27.1641 1.83507 27.169 1.83568 27.1733C1.83568 27.1579 1.83322 27.1431 1.83322 27.1302Z" fill="#722875"/>
<path d="M46.0457 34.0253V34.0228C46.05 34.0129 46.0543 34.0037 46.058 33.9938C46.058 33.9932 46.0586 33.992 46.0593 33.9914C46.0593 33.9901 46.0605 33.9889 46.0611 33.9877C46.0673 33.9735 46.0734 33.9593 46.079 33.9451C46.0852 33.9291 46.0919 33.9131 46.0987 33.897C46.1 33.894 46.1012 33.8915 46.1018 33.889C46.1111 33.8644 46.1222 33.8416 46.1314 33.8169L46.1197 33.8446L46.1209 33.8422L46.0432 34.0216C46.0432 34.0216 46.0408 34.024 46.0408 34.0265H46.0457V34.0253Z" fill="#722875"/>
<path d="M47.7103 35.4434C47.706 35.4514 47.7011 35.4588 47.6967 35.4668L45.4027 39.4397C45.1807 39.8256 44.7639 40.0654 44.32 40.0654C44.0999 40.0654 43.8829 40.0075 43.6937 39.899L42.8102 39.3891C42.2904 40.0303 41.7399 40.6462 41.1493 41.2368C40.6499 41.7362 40.1326 42.2134 39.595 42.6604L35.6499 41.6332L35.1856 41.9008L38.8478 42.8546C39.1708 42.9378 39.4483 43.1524 39.6147 43.4403L39.812 43.7812C40.1579 44.3792 39.9507 45.1437 39.3552 45.4896L35.3798 47.7843C35.1906 47.8953 34.9736 47.9532 34.7535 47.9532C34.3096 47.9532 33.8928 47.7134 33.6708 47.3268L33.161 46.4464C31.7276 47.0038 30.2485 47.4131 28.7393 47.6702L25.8342 44.8059H25.2991L27.9945 47.4637C28.2319 47.698 28.3657 48.021 28.3657 48.3546V48.7479C28.3657 49.4372 27.8052 50.0001 27.116 50.0001H22.5247C21.8361 50.0001 21.2757 49.4372 21.2757 48.7479V47.7313H21.2732C19.7584 47.4988 18.2744 47.1129 16.8305 46.5802L15.7479 42.6474L15.2861 42.3823L16.2904 46.0297C16.3792 46.3503 16.3336 46.6986 16.1671 46.9865L15.9699 47.3268C15.7479 47.7134 15.3311 47.9532 14.8872 47.9532C14.6678 47.9532 14.4507 47.8953 14.2615 47.7843L10.2886 45.4896C9.69057 45.1437 9.48342 44.3792 9.82929 43.7812L10.3392 42.8977C9.6955 42.3823 9.0796 41.8274 8.48897 41.2368C7.98897 40.7368 7.51486 40.2171 7.06788 39.6795L8.09501 35.7368L7.82497 35.275L6.87121 38.9347C6.78798 39.2553 6.57343 39.5352 6.28552 39.7023L5.94704 39.899C5.75531 40.0075 5.54076 40.0654 5.32127 40.0654C4.87429 40.0654 4.46061 39.8256 4.23558 39.4397L1.96924 35.5149C3.79291 35.1012 5.62645 34.7652 7.46431 34.4939C7.59069 34.7208 7.72078 34.9458 7.85272 35.1665C8.96616 37.0013 10.3694 38.6419 11.997 40.0229C12.1511 40.1567 12.3077 40.2824 12.4643 40.4064C13.1178 40.931 13.8071 41.4131 14.5241 41.8503C14.7633 41.9964 15.0087 42.1376 15.2559 42.2738C17.1006 43.2935 19.1277 44.026 21.2757 44.4119C21.4723 44.4495 21.6696 44.4828 21.8687 44.513V44.5155C22.6881 44.6369 23.5235 44.7078 24.3724 44.7251L24.37 44.7226C24.513 44.7276 24.6536 44.73 24.7966 44.73H24.8219C24.899 44.73 24.9754 44.73 25.0525 44.7282C25.1073 44.7276 25.1628 44.727 25.2177 44.7251C25.2232 44.7257 25.2288 44.7257 25.2343 44.7245C25.275 44.7239 25.3157 44.7233 25.3564 44.722C25.4156 44.7208 25.4748 44.7189 25.534 44.7165C25.5506 44.7159 25.5666 44.7152 25.5833 44.7146C25.6622 44.7115 25.7405 44.7085 25.8194 44.7041C25.8244 44.7041 25.8293 44.7035 25.8342 44.7035C25.9138 44.6998 25.9933 44.6949 26.0728 44.69C27.9668 44.5722 29.7904 44.1887 31.5031 43.5741C31.6924 43.5081 31.8786 43.4378 32.0654 43.362L32.0636 43.3589C32.8478 43.0512 33.608 42.6943 34.3398 42.2923L34.3472 42.2942C34.595 42.1604 34.8373 42.0192 35.0765 41.8724C36.4384 41.0475 37.693 40.0636 38.8126 38.9458C38.9076 38.8527 39.0007 38.7572 39.0925 38.661C39.1252 38.6283 39.1573 38.5944 39.1881 38.5611C39.2485 38.4982 39.3077 38.4347 39.3669 38.3712C39.4138 38.3213 39.46 38.2701 39.5062 38.2196C39.5586 38.1628 39.6098 38.1055 39.6604 38.0482C39.7541 37.9427 39.8466 37.8361 39.9378 37.7282C39.9526 37.7115 39.9668 37.6949 39.9803 37.6782C40.0969 37.5432 40.2091 37.4057 40.3219 37.2664L40.32 37.2652C40.8447 36.6098 41.3287 35.9205 41.7683 35.2011H41.7652C41.9119 34.9618 42.0531 34.7171 42.1893 34.4699C42.1986 34.4532 42.2072 34.4366 42.2165 34.4199C44.0327 34.6906 45.8613 35.0272 47.7103 35.4434Z" fill="#722875"/>
<path d="M47.8336 22.9598H47.836L47.8262 22.8667C47.8286 22.8969 47.8311 22.9296 47.8336 22.9598Z" fill="#722875"/>
<path d="M50.812 23.0871C33.3693 17.793 16.442 17.793 -1 23.0871C1.91492 21.7153 5.04254 20.6049 8.3021 19.7554C18.9334 16.9847 30.9679 16.9915 41.5925 19.777C44.8224 20.6234 47.9217 21.727 50.812 23.0871Z" fill="#E55E25"/>
<path fill-rule="evenodd" clip-rule="evenodd" d="M49.4512 34.7899C34.9432 29.1173 14.8686 29.1179 0.360596 34.7899C8.50178 32.7369 16.8871 32.3281 24.9081 32.2979C33.1695 32.2665 41.0659 32.6752 49.4512 34.7899Z" fill="#E55E25"/>
<path fill-rule="evenodd" clip-rule="evenodd" d="M45.6121 34.7582L45.7255 34.728C45.7181 34.7434 45.7101 34.7582 45.7027 34.7736C45.6725 34.7663 45.6423 34.7638 45.6121 34.7582Z" fill="white"/>
<path fill-rule="evenodd" clip-rule="evenodd" d="M46.0435 34.0216L46.1316 33.8169C46.1218 33.8446 46.1088 33.8699 46.099 33.8977C46.0811 33.9408 46.0663 33.9809 46.0459 34.024V34.0265H46.041C46.041 34.0265 46.0435 34.024 46.0435 34.0216Z" fill="white"/>
<path fill-rule="evenodd" clip-rule="evenodd" d="M47.8355 22.9613H47.8331C47.8306 22.931 47.8281 22.8984 47.8257 22.8682L47.8355 22.9613Z" fill="white"/>
<path d="M9.74121 30.4704C10.0112 30.6085 10.1457 30.6782 10.4132 30.8188C10.8713 30.3064 11.1043 30.0524 11.5791 29.5475C12.1364 29.8755 12.412 30.0425 12.9564 30.381C13.1161 30.2318 13.1962 30.1572 13.3577 30.0093C12.5729 29.5407 12.1746 29.312 11.3645 28.865C10.7011 29.5 10.3768 29.8218 9.74121 30.471V30.4704Z" fill="#722875"/>
<path d="M10.7879 22.6874C11.4938 22.5634 12.1276 22.1904 12.5117 21.5277C12.2392 21.4013 12.1023 21.3384 11.8274 21.2139C11.5364 21.7601 10.9975 22.0776 10.4118 22.1824C9.84526 22.2842 9.2497 22.1781 8.78114 21.839C8.66277 21.9722 8.6042 22.0388 8.48706 22.1719C9.16524 22.6522 9.99631 22.8267 10.7879 22.6874Z" fill="#722875"/>
<path d="M24.8287 22.3501C23.362 22.3507 22.6283 22.368 21.1635 22.4358C18.1548 22.5745 15.1542 22.8828 12.1801 23.3581C10.2282 23.6701 9.25533 23.8563 7.32007 24.2885C7.3287 24.3255 7.3324 24.3439 7.34103 24.3816C7.43351 24.4426 7.47913 24.4734 7.57099 24.5345C7.71526 24.6553 7.78739 24.7157 7.93043 24.8372C8.98036 24.609 9.50687 24.5042 10.5617 24.3119C10.6228 24.646 10.653 24.8125 10.714 25.1467C10.7498 25.3427 10.7017 25.4013 10.1419 25.7114C9.94522 25.8193 9.8472 25.8742 9.65176 25.9833C8.91255 26.3859 8.68567 26.7829 8.78123 27.2317C8.97975 28.1633 10.4002 28.7841 11.4785 28.5893C12.2128 28.4568 12.6684 28.1904 12.9717 27.9142C12.7486 27.683 12.6363 27.5677 12.4101 27.3384C12.1727 27.5795 11.7227 27.9007 11.0543 28.024C10.1363 28.1935 9.66594 27.7903 9.59011 27.4167C9.52106 27.077 9.69306 26.8187 10.3213 26.4525C10.5285 26.3322 10.632 26.2718 10.841 26.1528C11.5266 25.7718 11.6394 25.5893 11.5809 25.2478C11.5063 24.8144 11.4693 24.598 11.3953 24.1645C11.759 24.1023 12.0019 24.0616 12.2849 24.0166C12.3632 24.0042 12.4384 23.9919 12.5118 23.9802C12.5901 23.9679 12.6727 23.9555 12.7633 23.9414C12.7633 23.9414 12.7633 23.9414 12.7633 23.9407C13.6937 23.7952 14.2973 23.7139 15.3583 23.5862C15.444 24.2977 15.4865 24.6534 15.5722 25.3655C15.6764 26.2336 15.3232 26.8063 14.6376 26.8988C14.1135 26.9697 13.7381 26.6053 13.677 26.1855C13.6006 25.6627 13.9927 25.3162 14.5087 25.2472C14.6376 25.2299 14.8176 25.241 14.9409 25.2515C14.952 25.2219 14.9576 25.2077 14.9686 25.1781C14.767 24.9488 14.6653 24.8347 14.4606 24.6072C14.3275 24.5986 14.2609 24.5986 14.1302 24.6171C13.3675 24.7219 12.8571 25.2317 12.9767 26.0018C13.0402 26.4124 13.3398 26.7866 13.6548 27.0462C14.0414 27.3649 14.5155 27.5517 14.9452 27.495C15.3928 27.4358 15.6974 27.1725 15.8318 26.921C15.8638 27.2663 15.8725 27.7182 15.9199 28.1923C16.0722 28.2613 16.1481 28.2959 16.2997 28.3655C16.4113 28.4327 16.4674 28.4666 16.5784 28.5345C16.6314 28.5283 16.6579 28.5258 16.7109 28.5197C16.624 27.728 16.5802 27.3322 16.4933 26.54C16.4008 25.6966 16.7633 25.0887 17.4662 25.0215C17.7066 24.9987 17.8984 25.0597 18.0673 25.1843C17.8712 25.384 17.7991 25.6078 17.8219 25.8581C17.9088 26.8063 19.2405 27.5912 20.3312 27.5252C21.0735 27.4802 21.5556 27.27 21.8885 27.0314C21.6949 26.7755 21.5969 26.6479 21.4002 26.3933C21.137 26.6047 20.6536 26.8705 19.9779 26.9136C19.05 26.9734 18.6314 26.5172 18.6006 26.1374C18.5722 25.7922 18.7726 25.556 19.4372 25.2663C19.6561 25.1713 19.7664 25.1238 19.9865 25.0301C20.7097 24.733 20.8423 24.5647 20.8244 24.2188C20.8016 23.7798 20.7905 23.5603 20.7677 23.1208C21.1351 23.1017 21.3805 23.0906 21.6666 23.0788C21.7516 23.0751 21.8299 23.0721 21.9045 23.0696C21.981 23.0671 22.0611 23.064 22.1493 23.061C22.4797 23.0492 22.7529 23.0418 23.1715 23.0332C23.1863 23.7151 23.1931 24.056 23.2079 24.7385C23.2116 24.9031 23.0932 25.0092 22.8626 25.0153C22.7153 25.019 22.5482 24.9894 22.3984 24.942C22.2695 25.0844 22.2054 25.1559 22.0778 25.2996C22.1968 25.5289 22.4754 25.9845 23.1887 26.8174C23.6407 27.3446 23.8626 27.6097 24.2991 28.143C24.497 28.0307 24.5957 27.9746 24.7948 27.8637C23.8688 26.9469 23.1912 26.1331 23.1881 25.9857C23.1863 25.9081 23.2313 25.8809 23.2948 25.8452C23.8441 25.4531 24.0278 25.2188 24.0229 24.7601C24.0155 24.064 24.0118 23.7163 24.0038 23.0203C24.5229 23.0147 24.7818 23.0141 25.301 23.0166C25.301 22.9783 25.301 22.9592 25.301 22.921C25.2257 22.8409 25.1875 22.8008 25.1123 22.7213C24.9989 22.5721 24.9415 22.4975 24.8269 22.3489L24.8287 22.3501ZM19.3466 24.5104C19.1394 24.5943 19.0365 24.6368 18.8299 24.7225C18.6672 24.7872 18.5322 24.8501 18.4175 24.9204C18.0809 24.5659 17.6937 24.3476 17.1721 24.3988C16.706 24.4444 16.4144 24.712 16.2812 24.9444C16.2929 24.7952 16.2744 24.2829 16.1992 23.5949C16.1949 23.5536 16.1924 23.5332 16.1881 23.4919C17.6813 23.3285 18.4292 23.2644 19.9273 23.1713C19.9483 23.5098 19.9588 23.6793 19.9797 24.0178C19.9921 24.2163 19.9378 24.2693 19.3472 24.511L19.3466 24.5104Z" fill="#722875"/>
<path d="M41.9628 24.1849C41.6755 24.1226 41.387 24.0622 41.0991 24.003C40.8827 23.646 40.7205 23.2009 40.7982 22.8106C40.8691 22.4543 41.1626 22.3359 41.4406 22.3926C41.7476 22.4561 41.9455 22.7021 41.8882 23.159C42.0374 23.1485 42.112 23.1429 42.2618 23.1331C42.4628 22.4857 42.133 21.8711 41.4264 21.7268C40.8654 21.6121 40.3241 21.8711 40.2137 22.4494C40.1225 22.9265 40.3278 23.4438 40.6027 23.9019C37.9455 23.3723 35.2612 22.9771 32.5639 22.7182C32.5639 22.7182 32.5639 22.7182 32.5639 22.7175C30.3031 22.5005 29.1693 22.4321 26.9011 22.3754C26.8999 22.4136 26.8999 22.4327 26.8987 22.4703C26.9733 22.5517 27.0097 22.5924 27.0836 22.6744C27.194 22.8267 27.2483 22.9025 27.3574 23.0548C28.7618 23.0986 29.464 23.1355 30.8666 23.241C30.8105 23.987 30.7822 24.36 30.7261 25.106C30.6638 25.9346 30.0263 26.4068 29.3185 26.3655C28.6286 26.3254 28.3148 25.8199 28.3339 25.3877C28.3592 24.8254 28.8463 24.5517 29.4221 24.585C29.6268 24.5967 29.8561 24.6547 30.0553 24.7373C30.0793 24.7114 30.0917 24.6978 30.1157 24.6719C29.9813 24.4025 29.9129 24.2681 29.7754 23.9993C29.6015 23.9191 29.3697 23.8704 29.1632 23.8593C28.3759 23.8168 27.7113 24.2792 27.6841 25.032C27.6675 25.482 27.9394 25.9598 28.2291 26.3014C28.5756 26.7095 28.9838 26.987 29.4881 27.0172C30.1268 27.056 30.4825 26.7632 30.665 26.5252C30.612 27.2243 30.5109 27.8507 30.5109 27.8507C30.6539 27.9518 30.7248 28.0024 30.8672 28.1041C30.9708 28.196 31.022 28.2416 31.1249 28.3335C31.178 28.3378 31.2045 28.3402 31.2575 28.3445C31.4301 26.3298 31.5171 25.3217 31.6897 23.3069C32.0997 23.3421 32.3463 23.3643 32.6903 23.3988C32.7785 23.4068 32.8672 23.4167 32.956 23.4253C32.9622 23.4253 32.9677 23.4265 32.9733 23.4272C35.4061 23.6639 37.8648 24.0289 40.2575 24.5116C40.1958 24.8242 40.1656 24.9808 40.104 25.2934C39.9116 25.2465 39.3586 25.0782 38.8025 24.9789C38.1903 24.8692 37.763 25.0283 37.575 25.3661C37.3537 25.2157 37.0645 25.064 36.6854 25.0061C36.2039 24.9327 35.7464 25.0881 35.4899 25.4543C35.2593 25.1522 34.8346 24.7977 34.268 24.7299C33.5164 24.6392 32.927 25.0677 32.8549 25.765C32.7717 26.5659 33.3315 27.5048 34.4375 28.5375C34.5898 28.442 34.6663 28.3939 34.8198 28.2995C34.0349 27.5572 33.5429 26.7983 33.6225 26.1016C33.6804 25.5942 34.0812 25.3519 34.5232 25.4068C34.845 25.4469 35.0793 25.5918 35.2618 25.826C35.2322 25.9093 35.2076 26.0196 35.1952 26.114C35.1687 26.3113 35.1817 26.6275 35.2359 26.8359C35.5331 26.9814 35.6804 27.0548 35.9751 27.2027C35.919 26.897 35.9129 26.6164 35.9443 26.4019C36.0275 25.8279 36.4067 25.5406 36.9394 25.6238C37.1508 25.6571 37.329 25.7206 37.4671 25.7958C37.456 26.4956 38.0411 27.2693 38.5849 27.4913C38.5849 27.4913 39.5836 27.3261 39.9881 27.4068C40.1946 27.4481 40.3037 27.6035 40.2581 27.8242C40.1693 28.2564 39.6798 28.6195 38.7495 28.4463C38.0053 28.3076 37.4418 27.81 37.149 27.4025C36.9986 27.511 36.9233 27.5659 36.7741 27.6756C37.1496 28.1997 37.8111 28.9463 38.8907 29.1516C39.8827 29.3402 40.6188 28.9346 40.763 28.2576C40.8173 28.0036 40.8031 27.6799 40.6515 27.323C40.4955 26.9543 40.2723 26.7847 39.9005 26.7114C39.6009 26.6522 38.7988 26.7212 38.4751 26.7515C38.2125 26.7046 37.9893 26.429 38.046 26.0961C38.1058 25.7465 38.4221 25.6146 38.9184 25.7052C39.4659 25.8051 39.739 25.8575 40.2852 25.9666C40.6884 26.0474 40.8007 25.966 40.8346 25.8045C40.9283 25.3538 40.9745 25.1281 41.0682 24.6769C41.5565 24.778 41.8007 24.8304 42.2877 24.9395C42.2957 24.9025 42.3 24.8834 42.3087 24.8464C42.2513 24.7521 42.223 24.7046 42.1656 24.6109C42.0855 24.4407 42.0454 24.3556 41.9646 24.1855L41.9628 24.1849Z" fill="#722875"/>
<path d="M29.9246 17.8662C29.4166 17.8662 28.9387 17.6683 28.5793 17.3089C28.2199 16.9495 28.022 16.4717 28.022 15.9637C28.022 15.4556 28.2199 14.9778 28.5793 14.6184C28.9387 14.259 29.4166 14.0611 29.9246 14.0611C30.4326 14.0611 30.9104 14.259 31.2698 14.6184C31.6293 14.9778 31.8272 15.4556 31.8272 15.9637C31.8272 16.4717 31.6293 16.9495 31.2698 17.3089C30.9104 17.6683 30.4326 17.8662 29.9246 17.8662ZM29.9246 14.3046C29.4813 14.3046 29.0645 14.4772 28.7513 14.7904C28.4381 15.1036 28.2655 15.5204 28.2655 15.9637C28.2655 16.4069 28.4381 16.8237 28.7513 17.1369C29.0645 17.4501 29.4813 17.6227 29.9246 17.6227C30.3678 17.6227 30.7846 17.4501 31.0978 17.1369C31.411 16.8237 31.5836 16.4069 31.5836 15.9637C31.5836 15.5204 31.411 15.1042 31.0978 14.7904C30.7846 14.4772 30.3678 14.3046 29.9246 14.3046ZM20.9085 17.8662C20.141 17.8662 19.4196 17.5672 18.8765 17.0247C18.3339 16.4821 18.0349 15.7602 18.0349 14.9926C18.0349 14.2251 18.3339 13.5037 18.8765 12.9606C19.419 12.418 20.141 12.119 20.9085 12.119C21.6761 12.119 22.3974 12.418 22.9406 12.9606C23.4838 13.5031 23.7822 14.2251 23.7822 14.9926C23.7822 15.7602 23.4831 16.4815 22.9406 17.0247C22.3981 17.5672 21.6761 17.8662 20.9085 17.8662ZM19.0491 13.1332C18.5522 13.6301 18.2791 14.2904 18.2791 14.9926C18.2791 15.6948 18.5528 16.3558 19.0491 16.8521C19.546 17.349 20.2063 17.6221 20.9085 17.6221C21.6108 17.6221 22.2717 17.3484 22.768 16.8521C23.2649 16.3551 23.538 15.6948 23.538 14.9926C23.538 14.2904 23.2643 13.6295 22.768 13.1332C22.2711 12.6363 21.6108 12.3632 20.9085 12.3632C20.2063 12.3632 19.5454 12.6369 19.0491 13.1332ZM29.9085 17.2158C29.5571 17.2158 29.2267 17.0789 28.9776 16.8305C28.7291 16.582 28.5923 16.2516 28.5923 15.8995C28.5923 15.5475 28.7291 15.2177 28.9776 14.9686C29.226 14.7201 29.5571 14.5833 29.9085 14.5833C30.26 14.5833 30.5904 14.7201 30.8395 14.9686C31.0879 15.217 31.2248 15.5481 31.2248 15.8995C31.2248 16.251 31.0879 16.5814 30.8395 16.8305C30.591 17.0789 30.2606 17.2158 29.9085 17.2158ZM29.9085 14.8268C29.6219 14.8268 29.3524 14.9384 29.1496 15.1412C28.9468 15.344 28.8352 15.6135 28.8352 15.9002C28.8352 16.1868 28.9468 16.4563 29.1496 16.6591C29.3524 16.8619 29.6219 16.9735 29.9085 16.9735C30.1952 16.9735 30.4646 16.8619 30.6675 16.6591C30.8703 16.4563 30.9819 16.1868 30.9819 15.9002C30.9819 15.6135 30.8703 15.344 30.6675 15.1412C30.4646 14.9384 30.1952 14.8268 29.9085 14.8268ZM20.9135 16.7842C20.4159 16.7842 19.9486 16.5907 19.5972 16.2392C19.2458 15.8878 19.0522 15.4199 19.0522 14.923C19.0522 14.426 19.2458 13.9581 19.5972 13.6067C19.9486 13.2553 20.4166 13.0617 20.9135 13.0617C21.4104 13.0617 21.8783 13.2553 22.2297 13.6067C22.5812 13.9581 22.7748 14.426 22.7748 14.923C22.7748 15.4199 22.5812 15.8878 22.2297 16.2392C21.8783 16.5907 21.4104 16.7842 20.9135 16.7842ZM19.7692 13.7787C19.4634 14.0845 19.2951 14.4908 19.2951 14.923C19.2951 15.3551 19.4634 15.7614 19.7692 16.0672C20.075 16.373 20.4813 16.5413 20.9135 16.5413C21.3457 16.5413 21.7519 16.373 22.0577 16.0672C22.3635 15.7614 22.5318 15.3551 22.5318 14.923C22.5318 14.4908 22.3635 14.0845 22.0577 13.7787C21.7519 13.4729 21.3457 13.3046 20.9135 13.3046C20.4813 13.3046 20.075 13.4729 19.7692 13.7787ZM23.9215 16.5H23.6027C23.5596 16.5 23.5201 16.4772 23.4979 16.4408C23.4757 16.4039 23.4751 16.3582 23.4955 16.3206C23.5059 16.3009 23.5164 16.2812 23.5269 16.2614C23.5392 16.2374 23.5491 16.2177 23.5584 16.1979C23.5701 16.1733 23.5793 16.1535 23.5886 16.1338C23.6003 16.1085 23.6089 16.0882 23.6175 16.0678C23.628 16.0432 23.6367 16.0222 23.6447 16.0006C23.6533 15.9778 23.6613 15.9581 23.6687 15.9378C23.7248 15.7849 23.7692 15.6258 23.7988 15.4643C23.7988 15.463 23.7988 15.4624 23.7988 15.4612C23.8124 15.3866 23.8235 15.3114 23.8315 15.2368L23.8333 15.2207C23.8333 15.2183 23.8333 15.2152 23.8333 15.2146C23.8333 15.2133 23.8339 15.2078 23.8339 15.2066V15.2041V15.1973V15.1893C23.8339 15.1893 23.8352 15.1831 23.8352 15.1819L23.8413 15.0993V15.0907V15.0839H23.9634L23.842 15.0765C23.842 15.0765 23.842 15.0678 23.842 15.0666H23.964L23.8426 15.0604V15.053C23.8426 15.053 23.8426 15.0512 23.8426 15.05C23.8426 15.0475 23.8426 15.0457 23.8426 15.0438L23.8438 15.0006C23.8438 15.0006 23.8438 14.9988 23.8438 14.9969C23.8438 14.9951 23.8438 14.9932 23.8438 14.992V14.9778L23.9659 14.9729L23.8444 14.9667V14.9593L23.9659 14.9569L23.8444 14.9526V14.9458C23.8444 14.9458 23.8444 14.9402 23.8444 14.9384V14.9248L23.9659 14.918H23.8444V14.8891C23.8444 14.8891 23.8444 14.8829 23.8444 14.8804V14.8662C23.8444 14.8662 23.8444 14.8638 23.8444 14.8619C23.8444 14.8595 23.8444 14.857 23.8444 14.8551C23.8444 14.8539 23.8444 14.8477 23.8444 14.8465V14.8225C23.8444 14.8225 23.8432 14.8157 23.8432 14.8145C23.8432 14.8138 23.8432 14.8126 23.8432 14.8108C23.8432 14.8083 23.8432 14.8046 23.8432 14.804C23.8432 14.804 23.8432 14.8027 23.8432 14.8021C23.8432 14.8003 23.8432 14.799 23.8432 14.7972C23.8432 14.7972 23.8432 14.7935 23.8432 14.7923C23.8432 14.7916 23.8432 14.7904 23.8432 14.7898C23.8432 14.7873 23.8432 14.7849 23.8432 14.783C23.837 14.6474 23.8204 14.5093 23.7951 14.3749C23.7951 14.373 23.7945 14.3706 23.7939 14.3687L23.7871 14.3336L23.7859 14.3274C23.7815 14.3064 23.7766 14.2842 23.7717 14.2621L23.7698 14.2553C23.7649 14.2343 23.76 14.2133 23.7544 14.1924L23.7526 14.1844C23.747 14.164 23.7415 14.1431 23.7359 14.1227L23.7334 14.1147C23.7279 14.0944 23.7217 14.0734 23.7149 14.053L23.7119 14.0438C23.7057 14.0247 23.6995 14.005 23.6928 13.9858L23.6891 13.9754C23.6829 13.9569 23.6761 13.9378 23.6693 13.9193L23.665 13.9069C23.6582 13.8891 23.6515 13.8706 23.6441 13.8521L23.6385 13.8385C23.6317 13.8212 23.6243 13.804 23.6175 13.7867L23.612 13.7738C23.6046 13.7571 23.5972 13.7399 23.5898 13.7232L23.5824 13.7059C23.575 13.6899 23.5676 13.6739 23.5596 13.6572L23.5516 13.6412C23.5442 13.6264 23.5368 13.6104 23.5288 13.595C23.3494 13.2417 23.104 12.9328 22.8 12.6764C22.7994 12.6764 22.7988 12.6751 22.7982 12.6745C22.7828 12.6616 22.7674 12.6486 22.7513 12.6357C22.7328 12.6209 22.7168 12.6085 22.7008 12.5956C22.6607 12.5648 22.62 12.5352 22.5781 12.5062L22.5725 12.5025C22.5577 12.492 22.5423 12.4821 22.5275 12.4723L22.5158 12.4649C22.5016 12.4556 22.4868 12.4464 22.472 12.4365L22.4597 12.4291C22.4431 12.4193 22.4264 12.4088 22.4098 12.3983L22.3876 12.3854C22.3752 12.378 22.3623 12.3706 22.3494 12.3632L22.3278 12.3514C22.3148 12.3447 22.3013 12.3373 22.2877 12.3299L22.1687 12.2701C22.1564 12.2639 22.1441 12.2584 22.1317 12.2528L22.1058 12.2411C22.0929 12.2355 22.0799 12.23 22.067 12.2244L22.0368 12.2115C22.0244 12.2066 22.0121 12.201 21.9992 12.1961L21.972 12.185C21.9572 12.1794 21.9431 12.1739 21.9283 12.1683L21.9122 12.1628C21.8919 12.1554 21.8765 12.1498 21.8611 12.1449L21.8426 12.1387C21.8259 12.1332 21.8093 12.1276 21.792 12.1221L21.7723 12.1159C21.7544 12.1104 21.7359 12.1048 21.7174 12.0999L21.7045 12.0962C21.686 12.0913 21.6675 12.0863 21.6496 12.0814L21.6354 12.0777C21.6175 12.0728 21.599 12.0685 21.5805 12.0641L21.5664 12.0611C21.5466 12.0567 21.5263 12.0524 21.5059 12.0481L21.4967 12.0463C21.4757 12.042 21.4542 12.0376 21.432 12.0339L21.4221 12.0321C21.4024 12.0284 21.3814 12.0253 21.3611 12.0222L21.3506 12.0204C21.3296 12.0173 21.3087 12.0142 21.2871 12.0117L21.2785 12.0105C21.2563 12.0074 21.2334 12.005 21.21 12.0025C21.1841 12 21.1601 11.9976 21.1367 11.9957H21.1299C21.1071 11.9939 21.0849 11.992 21.0627 11.9908H21.054C21.0325 11.9895 21.0096 11.9883 20.9868 11.9877H20.9794C20.9344 11.9865 20.8863 11.9865 20.8395 11.9877H20.8204C20.8013 11.9889 20.7834 11.9895 20.7649 11.9902H20.7526C20.7297 11.992 20.7082 11.9932 20.6866 11.9951L20.6681 11.9963C20.6514 11.9976 20.6342 11.9994 20.6169 12.0006L20.5997 12.0025C20.5781 12.005 20.5559 12.0074 20.5343 12.0099L20.5251 12.0111C20.5059 12.0136 20.4868 12.0161 20.4683 12.0191L20.4498 12.0222C20.4301 12.0253 20.411 12.0284 20.3913 12.0321L20.3839 12.0333C20.3642 12.037 20.3426 12.0413 20.321 12.0457L20.305 12.0494C20.2871 12.053 20.2704 12.0567 20.2532 12.0604L20.2427 12.0629C20.218 12.0685 20.1971 12.0734 20.1767 12.0789L20.1625 12.0826C20.1465 12.087 20.1293 12.0913 20.1126 12.0962L20.0953 12.1011C20.0756 12.1067 20.0553 12.1129 20.0349 12.119L20.0288 12.1209C20.0103 12.127 19.9918 12.1326 19.9733 12.1387L19.956 12.1449C19.9394 12.1505 19.9221 12.1566 19.9048 12.1628C19.9048 12.1628 19.8987 12.1646 19.8981 12.1653C19.8752 12.1739 19.8555 12.1813 19.8358 12.1887L19.8253 12.193L19.8191 12.1955C19.8037 12.2016 19.7883 12.2078 19.7729 12.214L19.7581 12.2201C19.739 12.2281 19.7199 12.2362 19.7008 12.2448L19.6934 12.2479C19.673 12.2571 19.6576 12.2645 19.6422 12.2719L19.6243 12.2805C19.6064 12.2892 19.5879 12.2984 19.5695 12.3077C19.5491 12.3182 19.5312 12.3274 19.5133 12.3373L19.4961 12.3465C19.4813 12.3545 19.4665 12.3632 19.4517 12.3712L19.4406 12.3773C19.4233 12.3872 19.4055 12.3977 19.3882 12.4088L19.374 12.4174C19.3592 12.4267 19.3457 12.4353 19.3321 12.4439L19.3173 12.4532C19.3 12.4643 19.2834 12.4754 19.2661 12.4865L19.255 12.4939C19.2415 12.5031 19.2279 12.5124 19.2137 12.5222L19.1971 12.5339C19.1829 12.5438 19.1687 12.5543 19.1545 12.5648L19.1496 12.5685C19.1311 12.5826 19.1151 12.595 19.099 12.6073L19.0836 12.619C19.0713 12.6289 19.059 12.6387 19.0466 12.6486L19.0331 12.6597C19.0177 12.6727 19.0023 12.6856 18.9868 12.6985L18.9745 12.709C18.9622 12.7195 18.9505 12.73 18.9387 12.7405L18.9246 12.7534C18.9092 12.7676 18.8944 12.7812 18.8796 12.7953L18.8728 12.8021C18.8605 12.8145 18.8475 12.8268 18.8352 12.8391L18.8204 12.8539C18.8093 12.865 18.7976 12.8773 18.7859 12.8891L18.7815 12.894C18.7815 12.894 18.7772 12.8983 18.7772 12.8989C18.763 12.9137 18.7495 12.9285 18.7359 12.9433L18.7242 12.9569C18.7131 12.9692 18.7026 12.9809 18.6928 12.992L18.6804 13.0056C18.6669 13.021 18.6545 13.0364 18.6416 13.0518L18.633 13.0629C18.6212 13.0771 18.612 13.0888 18.6021 13.1011L18.5892 13.1178C18.5781 13.132 18.567 13.1468 18.5559 13.1609L18.5473 13.1727C18.5368 13.1868 18.5263 13.201 18.5158 13.2158L18.5029 13.2337C18.4949 13.2454 18.4856 13.2584 18.477 13.2713L18.4671 13.2861C18.4566 13.3021 18.4455 13.3188 18.4344 13.3354L18.424 13.3514C18.4159 13.3644 18.4079 13.3767 18.3999 13.3897L18.3894 13.4069C18.3789 13.4242 18.3685 13.4415 18.3586 13.4587L18.3512 13.4723C18.3438 13.4852 18.3358 13.4994 18.3284 13.5136L18.3179 13.5327C18.3099 13.5475 18.3025 13.5617 18.2945 13.5765L18.2908 13.5839C18.2791 13.6098 18.2575 13.6313 18.231 13.6437C18.1977 13.6591 18.1588 13.6585 18.1262 13.6424L17.8715 13.5167C17.8426 13.5025 17.8204 13.4766 17.8099 13.4458C17.7994 13.4149 17.8025 13.381 17.8173 13.3521C17.9825 13.0278 18.1971 12.7325 18.4554 12.4741C19.1095 11.82 19.9788 11.46 20.9042 11.46C21.1638 11.46 21.4215 11.4889 21.673 11.5457L21.4634 10.4217C21.4566 10.386 21.4665 10.3496 21.4893 10.3219C21.5127 10.2941 21.5466 10.2781 21.583 10.2781H21.9264C22.1755 10.2781 22.4061 10.4674 22.4517 10.7096L22.6835 11.9519C22.829 12.0395 22.969 12.1381 23.1003 12.2454H24.03C24.3025 12.2454 24.5244 12.4674 24.5244 12.7399V13.1129C24.5244 13.1801 24.4702 13.2343 24.403 13.2343H23.9289C24.104 13.5463 24.2279 13.881 24.2988 14.2312H25.9862L25.3524 12.5302C25.3383 12.492 25.3438 12.4495 25.3678 12.4162L25.5787 12.1258L25.0448 11.7405L24.7748 12.1141C24.7002 12.217 24.5559 12.2405 24.4529 12.1659C24.35 12.0913 24.3265 11.947 24.4011 11.844L24.6712 11.4704C24.6459 11.4513 24.6286 11.4236 24.6237 11.3921C24.6188 11.3601 24.6262 11.3274 24.6453 11.3015L24.7538 11.1511C24.7729 11.1252 24.8013 11.1073 24.8333 11.1024C24.8648 11.0974 24.8962 11.1048 24.9221 11.1227L25.141 10.8194C25.2156 10.7164 25.3598 10.693 25.4628 10.7676C25.5658 10.8422 25.5892 10.9865 25.5146 11.0894L25.2957 11.3928L25.8296 11.7787L25.8376 11.7676C25.9258 11.6455 26.0658 11.6455 26.112 11.6455H28.0633V11.632C27.9572 11.5783 27.8863 11.468 27.8863 11.3434V10.5358C27.8863 10.4112 27.9579 10.3009 28.0633 10.2473V9.75095C28.0633 9.75095 28.0633 9.74725 28.0633 9.74541C28.0485 9.73739 28.0152 9.72383 27.9474 9.71273C27.8814 9.70225 27.8358 9.63998 27.8463 9.57339L27.9079 9.1856C27.9129 9.15354 27.9307 9.12518 27.9566 9.10607C27.9825 9.08696 28.0152 9.07956 28.0473 9.08449C28.2458 9.11655 28.403 9.18622 28.514 9.29288C28.6367 9.41002 28.6989 9.55983 28.6995 9.73739C28.6995 9.74171 28.7002 9.74602 28.7002 9.75034V10.2374C28.8161 10.2867 28.8974 10.4026 28.8974 10.5352V11.3428C28.8974 11.4754 28.8154 11.5907 28.7002 11.6406V11.6449H29.5053C29.829 11.6449 30.1428 11.7799 30.3666 12.0154C30.5768 12.2368 30.6841 12.521 30.6693 12.8151L30.636 13.4575C31.0466 13.5759 31.4215 13.7972 31.726 14.1018C31.7402 14.1159 31.7544 14.1301 31.768 14.1449C31.7902 14.1683 31.8025 14.1998 31.8019 14.2318C31.8013 14.2639 31.7877 14.2947 31.7643 14.3169L31.5947 14.4785C31.546 14.5247 31.469 14.5228 31.4227 14.4741C31.03 14.0623 30.5004 13.836 29.932 13.836C28.7957 13.836 27.8715 14.7602 27.8715 15.8965C27.8715 16.0364 27.8857 16.1764 27.9135 16.312C27.9209 16.3477 27.9116 16.3847 27.8888 16.4131C27.8654 16.4415 27.8309 16.4581 27.7945 16.4581H27.5559C27.4973 16.4581 27.4468 16.4162 27.4363 16.3582C27.4209 16.2731 27.4092 16.1875 27.4024 16.1011H24.1619C24.1212 16.2133 24.0744 16.3237 24.0226 16.431C24.0022 16.4729 23.9597 16.4994 23.9129 16.4994L23.9215 16.5ZM23.7994 16.2571H23.8438C23.8907 16.1542 23.932 16.0487 23.9677 15.9421C23.9844 15.8921 24.0306 15.8588 24.083 15.8588H27.5251C27.575 15.8588 27.6175 15.8884 27.6367 15.9316C27.6367 15.9205 27.6367 15.9088 27.6367 15.8977C27.6367 14.6276 28.6699 13.5937 29.9406 13.5937C30.1132 13.5937 30.2828 13.6122 30.4468 13.6486C30.4147 13.6252 30.395 13.5863 30.3974 13.5444L30.4357 12.804C30.4474 12.5771 30.3635 12.357 30.1995 12.1844C30.0214 11.9969 29.7723 11.8897 29.5152 11.8897H28.5886C28.5214 11.8897 28.4671 11.8354 28.4671 11.7682V11.5463C28.4671 11.4803 28.5201 11.426 28.5861 11.4248C28.6293 11.4236 28.6644 11.3878 28.6644 11.3447V10.537C28.6644 10.4939 28.6293 10.4575 28.5861 10.4569C28.5201 10.4556 28.4671 10.4014 28.4671 10.3354V9.76575C28.4671 9.76082 28.4665 9.75589 28.4665 9.75095C28.4683 9.63505 28.432 9.5438 28.3561 9.47105C28.3031 9.41988 28.2297 9.38104 28.1385 9.35391L28.1151 9.50188C28.1736 9.52099 28.2187 9.54565 28.2519 9.57833C28.2828 9.60792 28.3191 9.66217 28.3173 9.75219C28.3173 9.75589 28.3173 9.75958 28.3167 9.76328V10.3373C28.3167 10.3989 28.2711 10.4507 28.21 10.4581C28.1706 10.463 28.1397 10.4982 28.1397 10.5376V11.3453C28.1397 11.3847 28.1706 11.4199 28.21 11.4248C28.2711 11.4322 28.3167 11.484 28.3167 11.5457V11.7688C28.3167 11.836 28.2624 11.8903 28.1952 11.8903H26.1225C26.0608 11.8903 26.051 11.9039 26.0454 11.9119L25.9659 12.0216C25.9443 12.0518 25.911 12.0691 25.8771 12.0715C25.8777 12.0746 25.8783 12.0777 25.8789 12.0808C25.8839 12.1129 25.8765 12.1455 25.8574 12.1714L25.6132 12.5074L26.2852 14.3114C26.2994 14.349 26.2939 14.3903 26.2711 14.423C26.2482 14.4556 26.2113 14.4754 26.1712 14.4754H24.2076C24.1484 14.4754 24.0978 14.4328 24.0879 14.3743C24.0183 13.9704 23.874 13.5882 23.6588 13.238C23.6391 13.2059 23.6354 13.1671 23.6484 13.132L23.6712 13.0709C23.6891 13.0228 23.7341 12.9914 23.7852 12.9914H24.292V12.7399C24.292 12.6011 24.1792 12.4883 24.0405 12.4883H23.067C23.038 12.4883 23.0103 12.4785 22.9887 12.46C22.8438 12.3379 22.6878 12.2281 22.5238 12.1338C22.493 12.1159 22.4714 12.0857 22.4653 12.0506L22.2236 10.754C22.2002 10.6283 22.0688 10.5216 21.9375 10.5216H21.7402L21.9579 11.6887C21.9659 11.73 21.9511 11.7725 21.9203 11.8009C21.8888 11.8293 21.845 11.8391 21.805 11.828C21.517 11.7454 21.2174 11.7035 20.9153 11.7035C20.0553 11.7035 19.247 12.0383 18.6385 12.6468C18.4277 12.8576 18.2476 13.0956 18.1027 13.3545L18.1391 13.3724C18.1428 13.3656 18.1465 13.3588 18.1508 13.3521L18.1588 13.3379C18.1699 13.3188 18.181 13.3003 18.1921 13.2818L18.2039 13.2627C18.2119 13.2497 18.2205 13.2362 18.2291 13.2226L18.2402 13.2053C18.2526 13.1862 18.2643 13.1683 18.276 13.1505L18.2859 13.1363C18.2957 13.1221 18.305 13.1085 18.3142 13.095L18.3278 13.0759C18.3395 13.0598 18.3506 13.0438 18.3623 13.0284L18.3715 13.0161C18.3833 13 18.3956 12.9846 18.4073 12.9692L18.4178 12.9556C18.4314 12.9384 18.4418 12.9254 18.4523 12.9125L18.464 12.8983C18.4776 12.8817 18.4918 12.865 18.5059 12.849L18.5189 12.8342C18.53 12.8212 18.5411 12.8089 18.5522 12.7966L18.5664 12.7812C18.5805 12.7651 18.596 12.7491 18.6108 12.7337L18.6169 12.7275C18.633 12.7109 18.6453 12.6979 18.6582 12.6856L18.6736 12.6702C18.6872 12.6566 18.7008 12.6437 18.7143 12.6307L18.7217 12.6233C18.7384 12.6073 18.7544 12.5925 18.7711 12.5777L18.7865 12.5641C18.7994 12.5524 18.8117 12.5413 18.8247 12.5302L18.8383 12.5179C18.8549 12.5037 18.8715 12.4895 18.8882 12.4754L18.9024 12.4637C18.9153 12.4526 18.9289 12.4421 18.9424 12.4316L18.9585 12.4186C18.9764 12.4051 18.9936 12.3915 19.0109 12.3786L19.0189 12.3724C19.0343 12.3607 19.0497 12.3496 19.0658 12.3385L19.083 12.3262C19.0978 12.3157 19.1132 12.3052 19.128 12.2947L19.1391 12.2867C19.1576 12.2738 19.1761 12.2621 19.1952 12.2497L19.2106 12.2399C19.226 12.23 19.2408 12.2214 19.2556 12.2121L19.2723 12.2022C19.2908 12.1911 19.3105 12.1794 19.3296 12.1683L19.3413 12.1616C19.3574 12.1523 19.3734 12.1437 19.3894 12.1344L19.4079 12.1246C19.4277 12.1141 19.4468 12.1036 19.4665 12.0937C19.4893 12.082 19.509 12.0722 19.5288 12.0629L19.5466 12.0543C19.5633 12.0463 19.5799 12.0383 19.5966 12.0309L19.6101 12.0247C19.6299 12.0154 19.6508 12.0068 19.6718 11.9976L19.6872 11.9908C19.7039 11.984 19.7205 11.9772 19.7371 11.9704L19.755 11.963C19.776 11.955 19.7969 11.947 19.8185 11.939C19.8191 11.939 19.8247 11.9365 19.8253 11.9365C19.8475 11.9285 19.866 11.9217 19.8851 11.9156L19.903 11.9094C19.9233 11.9026 19.9431 11.8965 19.9628 11.8897L19.9696 11.8878C19.9924 11.881 20.0146 11.8743 20.0368 11.8681L20.0547 11.8632C20.0731 11.8582 20.091 11.8533 20.1095 11.8484L20.1471 11.9643L20.1157 11.8465L20.1243 11.844C20.1465 11.8385 20.1693 11.833 20.1921 11.8274L20.2088 11.8237C20.2267 11.8194 20.2452 11.8157 20.2643 11.812L20.2809 11.8083C20.305 11.8034 20.3278 11.799 20.3512 11.7947L20.3592 11.7935C20.3789 11.7898 20.4005 11.7867 20.4221 11.783L20.4412 11.7799C20.4622 11.7768 20.4825 11.7738 20.5029 11.7713L20.5127 11.7701C20.5374 11.767 20.5608 11.7645 20.5849 11.7621L20.6027 11.7602C20.6219 11.7584 20.6404 11.7565 20.6588 11.7553L20.678 11.754C20.7014 11.7522 20.7254 11.751 20.7489 11.7497H20.7575C20.7828 11.7479 20.8025 11.7473 20.8222 11.7466H20.8426C20.8931 11.7448 20.9443 11.7448 20.9949 11.7466H21.0023C21.0263 11.7473 21.0503 11.7485 21.0744 11.7497H21.0836C21.1071 11.7516 21.1311 11.7528 21.1551 11.7547H21.1625C21.1891 11.7571 21.215 11.7596 21.2402 11.7621C21.2674 11.7645 21.2926 11.7676 21.3173 11.7707L21.3259 11.7719C21.3487 11.775 21.3715 11.7781 21.395 11.7818L21.4055 11.7836C21.4277 11.7873 21.4498 11.791 21.472 11.7947L21.4825 11.7966C21.5059 11.8009 21.5294 11.8052 21.5528 11.8101L21.5621 11.812C21.5836 11.8163 21.6058 11.8212 21.6274 11.8262L21.6422 11.8299C21.6619 11.8342 21.6823 11.8391 21.7026 11.8447L21.7174 11.8484C21.7378 11.8539 21.7575 11.8588 21.7772 11.8644L21.7908 11.8681C21.8117 11.8743 21.8315 11.8798 21.8512 11.886L21.8722 11.8921C21.8907 11.8983 21.9092 11.9039 21.927 11.91L21.9424 11.9149C21.9646 11.9223 21.9813 11.9285 21.9979 11.9347L22.0201 11.9427C22.0355 11.9482 22.0516 11.9544 22.0676 11.9606L22.0966 11.9723C22.1101 11.9778 22.1237 11.9834 22.1373 11.9889L22.1693 12.0025C22.1835 12.0087 22.1977 12.0148 22.2119 12.021L22.2402 12.0339C22.2538 12.0401 22.2674 12.0463 22.2803 12.0524L22.3457 12.0845C22.3592 12.0913 22.3728 12.0987 22.3863 12.1055L22.4079 12.1166C22.4233 12.1252 22.4381 12.1326 22.4523 12.1406L22.4745 12.1529C22.4887 12.1609 22.5023 12.169 22.5164 12.177L22.5405 12.1911C22.5584 12.2016 22.5768 12.2127 22.5947 12.2238L22.6077 12.2318C22.6243 12.2423 22.6397 12.2522 22.6558 12.2627L22.6675 12.2707C22.6841 12.2818 22.7002 12.2929 22.7168 12.304L22.7223 12.3083C22.768 12.3397 22.8124 12.3724 22.8549 12.4051C22.8722 12.4186 22.8894 12.4322 22.9067 12.4458C22.9258 12.4612 22.9418 12.4748 22.9585 12.4883C22.9591 12.4883 22.9597 12.4895 22.9603 12.4902C23.2902 12.7676 23.5565 13.103 23.7513 13.4865C23.76 13.5031 23.768 13.5198 23.7766 13.537L23.7846 13.5543C23.7932 13.5722 23.8013 13.59 23.8093 13.6079L23.8173 13.6258C23.8253 13.6443 23.8333 13.6628 23.8413 13.6813L23.8469 13.6949C23.8549 13.714 23.8629 13.7331 23.8703 13.7516L23.8759 13.7651C23.8839 13.7855 23.8913 13.8058 23.8987 13.8256L23.9036 13.8385C23.911 13.8588 23.9184 13.8792 23.9252 13.8995L23.9289 13.9106C23.9363 13.9316 23.9431 13.9526 23.9492 13.9741L23.9523 13.9834C23.9591 14.0056 23.9659 14.0284 23.9727 14.0518L23.9751 14.0598C23.9813 14.0814 23.9875 14.1042 23.993 14.1264L23.9949 14.1344C24.0004 14.1566 24.0059 14.1794 24.0115 14.2022L24.0133 14.2096C24.0189 14.2343 24.0238 14.2577 24.0294 14.2818C24.0294 14.2818 24.0306 14.2879 24.0306 14.2886C24.0337 14.3027 24.0368 14.3175 24.0392 14.3329C24.0392 14.3354 24.0399 14.3379 24.0405 14.3397C24.067 14.4834 24.0842 14.6295 24.091 14.7756C24.091 14.7762 24.091 14.7775 24.091 14.7787C24.091 14.7805 24.091 14.7818 24.091 14.783C24.091 14.7842 24.091 14.7855 24.091 14.7873C24.091 14.7886 24.091 14.7898 24.091 14.7904C24.091 14.7904 24.091 14.7923 24.091 14.7929C24.091 14.7935 24.091 14.7947 24.091 14.796C24.091 14.7978 24.091 14.799 24.091 14.7997C24.091 14.8009 24.091 14.8064 24.091 14.8077C24.091 14.8089 24.091 14.8138 24.091 14.8151C24.091 14.8163 24.091 14.8206 24.091 14.8219V14.8403C24.091 14.8403 24.0916 14.8471 24.0916 14.8484C24.0916 14.8496 24.0916 14.8558 24.0916 14.857C24.0916 14.8588 24.0916 14.8632 24.0916 14.8656V14.881C24.0916 14.881 24.0916 14.886 24.0916 14.8884V14.9236V14.9396L23.9702 14.9464H24.0916C24.0916 14.9464 24.0916 14.9519 24.0916 14.9538C24.0916 14.955 24.0916 14.9606 24.0916 14.9618C24.0916 14.963 24.0916 14.9674 24.0916 14.9686C24.0916 14.9704 24.0916 14.9784 24.0916 14.9803V14.9889V15.0037C24.0916 15.0037 24.0916 15.0111 24.0916 15.0117L24.0904 15.0586C24.0904 15.0586 24.0904 15.0586 24.0904 15.0598C24.0904 15.0611 24.0904 15.0629 24.0904 15.0641C24.0904 15.0654 24.0904 15.0666 24.0904 15.0678V15.0746L24.0898 15.0814C24.0898 15.0826 24.0898 15.0937 24.0892 15.095C24.0892 15.0962 24.0892 15.1005 24.0892 15.1018V15.1085C24.0892 15.1085 24.0886 15.1159 24.0886 15.1166L24.083 15.1918C24.083 15.1918 24.083 15.1985 24.0824 15.1992V15.2059C24.0824 15.2059 24.0812 15.2152 24.0812 15.2158C24.0812 15.217 24.0806 15.2251 24.0799 15.2263C24.0799 15.2269 24.0799 15.2275 24.0799 15.2281C24.0799 15.2281 24.0799 15.2349 24.0793 15.2355C24.0793 15.2368 24.0787 15.2423 24.0787 15.2436C24.0787 15.2454 24.0787 15.2473 24.0787 15.2491L24.0768 15.2645C24.0682 15.3459 24.0565 15.426 24.0417 15.5062C24.0417 15.5074 24.0417 15.5087 24.0417 15.5093C24.009 15.685 23.9616 15.8588 23.8999 16.0253C23.8919 16.0469 23.8839 16.0685 23.8752 16.09C23.8648 16.1159 23.8555 16.1387 23.8463 16.1609C23.8352 16.1875 23.8253 16.2096 23.8154 16.2312C23.8111 16.2411 23.8068 16.2503 23.8025 16.2596L23.7994 16.2571ZM24.9677 11.4143C24.9683 11.4174 24.969 11.4205 24.9696 11.4236C24.9714 11.4365 24.9714 11.4501 24.9696 11.463C24.9844 11.4556 25.0004 11.4507 25.0164 11.4495C25.0158 11.4464 25.0152 11.4433 25.0146 11.4402C25.0127 11.4273 25.0127 11.4137 25.0146 11.4008C25.0029 11.4069 24.9905 11.4112 24.9776 11.4131C24.9745 11.4131 24.9714 11.4137 24.9677 11.4143Z" fill="#722875"/>
<path d="M24.7953 44.7298C24.6535 44.7298 24.5123 44.7286 24.3711 44.7249L24.3687 44.7224C24.5117 44.7273 24.6523 44.7298 24.7953 44.7298Z" fill="#722875"/>
<path fill-rule="evenodd" clip-rule="evenodd" d="M34.8084 36.4672H36.1475C36.4515 36.4672 36.6999 36.7071 36.6999 36.9993V38.2188H34.6981C34.5131 38.2188 34.3614 38.0727 34.3614 37.8945V37.4709C34.3614 37.3051 34.502 37.1695 34.6746 37.1695H35.785L35.6672 37.4161H34.8504C34.814 37.4161 34.7751 37.4426 34.7751 37.4808V37.8137C34.7751 37.8519 34.814 37.8785 34.8504 37.8785H36.2677V37.0788C36.2677 36.9241 36.1296 36.8057 35.9761 36.8057H34.6469L34.809 36.466L34.8084 36.4672ZM26.793 36.085V35.8254H26.3602V36.331L26.793 36.085ZM26.3602 36.5776L26.793 36.3316V38.2188H26.3602V36.5776ZM28.973 36.4672C29.277 36.4672 29.5254 36.7071 29.5254 36.9993V38.2188H29.0926V37.0801C29.0926 36.9253 28.9545 36.8069 28.801 36.8069H27.7622V38.2188H27.3294V36.4679C27.8756 36.4679 28.4243 36.4672 28.9724 36.4672H28.973ZM34.5076 36.4672H33.4225C33.1185 36.4672 32.8701 36.7071 32.8701 36.9993V38.2188H33.3029V37.0801C33.3029 36.9253 33.441 36.8069 33.5945 36.8069H34.3442L34.5082 36.4672H34.5076ZM19.986 38.2188H20.4188V36.9993C20.4188 36.7065 20.1703 36.4672 19.8664 36.4672H17.0322V38.2188H17.465V36.8717C17.465 36.8335 17.5045 36.8063 17.5409 36.8063H18.4342C18.4706 36.8063 18.5094 36.8335 18.5094 36.8717V38.2188H18.9422V36.8717C18.9422 36.8335 18.9811 36.8063 19.0174 36.8063H19.695C19.8485 36.8063 19.9866 36.9247 19.9866 37.0794V38.2182L19.986 38.2188ZM23.592 35.8298V38.2188H24.0248V35.8298H23.592ZM25.391 38.2182H25.8238V36.9993C25.8238 36.7065 25.5754 36.4672 25.2714 36.4672H24.3528L24.1894 36.8069H25.1C25.2536 36.8069 25.3917 36.9253 25.3917 37.0801V38.2188L25.391 38.2182ZM32.2511 35.8298V38.2188H30.2986C30.1136 38.2188 29.9619 38.0727 29.9619 37.8945V36.9993C29.9619 36.7065 30.2104 36.4672 30.5143 36.4672H31.6266L31.4626 36.8069H30.6857C30.5322 36.8069 30.3941 36.9253 30.3941 37.0801V37.8143C30.3941 37.8526 30.433 37.8791 30.4693 37.8791H31.8177V35.8298H32.2505H32.2511ZM21.2474 36.4672H22.5865C22.8904 36.4672 23.1389 36.7071 23.1389 36.9993V38.2188H21.137C20.9521 38.2188 20.8004 38.0727 20.8004 37.8945V37.4709C20.8004 37.3051 20.941 37.1695 21.113 37.1695H22.2233L22.1056 37.4161H21.2887C21.2523 37.4161 21.2135 37.4426 21.2135 37.4808V37.8137C21.2135 37.8519 21.2523 37.8785 21.2887 37.8785H22.7061V37.0788C22.7061 36.9241 22.568 36.8057 22.4145 36.8057H21.0852L21.2474 36.466V36.4672Z" fill="#D80F20"/>
<path d="M13.7374 36.503C13.8348 36.4827 13.9884 36.4673 14.1437 36.4673C14.3663 36.4673 14.5093 36.5055 14.6166 36.5924C14.706 36.659 14.7596 36.7608 14.7596 36.8964C14.7596 37.0628 14.6499 37.2083 14.468 37.2749V37.2799C14.6314 37.3212 14.8231 37.4562 14.8231 37.712C14.8231 37.86 14.7639 37.9728 14.6776 38.0573C14.5574 38.167 14.3632 38.2182 14.0821 38.2182C13.9286 38.2182 13.8114 38.2077 13.7368 38.1979V36.503H13.7374ZM13.96 37.2083H14.1622C14.3977 37.2083 14.5352 37.0857 14.5352 36.9192C14.5352 36.717 14.3817 36.6381 14.1567 36.6381C14.0543 36.6381 13.9958 36.6455 13.96 36.6535V37.2083ZM13.96 38.0339C14.0038 38.0413 14.0673 38.0444 14.1468 38.0444C14.3768 38.0444 14.5889 37.9599 14.5889 37.7096C14.5889 37.4741 14.3866 37.3773 14.1437 37.3773H13.96V38.0345V38.0339Z" fill="#414241"/>
<path d="M15.4689 38.2027V37.4715L14.9246 36.4795H15.1773L15.4202 36.9554C15.4868 37.0855 15.538 37.191 15.5916 37.3106H15.5966C15.6453 37.1977 15.7038 37.0855 15.7704 36.9554L16.0183 36.4795H16.2717L15.694 37.469V38.2027H15.4689Z" fill="#414241"/>
</g>
<defs>
<clipPath id="clip0_2398_1047">
<rect width="50" height="50" fill="white"/>
</clipPath>
</defs>
</svg>
