<svg width="40" height="40" viewBox="0 0 40 40" fill="none" xmlns="http://www.w3.org/2000/svg">
<rect x="0.200195" y="0.421875" width="38.9561" height="38.9561" rx="5.56516" fill="white"/>
<path d="M26.4164 16.887C26.4164 17.05 26.4164 17.1805 26.4164 17.3435C26.4164 21.8761 22.9926 27.0608 16.6991 27.0608C14.7426 27.0608 12.9492 26.5065 11.4492 25.5282C11.7101 25.5608 11.9709 25.5934 12.2644 25.5934C13.8622 25.5934 15.3296 25.0391 16.5035 24.126C15.0035 24.0934 13.7318 23.1152 13.3079 21.7456C13.5361 21.7782 13.7318 21.8108 13.96 21.8108C14.2535 21.8108 14.5796 21.7456 14.8405 21.6804C13.2753 21.3543 12.1014 19.9848 12.1014 18.3218V18.2891C12.5579 18.55 13.1122 18.6804 13.6666 18.7131C12.7209 18.0935 12.134 17.05 12.134 15.8761C12.134 15.224 12.297 14.637 12.5905 14.1479C14.2861 16.2022 16.8296 17.5718 19.6665 17.7348C19.6013 17.4739 19.5687 17.2131 19.5687 16.9522C19.5687 15.0609 21.1013 13.5283 22.9926 13.5283C23.9708 13.5283 24.8512 13.9196 25.5034 14.6044C26.2534 14.4414 27.0034 14.1479 27.6556 13.7566C27.3947 14.5718 26.873 15.224 26.1556 15.6479C26.8403 15.5826 27.5251 15.387 28.1121 15.1261C27.6556 15.8109 27.0686 16.3979 26.4164 16.887Z" fill="#0066FF"/>
</svg>
