<svg width="40" height="40" viewBox="0 0 40 40" fill="none" xmlns="http://www.w3.org/2000/svg">
<rect x="0.250977" y="0.421875" width="38.9561" height="38.9561" rx="5.56516" fill="white"/>
<path d="M28.3813 16.0066C28.7726 17.3761 28.7726 20.3109 28.7726 20.3109C28.7726 20.3109 28.7726 23.213 28.3813 24.6152C28.1857 25.3978 27.5661 25.9847 26.8161 26.1804C25.414 26.5391 19.8705 26.5391 19.8705 26.5391C19.8705 26.5391 14.2945 26.5391 12.8923 26.1804C12.1423 25.9847 11.5228 25.3978 11.3271 24.6152C10.9358 23.213 10.9358 20.3109 10.9358 20.3109C10.9358 20.3109 10.9358 17.3761 11.3271 16.0066C11.5228 15.224 12.1423 14.6044 12.8923 14.4087C14.2945 14.0174 19.8705 14.0174 19.8705 14.0174C19.8705 14.0174 25.414 14.0174 26.8161 14.4087C27.5661 14.6044 28.1857 15.224 28.3813 16.0066ZM18.0445 22.9521L22.6749 20.3109L18.0445 17.6696V22.9521Z" fill="#FF0000"/>
</svg>
