<svg width="96" height="96" viewBox="0 0 96 96" fill="none" xmlns="http://www.w3.org/2000/svg">
<g clip-path="url(#clip0_1254_6589)">
<g clip-path="url(#clip1_1254_6589)">
<path d="M65.7467 48.056C76.2297 48.056 84.7278 39.5578 84.7278 29.0749C84.7278 18.5919 76.2297 10.0938 65.7467 10.0938C55.2638 10.0938 46.7656 18.5919 46.7656 29.0749C46.7656 39.5578 55.2638 48.056 65.7467 48.056Z" fill="#F4F7FE"/>
<path opacity="0.3" d="M22.8569 87.1006C29.195 87.1006 34.333 81.9625 34.333 75.6245C34.333 69.2864 29.195 64.1484 22.8569 64.1484C16.5189 64.1484 11.3809 69.2864 11.3809 75.6245C11.3809 81.9625 16.5189 87.1006 22.8569 87.1006Z" fill="#652178"/>
<path d="M4.29297 13.1797H81.5157" stroke="black" stroke-width="1.26667" stroke-miterlimit="10"/>
<mask id="mask0_1254_6589" style="mask-type:luminance" maskUnits="userSpaceOnUse" x="-17" y="-25" width="111" height="102">
<path d="M85.5845 31.1735H75.6284L31.0732 30.1285V75.4627L1.98401 76.5141L-16.3574 -10.4937L81.2144 -24.3828L93.1845 5.75135L85.5845 31.1735Z" fill="white"/>
</mask>
<g mask="url(#mask0_1254_6589)">
<path d="M77.9006 67.6933H7.30892C5.47858 67.6933 3.99023 66.2049 3.99023 64.3746V5.40462C3.99023 3.57428 5.47858 2.08594 7.30892 2.08594H77.9006C79.731 2.08594 81.2193 3.57428 81.2193 5.40462V64.3746C81.213 66.2049 79.731 67.6933 77.9006 67.6933Z" stroke="black" stroke-width="1.26667" stroke-miterlimit="10"/>
</g>
<path d="M57.212 32.3719L61.9936 42.0683C62.0886 42.2583 62.266 42.3849 62.475 42.4166L73.172 43.9683C73.6977 44.0443 73.9067 44.6839 73.5267 45.0576L65.7873 52.607C65.6353 52.7527 65.5657 52.9617 65.6037 53.1707L67.434 63.8234C67.5227 64.3427 66.978 64.7417 66.5093 64.4947L56.9396 59.466C56.756 59.371 56.5343 59.371 56.3443 59.466L46.7746 64.4947C46.3059 64.7417 45.7612 64.3427 45.8499 63.8234L47.6802 53.1707C47.7182 52.9617 47.6486 52.7527 47.4966 52.607L39.7509 45.0576C39.3709 44.6903 39.5799 44.0443 40.1055 43.9683L50.8026 42.4166C51.0116 42.3849 51.1889 42.2583 51.2839 42.0683L56.0656 32.3719C56.2999 31.8969 56.9776 31.8969 57.212 32.3719Z" stroke="black" stroke-width="1.26667" stroke-miterlimit="10"/>
<path d="M74.9592 64.6523C74.9592 64.6523 72.5335 74.4754 87.9996 85.4575C88.0629 85.5018 88.0566 85.5968 87.9869 85.6285C87.1002 86.0465 82.4262 87.9908 77.3848 85.2675C77.3152 85.2295 77.2328 85.2801 77.2392 85.3561C77.3025 86.3695 77.4482 91.4995 74.4398 93.7288C74.3828 93.7732 74.2942 93.7415 74.2752 93.6718C74.0345 92.6205 72.3498 86.2745 65.8771 82.1704C65.8771 82.1704 60.7661 79.2381 60.9688 72.3854" stroke="black" stroke-width="1.26667" stroke-miterlimit="10"/>
<path d="M38.4944 64.6523C38.4944 64.6523 40.92 74.4754 25.454 85.4575C25.3906 85.5018 25.397 85.5968 25.4666 85.6285C26.3533 86.0465 31.0273 87.9908 36.0687 85.2675C36.1383 85.2295 36.2207 85.2801 36.2143 85.3561C36.151 86.3695 36.0053 91.4995 39.0137 93.7288C39.0707 93.7732 39.1594 93.7415 39.1784 93.6718C39.419 92.6205 41.1037 86.2745 47.5764 82.1704C47.5764 82.1704 52.6874 79.2381 52.4848 72.3854" stroke="black" stroke-width="1.26667" stroke-miterlimit="10"/>
<path d="M27.4109 41.3446H8.71484C8.35383 41.3446 8.0625 41.0533 8.0625 40.6923V37.418C8.0625 37.057 8.35383 36.7656 8.71484 36.7656H27.4109C27.7719 36.7656 28.0633 37.057 28.0633 37.418V40.6923C28.0633 41.0533 27.7719 41.3446 27.4109 41.3446Z" stroke="black" stroke-width="1.26667" stroke-miterlimit="10"/>
<path d="M8.0625 19.4453H13.5219" stroke="black" stroke-width="1.26667" stroke-miterlimit="10"/>
<path d="M24.1367 23.8125H28.7221" stroke="black" stroke-width="1.26667" stroke-miterlimit="10"/>
<path d="M31.0312 23.8125H35.6166" stroke="black" stroke-width="1.26667" stroke-miterlimit="10"/>
<path d="M17.3652 19.4453H32.0396" stroke="black" stroke-width="1.26667" stroke-miterlimit="10"/>
<path d="M8.1875 23.8125H21.2089" stroke="black" stroke-width="1.26667" stroke-miterlimit="10"/>
<path d="M36.3965 7.45312H49.4116" stroke="black" stroke-width="1.26667" stroke-miterlimit="10"/>
<path d="M35.2676 19.4453H42.6079" stroke="black" stroke-width="1.26667" stroke-miterlimit="10"/>
<path d="M36.3665 8.09244C36.72 8.09244 37.0065 7.80592 37.0065 7.45247C37.0065 7.09902 36.72 6.8125 36.3665 6.8125C36.0131 6.8125 35.7266 7.09902 35.7266 7.45247C35.7266 7.80592 36.0131 8.09244 36.3665 8.09244Z" fill="black"/>
<path d="M9.51106 8.09244C9.86451 8.09244 10.151 7.80592 10.151 7.45247C10.151 7.09902 9.86451 6.8125 9.51106 6.8125C9.15762 6.8125 8.87109 7.09902 8.87109 7.45247C8.87109 7.80592 9.15762 8.09244 9.51106 8.09244Z" fill="black"/>
<path d="M12.9896 8.09244C13.343 8.09244 13.6295 7.80592 13.6295 7.45247C13.6295 7.09902 13.343 6.8125 12.9896 6.8125C12.6361 6.8125 12.3496 7.09902 12.3496 7.45247C12.3496 7.80592 12.6361 8.09244 12.9896 8.09244Z" fill="black"/>
<path d="M16.4603 8.09244C16.8137 8.09244 17.1003 7.80592 17.1003 7.45247C17.1003 7.09902 16.8137 6.8125 16.4603 6.8125C16.1068 6.8125 15.8203 7.09902 15.8203 7.45247C15.8203 7.80592 16.1068 8.09244 16.4603 8.09244Z" fill="black"/>
<path d="M8.06184 20.0846C8.41529 20.0846 8.70181 19.7981 8.70181 19.4447C8.70181 19.0912 8.41529 18.8047 8.06184 18.8047C7.7084 18.8047 7.42188 19.0912 7.42188 19.4447C7.42188 19.7981 7.7084 20.0846 8.06184 20.0846Z" fill="black"/>
<path d="M8.06184 24.4518C8.41529 24.4518 8.70181 24.1653 8.70181 23.8118C8.70181 23.4584 8.41529 23.1719 8.06184 23.1719C7.7084 23.1719 7.42188 23.4584 7.42188 23.8118C7.42188 24.1653 7.7084 24.4518 8.06184 24.4518Z" fill="black"/>
<path d="M21.2122 24.4518C21.5657 24.4518 21.8522 24.1653 21.8522 23.8118C21.8522 23.4584 21.5657 23.1719 21.2122 23.1719C20.8588 23.1719 20.5723 23.4584 20.5723 23.8118C20.5723 24.1653 20.8588 24.4518 21.2122 24.4518Z" fill="black"/>
<path d="M24.138 24.4518C24.4915 24.4518 24.778 24.1653 24.778 23.8118C24.778 23.4584 24.4915 23.1719 24.138 23.1719C23.7846 23.1719 23.498 23.4584 23.498 23.8118C23.498 24.1653 23.7846 24.4518 24.138 24.4518Z" fill="black"/>
<path d="M28.722 24.4518C29.0754 24.4518 29.362 24.1653 29.362 23.8118C29.362 23.4584 29.0754 23.1719 28.722 23.1719C28.3686 23.1719 28.082 23.4584 28.082 23.8118C28.082 24.1653 28.3686 24.4518 28.722 24.4518Z" fill="black"/>
<path d="M35.6185 24.4518C35.9719 24.4518 36.2585 24.1653 36.2585 23.8118C36.2585 23.4584 35.9719 23.1719 35.6185 23.1719C35.265 23.1719 34.9785 23.4584 34.9785 23.8118C34.9785 24.1653 35.265 24.4518 35.6185 24.4518Z" fill="black"/>
<path d="M31.2103 24.4518C31.5637 24.4518 31.8503 24.1653 31.8503 23.8118C31.8503 23.4584 31.5637 23.1719 31.2103 23.1719C30.8568 23.1719 30.5703 23.4584 30.5703 23.8118C30.5703 24.1653 30.8568 24.4518 31.2103 24.4518Z" fill="black"/>
<path d="M31.0345 68.3307C31.3879 68.3307 31.6745 68.0442 31.6745 67.6908C31.6745 67.3373 31.3879 67.0508 31.0345 67.0508C30.6811 67.0508 30.3945 67.3373 30.3945 67.6908C30.3945 68.0442 30.6811 68.3307 31.0345 68.3307Z" fill="black"/>
<path d="M81.22 31.8112C81.5735 31.8112 81.86 31.5247 81.86 31.1712C81.86 30.8178 81.5735 30.5312 81.22 30.5312C80.8666 30.5312 80.5801 30.8178 80.5801 31.1712C80.5801 31.5247 80.8666 31.8112 81.22 31.8112Z" fill="black"/>
<path d="M35.2689 20.0846C35.6223 20.0846 35.9088 19.7981 35.9088 19.4447C35.9088 19.0912 35.6223 18.8047 35.2689 18.8047C34.9154 18.8047 34.6289 19.0912 34.6289 19.4447C34.6289 19.7981 34.9154 20.0846 35.2689 20.0846Z" fill="black"/>
<path d="M42.6107 20.0846C42.9641 20.0846 43.2506 19.7981 43.2506 19.4447C43.2506 19.0912 42.9641 18.8047 42.6107 18.8047C42.2572 18.8047 41.9707 19.0912 41.9707 19.4447C41.9707 19.7981 42.2572 20.0846 42.6107 20.0846Z" fill="black"/>
<path d="M70.7923 29.0065C71.1458 29.0065 71.4323 28.72 71.4323 28.3665C71.4323 28.0131 71.1458 27.7266 70.7923 27.7266C70.4389 27.7266 70.1523 28.0131 70.1523 28.3665C70.1523 28.72 70.4389 29.0065 70.7923 29.0065Z" fill="black"/>
<path d="M73.9583 31.6901C74.3118 31.6901 74.5983 31.4036 74.5983 31.0501C74.5983 30.6967 74.3118 30.4102 73.9583 30.4102C73.6049 30.4102 73.3184 30.6967 73.3184 31.0501C73.3184 31.4036 73.6049 31.6901 73.9583 31.6901Z" fill="black"/>
<path d="M13.5208 20.0846C13.8743 20.0846 14.1608 19.7981 14.1608 19.4447C14.1608 19.0912 13.8743 18.8047 13.5208 18.8047C13.1674 18.8047 12.8809 19.0912 12.8809 19.4447C12.8809 19.7981 13.1674 20.0846 13.5208 20.0846Z" fill="black"/>
<path d="M17.3646 20.0846C17.718 20.0846 18.0045 19.7981 18.0045 19.4447C18.0045 19.0912 17.718 18.8047 17.3646 18.8047C17.0111 18.8047 16.7246 19.0912 16.7246 19.4447C16.7246 19.7981 17.0111 20.0846 17.3646 20.0846Z" fill="black"/>
<path d="M32.0384 20.0846C32.3919 20.0846 32.6784 19.7981 32.6784 19.4447C32.6784 19.0912 32.3919 18.8047 32.0384 18.8047C31.685 18.8047 31.3984 19.0912 31.3984 19.4447C31.3984 19.7981 31.685 20.0846 32.0384 20.0846Z" fill="black"/>
<path d="M49.4115 8.09244C49.7649 8.09244 50.0514 7.80592 50.0514 7.45247C50.0514 7.09902 49.7649 6.8125 49.4115 6.8125C49.058 6.8125 48.7715 7.09902 48.7715 7.45247C48.7715 7.80592 49.058 8.09244 49.4115 8.09244Z" fill="black"/>
<mask id="mask1_1254_6589" style="mask-type:luminance" maskUnits="userSpaceOnUse" x="12" y="16" width="95" height="64">
<path d="M69.0766 21.7459L73.7253 24.4566L69.0766 30.5366L71.4009 33.2726L77.728 27.5092L106.551 79.2148L12.9883 76.5168L26.4277 28.0349L65.4096 16.2422L69.0766 21.7459Z" fill="white"/>
</mask>
<g mask="url(#mask1_1254_6589)">
<path d="M56.6382 72.7452C70.1398 72.7452 81.085 61.8 81.085 48.2984C81.085 34.7968 70.1398 23.8516 56.6382 23.8516C43.1366 23.8516 32.1914 34.7968 32.1914 48.2984C32.1914 61.8 43.1366 72.7452 56.6382 72.7452Z" stroke="black" stroke-width="1.26667" stroke-miterlimit="10"/>
</g>
</g>
</g>
<defs>
<clipPath id="clip0_1254_6589">
<rect width="95.0005" height="95.0005" fill="white" transform="translate(0.728516 0.335938)"/>
</clipPath>
<clipPath id="clip1_1254_6589">
<rect width="95.0005" height="95.0005" fill="white" transform="translate(0.728516 0.335938)"/>
</clipPath>
</defs>
</svg>
