<svg width="96" height="96" viewBox="0 0 96 96" fill="none" xmlns="http://www.w3.org/2000/svg">
<g clip-path="url(#clip0_1254_6288)">
<g clip-path="url(#clip1_1254_6288)">
<path d="M65.7467 47.7513C76.2297 47.7513 84.7278 39.2531 84.7278 28.7702C84.7278 18.2872 76.2297 9.78906 65.7467 9.78906C55.2638 9.78906 46.7656 18.2872 46.7656 28.7702C46.7656 39.2531 55.2638 47.7513 65.7467 47.7513Z" fill="#F4F7FE"/>
<path opacity="0.3" d="M22.8569 86.792C29.195 86.792 34.333 81.654 34.333 75.3159C34.333 68.9778 29.195 63.8398 22.8569 63.8398C16.5189 63.8398 11.3809 68.9778 11.3809 75.3159C11.3809 81.654 16.5189 86.792 22.8569 86.792Z" fill="#652178"/>
<path d="M20.9128 30.4462H14.3008V23.9102H15.5675V29.1795H20.9128V30.4462Z" fill="black"/>
<path d="M80.8059 14.4774H79.5392V9.20808H74.1875V7.94141H80.8059V14.4774Z" fill="black"/>
<path d="M22.343 26.7997L23.3817 20.7513L18.9863 16.47L25.06 15.5896L27.777 10.0859L30.4941 15.5896L36.5678 16.47L32.1724 20.7513L33.2111 26.7997L27.777 23.9433L22.343 26.7997ZM27.777 22.512L31.5264 24.4817L30.8107 20.308L33.8444 17.3503L29.6517 16.7423L27.777 12.9423L25.9024 16.7423L21.7097 17.3503L24.7434 20.308L24.0277 24.4817L27.777 22.512Z" fill="black"/>
<path d="M53.2028 26.7997L47.7751 23.9433L42.3411 26.7997L43.3797 20.7513L38.9844 16.47L45.0581 15.5896L47.7751 10.0859L50.4921 15.5896L56.5658 16.47L52.1704 20.7513L53.2028 26.7997ZM41.7077 17.3566L44.7414 20.3143L44.0257 24.488L47.7751 22.5183L51.5244 24.488L50.8088 20.3143L53.8425 17.3566L49.6498 16.7486L47.7751 12.9486L45.9004 16.7486L41.7077 17.3566Z" fill="black"/>
<path d="M62.3313 26.7997L63.37 20.7513L58.9746 16.47L65.0483 15.5896L67.7653 10.0859L70.4823 15.5896L76.556 16.47L72.1607 20.7513L73.1994 26.7997L67.7653 23.9433L62.3313 26.7997ZM67.759 22.512L71.5083 24.4817L70.7927 20.308L73.8264 17.3503L69.6337 16.7423L67.759 12.9423L65.8843 16.7423L61.6916 17.3503L64.7253 20.308L64.0096 24.4817L67.759 22.512Z" fill="black"/>
<path d="M48.1911 75.8222H47.5831C44.8534 75.8222 42.6367 73.6055 42.6367 70.8758V65.1758L43.5424 65.6065C46.2974 66.9111 49.5084 66.9048 52.2254 65.6065L53.1311 65.1758V70.8821C53.1311 73.6055 50.9144 75.8222 48.1911 75.8222ZM43.9034 67.1265V70.8758C43.9034 72.9025 45.5564 74.5555 47.5831 74.5555H48.1911C50.2178 74.5555 51.8644 72.9025 51.8644 70.8758V67.1328C49.3374 68.0828 46.4621 68.0828 43.9034 67.1265Z" fill="black"/>
<path d="M37.6604 55.2104L36.457 54.8177C36.552 54.5264 38.8574 47.6103 43.8797 47.8573H52.5375C53.1011 47.794 56.7175 47.68 59.3015 54.4883L58.1171 54.938C55.7675 48.763 52.7021 49.1113 52.6705 49.1177L52.5755 49.124H43.8417C39.7441 48.9277 37.6794 55.147 37.6604 55.2104Z" fill="black"/>
<mask id="mask0_1254_6288" style="mask-type:luminance" maskUnits="userSpaceOnUse" x="20" y="67" width="54" height="25">
<path d="M73.2586 67.1992H20.3496V91.1203H73.2586V67.1992Z" fill="white"/>
</mask>
<g mask="url(#mask0_1254_6288)">
<mask id="mask1_1254_6288" style="mask-type:luminance" maskUnits="userSpaceOnUse" x="24" y="67" width="50" height="33">
<path d="M29.8424 69.0914L32.8698 74.2594L30.7734 75.1651V73.6324L28.4427 70.6558H26.9291L24.4844 92.5059L73.9986 99.0356L72.3646 67.1914L29.8424 69.0914Z" fill="white"/>
</mask>
<g mask="url(#mask1_1254_6288)">
<path d="M68.0968 92.9647H27.6836V77.9166C27.6836 73.5276 31.2556 69.9492 35.651 69.9492H43.9097V70.8486C43.9097 72.8752 45.5627 74.5282 47.5894 74.5282H48.1974C50.224 74.5282 51.8707 72.8752 51.8707 70.8486V69.9492H60.1358C64.5248 69.9492 68.1031 73.5212 68.1031 77.9166V92.9647H68.0968ZM28.9503 91.698H66.8301V77.9166C66.8301 74.2242 63.8281 71.2159 60.1294 71.2159H53.1184C52.9284 73.7746 50.7941 75.7949 48.191 75.7949H47.583C44.98 75.7949 42.8393 73.7746 42.6493 71.2159H35.6446C31.9523 71.2159 28.9439 74.2179 28.9439 77.9166V91.698H28.9503Z" fill="black"/>
</g>
</g>
<path d="M31.2696 78.2591C31.2696 78.1831 31.2379 76.3908 32.5426 75.0544C33.4483 74.1234 34.753 73.6484 36.4123 73.6484V74.9151C35.114 74.9151 34.1196 75.2571 33.4609 75.9284C32.5236 76.8785 32.5363 78.2148 32.5363 78.2275L31.2696 78.2591Z" fill="black"/>
<path d="M37.5245 84.0586H36.2578V91.1266H37.5245V84.0586Z" fill="black"/>
<path d="M44.4542 83.9766H43.1875V86.6176H44.4542V83.9766Z" fill="black"/>
<path d="M48.6534 83.9766H47.3867V86.6176H48.6534V83.9766Z" fill="black"/>
<path d="M52.8428 83.9766H51.5762V86.6176H52.8428V83.9766Z" fill="black"/>
<path d="M59.4991 84.0586H58.2324V91.1266H59.4991V84.0586Z" fill="black"/>
<mask id="mask2_1254_6288" style="mask-type:luminance" maskUnits="userSpaceOnUse" x="26" y="35" width="35" height="38">
<path d="M58.7092 39.714L53.8388 44.293L55.1879 45.6927L60.3305 42.7033V66.1684L34.1484 72.0268C34.1484 72.0268 26.3457 53.375 26.3457 51.7474C26.3457 50.1197 34.1484 42.6653 34.1484 42.6653L40.3361 35.2109L58.7092 39.714Z" fill="white"/>
</mask>
<g mask="url(#mask2_1254_6288)">
<path d="M47.8892 67.8404C46.1918 67.8404 44.5452 67.4667 42.9998 66.7384C39.0098 64.8447 36.4258 60.7787 36.4258 56.377V50.5376C36.4258 44.2169 41.5685 39.0742 47.8892 39.0742C50.9419 39.0742 53.8109 40.2712 55.9769 42.4436C58.1492 44.6159 59.3462 47.4913 59.3462 50.5376V56.377C59.3462 60.7723 56.7686 64.8384 52.7722 66.7384C51.2395 67.4667 49.5992 67.8404 47.8892 67.8404ZM47.8892 40.3472C42.2651 40.3472 37.6925 44.9199 37.6925 50.5439V56.3833C37.6925 60.291 39.9851 63.9074 43.5445 65.5984C46.2995 66.903 49.5105 66.8967 52.2275 65.5984C55.7806 63.9074 58.0796 60.291 58.0796 56.3833V50.5439C58.0796 47.8333 57.0156 45.2746 55.0839 43.3429C53.1522 41.4112 50.5999 40.3472 47.8892 40.3472Z" fill="black"/>
</g>
<mask id="mask3_1254_6288" style="mask-type:luminance" maskUnits="userSpaceOnUse" x="-6" y="0" width="98" height="62">
<path d="M64.5557 0.03125V8.57496H67.7541V0.03125H89.0215L91.3522 61.3129L-5.11133 40.5331L-3.48365 22.6477H13.7621V17.505H5.37039L5.83906 1.43092L51.0403 0.03125H64.5557Z" fill="white"/>
</mask>
<g mask="url(#mask3_1254_6288)">
<path d="M34.6479 41.5543L20.6892 34.6066H14.5775C12.1518 34.6066 10.1758 32.6305 10.1758 30.2049V8.53841C10.1758 6.11273 12.1518 4.13672 14.5775 4.13672H80.3178C82.7435 4.13672 84.7195 6.11273 84.7195 8.53841V30.2049C84.7195 32.6305 82.7435 34.6066 80.3178 34.6066H34.6479V41.5543ZM14.5775 5.40339C12.8485 5.40339 11.4425 6.8094 11.4425 8.53841V30.2049C11.4425 31.9339 12.8485 33.3399 14.5775 33.3399H20.9932L33.3876 39.5086V33.3399H80.3242C82.0532 33.3399 83.4592 31.9339 83.4592 30.2049V8.53841C83.4592 6.8094 82.0532 5.40339 80.3242 5.40339H14.5775Z" fill="black"/>
</g>
<path d="M64.5555 5.39617C64.9055 5.39617 65.1891 5.11249 65.1891 4.76254C65.1891 4.41259 64.9055 4.12891 64.5555 4.12891C64.2056 4.12891 63.9219 4.41259 63.9219 4.76254C63.9219 5.11249 64.2056 5.39617 64.5555 5.39617Z" fill="black"/>
<path d="M74.1864 9.20867C74.5363 9.20867 74.82 8.92499 74.82 8.57504C74.82 8.22509 74.5363 7.94141 74.1864 7.94141C73.8364 7.94141 73.5527 8.22509 73.5527 8.57504C73.5527 8.92499 73.8364 9.20867 74.1864 9.20867Z" fill="black"/>
<path d="M10.8075 23.2165C11.1574 23.2165 11.4411 22.9328 11.4411 22.5829C11.4411 22.2329 11.1574 21.9492 10.8075 21.9492C10.4575 21.9492 10.1738 22.2329 10.1738 22.5829C10.1738 22.9328 10.4575 23.2165 10.8075 23.2165Z" fill="black"/>
<path d="M14.9344 24.5407C15.2844 24.5407 15.568 24.257 15.568 23.9071C15.568 23.5571 15.2844 23.2734 14.9344 23.2734C14.5845 23.2734 14.3008 23.5571 14.3008 23.9071C14.3008 24.257 14.5845 24.5407 14.9344 24.5407Z" fill="black"/>
<path d="M20.9129 30.443C21.2629 30.443 21.5466 30.1594 21.5466 29.8094C21.5466 29.4595 21.2629 29.1758 20.9129 29.1758C20.563 29.1758 20.2793 29.4595 20.2793 29.8094C20.2793 30.1594 20.563 30.443 20.9129 30.443Z" fill="black"/>
<path d="M55.4735 43.4743C55.8234 43.4743 56.1071 43.1906 56.1071 42.8407C56.1071 42.4907 55.8234 42.207 55.4735 42.207C55.1235 42.207 54.8398 42.4907 54.8398 42.8407C54.8398 43.1906 55.1235 43.4743 55.4735 43.4743Z" fill="black"/>
<path d="M56.952 45.2673C57.3019 45.2673 57.5856 44.9836 57.5856 44.6336C57.5856 44.2837 57.3019 44 56.952 44C56.602 44 56.3184 44.2837 56.3184 44.6336C56.3184 44.9836 56.602 45.2673 56.952 45.2673Z" fill="black"/>
<path d="M31.4969 72.5368C31.8469 72.5368 32.1305 72.2531 32.1305 71.9032C32.1305 71.5532 31.8469 71.2695 31.4969 71.2695C31.147 71.2695 30.8633 71.5532 30.8633 71.9032C30.8633 72.2531 31.147 72.5368 31.4969 72.5368Z" fill="black"/>
<path d="M30.1961 73.6618C30.5461 73.6618 30.8298 73.3781 30.8298 73.0282C30.8298 72.6782 30.5461 72.3945 30.1961 72.3945C29.8462 72.3945 29.5625 72.6782 29.5625 73.0282C29.5625 73.3781 29.8462 73.6618 30.1961 73.6618Z" fill="black"/>
<path d="M31.9032 78.8727C32.2531 78.8727 32.5368 78.589 32.5368 78.2391C32.5368 77.8892 32.2531 77.6055 31.9032 77.6055C31.5532 77.6055 31.2695 77.8892 31.2695 78.2391C31.2695 78.589 31.5532 78.8727 31.9032 78.8727Z" fill="black"/>
<path d="M36.4129 74.9157C36.7629 74.9157 37.0466 74.632 37.0466 74.2821C37.0466 73.9321 36.7629 73.6484 36.4129 73.6484C36.063 73.6484 35.7793 73.9321 35.7793 74.2821C35.7793 74.632 36.063 74.9157 36.4129 74.9157Z" fill="black"/>
<path d="M36.8914 84.736C37.2414 84.736 37.5251 84.4523 37.5251 84.1024C37.5251 83.7524 37.2414 83.4688 36.8914 83.4688C36.5415 83.4688 36.2578 83.7524 36.2578 84.1024C36.2578 84.4523 36.5415 84.736 36.8914 84.736Z" fill="black"/>
<path d="M28.327 91.7087C28.6769 91.7087 28.9606 91.425 28.9606 91.075C28.9606 90.7251 28.6769 90.4414 28.327 90.4414C27.977 90.4414 27.6934 90.7251 27.6934 91.075C27.6934 91.425 27.977 91.7087 28.327 91.7087Z" fill="black"/>
<path d="M36.8914 91.7751C37.2414 91.7751 37.5251 91.4914 37.5251 91.1414C37.5251 90.7915 37.2414 90.5078 36.8914 90.5078C36.5415 90.5078 36.2578 90.7915 36.2578 91.1414C36.2578 91.4914 36.5415 91.7751 36.8914 91.7751Z" fill="black"/>
<path d="M58.8661 91.7087C59.216 91.7087 59.4997 91.425 59.4997 91.075C59.4997 90.7251 59.216 90.4414 58.8661 90.4414C58.5161 90.4414 58.2324 90.7251 58.2324 91.075C58.2324 91.425 58.5161 91.7087 58.8661 91.7087Z" fill="black"/>
<path d="M58.8661 84.736C59.216 84.736 59.4997 84.4523 59.4997 84.1024C59.4997 83.7524 59.216 83.4688 58.8661 83.4688C58.5161 83.4688 58.2324 83.7524 58.2324 84.1024C58.2324 84.4523 58.5161 84.736 58.8661 84.736Z" fill="black"/>
<path d="M52.2098 84.6071C52.5598 84.6071 52.8434 84.3234 52.8434 83.9735C52.8434 83.6235 52.5598 83.3398 52.2098 83.3398C51.8599 83.3398 51.5762 83.6235 51.5762 83.9735C51.5762 84.3234 51.8599 84.6071 52.2098 84.6071Z" fill="black"/>
<path d="M52.2098 87.197C52.5598 87.197 52.8434 86.9133 52.8434 86.5633C52.8434 86.2134 52.5598 85.9297 52.2098 85.9297C51.8599 85.9297 51.5762 86.2134 51.5762 86.5633C51.5762 86.9133 51.8599 87.197 52.2098 87.197Z" fill="black"/>
<path d="M48.0204 87.197C48.3703 87.197 48.654 86.9133 48.654 86.5633C48.654 86.2134 48.3703 85.9297 48.0204 85.9297C47.6704 85.9297 47.3867 86.2134 47.3867 86.5633C47.3867 86.9133 47.6704 87.197 48.0204 87.197Z" fill="black"/>
<path d="M48.0204 84.5641C48.3703 84.5641 48.654 84.2805 48.654 83.9305C48.654 83.5806 48.3703 83.2969 48.0204 83.2969C47.6704 83.2969 47.3867 83.5806 47.3867 83.9305C47.3867 84.2805 47.6704 84.5641 48.0204 84.5641Z" fill="black"/>
<path d="M43.8211 84.6071C44.1711 84.6071 44.4548 84.3234 44.4548 83.9735C44.4548 83.6235 44.1711 83.3398 43.8211 83.3398C43.4712 83.3398 43.1875 83.6235 43.1875 83.9735C43.1875 84.3234 43.4712 84.6071 43.8211 84.6071Z" fill="black"/>
<path d="M43.8211 87.2829C44.1711 87.2829 44.4548 86.9992 44.4548 86.6493C44.4548 86.2993 44.1711 86.0156 43.8211 86.0156C43.4712 86.0156 43.1875 86.2993 43.1875 86.6493C43.1875 86.9992 43.4712 87.2829 43.8211 87.2829Z" fill="black"/>
<path d="M67.4618 91.7282C67.8117 91.7282 68.0954 91.4445 68.0954 91.0946C68.0954 90.7446 67.8117 90.4609 67.4618 90.4609C67.1118 90.4609 66.8281 90.7446 66.8281 91.0946C66.8281 91.4445 67.1118 91.7282 67.4618 91.7282Z" fill="black"/>
<path d="M10.8075 18.2595C11.1574 18.2595 11.4411 17.9758 11.4411 17.6258C11.4411 17.2759 11.1574 16.9922 10.8075 16.9922C10.4575 16.9922 10.1738 17.2759 10.1738 17.6258C10.1738 17.9758 10.4575 18.2595 10.8075 18.2595Z" fill="black"/>
<path d="M80.1727 15.0993C80.5226 15.0993 80.8063 14.8156 80.8063 14.4657C80.8063 14.1157 80.5226 13.832 80.1727 13.832C79.8227 13.832 79.5391 14.1157 79.5391 14.4657C79.5391 14.8156 79.8227 15.0993 80.1727 15.0993Z" fill="black"/>
<path d="M67.8016 5.39617C68.1515 5.39617 68.4352 5.11249 68.4352 4.76254C68.4352 4.41259 68.1515 4.12891 67.8016 4.12891C67.4517 4.12891 67.168 4.41259 67.168 4.76254C67.168 5.11249 67.4517 5.39617 67.8016 5.39617Z" fill="black"/>
</g>
</g>
<defs>
<clipPath id="clip0_1254_6288">
<rect width="95.0005" height="95.0005" fill="white" transform="translate(0.728516 0.0234375)"/>
</clipPath>
<clipPath id="clip1_1254_6288">
<rect width="95.0005" height="95.0005" fill="white" transform="translate(0.728516 0.0234375)"/>
</clipPath>
</defs>
</svg>
