<svg width="96" height="96" viewBox="0 0 96 96" fill="none" xmlns="http://www.w3.org/2000/svg">
<g clip-path="url(#clip0_1254_6640)">
<g clip-path="url(#clip1_1254_6640)">
<g clip-path="url(#clip2_1254_6640)">
<path d="M65.2682 48.056C75.7512 48.056 84.2493 39.5578 84.2493 29.0749C84.2493 18.5919 75.7512 10.0938 65.2682 10.0938C54.7852 10.0938 46.2871 18.5919 46.2871 29.0749C46.2871 39.5578 54.7852 48.056 65.2682 48.056Z" fill="#F4F7FE"/>
<path opacity="0.3" d="M22.3784 87.1006C28.7165 87.1006 33.8545 81.9625 33.8545 75.6245C33.8545 69.2864 28.7165 64.1484 22.3784 64.1484C16.0404 64.1484 10.9023 69.2864 10.9023 75.6245C10.9023 81.9625 16.0404 87.1006 22.3784 87.1006Z" fill="#652178"/>
<path d="M17.8594 63.7837V73.6257C17.8594 74.3097 18.594 74.7467 19.1957 74.4111L38.3668 63.7773" stroke="black" stroke-width="1.26667" stroke-miterlimit="10"/>
<path d="M13.9668 18.9805H67.0531" stroke="black" stroke-width="1.26667" stroke-miterlimit="10"/>
<mask id="mask0_1254_6640" style="mask-type:luminance" maskUnits="userSpaceOnUse" x="2" y="-5" width="109" height="106">
<path d="M2.70312 5.33515L4.53347 71.6392L24.4519 66.6548V58.2694H29.9556V65.0841L35.719 80.2842L84.9926 100.203L110.408 54.3428L96 -4.10156L2.70312 5.33515Z" fill="white"/>
</mask>
<g mask="url(#mask0_1254_6640)">
<path d="M73.1921 15.1401V45.5593C71.1971 44.9639 69.0881 44.6472 66.9031 44.6472C55.7247 44.6472 46.4843 52.9883 45.0783 63.7803H12.2905C9.8838 63.7803 7.93945 61.836 7.93945 59.4293V15.1401C7.93945 12.7397 9.8838 10.7891 12.2905 10.7891H68.8475C71.2478 10.7891 73.1921 12.7397 73.1921 15.1401Z" stroke="black" stroke-width="1.26667" stroke-miterlimit="10"/>
</g>
<path d="M28.0703 26.1562H67.0332" stroke="black" stroke-width="1.26667" stroke-miterlimit="10"/>
<path d="M13.9668 33.3359H52.689" stroke="black" stroke-width="1.26667" stroke-miterlimit="10"/>
<path d="M58.7832 33.3359H67.0103" stroke="black" stroke-width="1.26667" stroke-miterlimit="10"/>
<path d="M14.0234 26.1562H22.2568" stroke="black" stroke-width="1.26667" stroke-miterlimit="10"/>
<path d="M33.2715 40.5195H67.0727" stroke="black" stroke-width="1.26667" stroke-miterlimit="10"/>
<path d="M14.1367 40.5195H27.1581" stroke="black" stroke-width="1.26667" stroke-miterlimit="10"/>
<path d="M13.9668 47.6992H35.3672" stroke="black" stroke-width="1.26667" stroke-miterlimit="10"/>
<path d="M41.1328 47.6992H48.8215" stroke="black" stroke-width="1.26667" stroke-miterlimit="10"/>
<path d="M13.9668 54.8828H42.1819" stroke="black" stroke-width="1.26667" stroke-miterlimit="10"/>
<path d="M67.1865 70.951H66.6165C64.8938 70.951 63.4941 69.5513 63.4941 67.8287V53.2239C63.4941 51.5012 64.8938 50.1016 66.6165 50.1016H67.1865C68.9092 50.1016 70.3088 51.5012 70.3088 53.2239V67.8287C70.3152 69.5577 68.9155 70.951 67.1865 70.951Z" stroke="black" stroke-width="1.26667" stroke-miterlimit="10"/>
<path d="M66.9015 82.8303C68.7833 82.8303 70.3088 81.3048 70.3088 79.423C70.3088 77.5411 68.7833 76.0156 66.9015 76.0156C65.0197 76.0156 63.4941 77.5411 63.4941 79.423C63.4941 81.3048 65.0197 82.8303 66.9015 82.8303Z" stroke="black" stroke-width="1.26667" stroke-miterlimit="10"/>
<path d="M57.7519 52.0391C54.0722 54.4584 51.4628 57.9228 49.9238 62.4385" stroke="black" stroke-width="1.26667" stroke-miterlimit="10"/>
<path d="M24.4891 64.4235C24.839 64.4235 25.1227 64.1398 25.1227 63.7899C25.1227 63.4399 24.839 63.1562 24.4891 63.1562C24.1392 63.1562 23.8555 63.4399 23.8555 63.7899C23.8555 64.1398 24.1392 64.4235 24.4891 64.4235Z" fill="black"/>
<path d="M29.9871 64.4235C30.3371 64.4235 30.6208 64.1398 30.6208 63.7899C30.6208 63.4399 30.3371 63.1562 29.9871 63.1562C29.6372 63.1562 29.3535 63.4399 29.3535 63.7899C29.3535 64.1398 29.6372 64.4235 29.9871 64.4235Z" fill="black"/>
<path d="M42.1844 55.5212C42.5344 55.5212 42.818 55.2375 42.818 54.8875C42.818 54.5376 42.5344 54.2539 42.1844 54.2539C41.8345 54.2539 41.5508 54.5376 41.5508 54.8875C41.5508 55.2375 41.8345 55.5212 42.1844 55.5212Z" fill="black"/>
<path d="M13.9676 55.5212C14.3176 55.5212 14.6013 55.2375 14.6013 54.8875C14.6013 54.5376 14.3176 54.2539 13.9676 54.2539C13.6177 54.2539 13.334 54.5376 13.334 54.8875C13.334 55.2375 13.6177 55.5212 13.9676 55.5212Z" fill="black"/>
<path d="M13.9676 48.3337C14.3176 48.3337 14.6013 48.05 14.6013 47.7C14.6013 47.3501 14.3176 47.0664 13.9676 47.0664C13.6177 47.0664 13.334 47.3501 13.334 47.7C13.334 48.05 13.6177 48.3337 13.9676 48.3337Z" fill="black"/>
<path d="M13.9676 41.154C14.3176 41.154 14.6013 40.8703 14.6013 40.5204C14.6013 40.1704 14.3176 39.8867 13.9676 39.8867C13.6177 39.8867 13.334 40.1704 13.334 40.5204C13.334 40.8703 13.6177 41.154 13.9676 41.154Z" fill="black"/>
<path d="M13.9676 33.9704C14.3176 33.9704 14.6013 33.6867 14.6013 33.3368C14.6013 32.9868 14.3176 32.7031 13.9676 32.7031C13.6177 32.7031 13.334 32.9868 13.334 33.3368C13.334 33.6867 13.6177 33.9704 13.9676 33.9704Z" fill="black"/>
<path d="M13.9676 26.7907C14.3176 26.7907 14.6013 26.507 14.6013 26.1571C14.6013 25.8071 14.3176 25.5234 13.9676 25.5234C13.6177 25.5234 13.334 25.8071 13.334 26.1571C13.334 26.507 13.6177 26.7907 13.9676 26.7907Z" fill="black"/>
<path d="M22.2567 26.7907C22.6066 26.7907 22.8903 26.507 22.8903 26.1571C22.8903 25.8071 22.6066 25.5234 22.2567 25.5234C21.9067 25.5234 21.623 25.8071 21.623 26.1571C21.623 26.507 21.9067 26.7907 22.2567 26.7907Z" fill="black"/>
<path d="M27.161 41.154C27.5109 41.154 27.7946 40.8703 27.7946 40.5204C27.7946 40.1704 27.5109 39.8867 27.161 39.8867C26.811 39.8867 26.5273 40.1704 26.5273 40.5204C26.5273 40.8703 26.811 41.154 27.161 41.154Z" fill="black"/>
<path d="M35.3661 48.3337C35.716 48.3337 35.9997 48.05 35.9997 47.7C35.9997 47.3501 35.716 47.0664 35.3661 47.0664C35.0161 47.0664 34.7324 47.3501 34.7324 47.7C34.7324 48.05 35.0161 48.3337 35.3661 48.3337Z" fill="black"/>
<path d="M41.1336 48.3337C41.4836 48.3337 41.7673 48.05 41.7673 47.7C41.7673 47.3501 41.4836 47.0664 41.1336 47.0664C40.7837 47.0664 40.5 47.3501 40.5 47.7C40.5 48.05 40.7837 48.3337 41.1336 48.3337Z" fill="black"/>
<path d="M33.2704 41.154C33.6203 41.154 33.904 40.8703 33.904 40.5204C33.904 40.1704 33.6203 39.8867 33.2704 39.8867C32.9204 39.8867 32.6367 40.1704 32.6367 40.5204C32.6367 40.8703 32.9204 41.154 33.2704 41.154Z" fill="black"/>
<path d="M52.6903 33.9704C53.0402 33.9704 53.3239 33.6867 53.3239 33.3368C53.3239 32.9868 53.0402 32.7031 52.6903 32.7031C52.3403 32.7031 52.0566 32.9868 52.0566 33.3368C52.0566 33.6867 52.3403 33.9704 52.6903 33.9704Z" fill="black"/>
<path d="M67.077 41.154C67.4269 41.154 67.7106 40.8703 67.7106 40.5204C67.7106 40.1704 67.4269 39.8867 67.077 39.8867C66.727 39.8867 66.4434 40.1704 66.4434 40.5204C66.4434 40.8703 66.727 41.154 67.077 41.154Z" fill="black"/>
<path d="M80.409 49.9235C80.759 49.9235 81.0427 49.6398 81.0427 49.2899C81.0427 48.9399 80.759 48.6562 80.409 48.6562C80.0591 48.6562 79.7754 48.9399 79.7754 49.2899C79.7754 49.6398 80.0591 49.9235 80.409 49.9235Z" fill="black"/>
<path d="M82.8797 52.1735C83.2297 52.1735 83.5134 51.8898 83.5134 51.5399C83.5134 51.1899 83.2297 50.9062 82.8797 50.9062C82.5298 50.9062 82.2461 51.1899 82.2461 51.5399C82.2461 51.8898 82.5298 52.1735 82.8797 52.1735Z" fill="black"/>
<path d="M67.077 33.9704C67.4269 33.9704 67.7106 33.6867 67.7106 33.3368C67.7106 32.9868 67.4269 32.7031 67.077 32.7031C66.727 32.7031 66.4434 32.9868 66.4434 33.3368C66.4434 33.6867 66.727 33.9704 67.077 33.9704Z" fill="black"/>
<path d="M58.784 33.9704C59.134 33.9704 59.4177 33.6867 59.4177 33.3368C59.4177 32.9868 59.134 32.7031 58.784 32.7031C58.4341 32.7031 58.1504 32.9868 58.1504 33.3368C58.1504 33.6867 58.4341 33.9704 58.784 33.9704Z" fill="black"/>
<path d="M57.7508 52.6735C58.1008 52.6735 58.3845 52.3898 58.3845 52.0399C58.3845 51.6899 58.1008 51.4062 57.7508 51.4062C57.4009 51.4062 57.1172 51.6899 57.1172 52.0399C57.1172 52.3898 57.4009 52.6735 57.7508 52.6735Z" fill="black"/>
<path d="M49.9168 63.0759C50.2668 63.0759 50.5505 62.7922 50.5505 62.4422C50.5505 62.0923 50.2668 61.8086 49.9168 61.8086C49.5669 61.8086 49.2832 62.0923 49.2832 62.4422C49.2832 62.7922 49.5669 63.0759 49.9168 63.0759Z" fill="black"/>
<path d="M49.2821 66.1579C49.632 66.1579 49.9157 65.8742 49.9157 65.5243C49.9157 65.1743 49.632 64.8906 49.2821 64.8906C48.9321 64.8906 48.6484 65.1743 48.6484 65.5243C48.6484 65.8742 48.9321 66.1579 49.2821 66.1579Z" fill="black"/>
<path d="M28.0711 26.7907C28.4211 26.7907 28.7048 26.507 28.7048 26.1571C28.7048 25.8071 28.4211 25.5234 28.0711 25.5234C27.7212 25.5234 27.4375 25.8071 27.4375 26.1571C27.4375 26.507 27.7212 26.7907 28.0711 26.7907Z" fill="black"/>
<path d="M67.077 26.7907C67.4269 26.7907 67.7106 26.507 67.7106 26.1571C67.7106 25.8071 67.4269 25.5234 67.077 25.5234C66.727 25.5234 66.4434 25.8071 66.4434 26.1571C66.4434 26.507 66.727 26.7907 67.077 26.7907Z" fill="black"/>
<path d="M67.077 19.611C67.4269 19.611 67.7106 19.3273 67.7106 18.9774C67.7106 18.6274 67.4269 18.3438 67.077 18.3438C66.727 18.3438 66.4434 18.6274 66.4434 18.9774C66.4434 19.3273 66.727 19.611 67.077 19.611Z" fill="black"/>
<path d="M48.8172 48.3337C49.1672 48.3337 49.4509 48.05 49.4509 47.7C49.4509 47.3501 49.1672 47.0664 48.8172 47.0664C48.4673 47.0664 48.1836 47.3501 48.1836 47.7C48.1836 48.05 48.4673 48.3337 48.8172 48.3337Z" fill="black"/>
<path d="M13.9676 19.611C14.3176 19.611 14.6013 19.3273 14.6013 18.9774C14.6013 18.6274 14.3176 18.3438 13.9676 18.3438C13.6177 18.3438 13.334 18.6274 13.334 18.9774C13.334 19.3273 13.6177 19.611 13.9676 19.611Z" fill="black"/>
<mask id="mask1_1254_6640" style="mask-type:luminance" maskUnits="userSpaceOnUse" x="33" y="39" width="67" height="58">
<path d="M77.6455 43.5182L81.8382 47.0649L79.0452 51.4032L81.1415 52.6699L84.9859 50.0985L99.8313 69.162L94.0679 90.6954L42.812 96.8071L33.2676 74.5327L44.9716 44.6518L67.0688 39.8828L77.6455 43.5182Z" fill="white"/>
</mask>
<g mask="url(#mask1_1254_6640)">
<path d="M88.9143 66.6671C88.9143 78.8272 79.0596 88.6819 66.8995 88.6819C54.7458 88.6819 44.8848 78.8272 44.8848 66.6671C44.8848 65.6918 44.9481 64.7291 45.0748 63.7854C46.4808 52.9934 55.7212 44.6523 66.8995 44.6523C69.0846 44.6523 71.1936 44.969 73.1886 45.5643C82.2833 48.2687 88.9143 56.6984 88.9143 66.6671Z" stroke="black" stroke-width="1.26667" stroke-miterlimit="10"/>
</g>
</g>
</g>
</g>
<defs>
<clipPath id="clip0_1254_6640">
<rect width="95.0005" height="95.0005" fill="white" transform="translate(0.25 0.335938)"/>
</clipPath>
<clipPath id="clip1_1254_6640">
<rect width="95.0005" height="95.0005" fill="white" transform="translate(0.25 0.335938)"/>
</clipPath>
<clipPath id="clip2_1254_6640">
<rect width="95.0005" height="95.0005" fill="white" transform="translate(0.25 0.335938)"/>
</clipPath>
</defs>
</svg>
