<svg width="96" height="96" viewBox="0 0 96 96" fill="none" xmlns="http://www.w3.org/2000/svg">
<g clip-path="url(#clip0_1254_6700)">
<g clip-path="url(#clip1_1254_6700)">
<path d="M65.7897 48.056C76.2727 48.056 84.7708 39.5578 84.7708 29.0749C84.7708 18.5919 76.2727 10.0938 65.7897 10.0938C55.3067 10.0938 46.8086 18.5919 46.8086 29.0749C46.8086 39.5578 55.3067 48.056 65.7897 48.056Z" fill="#F4F7FE"/>
<path opacity="0.3" d="M22.9038 87.1006C29.2418 87.1006 34.3799 81.9625 34.3799 75.6245C34.3799 69.2864 29.2418 64.1484 22.9038 64.1484C16.5657 64.1484 11.4277 69.2864 11.4277 75.6245C11.4277 81.9625 16.5657 87.1006 22.9038 87.1006Z" fill="#652178"/>
<path d="M35.8919 25.0669C39.0015 22.2422 43.1309 20.5195 47.6656 20.5195C57.3366 20.5195 65.1773 28.3539 65.1773 38.025V38.063C65.1773 38.0693 65.1773 38.0693 65.1773 38.0756V43.8137C65.1773 42.9207 63.917 42.091 61.7763 41.4323V38.4683C61.7763 40.2733 50.6043 39.8743 47.5959 34.9849C44.7776 39.8743 33.4155 40.2163 33.4155 38.4113V41.4703C31.3635 42.129 30.1602 42.9397 30.1602 43.8137V38.0756C30.1602 38.0693 30.1602 38.0693 30.1602 38.063V38.025C30.1602 34.6999 31.0912 31.5839 32.6998 28.9366" stroke="black" stroke-width="1.26667" stroke-miterlimit="10" stroke-linecap="round"/>
<path d="M33.5363 46.1934C32.8586 45.9844 32.2696 45.7501 31.782 45.5094C30.737 44.9964 30.1543 44.4138 30.1543 43.8121C30.1543 42.9381 31.3576 42.1274 33.4096 41.4688V44.2808C33.4096 44.2871 33.4096 44.2871 33.4096 44.2871V44.3124C33.4096 44.9521 33.454 45.5791 33.5363 46.1934Z" stroke="black" stroke-width="1.26667" stroke-miterlimit="10" stroke-linecap="round"/>
<path d="M65.1781 43.811C65.1781 44.419 64.5954 44.9954 63.5504 45.5084C63.0311 45.768 62.3851 46.0087 61.6504 46.2367C61.7327 45.6097 61.7771 44.97 61.7771 44.3177V44.2924C61.7771 44.2924 61.7771 44.2924 61.7771 44.286V41.4297C63.9114 42.0884 65.1781 42.918 65.1781 43.811Z" stroke="black" stroke-width="1.26667" stroke-miterlimit="10" stroke-linecap="round"/>
<path d="M61.7807 38.4638V44.2842C61.7807 44.2905 61.7807 44.2905 61.7807 44.2905V44.3159C61.7807 44.9619 61.7364 45.6079 61.6541 46.2349H61.6477C60.7167 53.1636 54.776 58.4899 47.6003 58.4899C40.4056 58.4899 34.4523 53.1382 33.5466 46.1905C33.4643 45.5762 33.4199 44.9492 33.4199 44.3159V44.2905C33.4199 44.2905 33.4199 44.2905 33.4199 44.2842V38.4068C33.4199 40.2118 44.782 39.8698 47.6003 34.9805C50.6087 39.8698 61.7807 40.2688 61.7807 38.4638Z" stroke="black" stroke-width="1.26667" stroke-miterlimit="10" stroke-linecap="round" stroke-linejoin="round"/>
<path d="M65.1771 43.8164V51.7585C65.1771 52.6135 64.4868 53.3038 63.6318 53.3038H49.3184" stroke="black" stroke-width="1.26667" stroke-miterlimit="10" stroke-linecap="round"/>
<path d="M72.1828 77.2668H47.185L40.0536 70.1354L37.0452 73.1438L34.0622 76.1268C33.4352 76.7538 32.6499 77.1338 31.8392 77.2605H30.4712C29.6605 77.1338 28.8815 76.7538 28.2545 76.1268L25.0625 72.9348L28.0899 66.0757C29.6289 62.6747 35.9179 60.7747 43.0556 60.2617C44.7909 62.8774 47.983 66.2657 47.983 66.2657C47.983 66.2657 50.415 62.8331 52.0173 60.3504C59.0347 60.9774 65.33 62.9091 67.2427 66.0757L72.1828 77.2668Z" stroke="black" stroke-width="1.26667" stroke-miterlimit="10" stroke-linecap="round"/>
<path d="M53.3919 57.8477C53.4553 58.025 52.8472 59.0637 52.0176 60.343" stroke="black" stroke-width="1.26667" stroke-miterlimit="10" stroke-linecap="round"/>
<path d="M43.05 60.2611C42.157 58.9121 41.644 57.7721 42.157 57.3984" stroke="black" stroke-width="1.26667" stroke-miterlimit="10" stroke-linecap="round"/>
<path d="M23.1994 53.2751L20.1974 56.2898L10.748 46.8467L13.7564 43.832L23.1994 53.2751Z" stroke="black" stroke-width="1.26667" stroke-miterlimit="10" stroke-linecap="round" stroke-linejoin="round"/>
<path d="M9.92274 67.6045L6.72439 64.4062C2.9877 60.6695 2.9877 54.6085 6.72439 50.8718L10.7524 46.8438L20.2018 56.2868L17.2124 59.2761C15.6101 60.8785 15.6101 63.4752 17.2124 65.0712L25.0722 72.9309L28.2642 76.1229C28.8912 76.7499 29.6702 77.1299 30.4808 77.2566C30.9305 77.3389 31.3992 77.3389 31.8489 77.2566C32.6595 77.1299 33.4449 76.7499 34.0719 76.1229L37.0549 73.1399L40.0632 70.1315L48.4549 78.5233L41.4186 85.5596C37.6819 89.2963 31.6209 89.2963 27.8842 85.5596L12.1078 69.7832" stroke="black" stroke-width="1.26667" stroke-miterlimit="10" stroke-linecap="round" stroke-linejoin="round"/>
<path d="M45.3898 81.4811L37.6758 73.7734" stroke="black" stroke-width="1.26667" stroke-miterlimit="10" stroke-linecap="round" stroke-linejoin="round"/>
<path d="M85.8645 7.98047H89.6899C91.3175 7.98047 92.6349 9.29781 92.6349 10.9255V22.6739C92.6349 24.3016 91.3175 25.6189 89.6899 25.6189H86.1178L72.3048 33.0606L74.2238 25.6189H69.8728C68.2451 25.6189 66.9277 24.3016 66.9277 22.6739V10.9255C66.9277 9.29781 68.2451 7.98047 69.8728 7.98047H81.9568" stroke="black" stroke-width="1.26667" stroke-miterlimit="10" stroke-linecap="round" stroke-linejoin="round"/>
<path d="M71.4023 14.4766H88.1541" stroke="black" stroke-width="1.26667" stroke-miterlimit="10" stroke-linecap="round" stroke-linejoin="round"/>
<path d="M71.4023 18.7617H81.4471" stroke="black" stroke-width="1.26667" stroke-miterlimit="10" stroke-linecap="round" stroke-linejoin="round"/>
<path d="M85.5332 18.7617H88.1552" stroke="black" stroke-width="1.26667" stroke-miterlimit="10" stroke-linecap="round" stroke-linejoin="round"/>
<path d="M57.3108 10.9104C39.1404 7.20534 21.5716 18.2634 18.0312 35.6295" stroke="black" stroke-width="1.26667" stroke-miterlimit="10" stroke-linecap="round" stroke-linejoin="round"/>
<path d="M15.0684 28.5703L18.0324 35.632" stroke="black" stroke-width="1.26667" stroke-miterlimit="10" stroke-linecap="round" stroke-linejoin="round"/>
<path d="M18.0312 35.6295L24.5293 30.8984" stroke="black" stroke-width="1.26667" stroke-miterlimit="10" stroke-linecap="round" stroke-linejoin="round"/>
<path d="M74.6836 71.3021C86.47 62.6697 89.339 46.5703 81.0866 35.2969" stroke="black" stroke-width="1.26667" stroke-miterlimit="10" stroke-linecap="round" stroke-linejoin="round"/>
<path d="M88.3079 37.8556L81.0879 35.2969" stroke="black" stroke-width="1.26667" stroke-miterlimit="10" stroke-linecap="round" stroke-linejoin="round"/>
<path d="M81.0884 35.2969L80.2207 43.2896" stroke="black" stroke-width="1.26667" stroke-miterlimit="10" stroke-linecap="round" stroke-linejoin="round"/>
</g>
</g>
<defs>
<clipPath id="clip0_1254_6700">
<rect width="95.0005" height="95.0005" fill="white" transform="translate(0.773438 0.335938)"/>
</clipPath>
<clipPath id="clip1_1254_6700">
<rect width="95.0005" height="95.0005" fill="white" transform="translate(0.773438 0.335938)"/>
</clipPath>
</defs>
</svg>
