<svg width="20" height="20" viewBox="0 0 20 20" fill="none" xmlns="http://www.w3.org/2000/svg">
<path d="M10.0005 0C15.5235 0 20.0005 4.477 20.0005 10C20.0005 15.523 15.5235 20 10.0005 20C4.47749 20 0.000488281 15.523 0.000488281 10C0.000488281 4.477 4.47749 0 10.0005 0ZM9.99049 8H9.00049C8.74561 8.00028 8.50045 8.09788 8.31512 8.27285C8.12978 8.44782 8.01825 8.68695 8.00331 8.94139C7.98838 9.19584 8.07116 9.44638 8.23475 9.64183C8.39834 9.83728 8.63039 9.96289 8.88349 9.993L9.00049 10V14.99C9.00049 15.51 9.39449 15.94 9.90049 15.994L10.0105 16H10.5005C10.7108 16 10.9158 15.9337 11.0862 15.8105C11.2567 15.6873 11.384 15.5135 11.45 15.3139C11.516 15.1142 11.5174 14.8988 11.4539 14.6982C11.3904 14.4977 11.2654 14.3223 11.0965 14.197L11.0005 14.134V9.01C11.0005 8.49 10.6065 8.06 10.1005 8.006L9.99049 8ZM10.0005 5C9.73527 5 9.48092 5.10536 9.29338 5.29289C9.10584 5.48043 9.00049 5.73478 9.00049 6C9.00049 6.26522 9.10584 6.51957 9.29338 6.70711C9.48092 6.89464 9.73527 7 10.0005 7C10.2657 7 10.5201 6.89464 10.7076 6.70711C10.8951 6.51957 11.0005 6.26522 11.0005 6C11.0005 5.73478 10.8951 5.48043 10.7076 5.29289C10.5201 5.10536 10.2657 5 10.0005 5Z" fill="#722875"/>
</svg>
