<svg width="20" height="19" viewBox="0 0 20 19" fill="none" xmlns="http://www.w3.org/2000/svg">
<path fill-rule="evenodd" clip-rule="evenodd" d="M18.9853 14.0757L16.8713 12.0082C16.742 11.8713 16.5851 11.762 16.4105 11.6873C16.2359 11.6125 16.0474 11.5739 15.8568 11.5739C15.6662 11.5739 15.4777 11.6125 15.3031 11.6873C15.1285 11.762 14.9716 11.8713 14.8423 12.0082L12.7283 13.9925C10.8745 13.5455 9.18293 12.6063 7.84025 11.2786C6.49758 9.95095 5.55598 8.28636 5.11933 6.46848L7.14825 4.48421C7.28828 4.35777 7.40003 4.20434 7.47646 4.03359C7.55289 3.86284 7.59234 3.67847 7.59234 3.49207C7.59234 3.30568 7.55289 3.1213 7.47646 2.95055C7.40003 2.7798 7.28828 2.62638 7.14825 2.49994L4.95071 0.433963C4.82988 0.297736 4.68054 0.18849 4.51279 0.113619C4.34504 0.0387472 4.1628 0 3.9784 0C3.79401 0 3.61177 0.0387472 3.44402 0.113619C3.27627 0.18849 3.12693 0.297736 3.00611 0.433963C2.24498 1.17835 1.56892 1.83952 0.807786 2.50145C-1.30622 4.65139 0.977191 9.6949 4.78131 13.581C8.83992 17.6327 14.5886 20.4438 16.8713 18.2115C17.5473 17.4671 18.2241 16.8059 18.9853 16.0615C19.1252 15.935 19.2369 15.7816 19.3132 15.6108C19.3896 15.4401 19.429 15.2557 19.429 15.0694C19.429 14.883 19.3896 14.6987 19.3132 14.5279C19.2369 14.3572 19.1252 14.2037 18.9853 14.0772V14.0757ZM17.6324 8.45274C17.6443 8.62425 17.7194 8.78573 17.8437 8.90728C17.968 9.02884 18.1331 9.10224 18.3084 9.11392C18.4974 9.11855 18.681 9.05286 18.8223 8.93013C18.9636 8.80739 19.052 8.63676 19.0696 8.45274C19.0661 7.39791 18.8358 6.3556 18.3935 5.3935C17.9931 4.40198 17.3888 3.50141 16.618 2.74759C15.8473 1.99378 14.9264 1.40276 13.9126 1.01116C12.9289 0.578573 11.8631 0.3533 10.7845 0.349993C10.5964 0.36719 10.4219 0.45362 10.2964 0.591803C10.1709 0.729987 10.1037 0.909616 10.1085 1.09438C10.1204 1.26589 10.1955 1.42736 10.3198 1.54892C10.444 1.67047 10.6092 1.74388 10.7845 1.75555C11.6828 1.7523 12.573 1.92089 13.4052 2.25181C15.055 2.98344 16.3769 4.27625 17.125 5.88976C17.4633 6.70357 17.6357 7.57423 17.6324 8.45274ZM14.9251 8.61842C14.9204 8.80318 14.9875 8.98281 15.113 9.121C15.2385 9.25918 15.413 9.3456 15.6012 9.3628C15.6969 9.3613 15.7912 9.34036 15.8782 9.30131C15.9652 9.26226 16.0429 9.20595 16.1065 9.13596C16.1701 9.06597 16.2181 8.98382 16.2475 8.89473C16.2768 8.80564 16.287 8.71154 16.2772 8.61842C16.3011 7.87994 16.1566 7.14553 15.8541 6.46848C15.6004 5.78467 15.1964 5.16365 14.6705 4.64929C14.1445 4.13493 13.5095 3.73976 12.8103 3.49169C12.118 3.19591 11.3671 3.05456 10.612 3.07789C10.5168 3.06834 10.4206 3.07825 10.3295 3.10699C10.2384 3.13573 10.1544 3.18267 10.0828 3.24484C10.0113 3.307 9.9537 3.38303 9.91377 3.46811C9.87384 3.55319 9.85243 3.64546 9.8509 3.73907C9.86848 3.92308 9.95685 4.09371 10.0981 4.21645C10.2394 4.33918 10.4231 4.40487 10.612 4.40024C11.1662 4.39022 11.7155 4.50325 12.2186 4.73082C12.7617 4.92322 13.2531 5.23361 13.6558 5.63861C14.0419 6.0542 14.3555 6.52905 14.584 7.04416C14.8251 7.53342 14.9411 8.07261 14.922 8.61539L14.9251 8.61842Z" fill="#722875"/>
</svg>
