<svg width="24" height="23" viewBox="0 0 24 23" fill="none" xmlns="http://www.w3.org/2000/svg">
<path d="M2.46711 11.7031C1.94261 11.7031 1.5166 12.1298 1.5166 12.654C1.5166 13.1781 1.94272 13.6047 2.46711 13.6047C2.99161 13.6047 3.41773 13.1781 3.41773 12.6541C3.41796 12.1298 2.99161 11.7031 2.46711 11.7031Z" fill="#722875"/>
<path d="M2.46751 10.1797C1.10689 10.1797 0 11.2863 0 12.6472C0 14.0079 1.10701 15.1151 2.46751 15.1151C3.82836 15.1151 4.93584 14.0078 4.93584 12.6472C4.93595 11.2863 3.82836 10.1797 2.46751 10.1797ZM2.46786 14.0368C1.7017 14.0368 1.07824 13.4136 1.07824 12.6471C1.07824 11.8806 1.70159 11.2572 2.46786 11.2572C3.23414 11.2572 3.85748 11.8807 3.85748 12.6471C3.85748 13.4135 3.23414 14.0368 2.46786 14.0368Z" fill="#722875"/>
<path d="M9.84212 11.6094C8.87282 11.6094 8.08496 12.3977 8.08496 13.3668C8.08496 14.3359 8.8727 15.1246 9.84212 15.1246C10.8111 15.1246 11.6 14.3359 11.6 13.3668C11.6001 12.3977 10.8111 11.6094 9.84212 11.6094ZM9.84212 14.1939C9.38525 14.1939 9.01505 13.8237 9.01505 13.3669C9.01505 12.91 9.38514 12.54 9.84212 12.54C10.299 12.54 10.6694 12.9099 10.6694 13.3669C10.6694 13.8236 10.299 14.1939 9.84212 14.1939Z" fill="#722875"/>
<path d="M8.42002 11.775C8.05249 11.4874 7.46093 11.1323 6.65892 10.9577V10.7347C7.55943 10.9194 8.20899 11.3164 8.59834 11.6305C8.94951 11.3766 9.379 11.2252 9.84433 11.2252C10.0968 11.2252 10.3379 11.2715 10.5622 11.3525C10.5387 10.8015 10.4706 10.2212 10.287 10.1517C9.38376 9.81541 8.20679 9.61425 7.25767 9.52932V7.77994C7.25767 7.53434 7.38007 7.47737 7.39724 7.47041C7.51418 7.43758 7.58217 7.316 7.54887 7.1994C7.51592 7.08304 7.39596 7.01587 7.27798 7.04824C7.10732 7.09662 6.81867 7.30463 6.81867 7.77994V9.49684C6.7515 9.49301 6.68816 9.49069 6.62516 9.48814L6.11168 7.27887C6.09161 7.19314 6.0227 7.12759 5.93615 7.11239C5.83035 7.09383 3.32339 6.65796 1.43781 7.03756C1.31912 7.06146 1.24197 7.17713 1.26564 7.29604C1.28954 7.41484 1.40474 7.49246 1.52424 7.46786C1.55046 7.46264 1.57772 7.45904 1.60405 7.45417L1.25787 9.46795C1.25729 9.47213 1.25879 9.4763 1.25821 9.48083H1.18037C0.765501 9.48083 0.682899 9.74836 0.682899 9.74836L0.428711 10.3855L0.639973 10.4905C1.13408 10.0724 1.77216 9.8189 2.46825 9.8189C4.03282 9.8189 5.30515 11.0916 5.30515 12.6553C5.30515 12.9297 5.26408 13.1941 5.19099 13.4452H7.7157C7.71465 13.4162 7.71141 13.3876 7.71141 13.3582C7.71141 12.7297 7.98601 12.1659 8.42002 11.775ZM9.258 10.2362C9.31415 10.2143 9.37772 10.2419 9.40058 10.2983L9.57854 10.752C9.6007 10.8083 9.57263 10.8718 9.51648 10.8942C9.50325 10.8991 9.48991 10.9017 9.47622 10.9017C9.4326 10.9017 9.39141 10.8752 9.37413 10.8322L9.19593 10.3784C9.17389 10.3221 9.20161 10.2582 9.258 10.2362ZM8.7408 10.2362C8.79637 10.2143 8.86065 10.2419 8.88304 10.2983L9.06124 10.752C9.08328 10.8083 9.05532 10.8718 8.99905 10.8942C8.98583 10.8991 8.97237 10.9017 8.95879 10.9017C8.91483 10.9017 8.87376 10.8752 8.85659 10.8322L8.67862 10.3784C8.65646 10.3221 8.68419 10.2582 8.7408 10.2362ZM3.59185 9.58965C3.41933 9.53315 3.25274 9.49243 3.10644 9.48083H1.70116L2.02542 7.59478H3.59185V9.58965ZM6.21969 11.2798L5.42464 11.2788C5.16071 10.5702 4.59502 10.0639 4.03061 9.77133V7.5949H5.7344L6.21946 9.68304V11.2799L6.21969 11.2798Z" fill="#722875"/>
<path d="M20.8993 11.703C21.4238 11.703 21.8499 12.1297 21.8499 12.6539C21.8499 13.178 21.4237 13.6046 20.8993 13.6046C20.3748 13.6046 19.9487 13.178 19.9487 12.654C19.9485 12.1297 20.3748 11.703 20.8993 11.703Z" fill="#722875"/>
<path d="M20.8989 10.1796C22.2596 10.1796 23.3665 11.2862 23.3665 12.6471C23.3665 14.0078 22.2594 15.1149 20.8989 15.1149C19.5381 15.1149 18.4306 14.0077 18.4306 12.6471C18.4305 11.2862 19.5381 10.1796 20.8989 10.1796ZM20.8986 14.0367C21.6648 14.0367 22.2882 13.4135 22.2882 12.647C22.2882 11.8805 21.6649 11.2571 20.8986 11.2571C20.1323 11.2571 19.509 11.8806 19.509 12.647C19.509 13.4134 20.1323 14.0367 20.8986 14.0367Z" fill="#722875"/>
<path d="M13.5243 11.6093C14.4936 11.6093 15.2815 12.3976 15.2815 13.3666C15.2815 14.3358 14.4938 15.1245 13.5243 15.1245C12.5554 15.1245 11.7665 14.3358 11.7665 13.3666C11.7664 12.3976 12.5554 11.6093 13.5243 11.6093ZM13.5243 14.1938C13.9812 14.1938 14.3514 13.8236 14.3514 13.3668C14.3514 12.9099 13.9813 12.5399 13.5243 12.5399C13.0675 12.5399 12.697 12.9098 12.697 13.3668C12.697 13.8235 13.0675 14.1938 13.5243 14.1938Z" fill="#722875"/>
<path d="M14.9466 11.7749C15.3141 11.4873 15.9057 11.1322 16.7077 10.9576V10.7346C15.8072 10.9193 15.1576 11.3163 14.7683 11.6303C14.4171 11.3765 13.9876 11.2251 13.5223 11.2251C13.2698 11.2251 13.0287 11.2714 12.8044 11.3524C12.8279 10.8014 12.896 10.2211 13.0796 10.1516C13.9829 9.81529 15.1598 9.61412 16.1089 9.5292V7.77982C16.1089 7.53422 15.9865 7.47725 15.9694 7.47029C15.8524 7.43746 15.7844 7.31588 15.8177 7.19928C15.8507 7.08292 15.9706 7.01575 16.0886 7.04812C16.2593 7.09649 16.5479 7.30451 16.5479 7.77982V9.49672C16.6151 9.49289 16.6784 9.49057 16.7414 9.48802L17.2549 7.27875C17.275 7.19302 17.3439 7.12747 17.4305 7.11227C17.5363 7.09371 20.0432 6.65784 21.9288 7.03744C22.0475 7.06134 22.1246 7.17701 22.101 7.29592C22.0771 7.41472 21.9619 7.49233 21.8424 7.46774C21.8162 7.46252 21.7889 7.45892 21.7626 7.45405L22.1087 9.46783C22.1093 9.47201 22.1078 9.47618 22.1084 9.48071H22.1862C22.6011 9.48071 22.6837 9.74824 22.6837 9.74824L22.9379 10.3854L22.7266 10.4904C22.2325 10.0723 21.5944 9.81877 20.8984 9.81877C19.3338 9.81877 18.0615 11.0915 18.0615 12.6552C18.0615 12.9296 18.1025 13.194 18.1756 13.445H15.6509C15.652 13.416 15.6552 13.3875 15.6552 13.358C15.6552 12.7296 15.3806 12.1657 14.9466 11.7749ZM14.1086 10.2361C14.0525 10.2142 13.9889 10.2418 13.966 10.2981L13.7881 10.7519C13.7659 10.8081 13.794 10.8717 13.8501 10.8941C13.8634 10.899 13.8767 10.9015 13.8904 10.9015C13.934 10.9015 13.9752 10.8751 13.9925 10.832L14.1707 10.3783C14.1927 10.3219 14.165 10.2581 14.1086 10.2361ZM14.6258 10.2361C14.5702 10.2142 14.506 10.2418 14.4836 10.2981L14.3054 10.7519C14.2833 10.8081 14.3113 10.8717 14.3676 10.8941C14.3808 10.899 14.3942 10.9015 14.4078 10.9015C14.4518 10.9015 14.4929 10.8751 14.51 10.832L14.688 10.3783C14.7101 10.3219 14.6824 10.2581 14.6258 10.2361ZM19.7748 9.58953C19.9473 9.53303 20.1139 9.49231 20.2602 9.48071H21.6654L21.3412 7.59466H19.7748V9.58953ZM17.1469 11.2796L17.942 11.2787C18.2059 10.5701 18.7716 10.0638 19.336 9.77121V7.59478H17.6322L17.1471 9.68292V11.2797L17.1469 11.2796Z" fill="#722875"/>
<path d="M19.6158 19.868L20.0228 16.6069C20.0552 16.3418 19.9304 16.0879 19.7427 16.0419C19.7151 16.0349 19.6857 16.0335 19.6581 16.0363L17.3532 16C17.1644 15.9972 17.0091 16.2135 17.0082 16.4828C17.0062 16.7508 17.1585 16.9712 17.3483 16.9726L18.8266 16.9964C16.5521 19.8135 13.608 21.2954 10.5925 21.1433C7.57599 20.9915 4.71373 19.2164 2.58669 16.1772C2.45202 15.9875 2.2348 15.9875 2.10112 16.1772C1.96646 16.367 1.96646 16.6754 2.10014 16.8666C4.33234 20.0549 7.33125 21.9303 10.4962 22.1145C13.6612 22.2988 16.7565 20.7792 19.1666 17.8614L18.9386 19.7005C18.9091 19.9643 19.034 20.2126 19.2187 20.2587C19.4045 20.3047 19.5814 20.1303 19.6158 19.868Z" fill="#722875"/>
<path d="M2.36768 6.09596C2.34016 6.09735 2.31167 6.09596 2.28415 6.09037C2.09744 6.04152 1.97365 5.78914 2.00509 5.5239L2.40996 2.26152C2.4247 2.13309 2.47579 2.01863 2.55048 1.94324C2.62515 1.86786 2.71752 1.83854 2.80793 1.86088C2.89833 1.88321 2.97891 1.95581 3.03099 2.0633C3.08307 2.16937 3.10371 2.30199 3.087 2.43042L2.86099 4.26612C5.26945 1.34838 8.36593 -0.170446 11.5291 0.0152175C14.6922 0.200692 17.6903 2.07552 19.922 5.26532C19.9888 5.35606 20.0271 5.4803 20.0281 5.61152C20.0291 5.74274 19.9917 5.86977 19.9269 5.96191C19.861 6.05404 19.7726 6.10569 19.6802 6.1029C19.5879 6.1015 19.4994 6.04706 19.4355 5.95213C17.3091 2.91182 14.4476 1.13616 11.4328 0.983997C8.41786 0.833188 5.47488 2.31566 3.20196 5.13412L4.67793 5.15645C4.86759 5.15785 5.01991 5.37841 5.01794 5.64644C5.01696 5.91587 4.8617 6.13225 4.67302 6.12946H4.67204L2.36768 6.09596Z" fill="#722875"/>
</svg>
