<svg width="23" height="18" viewBox="0 0 23 18" fill="none" xmlns="http://www.w3.org/2000/svg">
<path d="M0.0898438 5V15.6568C0.0898438 16.9483 1.14364 18.0021 2.43513 18.0021H19.9297C21.2212 18.0021 22.275 16.9483 22.275 15.6568V5H0.0898438ZM8.91399 15.2955H3.9358C3.54201 15.2955 3.2227 14.9762 3.2227 14.5824C3.2227 14.1886 3.54201 13.8693 3.9358 13.8693H8.91399C9.30778 13.8693 9.62708 14.1886 9.62708 14.5824C9.62708 14.9762 9.30778 15.2955 8.91399 15.2955ZM18.429 11.8322H3.9358C3.54201 11.8322 3.2227 11.5129 3.2227 11.1191C3.2227 10.7254 3.54201 10.406 3.9358 10.406H18.429C18.8228 10.406 19.1421 10.7254 19.1421 11.1191C19.1421 11.5129 18.8228 11.8322 18.429 11.8322ZM18.429 8.3769H3.94689C3.5531 8.3769 3.2338 8.05759 3.2338 7.6638C3.2338 7.27002 3.5531 6.95071 3.94689 6.95071H18.429C18.8228 6.95071 19.1421 7.27002 19.1421 7.6638C19.1421 8.05759 18.8228 8.3769 18.429 8.3769Z" fill="#722875"/>
<path d="M19.8399 0H2.34529C1.05379 0 0 1.05379 0 2.34529V4.80942H22.1852V2.34529C22.1852 1.05379 21.1314 0 19.8399 0ZM3.40384 3.38165C3.0259 3.38165 2.71927 3.07502 2.71927 2.69708C2.71927 2.31914 3.0259 2.01251 3.40384 2.01251C3.78178 2.01251 4.08841 2.31914 4.08841 2.69708C4.08841 3.07502 3.78178 3.38165 3.40384 3.38165ZM5.81647 3.38165C5.43853 3.38165 5.1319 3.07502 5.1319 2.69708C5.1319 2.31914 5.43853 2.01251 5.81647 2.01251C6.19441 2.01251 6.50104 2.31914 6.50104 2.69708C6.50104 3.07502 6.19441 3.38165 5.81647 3.38165ZM8.22911 3.38165C7.85117 3.38165 7.54454 3.07502 7.54454 2.69708C7.54454 2.31914 7.85117 2.01251 8.22911 2.01251C8.60705 2.01251 8.91368 2.31914 8.91368 2.69708C8.91368 3.07502 8.60705 3.38165 8.22911 3.38165Z" fill="#722875"/>
</svg>
