<svg width="21" height="20" viewBox="0 0 21 20" fill="none" xmlns="http://www.w3.org/2000/svg">
<path d="M20.5654 9.83756L11.0239 0.303085C10.9552 0.23425 10.8736 0.179639 10.7838 0.142378C10.694 0.105117 10.5977 0.0859375 10.5004 0.0859375C10.4032 0.0859375 10.3069 0.105117 10.2171 0.142378C10.1272 0.179639 10.0456 0.23425 9.97692 0.303085L0.435491 9.83756C0.157518 10.1155 0 10.4931 0 10.8869C0 11.7046 0.664819 12.3694 1.48252 12.3694H2.48786V19.1728C2.48786 19.5828 2.81911 19.9141 3.22912 19.9141H9.01791V14.7253H11.6123V19.9141H17.7717C18.1818 19.9141 18.513 19.5828 18.513 19.1728V12.3694H19.5183C19.9121 12.3694 20.2897 12.2142 20.5677 11.9339C21.1445 11.3548 21.1445 10.4167 20.5654 9.83756Z" fill="#722875"/>
</svg>
