<svg width="23" height="22" viewBox="0 0 23 22" fill="none" xmlns="http://www.w3.org/2000/svg">
<path d="M22.4674 11.4169C22.1209 11.0751 21.6604 10.8853 21.1715 10.8853C20.844 10.8853 20.5259 10.9707 20.2744 11.1226L16.1351 13.3204C16.1588 13.4343 16.1731 13.553 16.1731 13.6764C16.1731 13.8853 16.1399 14.0846 16.0687 14.2697C16.0639 14.2888 16.0544 14.3077 16.0497 14.3267C15.969 14.5118 15.8598 14.6827 15.7221 14.8299C15.4231 15.1527 15.0244 15.3425 14.5924 15.3758L10.5196 15.765H10.4769C10.2348 15.765 10.0259 15.5799 10.0022 15.333C9.97849 15.072 10.1731 14.8441 10.4342 14.8156L14.5165 14.4264C14.7158 14.4121 14.8914 14.3267 15.0244 14.1891C15.0813 14.1274 15.124 14.0561 15.162 13.9802C15.1668 13.9707 15.1715 13.9565 15.1763 13.947C15.2095 13.8663 15.2237 13.7761 15.2237 13.6764C15.2237 13.2587 14.882 12.9169 14.4642 12.9169H7.61455C6.38988 12.9169 5.23166 13.3346 4.30127 14.1084L8.19368 18.0007C8.24113 18.0435 8.27911 18.0909 8.3171 18.1432C8.35033 18.1384 8.38356 18.1384 8.41676 18.1384H15.3092C15.969 18.1384 16.605 17.9438 17.1557 17.5783L22.1873 14.2223C22.643 13.9185 22.9373 13.4343 22.9895 12.8884C23.0465 12.3425 22.8566 11.8061 22.4674 11.4169Z" fill="#722875"/>
<path d="M7.41097 18.5561L3.61351 14.7586L2.93947 14.0846L2.82555 13.9706C2.64042 13.7855 2.33661 13.7855 2.15151 13.9706L0.138827 15.9833C-0.0462757 16.1684 -0.0462757 16.4722 0.138827 16.6574L4.8382 21.3567C4.93314 21.4469 5.05181 21.4944 5.17524 21.4944C5.29391 21.4944 5.41733 21.4469 5.51224 21.3567L7.52492 19.344C7.71003 19.1589 7.71003 18.8551 7.52492 18.67L7.41097 18.5561Z" fill="#722875"/>
<path d="M11.9027 11.0182C14.784 11.0182 17.1242 8.67804 17.1242 5.79671C17.1242 5.30302 17.0577 4.82361 16.9248 4.37266C16.621 3.29512 15.9802 2.36473 15.1258 1.68594C14.2381 0.992921 13.1179 0.575195 11.9027 0.575195C9.02133 0.575195 6.68115 2.91538 6.68115 5.79671C6.68115 8.67804 9.02134 11.0182 11.9027 11.0182Z" fill="#722875"/>
</svg>
