<svg width="13" height="20" viewBox="0 0 13 20" fill="none" xmlns="http://www.w3.org/2000/svg">
<path d="M6.28775 19.9968C9.33667 19.9968 12.5781 18.9866 12.5781 17.1114C12.5781 15.9773 11.3121 15.0119 9.19161 14.5319C8.9094 14.4686 8.62455 14.6453 8.56125 14.9302C8.49795 15.215 8.67466 15.4972 8.95951 15.5605C10.7213 15.9588 11.5258 16.6445 11.5258 17.1114C11.5258 17.8762 9.53448 18.9418 6.29038 18.9418C3.04629 18.9418 1.05499 17.8762 1.05499 17.1114C1.05499 16.6419 1.86206 15.9562 3.63708 15.5579C3.92193 15.4946 4.09864 15.2124 4.03534 14.9275C3.97204 14.6427 3.68719 14.4633 3.40498 14.5293C1.2739 15.0093 1.60845e-06 15.9746 1.60845e-06 17.1114C-0.00263587 18.9866 3.23882 19.9968 6.28775 19.9968Z" fill="#722875"/>
<path d="M6.28728 16.719C6.40861 16.719 6.52202 16.6636 6.59851 16.5686C6.83324 16.2732 12.3324 9.26546 12.3324 6.0451C12.3324 2.71133 9.62105 0 6.28728 0C2.95351 0 0.242188 2.71396 0.242188 6.0451C0.242188 9.26546 5.74133 16.2706 5.97606 16.5686C6.05255 16.6636 6.16596 16.719 6.28728 16.719ZM3.3676 6.2772C3.3676 4.6657 4.67579 3.35751 6.28728 3.35751C7.89878 3.35751 9.20697 4.6657 9.20697 6.2772C9.20697 7.88869 7.89878 9.19688 6.28728 9.19688C4.67579 9.19688 3.3676 7.89133 3.3676 6.2772Z" fill="#722875"/>
</svg>
