<svg width="96" height="96" viewBox="0 0 96 96" fill="none" xmlns="http://www.w3.org/2000/svg">
<g clip-path="url(#clip0_1254_6397)">
<g clip-path="url(#clip1_1254_6397)">
<path d="M65.2682 47.7513C75.7512 47.7513 84.2493 39.2531 84.2493 28.7702C84.2493 18.2872 75.7512 9.78906 65.2682 9.78906C54.7852 9.78906 46.2871 18.2872 46.2871 28.7702C46.2871 39.2531 54.7852 47.7513 65.2682 47.7513Z" fill="#F4F7FE"/>
<path opacity="0.3" d="M22.3784 86.792C28.7165 86.792 33.8545 81.654 33.8545 75.3159C33.8545 68.9778 28.7165 63.8398 22.3784 63.8398C16.0404 63.8398 10.9023 68.9778 10.9023 75.3159C10.9023 81.654 16.0404 86.792 22.3784 86.792Z" fill="#652178"/>
<path d="M66.3539 83.7852H55.0488V49.1797H66.3476V83.7852H66.3539ZM56.3155 82.5185H65.0809V50.4464H56.3155V82.5185Z" fill="black"/>
<path d="M51.7855 83.7907H40.4805V59.8633H51.7792V83.7907H51.7855ZM41.7471 82.5241H50.5125V61.13H41.7471V82.5241Z" fill="black"/>
<path d="M37.2172 83.7868H25.9121V66.9844H37.2108V83.7868H37.2172ZM27.1788 82.5201H35.9442V68.251H27.1788V82.5201Z" fill="black"/>
<path d="M11.5648 64.1561L11.2734 62.9211C42.3323 55.5681 64.3217 36.378 76.6274 5.88281L77.8055 6.35782C65.3351 37.2583 43.0479 56.7018 11.5648 64.1561Z" fill="black"/>
<path d="M77.6603 5.40407L67.9023 8.44922L68.2797 9.65839L78.0377 6.61324L77.6603 5.40407Z" fill="black"/>
<path d="M77.754 5.44029L76.5469 5.82422L79.5127 15.1494L80.7199 14.7654L77.754 5.44029Z" fill="black"/>
<path d="M20.5039 8.39453H11.4219V9.6612H20.5039V8.39453Z" fill="black"/>
<path d="M34.5278 8.39453H28.2578V9.6612H34.5278V8.39453Z" fill="black"/>
<path d="M25.7935 8.39453H23.4121V9.6612H25.7935V8.39453Z" fill="black"/>
<path d="M34.5323 14.5039H11.4219V15.7706H34.5323V14.5039Z" fill="black"/>
<path d="M23.9556 20.6094H11.4219V21.876H23.9556V20.6094Z" fill="black"/>
<path d="M23.9556 26.7344H11.4219V28.001H23.9556V26.7344Z" fill="black"/>
<mask id="mask0_1254_6397" style="mask-type:luminance" maskUnits="userSpaceOnUse" x="62" y="24" width="25" height="62">
<path d="M72.0894 24.9922L85.3072 27.3672L84.1735 40.7433H77.2258V44.4166H83.9582L86.9792 83.1515L80.2911 85.6342H62.5957L67.7701 30.3882L72.0894 24.9922Z" fill="white"/>
</mask>
<g mask="url(#mask0_1254_6397)">
<path d="M80.9198 83.7839H69.6211V29.7539H80.9198V83.7839ZM70.8814 82.5172H79.6468V31.0206H70.8814V82.5172Z" fill="black"/>
</g>
<path d="M89.0193 88.9883H6.47656V90.255H89.0193V88.9883Z" fill="black"/>
<mask id="mask1_1254_6397" style="mask-type:luminance" maskUnits="userSpaceOnUse" x="9" y="67" width="16" height="19">
<path d="M9.2832 76.6841H13.6026V78.8375H9.2832V85.6395H24.7176V67.6211H10.5815L9.2832 76.6841Z" fill="white"/>
</mask>
<g mask="url(#mask1_1254_6397)">
<path d="M22.6527 83.7894H11.3477V72.4844H22.6464V83.7894H22.6527ZM12.6143 82.5228H21.3797V73.751H12.6143V82.5228Z" fill="black"/>
</g>
<path d="M80.2821 41.3766C80.632 41.3766 80.9157 41.093 80.9157 40.743C80.9157 40.3931 80.632 40.1094 80.2821 40.1094C79.9321 40.1094 79.6484 40.3931 79.6484 40.743C79.6484 41.093 79.9321 41.3766 80.2821 41.3766Z" fill="black"/>
<path d="M80.2821 45.1227C80.632 45.1227 80.9157 44.839 80.9157 44.4891C80.9157 44.1392 80.632 43.8555 80.2821 43.8555C79.9321 43.8555 79.6484 44.1392 79.6484 44.4891C79.6484 44.839 79.9321 45.1227 80.2821 45.1227Z" fill="black"/>
<path d="M11.9911 79.3845C12.341 79.3845 12.6247 79.1008 12.6247 78.7508C12.6247 78.4009 12.341 78.1172 11.9911 78.1172C11.6411 78.1172 11.3574 78.4009 11.3574 78.7508C11.3574 79.1008 11.6411 79.3845 11.9911 79.3845Z" fill="black"/>
<path d="M6.47738 90.2555C6.82733 90.2555 7.11102 89.9719 7.11102 89.6219C7.11102 89.272 6.82733 88.9883 6.47738 88.9883C6.12744 88.9883 5.84375 89.272 5.84375 89.6219C5.84375 89.9719 6.12744 90.2555 6.47738 90.2555Z" fill="black"/>
<path d="M89.0204 90.2555C89.3703 90.2555 89.654 89.9719 89.654 89.6219C89.654 89.272 89.3703 88.9883 89.0204 88.9883C88.6704 88.9883 88.3867 89.272 88.3867 89.6219C88.3867 89.9719 88.6704 90.2555 89.0204 90.2555Z" fill="black"/>
<path d="M11.9911 77.2555C12.341 77.2555 12.6247 76.9719 12.6247 76.6219C12.6247 76.272 12.341 75.9883 11.9911 75.9883C11.6411 75.9883 11.3574 76.272 11.3574 76.6219C11.3574 76.9719 11.6411 77.2555 11.9911 77.2555Z" fill="black"/>
<path d="M11.4188 64.1657C11.7687 64.1657 12.0524 63.882 12.0524 63.5321C12.0524 63.1821 11.7687 62.8984 11.4188 62.8984C11.0688 62.8984 10.7852 63.1821 10.7852 63.5321C10.7852 63.882 11.0688 64.1657 11.4188 64.1657Z" fill="black"/>
<path d="M68.1864 9.6618C68.5363 9.6618 68.82 9.37811 68.82 9.02816C68.82 8.67822 68.5363 8.39453 68.1864 8.39453C67.8364 8.39453 67.5527 8.67822 67.5527 9.02816C67.5527 9.37811 67.8364 9.6618 68.1864 9.6618Z" fill="black"/>
<path d="M28.3954 9.6618C28.7453 9.6618 29.029 9.37811 29.029 9.02816C29.029 8.67822 28.7453 8.39453 28.3954 8.39453C28.0454 8.39453 27.7617 8.67822 27.7617 9.02816C27.7617 9.37811 28.0454 9.6618 28.3954 9.6618Z" fill="black"/>
<path d="M25.9051 9.6618C26.2551 9.6618 26.5388 9.37811 26.5388 9.02816C26.5388 8.67822 26.2551 8.39453 25.9051 8.39453C25.5552 8.39453 25.2715 8.67822 25.2715 9.02816C25.2715 9.37811 25.5552 9.6618 25.9051 9.6618Z" fill="black"/>
<path d="M23.5243 9.6618C23.8742 9.6618 24.1579 9.37811 24.1579 9.02816C24.1579 8.67822 23.8742 8.39453 23.5243 8.39453C23.1743 8.39453 22.8906 8.67822 22.8906 9.02816C22.8906 9.37811 23.1743 9.6618 23.5243 9.6618Z" fill="black"/>
<path d="M20.5047 9.6618C20.8547 9.6618 21.1384 9.37811 21.1384 9.02816C21.1384 8.67822 20.8547 8.39453 20.5047 8.39453C20.1548 8.39453 19.8711 8.67822 19.8711 9.02816C19.8711 9.37811 20.1548 9.6618 20.5047 9.6618Z" fill="black"/>
<path d="M11.5262 9.6618C11.8762 9.6618 12.1598 9.37811 12.1598 9.02816C12.1598 8.67822 11.8762 8.39453 11.5262 8.39453C11.1763 8.39453 10.8926 8.67822 10.8926 9.02816C10.8926 9.37811 11.1763 9.6618 11.5262 9.6618Z" fill="black"/>
<path d="M11.5262 15.7712C11.8762 15.7712 12.1598 15.4875 12.1598 15.1375C12.1598 14.7876 11.8762 14.5039 11.5262 14.5039C11.1763 14.5039 10.8926 14.7876 10.8926 15.1375C10.8926 15.4875 11.1763 15.7712 11.5262 15.7712Z" fill="black"/>
<path d="M34.534 15.7712C34.884 15.7712 35.1677 15.4875 35.1677 15.1375C35.1677 14.7876 34.884 14.5039 34.534 14.5039C34.1841 14.5039 33.9004 14.7876 33.9004 15.1375C33.9004 15.4875 34.1841 15.7712 34.534 15.7712Z" fill="black"/>
<path d="M23.9559 21.8766C24.3058 21.8766 24.5895 21.593 24.5895 21.243C24.5895 20.8931 24.3058 20.6094 23.9559 20.6094C23.606 20.6094 23.3223 20.8931 23.3223 21.243C23.3223 21.593 23.606 21.8766 23.9559 21.8766Z" fill="black"/>
<path d="M11.4188 21.8766C11.7687 21.8766 12.0524 21.593 12.0524 21.243C12.0524 20.8931 11.7687 20.6094 11.4188 20.6094C11.0688 20.6094 10.7852 20.8931 10.7852 21.243C10.7852 21.593 11.0688 21.8766 11.4188 21.8766Z" fill="black"/>
<path d="M11.5262 28.0016C11.8762 28.0016 12.1598 27.718 12.1598 27.368C12.1598 27.0181 11.8762 26.7344 11.5262 26.7344C11.1763 26.7344 10.8926 27.0181 10.8926 27.368C10.8926 27.718 11.1763 28.0016 11.5262 28.0016Z" fill="black"/>
<path d="M23.9559 28.0016C24.3058 28.0016 24.5895 27.718 24.5895 27.368C24.5895 27.0181 24.3058 26.7344 23.9559 26.7344C23.606 26.7344 23.3223 27.0181 23.3223 27.368C23.3223 27.718 23.606 28.0016 23.9559 28.0016Z" fill="black"/>
<path d="M34.534 9.6618C34.884 9.6618 35.1677 9.37811 35.1677 9.02816C35.1677 8.67822 34.884 8.39453 34.534 8.39453C34.1841 8.39453 33.9004 8.67822 33.9004 9.02816C33.9004 9.37811 34.1841 9.6618 34.534 9.6618Z" fill="black"/>
<path d="M80.1024 15.5563C80.4523 15.5563 80.736 15.2726 80.736 14.9227C80.736 14.5727 80.4523 14.2891 80.1024 14.2891C79.7524 14.2891 79.4688 14.5727 79.4688 14.9227C79.4688 15.2726 79.7524 15.5563 80.1024 15.5563Z" fill="black"/>
</g>
</g>
<defs>
<clipPath id="clip0_1254_6397">
<rect width="95.0005" height="95.0005" fill="white" transform="translate(0.25 0.0234375)"/>
</clipPath>
<clipPath id="clip1_1254_6397">
<rect width="95.0005" height="95.0005" fill="white" transform="translate(0.25 0.0234375)"/>
</clipPath>
</defs>
</svg>
