<svg width="79" height="76" viewBox="0 0 79 76" fill="none" xmlns="http://www.w3.org/2000/svg">
<path d="M74.2105 23.5328C74.0803 24.0239 73.7654 24.4343 73.324 24.6883L71.9849 25.4586C72.5228 26.8362 72.9717 28.2484 73.3203 29.6756C73.2359 29.6569 73.1506 29.6372 73.0654 29.6194C71.2661 28.9493 69.4265 28.3374 67.5542 27.7854C67.4745 27.5643 67.3902 27.3441 67.3012 27.1238C66.8326 25.9272 66.2919 24.7689 65.6781 23.6556C65.471 23.2798 65.2564 22.9078 65.0334 22.5395C63.3419 19.7506 61.2127 17.2607 58.7378 15.1616C58.5035 14.962 58.2702 14.7671 58.0322 14.5787C57.0379 13.785 55.9911 13.0521 54.8975 12.384C54.533 12.1619 54.161 11.9473 53.7852 11.7392C50.9804 10.1902 47.9001 9.07689 44.6352 8.49026C42.8856 8.17164 41.0863 8.00671 39.2486 8.00671C39.0453 8.00671 38.8457 8.01046 38.6423 8.0142C35.2968 8.0798 32.0816 8.68986 29.0894 9.7638C28.5637 9.94841 28.0464 10.1518 27.5319 10.3664C26.2387 10.9146 24.9961 11.5481 23.8022 12.265H23.7984C23.7488 12.2921 23.7029 12.3193 23.6569 12.3493C20.8643 14.0417 18.366 16.1746 16.2678 18.6495C16.0682 18.8791 15.8761 19.1134 15.6849 19.3514C14.8902 20.3485 14.1536 21.3962 13.4902 22.4898C13.2671 22.8544 13.0525 23.2264 12.8454 23.6022C12.0695 25.0041 11.4042 26.4735 10.8616 28.0029C8.96672 28.5792 7.10749 29.2174 5.29042 29.9155C5.2267 29.9296 5.16297 29.9446 5.09925 29.9596C5.41787 28.6167 5.82083 27.2925 6.30438 25.9965L12.2813 24.35L12.361 24.2122L12.688 23.6481L12.6552 23.6575L7.14122 25.1709C6.97535 25.2178 6.80667 25.2402 6.63799 25.2402C6.30438 25.2402 5.97451 25.1522 5.68682 24.9872L5.16859 24.6883C4.72721 24.4343 4.41328 24.0239 4.28208 23.5328C4.15182 23.0418 4.21742 22.5282 4.47044 22.0906L7.95745 16.0481C8.29949 15.4615 8.9283 15.0969 9.60771 15.0969C9.94132 15.0969 10.2712 15.185 10.5589 15.3537L11.898 16.1249C12.6843 15.1466 13.5248 14.2104 14.4226 13.3164C15.1817 12.5564 15.9726 11.8358 16.7935 11.1489L22.7798 12.7148L22.7901 12.7176L23.492 12.3109L23.4957 12.3071H23.4995L23.6382 12.2228L23.5848 12.2097L17.6566 10.7693C17.4186 10.7112 17.2115 10.5697 17.0737 10.3701C17.07 10.3701 17.07 10.3664 17.07 10.3664C16.9472 10.2473 16.8432 10.1133 16.7588 9.96715L16.4599 9.44893C15.9379 8.54367 16.249 7.37415 17.158 6.85218L23.1968 3.36424C23.4845 3.19556 23.8144 3.10747 24.148 3.10747C24.8274 3.10747 25.4562 3.47576 25.7936 4.06333L26.5648 5.39403C28.7445 4.54969 30.9927 3.92838 33.2867 3.53761L37.7024 7.89144H38.5196L38.4952 7.86801L34.4225 3.85154C34.0617 3.49544 33.8584 3.00439 33.8584 2.49741V1.90328C33.8584 0.851837 34.7102 0 35.757 0H42.7356C43.7833 0 44.6352 0.851837 44.6352 1.90328V3.44483C46.9405 3.79813 49.1924 4.38101 51.3871 5.19068L53.0327 11.1723L53.5799 11.489L53.7355 11.579H53.7392V11.5762L52.2118 6.03502C52.0777 5.54772 52.1471 5.0145 52.4001 4.57687L52.6991 4.05864C53.0364 3.47576 53.6699 3.10747 54.3446 3.10747C54.6792 3.10747 55.009 3.19556 55.2967 3.36424L61.3393 6.85218C62.2445 7.3779 62.5594 8.54367 62.0337 9.44893L61.2587 10.7918C62.2333 11.579 63.1732 12.4186 64.0663 13.3164C64.8263 14.0727 65.5516 14.8664 66.231 15.6835L64.6726 21.6801L65.0755 22.382L66.5262 16.8193C66.6564 16.3283 66.9788 15.9019 67.4164 15.6489L67.9337 15.3537C68.2214 15.185 68.5513 15.0969 68.8858 15.0969C69.5606 15.0969 70.194 15.4615 70.5314 16.0481L74.0184 22.0906C74.2761 22.5282 74.3408 23.0418 74.2105 23.5328Z" fill="#722875"/>
<path d="M4.30725 41.2378L4.27633 40.9539C4.27914 40.9801 4.28101 41.0054 4.28289 41.0316C4.28289 41.0298 4.28289 41.0279 4.28289 41.026L4.27539 40.9548C4.28757 41.0738 4.29507 41.1891 4.31006 41.3034C4.31006 41.2987 4.31006 41.2931 4.30913 41.2884V41.2865C4.30913 41.2865 4.30913 41.2847 4.30913 41.2828C4.30913 41.2893 4.31006 41.2968 4.311 41.3034C4.311 41.28 4.30725 41.2575 4.30725 41.2378Z" fill="#722875"/>
<path d="M71.5104 51.7186V51.7148C71.517 51.6999 71.5235 51.6858 71.5292 51.6708C71.5292 51.6699 71.5301 51.668 71.531 51.6671C71.531 51.6652 71.5329 51.6633 71.5339 51.6614C71.5432 51.6399 71.5526 51.6183 71.561 51.5968C71.5704 51.5724 71.5807 51.548 71.591 51.5237C71.5929 51.519 71.5948 51.5152 71.5957 51.5115C71.6098 51.474 71.6266 51.4393 71.6407 51.4019L71.6229 51.444L71.6248 51.4403L71.5067 51.713C71.5067 51.713 71.5029 51.7167 71.5029 51.7205H71.5104V51.7186Z" fill="#722875"/>
<path d="M74.0401 53.8737C74.0335 53.8859 74.026 53.8972 74.0195 53.9093L70.5325 59.9481C70.1951 60.5347 69.5616 60.8993 68.8869 60.8993C68.5523 60.8993 68.2225 60.8112 67.9348 60.6463L66.5919 59.8713C65.8019 60.8459 64.9651 61.782 64.0673 62.6798C63.3083 63.4389 62.522 64.1642 61.7048 64.8436L55.7082 63.2824L55.0026 63.6891L60.5691 65.1388C61.0601 65.2653 61.4818 65.5914 61.7348 66.029L62.0347 66.5473C62.5604 67.4563 62.2456 68.6183 61.3403 69.144L55.2978 72.632C55.0101 72.8006 54.6802 72.8887 54.3457 72.8887C53.671 72.8887 53.0375 72.5242 52.7001 71.9366L51.9251 70.5984C49.7463 71.4456 47.4982 72.0678 45.2041 72.4586L40.7884 68.1048H39.975L44.0721 72.1447C44.4329 72.5008 44.6362 72.9918 44.6362 73.4988V74.0967C44.6362 75.1444 43.7844 75.9999 42.7367 75.9999H35.758C34.7113 75.9999 33.8594 75.1444 33.8594 74.0967V72.5514H33.8557C31.5532 72.1981 29.2975 71.6114 27.1028 70.8018L25.4572 64.8239L24.7554 64.421L26.2819 69.9649C26.4169 70.4522 26.3475 70.9817 26.0945 71.4193L25.7946 71.9366C25.4573 72.5242 24.8238 72.8887 24.149 72.8887C23.8154 72.8887 23.4856 72.8006 23.1979 72.632L17.1591 69.144C16.2501 68.6183 15.9352 67.4563 16.4609 66.5473L17.2359 65.2044C16.2576 64.421 15.3214 63.5775 14.4237 62.6798C13.6637 61.9198 12.943 61.1298 12.2636 60.3126L13.8248 54.3198L13.4144 53.6179L11.9647 59.1806C11.8382 59.6679 11.512 60.0934 11.0744 60.3473L10.5599 60.6463C10.2685 60.8112 9.94238 60.8993 9.60877 60.8993C8.92936 60.8993 8.30055 60.5347 7.95851 59.9481L4.51367 53.9824C7.28566 53.3536 10.0726 52.8429 12.8662 52.4306C13.0583 52.7754 13.256 53.1175 13.4566 53.453C15.149 56.2418 17.2819 58.7355 19.7558 60.8346C19.9901 61.038 20.2281 61.2291 20.4662 61.4175C21.4595 62.215 22.5072 62.9478 23.5971 63.6122C23.9607 63.8343 24.3336 64.0489 24.7094 64.256C27.5133 65.806 30.5945 66.9193 33.8594 67.5059C34.1584 67.5631 34.4582 67.6137 34.7609 67.6596V67.6634C36.0064 67.848 37.2761 67.9557 38.5665 67.982L38.5628 67.9782C38.7802 67.9857 38.9939 67.9895 39.2113 67.9895H39.2497C39.3668 67.9895 39.483 67.9895 39.6002 67.9867C39.6836 67.9857 39.7679 67.9848 39.8513 67.982C39.8598 67.9829 39.8682 67.9829 39.8766 67.9811C39.9385 67.9801 40.0003 67.9792 40.0622 67.9773C40.1521 67.9754 40.2421 67.9726 40.3321 67.9689C40.3574 67.9679 40.3817 67.967 40.407 67.9661C40.527 67.9614 40.646 67.9567 40.766 67.9501C40.7734 67.9501 40.7809 67.9492 40.7884 67.9492C40.9093 67.9436 41.0302 67.9361 41.1511 67.9286C44.0299 67.7496 46.8019 67.1667 49.4052 66.2324C49.6929 66.1321 49.9759 66.0253 50.2599 65.91L50.2571 65.9053C51.4491 65.4377 52.6045 64.8951 53.7169 64.2841L53.7281 64.2869C54.1048 64.0836 54.4731 63.869 54.8367 63.646C56.9068 62.3921 58.8138 60.8965 60.5156 59.1975C60.66 59.056 60.8015 58.9107 60.9411 58.7645C60.9908 58.7149 61.0395 58.6633 61.0864 58.6127C61.1782 58.5171 61.2681 58.4206 61.3581 58.3241C61.4293 58.2482 61.4996 58.1704 61.5699 58.0936C61.6496 58.0073 61.7273 57.9202 61.8042 57.833C61.9466 57.6728 62.0872 57.5107 62.2259 57.3467C62.2484 57.3214 62.2699 57.2961 62.2905 57.2708C62.4677 57.0655 62.6382 56.8566 62.8097 56.6448L62.8069 56.6429C63.6044 55.6467 64.34 54.5991 65.0082 53.5054H65.0035C65.2265 53.1418 65.4411 52.7698 65.6482 52.394C65.6623 52.3687 65.6754 52.3434 65.6895 52.3181C68.4502 52.7295 71.2297 53.2412 74.0401 53.8737Z" fill="#722875"/>
<path d="M74.2271 34.8991H74.2308L74.2158 34.7576C74.2196 34.8035 74.2233 34.8532 74.2271 34.8991Z" fill="#722875"/>
<path d="M78.7542 35.0922C52.2413 27.0452 26.5119 27.0452 0 35.0922C4.43068 33.0071 9.18466 31.3194 14.1392 30.028C30.2988 25.8166 48.5913 25.827 64.7406 30.0608C69.6501 31.3475 74.361 33.0249 78.7542 35.0922Z" fill="#E55E25"/>
<path fill-rule="evenodd" clip-rule="evenodd" d="M76.6861 52.8805C54.6339 44.2581 24.1205 44.2591 2.06836 52.8805C14.443 49.7599 27.1887 49.1386 39.3805 49.0927C51.9379 49.0449 63.9404 49.6662 76.6861 52.8805Z" fill="#E55E25"/>
<path fill-rule="evenodd" clip-rule="evenodd" d="M70.8506 52.8325L71.023 52.7866C71.0118 52.81 70.9996 52.8325 70.9883 52.856C70.9424 52.8447 70.8965 52.841 70.8506 52.8325Z" fill="white"/>
<path fill-rule="evenodd" clip-rule="evenodd" d="M71.5067 51.713L71.6407 51.4019C71.6257 51.444 71.606 51.4824 71.591 51.5246C71.5638 51.5902 71.5414 51.6511 71.5104 51.7167V51.7205H71.5029C71.5029 51.7205 71.5067 51.7167 71.5067 51.713Z" fill="white"/>
<path fill-rule="evenodd" clip-rule="evenodd" d="M74.2298 34.901H74.2261C74.2223 34.8551 74.2186 34.8054 74.2148 34.7595L74.2298 34.901Z" fill="white"/>
<path d="M16.3271 46.315C16.7376 46.5249 16.9419 46.6308 17.3486 46.8445C18.0449 46.0657 18.3991 45.6796 19.1207 44.9121C19.9678 45.4107 20.3867 45.6646 21.2142 46.1791C21.4569 45.9523 21.5787 45.8389 21.8243 45.614C20.6313 44.9018 20.0259 44.5542 18.7946 43.8748C17.7862 44.84 17.2933 45.3292 16.3271 46.3159V46.315Z" fill="#722875"/>
<path d="M17.9172 34.4848C18.9902 34.2965 19.9536 33.7295 20.5374 32.7221C20.1232 32.53 19.9152 32.4344 19.4972 32.2451C19.0549 33.0754 18.2359 33.558 17.3456 33.7173C16.4844 33.8719 15.5791 33.7108 14.8669 33.1953C14.687 33.3978 14.598 33.499 14.4199 33.7014C15.4507 34.4314 16.714 34.6966 17.9172 34.4848Z" fill="#722875"/>
<path d="M39.2596 33.9721C37.0302 33.973 35.915 33.9993 33.6885 34.1023C29.1153 34.3132 24.5544 34.7818 20.0338 35.5043C17.0669 35.9785 15.5881 36.2615 12.6465 36.9184C12.6596 36.9746 12.6652 37.0027 12.6783 37.0599C12.8189 37.1527 12.8883 37.1995 13.0279 37.2923C13.2472 37.476 13.3568 37.5678 13.5742 37.7524C15.1701 37.4057 15.9704 37.2464 17.5738 36.954C17.6666 37.4619 17.7125 37.7149 17.8053 38.2228C17.8597 38.5208 17.7866 38.6099 16.9357 39.0812C16.6367 39.2452 16.4877 39.3286 16.1907 39.4945C15.0671 40.1064 14.7222 40.7099 14.8674 41.3922C15.1692 42.8081 17.3283 43.7518 18.9673 43.4557C20.0834 43.2542 20.776 42.8494 21.237 42.4296C20.8978 42.0781 20.7272 41.9029 20.3833 41.5543C20.0225 41.9207 19.3384 42.4089 18.3226 42.5964C16.9272 42.8541 16.2122 42.2412 16.0969 41.6733C15.992 41.1569 16.2534 40.7643 17.2084 40.2076C17.5232 40.0249 17.6807 39.9331 17.9983 39.7522C19.0404 39.1731 19.2119 38.8957 19.1229 38.3765C19.0095 37.7177 18.9533 37.3888 18.8408 36.73C19.3937 36.6354 19.7629 36.5735 20.1931 36.5051C20.3121 36.4864 20.4264 36.4676 20.5379 36.4498C20.6569 36.4311 20.7825 36.4123 20.9203 36.3908C20.9203 36.3908 20.9203 36.3908 20.9203 36.3898C22.3344 36.1687 23.2518 36.045 24.8646 35.851C24.9948 36.9324 25.0595 37.4731 25.1898 38.5555C25.3481 39.875 24.8112 40.7456 23.7691 40.8861C22.9726 40.9939 22.4018 40.4401 22.3091 39.8019C22.1929 39.0072 22.7889 38.4805 23.5732 38.3756C23.7691 38.3494 24.0427 38.3662 24.2302 38.3822C24.247 38.3372 24.2555 38.3156 24.2723 38.2706C23.9659 37.922 23.8113 37.7487 23.5001 37.4029C23.2977 37.3897 23.1965 37.3897 22.9979 37.4179C21.8386 37.5772 21.0627 38.3522 21.2445 39.5226C21.341 40.1467 21.7965 40.7156 22.2753 41.1101C22.8629 41.5946 23.5835 41.8785 24.2367 41.7923C24.9171 41.7023 25.38 41.3022 25.5843 40.9199C25.633 41.4446 25.6461 42.1315 25.7183 42.8522C25.9498 42.9571 26.065 43.0096 26.2956 43.1155C26.4652 43.2177 26.5505 43.2692 26.7191 43.3723C26.7997 43.3629 26.84 43.3592 26.9206 43.3498C26.7885 42.1465 26.7219 41.5449 26.5898 40.3407C26.4492 39.0587 27.0003 38.1348 28.0686 38.0326C28.4341 37.9979 28.7255 38.0907 28.9823 38.28C28.6843 38.5836 28.5746 38.9238 28.6093 39.3043C28.7414 40.7456 30.7656 41.9385 32.4234 41.8382C33.5516 41.7698 34.2845 41.4503 34.7905 41.0876C34.4962 40.6987 34.3472 40.5047 34.0483 40.1177C33.6482 40.4391 32.9135 40.843 31.8864 40.9086C30.476 40.9995 29.8397 40.306 29.7929 39.7288C29.7498 39.204 30.0543 38.8451 31.0645 38.4046C31.3972 38.2603 31.565 38.1882 31.8995 38.0457C32.9987 37.594 33.2002 37.3382 33.173 36.8125C33.1384 36.1453 33.1215 35.8116 33.0868 35.1435C33.6453 35.1144 34.0183 35.0976 34.4531 35.0798C34.5825 35.0741 34.7015 35.0695 34.8149 35.0657C34.9311 35.062 35.0529 35.0573 35.1869 35.0526C35.6892 35.0348 36.1043 35.0235 36.7406 35.0104C36.7631 36.0469 36.7734 36.5651 36.7959 37.6025C36.8016 37.8527 36.6216 38.0139 36.2711 38.0232C36.0472 38.0289 35.7932 37.9839 35.5655 37.9117C35.3696 38.1282 35.2722 38.2369 35.0782 38.4552C35.2591 38.8039 35.6826 39.4964 36.7669 40.7624C37.4538 41.5637 37.7911 41.9666 38.4546 42.7772C38.7554 42.6067 38.9054 42.5214 39.2081 42.3527C37.8005 40.9592 36.7706 39.7222 36.7659 39.4983C36.7631 39.3802 36.8315 39.3389 36.9281 39.2846C37.763 38.6886 38.0423 38.3325 38.0348 37.6353C38.0235 36.5773 38.0179 36.0487 38.0057 34.9907C38.7948 34.9823 39.1884 34.9814 39.9774 34.9851C39.9774 34.927 39.9774 34.898 39.9774 34.8399C39.8631 34.718 39.805 34.6571 39.6907 34.5362C39.5182 34.3094 39.4311 34.1961 39.2568 33.9702L39.2596 33.9721ZM30.9268 37.2557C30.6119 37.3832 30.4554 37.4478 30.1415 37.5781C29.8941 37.6765 29.6889 37.7721 29.5145 37.8789C29.0029 37.3401 28.4144 37.0083 27.6216 37.0861C26.9131 37.1555 26.4699 37.5622 26.2674 37.9155C26.2853 37.6887 26.2571 36.9099 26.1428 35.8641C26.1362 35.8013 26.1325 35.7704 26.1259 35.7076C28.3956 35.4593 29.5324 35.3618 31.8095 35.2203C31.8414 35.7348 31.8573 35.9925 31.8892 36.507C31.9079 36.8087 31.8255 36.8893 30.9277 37.2567L30.9268 37.2557Z" fill="#722875"/>
<path d="M65.3037 36.7611C64.867 36.6664 64.4284 36.5746 63.9908 36.4846C63.6619 35.942 63.4154 35.2654 63.5335 34.6722C63.6413 34.1306 64.0873 33.9507 64.51 34.0369C64.9767 34.1334 65.2775 34.5073 65.1903 35.2017C65.4171 35.1858 65.5305 35.1774 65.7582 35.1624C66.0637 34.1784 65.5624 33.2441 64.4884 33.0248C63.6356 32.8505 62.8129 33.2441 62.6451 34.1231C62.5064 34.8484 62.8185 35.6347 63.2364 36.3309C59.1975 35.526 55.1173 34.9253 51.0174 34.5317C51.0174 34.5317 51.0174 34.5317 51.0174 34.5307C47.581 34.2009 45.8576 34.0969 42.41 34.0106C42.4081 34.0687 42.4081 34.0978 42.4062 34.155C42.5196 34.2787 42.5749 34.3405 42.6874 34.4651C42.8551 34.6966 42.9376 34.8119 43.1035 35.0433C45.2382 35.1099 46.3056 35.1661 48.4375 35.3264C48.3522 36.4603 48.3091 37.0272 48.2239 38.1611C48.1292 39.4206 47.1602 40.1384 46.0844 40.0756C45.0358 40.0147 44.5588 39.2463 44.5878 38.5894C44.6263 37.7347 45.3666 37.3187 46.2419 37.3693C46.553 37.3871 46.9016 37.4752 47.2043 37.6007C47.2408 37.5614 47.2596 37.5408 47.2961 37.5014C47.0918 37.0919 46.9878 36.8876 46.7788 36.479C46.5146 36.3572 46.1622 36.2831 45.8483 36.2663C44.6516 36.2016 43.6414 36.9045 43.6001 38.0487C43.5748 38.7328 43.9881 39.459 44.4285 39.9782C44.9552 40.5986 45.5756 41.0203 46.3421 41.0662C47.313 41.1252 47.8537 40.6801 48.1311 40.3184C48.0505 41.3811 47.8968 42.3332 47.8968 42.3332C48.1142 42.4868 48.222 42.5637 48.4385 42.7183C48.5959 42.8579 48.6737 42.9273 48.8302 43.0669C48.9108 43.0735 48.9511 43.0772 49.0317 43.0838C49.294 40.0213 49.4262 38.4891 49.6886 35.4266C50.3118 35.48 50.6866 35.5138 51.2095 35.5663C51.3435 35.5784 51.4785 35.5934 51.6134 35.6066C51.6228 35.6066 51.6312 35.6084 51.6396 35.6094C55.3375 35.9692 59.0747 36.524 62.7116 37.2578C62.6179 37.7329 62.572 37.9709 62.4783 38.446C62.1859 38.3748 61.3453 38.119 60.5001 37.9681C59.5695 37.8013 58.9201 38.0431 58.6343 38.5566C58.2978 38.3279 57.8583 38.0974 57.282 38.0093C56.5501 37.8978 55.8548 38.134 55.4649 38.6906C55.1145 38.2314 54.4688 37.6926 53.6076 37.5895C52.4652 37.4517 51.5694 38.103 51.4597 39.1629C51.3332 40.3802 52.1841 41.8074 53.8653 43.3771C54.0968 43.2319 54.213 43.1588 54.4463 43.0154C53.2534 41.8871 52.5055 40.7335 52.6264 39.6746C52.7145 38.9033 53.3236 38.535 53.9955 38.6184C54.4847 38.6793 54.8408 38.8996 55.1182 39.2557C55.0732 39.3822 55.0357 39.5499 55.017 39.6933C54.9767 39.9932 54.9964 40.4739 55.0788 40.7907C55.5305 41.0118 55.7545 41.1233 56.2024 41.3483C56.1172 40.8834 56.1078 40.4571 56.1556 40.1309C56.2821 39.2585 56.8584 38.8218 57.6681 38.9483C57.9895 38.9989 58.2604 39.0954 58.4703 39.2098C58.4534 40.2734 59.3427 41.4495 60.1693 41.7868C60.1693 41.7868 61.6874 41.5357 62.3021 41.6584C62.6161 41.7212 62.7819 41.9574 62.7126 42.2929C62.5776 42.9498 61.8336 43.5017 60.4195 43.2384C59.2884 43.0276 58.4318 42.2713 57.9867 41.6519C57.7581 41.8168 57.6437 41.9002 57.417 42.067C57.9877 42.8636 58.9932 43.9984 60.6341 44.3105C62.1419 44.5972 63.2608 43.9806 63.4801 42.9517C63.5626 42.5656 63.541 42.0736 63.3105 41.531C63.0734 40.9706 62.7341 40.7129 62.1691 40.6014C61.7136 40.5114 60.4944 40.6164 60.0025 40.6623C59.6032 40.5911 59.264 40.1722 59.3502 39.6661C59.4411 39.1348 59.9219 38.9342 60.6762 39.072C61.5084 39.2238 61.9235 39.3035 62.7538 39.4693C63.3667 39.5921 63.5372 39.4684 63.5888 39.2229C63.7312 38.5378 63.8015 38.1949 63.944 37.5089C64.6862 37.6626 65.0572 37.7422 65.7976 37.9081C65.8098 37.8519 65.8163 37.8228 65.8294 37.7666C65.7423 37.6232 65.6992 37.5511 65.612 37.4086C65.4902 37.15 65.4293 37.0207 65.3065 36.762L65.3037 36.7611Z" fill="#722875"/>
<path d="M47.0057 27.1567C46.2336 27.1567 45.5073 26.8559 44.961 26.3095C44.4146 25.7632 44.1138 25.0369 44.1138 24.2647C44.1138 23.4926 44.4146 22.7663 44.961 22.2199C45.5073 21.6736 46.2336 21.3728 47.0057 21.3728C47.7779 21.3728 48.5042 21.6736 49.0505 22.2199C49.5969 22.7663 49.8977 23.4926 49.8977 24.2647C49.8977 25.0369 49.5969 25.7632 49.0505 26.3095C48.5042 26.8559 47.7779 27.1567 47.0057 27.1567ZM47.0057 21.743C46.332 21.743 45.6985 22.0054 45.2224 22.4814C44.7463 22.9575 44.484 23.5909 44.484 24.2647C44.484 24.9385 44.7463 25.572 45.2224 26.0481C45.6985 26.5241 46.332 26.7865 47.0057 26.7865C47.6795 26.7865 48.313 26.5241 48.7891 26.0481C49.2651 25.572 49.5275 24.9385 49.5275 24.2647C49.5275 23.5909 49.2651 22.9584 48.7891 22.4814C48.313 22.0054 47.6795 21.743 47.0057 21.743ZM33.3014 27.1567C32.1347 27.1567 31.0382 26.7022 30.2126 25.8775C29.388 25.0528 28.9335 23.9555 28.9335 22.7888C28.9335 21.6221 29.388 20.5256 30.2126 19.7C31.0373 18.8754 32.1347 18.4209 33.3014 18.4209C34.4681 18.4209 35.5645 18.8754 36.3901 19.7C37.2157 20.5247 37.6693 21.6221 37.6693 22.7888C37.6693 23.9555 37.2148 25.0519 36.3901 25.8775C35.5654 26.7022 34.4681 27.1567 33.3014 27.1567ZM30.475 19.9624C29.7197 20.7178 29.3046 21.7214 29.3046 22.7888C29.3046 23.8562 29.7207 24.8607 30.475 25.6151C31.2303 26.3704 32.234 26.7856 33.3014 26.7856C34.3687 26.7856 35.3733 26.3695 36.1277 25.6151C36.883 24.8598 37.2982 23.8562 37.2982 22.7888C37.2982 21.7214 36.8821 20.7168 36.1277 19.9624C35.3724 19.2071 34.3687 18.792 33.3014 18.792C32.234 18.792 31.2294 19.2081 30.475 19.9624ZM46.9814 26.168C46.4472 26.168 45.9449 25.96 45.5663 25.5823C45.1887 25.2047 44.9806 24.7024 44.9806 24.1673C44.9806 23.6322 45.1887 23.1308 45.5663 22.7522C45.944 22.3746 46.4472 22.1665 46.9814 22.1665C47.5155 22.1665 48.0178 22.3746 48.3964 22.7522C48.7741 23.1299 48.9821 23.6331 48.9821 24.1673C48.9821 24.7014 48.7741 25.2037 48.3964 25.5823C48.0188 25.96 47.5165 26.168 46.9814 26.168ZM46.9814 22.5367C46.5456 22.5367 46.1361 22.7063 45.8278 23.0146C45.5195 23.3229 45.3499 23.7325 45.3499 24.1682C45.3499 24.604 45.5195 25.0135 45.8278 25.3218C46.1361 25.6301 46.5456 25.7997 46.9814 25.7997C47.4171 25.7997 47.8266 25.6301 48.135 25.3218C48.4433 25.0135 48.6129 24.604 48.6129 24.1682C48.6129 23.7325 48.4433 23.3229 48.135 23.0146C47.8266 22.7063 47.4171 22.5367 46.9814 22.5367ZM33.3089 25.512C32.5526 25.512 31.8423 25.2178 31.3081 24.6836C30.774 24.1495 30.4797 23.4382 30.4797 22.6829C30.4797 21.9276 30.774 21.2163 31.3081 20.6821C31.8423 20.148 32.5536 19.8537 33.3089 19.8537C34.0642 19.8537 34.7754 20.148 35.3096 20.6821C35.8438 21.2163 36.138 21.9276 36.138 22.6829C36.138 23.4382 35.8438 24.1495 35.3096 24.6836C34.7754 25.2178 34.0642 25.512 33.3089 25.512ZM31.5696 20.9436C31.1048 21.4084 30.8489 22.026 30.8489 22.6829C30.8489 23.3398 31.1048 23.9574 31.5696 24.4222C32.0344 24.887 32.652 25.1428 33.3089 25.1428C33.9658 25.1428 34.5833 24.887 35.0482 24.4222C35.513 23.9574 35.7688 23.3398 35.7688 22.6829C35.7688 22.026 35.513 21.4084 35.0482 20.9436C34.5833 20.4788 33.9658 20.223 33.3089 20.223C32.652 20.223 32.0344 20.4788 31.5696 20.9436ZM37.8811 25.08H37.3966C37.331 25.08 37.271 25.0453 37.2373 24.9901C37.2035 24.9338 37.2026 24.8645 37.2335 24.8073C37.2494 24.7773 37.2654 24.7473 37.2813 24.7174C37.3 24.6808 37.315 24.6508 37.3291 24.6208C37.3469 24.5834 37.361 24.5534 37.375 24.5234C37.3928 24.485 37.4059 24.454 37.4191 24.4231C37.435 24.3856 37.4481 24.3538 37.4603 24.321C37.4734 24.2863 37.4856 24.2563 37.4968 24.2254C37.5821 23.993 37.6496 23.7512 37.6946 23.5057C37.6946 23.5038 37.6946 23.5029 37.6946 23.501C37.7152 23.3876 37.732 23.2733 37.7442 23.1599L37.747 23.1355C37.747 23.1318 37.747 23.1271 37.747 23.1261C37.747 23.1243 37.748 23.1158 37.748 23.114V23.1102V23.0999V23.0877C37.748 23.0877 37.7499 23.0783 37.7499 23.0765L37.7592 22.9509V22.9378V22.9275H37.9448L37.7602 22.9162C37.7602 22.9162 37.7602 22.9031 37.7602 22.9012H37.9457L37.7611 22.8919V22.8806C37.7611 22.8806 37.7611 22.8778 37.7611 22.8759C37.7611 22.8722 37.7611 22.8694 37.7611 22.8666L37.763 22.801C37.763 22.801 37.763 22.7981 37.763 22.7953C37.763 22.7925 37.763 22.7897 37.763 22.7878V22.7663L37.9485 22.7588L37.7639 22.7494V22.7382L37.9485 22.7344L37.7639 22.7279V22.7176C37.7639 22.7176 37.7639 22.7091 37.7639 22.7063V22.6857L37.9485 22.6754H37.7639V22.6313C37.7639 22.6313 37.7639 22.622 37.7639 22.6182V22.5967C37.7639 22.5967 37.7639 22.5929 37.7639 22.5901C37.7639 22.5864 37.7639 22.5826 37.7639 22.5798C37.7639 22.5779 37.7639 22.5686 37.7639 22.5667V22.5301C37.7639 22.5301 37.762 22.5198 37.762 22.518C37.762 22.517 37.762 22.5151 37.762 22.5123C37.762 22.5086 37.762 22.503 37.762 22.502C37.762 22.502 37.762 22.5001 37.762 22.4992C37.762 22.4964 37.762 22.4945 37.762 22.4917C37.762 22.4917 37.762 22.4861 37.762 22.4842C37.762 22.4833 37.762 22.4814 37.762 22.4805C37.762 22.4767 37.762 22.473 37.762 22.4702C37.7527 22.264 37.7274 22.0541 37.6889 21.8498C37.6889 21.847 37.688 21.8432 37.6871 21.8404L37.6768 21.787L37.6749 21.7776C37.6683 21.7458 37.6608 21.712 37.6533 21.6783L37.6505 21.668C37.643 21.6361 37.6355 21.6043 37.6271 21.5724L37.6243 21.5602C37.6158 21.5293 37.6074 21.4974 37.599 21.4665L37.5952 21.4543C37.5868 21.4234 37.5774 21.3915 37.5671 21.3606L37.5624 21.3466C37.5531 21.3175 37.5437 21.2875 37.5334 21.2585L37.5278 21.2425C37.5184 21.2144 37.5081 21.1854 37.4978 21.1573L37.4912 21.1385C37.4809 21.1113 37.4706 21.0832 37.4593 21.0551L37.4509 21.0345C37.4406 21.0083 37.4294 20.982 37.4191 20.9558L37.4106 20.9361C37.3994 20.9108 37.3881 20.8846 37.3769 20.8593L37.3656 20.833C37.3544 20.8087 37.3431 20.7843 37.331 20.759L37.3188 20.7346C37.3075 20.7121 37.2963 20.6878 37.2841 20.6643C37.0114 20.1274 36.6384 19.6579 36.1764 19.268C36.1755 19.268 36.1746 19.2662 36.1736 19.2652C36.1502 19.2455 36.1268 19.2259 36.1024 19.2062C36.0743 19.1837 36.0499 19.165 36.0256 19.1453C35.9646 19.0984 35.9028 19.0534 35.8391 19.0094L35.8306 19.0038C35.8082 18.9878 35.7847 18.9728 35.7622 18.9579L35.7444 18.9466C35.7229 18.9326 35.7004 18.9185 35.6779 18.9035L35.6592 18.8923C35.6338 18.8773 35.6085 18.8613 35.5832 18.8454L35.5495 18.8257C35.5308 18.8145 35.5111 18.8032 35.4914 18.792L35.4586 18.7742C35.4389 18.7639 35.4183 18.7526 35.3977 18.7414L35.2168 18.6505C35.1981 18.6411 35.1793 18.6327 35.1606 18.6242L35.1212 18.6064C35.1016 18.598 35.0819 18.5896 35.0622 18.5811L35.0163 18.5615C34.9975 18.554 34.9788 18.5455 34.9591 18.538L34.9179 18.5212C34.8954 18.5127 34.8738 18.5043 34.8514 18.4959L34.827 18.4874C34.7961 18.4762 34.7726 18.4677 34.7492 18.4602L34.7211 18.4509C34.6958 18.4424 34.6705 18.434 34.6443 18.4256L34.6143 18.4162C34.5871 18.4078 34.559 18.3993 34.5309 18.3918L34.5112 18.3862C34.4831 18.3787 34.455 18.3712 34.4278 18.3637L34.4062 18.3581C34.3791 18.3506 34.3509 18.344 34.3228 18.3375L34.3013 18.3328C34.2713 18.3262 34.2404 18.3197 34.2094 18.3131L34.1954 18.3103C34.1635 18.3037 34.1307 18.2972 34.097 18.2916L34.082 18.2888C34.052 18.2831 34.0201 18.2784 33.9892 18.2738L33.9733 18.2709C33.9414 18.2663 33.9096 18.2616 33.8768 18.2578L33.8636 18.256C33.8299 18.2513 33.7952 18.2475 33.7596 18.2438C33.7203 18.24 33.6837 18.2363 33.6481 18.2335H33.6378C33.6031 18.2307 33.5694 18.2278 33.5356 18.226H33.5225C33.4897 18.2241 33.4551 18.2222 33.4204 18.2213H33.4091C33.3407 18.2194 33.2676 18.2194 33.1964 18.2213H33.1674C33.1383 18.2232 33.1111 18.2241 33.083 18.225H33.0643C33.0296 18.2278 32.9968 18.2297 32.964 18.2325L32.9359 18.2344C32.9106 18.2363 32.8844 18.2391 32.8581 18.241L32.8319 18.2438C32.7991 18.2475 32.7653 18.2513 32.7325 18.255L32.7185 18.2569C32.6894 18.2606 32.6604 18.2644 32.6323 18.2691L32.6042 18.2738C32.5742 18.2784 32.5451 18.2831 32.5151 18.2888L32.5039 18.2906C32.4739 18.2962 32.4411 18.3028 32.4083 18.3094L32.3839 18.315C32.3568 18.3206 32.3315 18.3262 32.3052 18.3319L32.2893 18.3356C32.2518 18.344 32.2199 18.3515 32.189 18.36L32.1675 18.3656C32.1431 18.3722 32.1169 18.3787 32.0916 18.3862L32.0653 18.3937C32.0353 18.4021 32.0044 18.4115 31.9735 18.4209L31.9641 18.4237C31.936 18.4331 31.9079 18.4415 31.8798 18.4509L31.8535 18.4602C31.8282 18.4687 31.802 18.4781 31.7757 18.4874C31.7757 18.4874 31.7664 18.4902 31.7654 18.4912C31.7308 18.5043 31.7008 18.5155 31.6708 18.5268L31.6549 18.5333L31.6455 18.5371C31.6221 18.5465 31.5986 18.5558 31.5752 18.5652L31.5527 18.5746C31.5237 18.5868 31.4946 18.5989 31.4656 18.6121L31.4543 18.6167C31.4234 18.6308 31.4 18.642 31.3765 18.6533L31.3494 18.6664C31.3222 18.6795 31.2941 18.6936 31.266 18.7076C31.235 18.7236 31.2079 18.7376 31.1807 18.7526L31.1544 18.7667C31.1319 18.7789 31.1095 18.792 31.087 18.8042L31.0701 18.8135C31.0439 18.8285 31.0167 18.8445 30.9904 18.8613L30.9689 18.8745C30.9464 18.8885 30.9258 18.9016 30.9052 18.9147L30.8827 18.9288C30.8564 18.9457 30.8311 18.9625 30.8049 18.9794L30.788 18.9907C30.7674 19.0047 30.7468 19.0188 30.7252 19.0338L30.6999 19.0516C30.6784 19.0666 30.6568 19.0825 30.6353 19.0984L30.6278 19.104C30.5997 19.1256 30.5753 19.1443 30.5509 19.1631L30.5275 19.1809C30.5088 19.1959 30.49 19.2109 30.4713 19.2259L30.4507 19.2427C30.4272 19.2624 30.4038 19.2821 30.3804 19.3018L30.3616 19.3177C30.3429 19.3336 30.3251 19.3496 30.3073 19.3655L30.2857 19.3852C30.2623 19.4067 30.2398 19.4273 30.2173 19.4489L30.207 19.4592C30.1883 19.478 30.1686 19.4967 30.1499 19.5154L30.1274 19.5379C30.1105 19.5548 30.0927 19.5735 30.0749 19.5913L30.0683 19.5988C30.0683 19.5988 30.0618 19.6054 30.0618 19.6063C30.0402 19.6288 30.0196 19.6513 29.999 19.6738L29.9812 19.6944C29.9643 19.7132 29.9484 19.731 29.9334 19.7478L29.9146 19.7685C29.894 19.7919 29.8753 19.8153 29.8556 19.8387L29.8425 19.8556C29.8247 19.8772 29.8106 19.895 29.7956 19.9137L29.7759 19.939C29.7591 19.9606 29.7422 19.9831 29.7253 20.0046L29.7122 20.0224C29.6963 20.044 29.6804 20.0655 29.6644 20.088L29.6447 20.1152C29.6326 20.133 29.6185 20.1527 29.6054 20.1724L29.5904 20.1948C29.5745 20.2192 29.5576 20.2445 29.5407 20.2698L29.5248 20.2942C29.5126 20.3139 29.5004 20.3326 29.4882 20.3523L29.4723 20.3785C29.4564 20.4048 29.4405 20.431 29.4255 20.4572L29.4142 20.4779C29.403 20.4975 29.3908 20.5191 29.3795 20.5406L29.3636 20.5697C29.3514 20.5922 29.3402 20.6137 29.328 20.6362L29.3224 20.6475C29.3046 20.6868 29.2718 20.7196 29.2315 20.7384C29.1809 20.7618 29.1218 20.7609 29.0722 20.7365L28.6851 20.5453C28.6411 20.5238 28.6074 20.4844 28.5914 20.4376C28.5755 20.3907 28.5802 20.3392 28.6027 20.2951C28.8538 19.8022 29.1799 19.3533 29.5726 18.9607C30.5669 17.9664 31.8882 17.4191 33.2948 17.4191C33.6893 17.4191 34.081 17.4632 34.4634 17.5494L34.1448 15.841C34.1345 15.7867 34.1495 15.7314 34.1841 15.6892C34.2197 15.647 34.2713 15.6227 34.3266 15.6227H34.8485C35.2271 15.6227 35.5776 15.9104 35.647 16.2786L35.9993 18.1669C36.2205 18.3 36.4332 18.4499 36.6328 18.613H38.046C38.4602 18.613 38.7975 18.9504 38.7975 19.3646V19.9315C38.7975 20.0337 38.7151 20.1161 38.6129 20.1161H37.8923C38.1584 20.5903 38.3468 21.0992 38.4546 21.6314H41.0194L40.0561 19.0459C40.0345 18.9878 40.043 18.9232 40.0795 18.8726L40.4 18.4312L39.5885 17.8455L39.178 18.4134C39.0646 18.5699 38.8453 18.6055 38.6888 18.4921C38.5323 18.3787 38.4967 18.1594 38.6101 18.0029L39.0206 17.435C38.9822 17.406 38.9559 17.3638 38.9484 17.316C38.9409 17.2673 38.9522 17.2176 38.9812 17.1783L39.1462 16.9496C39.1752 16.9103 39.2183 16.8831 39.267 16.8756C39.3148 16.8681 39.3626 16.8793 39.402 16.9065L39.7347 16.4454C39.8481 16.289 40.0673 16.2533 40.2238 16.3667C40.3803 16.4801 40.4159 16.6994 40.3026 16.8559L39.9699 17.317L40.7814 17.9036L40.7936 17.8867C40.9276 17.7012 41.1403 17.7012 41.2106 17.7012H44.1766V17.6806C44.0154 17.599 43.9076 17.4313 43.9076 17.242V16.0144C43.9076 15.8251 44.0163 15.6573 44.1766 15.5758V14.8214C44.1766 14.8214 44.1766 14.8158 44.1766 14.813C44.1541 14.8008 44.1035 14.7802 44.0004 14.7633C43.9001 14.7474 43.8308 14.6527 43.8467 14.5515L43.9404 13.9621C43.9479 13.9134 43.9751 13.8703 44.0145 13.8412C44.0538 13.8122 44.1035 13.8009 44.1522 13.8084C44.454 13.8571 44.6929 13.963 44.8616 14.1252C45.0481 14.3032 45.1428 14.5309 45.1437 14.8008C45.1437 14.8074 45.1446 14.8139 45.1446 14.8205V15.5608C45.3208 15.6358 45.4445 15.812 45.4445 16.0134V17.2411C45.4445 17.4425 45.3199 17.6178 45.1446 17.6937V17.7002H46.3685C46.8605 17.7002 47.3375 17.9055 47.6776 18.2635C47.9972 18.5999 48.1603 19.0319 48.1378 19.4789L48.0872 20.4554C48.7113 20.6353 49.281 20.9717 49.744 21.4346C49.7655 21.4562 49.7871 21.4778 49.8077 21.5002C49.8414 21.5359 49.8602 21.5836 49.8593 21.6324C49.8583 21.6811 49.8377 21.728 49.8021 21.7617L49.5444 22.0072C49.4703 22.0775 49.3532 22.0747 49.2829 22.0007C48.686 21.3747 47.881 21.0307 47.017 21.0307C45.2899 21.0307 43.8851 22.4355 43.8851 24.1626C43.8851 24.3753 43.9067 24.588 43.9489 24.7942C43.9601 24.8486 43.9461 24.9048 43.9114 24.9479C43.8758 24.991 43.8233 25.0163 43.768 25.0163H43.4053C43.3163 25.0163 43.2395 24.9526 43.2235 24.8645C43.2001 24.7352 43.1823 24.6049 43.172 24.4737H38.2465C38.1847 24.6443 38.1135 24.812 38.0347 24.9751C38.0038 25.0388 37.9392 25.0791 37.8679 25.0791L37.8811 25.08ZM37.6955 24.7108H37.763C37.8342 24.5543 37.897 24.3941 37.9513 24.2319C37.9766 24.156 38.0469 24.1054 38.1266 24.1054H43.3585C43.4344 24.1054 43.4991 24.1504 43.5281 24.216C43.5281 24.1991 43.5281 24.1813 43.5281 24.1645C43.5281 22.234 45.0987 20.6625 47.0301 20.6625C47.2925 20.6625 47.5502 20.6906 47.7995 20.7459C47.7507 20.7103 47.7208 20.6512 47.7245 20.5875L47.7826 19.462C47.8004 19.1172 47.673 18.7826 47.4237 18.5202C47.1529 18.2353 46.7743 18.0723 46.3835 18.0723H44.975C44.8729 18.0723 44.7904 17.9898 44.7904 17.8877V17.5503C44.7904 17.45 44.871 17.3676 44.9713 17.3657C45.0369 17.3638 45.0903 17.3095 45.0903 17.2439V16.0163C45.0903 15.9507 45.0369 15.8954 44.9713 15.8944C44.871 15.8926 44.7904 15.8101 44.7904 15.7098V14.8439C44.7904 14.8364 44.7895 14.8289 44.7895 14.8214C44.7923 14.6453 44.737 14.5066 44.6217 14.396C44.5411 14.3182 44.4296 14.2592 44.2909 14.2179L44.2553 14.4428C44.3443 14.4719 44.4127 14.5094 44.4633 14.559C44.5102 14.604 44.5655 14.6865 44.5627 14.8233C44.5627 14.8289 44.5627 14.8345 44.5617 14.8402V15.7126C44.5617 15.8063 44.4924 15.8851 44.3996 15.8963C44.3396 15.9038 44.2928 15.9572 44.2928 16.0172V17.2448C44.2928 17.3048 44.3396 17.3582 44.3996 17.3657C44.4924 17.3769 44.5617 17.4557 44.5617 17.5494V17.8886C44.5617 17.9907 44.4793 18.0732 44.3771 18.0732H41.2265C41.1328 18.0732 41.1178 18.0938 41.1094 18.106L40.9885 18.2728C40.9557 18.3187 40.9051 18.345 40.8536 18.3487C40.8545 18.3534 40.8555 18.3581 40.8564 18.3628C40.8639 18.4115 40.8526 18.4612 40.8236 18.5005L40.4525 19.0113L41.4739 21.7533C41.4955 21.8104 41.4871 21.8732 41.4524 21.9229C41.4177 21.9726 41.3615 22.0025 41.3006 22.0025H38.3159C38.2259 22.0025 38.1491 21.9379 38.1341 21.8489C38.0282 21.235 37.8089 20.654 37.4818 20.1218C37.4519 20.073 37.4462 20.014 37.4659 19.9606L37.5006 19.8678C37.5278 19.7947 37.5962 19.7469 37.6739 19.7469H38.4443V19.3646C38.4443 19.1537 38.2728 18.9822 38.0619 18.9822H36.5822C36.5382 18.9822 36.496 18.9672 36.4632 18.9391C36.243 18.7536 36.0059 18.5868 35.7566 18.4434C35.7098 18.4162 35.677 18.3703 35.6676 18.3169L35.3002 16.3461C35.2646 16.1549 35.065 15.9928 34.8654 15.9928H34.5655L34.8963 17.7668C34.9085 17.8296 34.886 17.8942 34.8392 17.9373C34.7914 17.9804 34.7248 17.9954 34.6639 17.9786C34.2263 17.853 33.7709 17.7893 33.3117 17.7893C32.0044 17.7893 30.7758 18.2981 29.8509 19.2231C29.5304 19.5436 29.2568 19.9053 29.0366 20.2989L29.0919 20.326C29.0975 20.3157 29.1031 20.3054 29.1097 20.2951L29.1218 20.2736C29.1387 20.2445 29.1556 20.2164 29.1724 20.1883L29.1902 20.1592C29.2024 20.1396 29.2156 20.1189 29.2287 20.0983L29.2455 20.0721C29.2643 20.043 29.2821 20.0159 29.2999 19.9887L29.3149 19.9671C29.3299 19.9456 29.3439 19.925 29.358 19.9043L29.3786 19.8753C29.3964 19.8509 29.4133 19.8266 29.4311 19.8031L29.4451 19.7844C29.4629 19.76 29.4817 19.7366 29.4995 19.7132L29.5154 19.6925C29.536 19.6663 29.552 19.6466 29.5679 19.627L29.5857 19.6054C29.6063 19.5801 29.6279 19.5548 29.6494 19.5304L29.6691 19.5079C29.686 19.4883 29.7028 19.4695 29.7197 19.4508L29.7413 19.4273C29.7628 19.403 29.7863 19.3786 29.8087 19.3552L29.8181 19.3458C29.8425 19.3205 29.8612 19.3008 29.8809 19.2821L29.9043 19.2587C29.9249 19.238 29.9456 19.2184 29.9662 19.1987L29.9774 19.1874C30.0027 19.1631 30.0271 19.1406 30.0524 19.1181L30.0758 19.0975C30.0955 19.0797 30.1142 19.0628 30.1339 19.0459L30.1545 19.0272C30.1798 19.0056 30.2051 18.9841 30.2304 18.9625L30.252 18.9447C30.2717 18.9279 30.2923 18.9119 30.3129 18.896L30.3373 18.8763C30.3645 18.8557 30.3907 18.8351 30.4169 18.8154L30.4291 18.806C30.4525 18.7882 30.476 18.7714 30.5003 18.7545L30.5266 18.7358C30.5491 18.7198 30.5725 18.7039 30.595 18.688L30.6119 18.6758C30.64 18.6561 30.6681 18.6383 30.6971 18.6196L30.7206 18.6046C30.744 18.5896 30.7665 18.5764 30.789 18.5624L30.8143 18.5474C30.8424 18.5305 30.8724 18.5127 30.9014 18.4959L30.9192 18.4855C30.9436 18.4715 30.968 18.4584 30.9923 18.4443L31.0204 18.4293C31.0504 18.4134 31.0795 18.3975 31.1095 18.3825C31.1441 18.3647 31.1741 18.3497 31.2041 18.3356L31.2313 18.3225C31.2566 18.3103 31.2819 18.2981 31.3072 18.2869L31.3278 18.2775C31.3578 18.2634 31.3897 18.2503 31.4215 18.2363L31.4449 18.226C31.4702 18.2157 31.4955 18.2054 31.5209 18.195L31.548 18.1838C31.5799 18.1716 31.6118 18.1594 31.6446 18.1472C31.6455 18.1472 31.6539 18.1435 31.6549 18.1435C31.6886 18.1313 31.7167 18.121 31.7458 18.1116L31.7729 18.1023C31.8039 18.092 31.8338 18.0826 31.8638 18.0723L31.8741 18.0695C31.9088 18.0592 31.9426 18.0489 31.9763 18.0395L32.0035 18.032C32.0316 18.0245 32.0588 18.017 32.0869 18.0095L32.144 18.1857L32.0962 18.0067L32.1094 18.0029C32.1431 17.9945 32.1778 17.9861 32.2124 17.9776L32.2377 17.972C32.2649 17.9654 32.293 17.9598 32.3221 17.9542L32.3474 17.9486C32.3839 17.9411 32.4186 17.9345 32.4542 17.928L32.4664 17.9261C32.4964 17.9205 32.5292 17.9158 32.562 17.9102L32.591 17.9055C32.6229 17.9008 32.6538 17.8961 32.6847 17.8924L32.6997 17.8905C32.7372 17.8858 32.7728 17.882 32.8094 17.8783L32.8366 17.8755C32.8656 17.8727 32.8937 17.8699 32.9218 17.868L32.9509 17.8661C32.9865 17.8633 33.023 17.8614 33.0587 17.8596H33.0718C33.1102 17.8567 33.1402 17.8558 33.1702 17.8549H33.2011C33.2779 17.8521 33.3557 17.8521 33.4326 17.8549H33.4438C33.4804 17.8558 33.5169 17.8577 33.5535 17.8596H33.5675C33.6031 17.8624 33.6397 17.8642 33.6762 17.8671H33.6875C33.7278 17.8708 33.7671 17.8745 33.8055 17.8783C33.8468 17.882 33.8852 17.8867 33.9227 17.8914L33.9358 17.8933C33.9705 17.898 34.0051 17.9027 34.0408 17.9083L34.0567 17.9111C34.0904 17.9167 34.1242 17.9223 34.1579 17.928L34.1738 17.9308C34.2094 17.9373 34.245 17.9439 34.2807 17.9514L34.2947 17.9542C34.3275 17.9608 34.3612 17.9683 34.394 17.9758L34.4165 17.9814C34.4465 17.9879 34.4774 17.9954 34.5084 18.0039L34.5309 18.0095C34.5618 18.0179 34.5918 18.0254 34.6218 18.0339L34.6424 18.0395C34.6742 18.0489 34.7042 18.0573 34.7342 18.0667L34.7661 18.076C34.7942 18.0854 34.8223 18.0938 34.8495 18.1032L34.8729 18.1107C34.9066 18.1219 34.932 18.1313 34.9573 18.1407L34.991 18.1529C35.0144 18.1613 35.0388 18.1707 35.0631 18.18L35.1072 18.1979C35.1278 18.2063 35.1484 18.2147 35.169 18.2232L35.2178 18.2438C35.2393 18.2531 35.2609 18.2625 35.2824 18.2719L35.3255 18.2916C35.3462 18.3009 35.3668 18.3103 35.3864 18.3197L35.4858 18.3684C35.5064 18.3787 35.527 18.39 35.5476 18.4003L35.5804 18.4171C35.6039 18.4303 35.6264 18.4415 35.6479 18.4537L35.6816 18.4724C35.7032 18.4846 35.7238 18.4968 35.7454 18.509L35.7819 18.5305C35.8091 18.5465 35.8372 18.5633 35.8644 18.5802L35.8841 18.5924C35.9094 18.6083 35.9328 18.6233 35.9572 18.6392L35.975 18.6514C36.0003 18.6683 36.0246 18.6852 36.0499 18.702L36.0584 18.7086C36.1277 18.7564 36.1952 18.806 36.2598 18.8557C36.2861 18.8763 36.3123 18.8969 36.3386 18.9176C36.3676 18.941 36.392 18.9616 36.4173 18.9822C36.4182 18.9822 36.4191 18.9841 36.4201 18.985C36.9214 19.4067 37.3263 19.9165 37.6224 20.4994C37.6355 20.5247 37.6477 20.55 37.6608 20.5763L37.673 20.6025C37.6861 20.6297 37.6983 20.6568 37.7105 20.684L37.7227 20.7112C37.7349 20.7393 37.747 20.7674 37.7592 20.7955L37.7677 20.8162C37.7798 20.8452 37.792 20.8743 37.8033 20.9024L37.8117 20.923C37.8239 20.9539 37.8351 20.9848 37.8464 21.0148L37.8539 21.0345C37.8651 21.0654 37.8764 21.0963 37.8867 21.1273L37.8923 21.1441C37.9035 21.176 37.9138 21.2079 37.9232 21.2407L37.9279 21.2547C37.9382 21.2885 37.9485 21.3231 37.9588 21.3587L37.9626 21.3709C37.972 21.4037 37.9813 21.4384 37.9898 21.4721L37.9926 21.4843C38.001 21.518 38.0094 21.5527 38.0179 21.5874L38.0207 21.5986C38.0291 21.6361 38.0366 21.6717 38.045 21.7083C38.045 21.7083 38.0469 21.7177 38.0469 21.7186C38.0516 21.7401 38.0563 21.7626 38.06 21.7861C38.06 21.7898 38.061 21.7936 38.0619 21.7964C38.1022 22.0147 38.1284 22.2368 38.1388 22.4589C38.1388 22.4599 38.1388 22.4617 38.1388 22.4636C38.1388 22.4664 38.1388 22.4683 38.1388 22.4702C38.1388 22.472 38.1388 22.4739 38.1388 22.4767C38.1388 22.4786 38.1388 22.4805 38.1388 22.4814C38.1388 22.4814 38.1388 22.4842 38.1388 22.4852C38.1388 22.4861 38.1388 22.488 38.1388 22.4898C38.1388 22.4926 38.1388 22.4945 38.1388 22.4955C38.1388 22.4973 38.1388 22.5058 38.1388 22.5076C38.1388 22.5095 38.1388 22.517 38.1388 22.5189C38.1388 22.5208 38.1388 22.5273 38.1388 22.5292V22.5573C38.1388 22.5573 38.1397 22.5676 38.1397 22.5695C38.1397 22.5714 38.1397 22.5807 38.1397 22.5826C38.1397 22.5854 38.1397 22.592 38.1397 22.5957V22.6192C38.1397 22.6192 38.1397 22.6267 38.1397 22.6304V22.6838V22.7082L37.9551 22.7185H38.1397C38.1397 22.7185 38.1397 22.7269 38.1397 22.7297C38.1397 22.7316 38.1397 22.74 38.1397 22.7419C38.1397 22.7438 38.1397 22.7504 38.1397 22.7522C38.1397 22.755 38.1397 22.7672 38.1397 22.77V22.7832V22.8056C38.1397 22.8056 38.1397 22.8169 38.1397 22.8178L38.1378 22.889C38.1378 22.889 38.1378 22.889 38.1378 22.8909C38.1378 22.8928 38.1378 22.8956 38.1378 22.8975C38.1378 22.8994 38.1378 22.9012 38.1378 22.9031V22.9134L38.1369 22.9237C38.1369 22.9256 38.1369 22.9425 38.1359 22.9443C38.1359 22.9462 38.1359 22.9528 38.1359 22.9546V22.965C38.1359 22.965 38.135 22.9762 38.135 22.9771L38.1266 23.0915C38.1266 23.0915 38.1266 23.1018 38.1256 23.1027V23.113C38.1256 23.113 38.1238 23.1271 38.1238 23.128C38.1238 23.1299 38.1228 23.1421 38.1219 23.1439C38.1219 23.1449 38.1219 23.1458 38.1219 23.1468C38.1219 23.1468 38.1219 23.1571 38.121 23.158C38.121 23.1599 38.12 23.1683 38.12 23.1702C38.12 23.173 38.12 23.1758 38.12 23.1786L38.1172 23.202C38.1041 23.3257 38.0863 23.4476 38.0638 23.5694C38.0638 23.5713 38.0638 23.5731 38.0638 23.5741C38.0141 23.8412 37.942 24.1054 37.8482 24.3584C37.8361 24.3912 37.8239 24.424 37.8108 24.4568C37.7948 24.4962 37.7808 24.5309 37.7667 24.5646C37.7499 24.6049 37.7349 24.6386 37.7199 24.6714C37.7133 24.6864 37.7067 24.7005 37.7002 24.7145L37.6955 24.7108ZM39.4713 17.3498C39.4723 17.3544 39.4732 17.3591 39.4741 17.3638C39.477 17.3835 39.477 17.4041 39.4741 17.4238C39.4966 17.4126 39.521 17.4051 39.5454 17.4032C39.5444 17.3985 39.5435 17.3938 39.5426 17.3891C39.5397 17.3694 39.5397 17.3488 39.5426 17.3291C39.5247 17.3385 39.506 17.3451 39.4863 17.3479C39.4816 17.3479 39.477 17.3488 39.4713 17.3498Z" fill="#722875"/>
<path d="M39.209 67.9893C38.9935 67.9893 38.7789 67.9874 38.5643 67.9818L38.5605 67.978C38.778 67.9855 38.9916 67.9893 39.209 67.9893Z" fill="#722875"/>
<path fill-rule="evenodd" clip-rule="evenodd" d="M54.429 55.4304H56.4644C56.9264 55.4304 57.3041 55.7949 57.3041 56.2391V58.0927H54.2613C53.9801 58.0927 53.7496 57.8706 53.7496 57.5998V56.956C53.7496 56.7039 53.9633 56.4977 54.2257 56.4977H55.9134L55.7344 56.8726H54.4927C54.4374 56.8726 54.3784 56.9129 54.3784 56.971V57.477C54.3784 57.5351 54.4374 57.5754 54.4927 57.5754H56.6472V56.36C56.6472 56.1248 56.4372 55.9448 56.2039 55.9448H54.1835L54.4299 55.4285L54.429 55.4304ZM42.2456 54.8494V54.4548H41.5877V55.2233L42.2456 54.8494ZM41.5877 55.5981L42.2456 55.2242V58.0927H41.5877V55.5981ZM45.5592 55.4304C46.0212 55.4304 46.3989 55.7949 46.3989 56.2391V58.0927H45.741V56.3619C45.741 56.1266 45.5311 55.9467 45.2978 55.9467H43.7187V58.0927H43.0609V55.4313C43.8912 55.4313 44.7252 55.4304 45.5583 55.4304H45.5592ZM53.9717 55.4304H52.3224C51.8604 55.4304 51.4827 55.7949 51.4827 56.2391V58.0927H52.1406V56.3619C52.1406 56.1266 52.3505 55.9467 52.5838 55.9467H53.7234L53.9726 55.4304H53.9717ZM31.8989 58.0927H32.5567V56.2391C32.5567 55.794 32.1791 55.4304 31.7171 55.4304H27.4092V58.0927H28.067V56.0451C28.067 55.987 28.127 55.9458 28.1823 55.9458H29.5402C29.5955 55.9458 29.6545 55.987 29.6545 56.0451V58.0927H30.3124V56.0451C30.3124 55.987 30.3714 55.9458 30.4267 55.9458H31.4566C31.6899 55.9458 31.8998 56.1257 31.8998 56.3609V58.0918L31.8989 58.0927ZM37.3801 54.4614V58.0927H38.0379V54.4614H37.3801ZM40.1146 58.0918H40.7724V56.2391C40.7724 55.794 40.3948 55.4304 39.9328 55.4304H38.5365L38.2881 55.9467H39.6723C39.9056 55.9467 40.1155 56.1266 40.1155 56.3619V58.0927L40.1146 58.0918ZM50.5419 54.4614V58.0927H47.574C47.2929 58.0927 47.0623 57.8706 47.0623 57.5998V56.2391C47.0623 55.794 47.44 55.4304 47.902 55.4304H49.5926L49.3433 55.9467H48.1625C47.9292 55.9467 47.7193 56.1266 47.7193 56.3619V57.478C47.7193 57.5361 47.7783 57.5764 47.8336 57.5764H49.8831V54.4614H50.5409H50.5419ZM33.8162 55.4304H35.8516C36.3136 55.4304 36.6913 55.7949 36.6913 56.2391V58.0927H33.6485C33.3674 58.0927 33.1368 57.8706 33.1368 57.5998V56.956C33.1368 56.7039 33.3505 56.4977 33.6119 56.4977H35.2997L35.1207 56.8726H33.879C33.8237 56.8726 33.7647 56.9129 33.7647 56.971V57.477C33.7647 57.5351 33.8237 57.5754 33.879 57.5754H36.0334V56.36C36.0334 56.1248 35.8235 55.9448 35.5902 55.9448H33.5698L33.8162 55.4285V55.4304Z" fill="#D80F20"/>
<path d="M22.4013 55.4848C22.5494 55.4538 22.7827 55.4304 23.0189 55.4304C23.3572 55.4304 23.5746 55.4885 23.7377 55.6207C23.8735 55.7219 23.9551 55.8765 23.9551 56.0827C23.9551 56.3357 23.7883 56.5568 23.5118 56.658V56.6655C23.7601 56.7283 24.0516 56.9336 24.0516 57.3225C24.0516 57.5474 23.9616 57.7189 23.8304 57.8472C23.6477 58.014 23.3525 58.0918 22.9252 58.0918C22.6918 58.0918 22.5138 58.0759 22.4004 58.0609V55.4848H22.4013ZM22.7396 56.5568H23.047C23.405 56.5568 23.614 56.3703 23.614 56.1173C23.614 55.81 23.3806 55.69 23.0386 55.69C22.883 55.69 22.794 55.7012 22.7396 55.7134V56.5568ZM22.7396 57.8116C22.8062 57.8229 22.9027 57.8276 23.0236 57.8276C23.3731 57.8276 23.6955 57.6992 23.6955 57.3187C23.6955 56.9607 23.3881 56.8136 23.0189 56.8136H22.7396V57.8126V57.8116Z" fill="#414241"/>
<path d="M25.0335 58.0682V56.9568L24.2061 55.449H24.5903L24.9595 56.1724C25.0607 56.3702 25.1385 56.5304 25.22 56.7122H25.2275C25.3015 56.5407 25.3906 56.3702 25.4918 56.1724L25.8685 55.449H26.2537L25.3756 56.953V58.0682H25.0335Z" fill="#414241"/>
</svg>
