<svg width="21" height="21" viewBox="0 0 21 21" fill="none" xmlns="http://www.w3.org/2000/svg">
<path d="M14.3364 7.56625L7.20932 14.6933C6.86141 15.0413 6.29732 15.0413 5.94941 14.6933C5.6015 14.3454 5.6015 13.7814 5.94941 13.4335L13.0765 6.30634C13.4244 5.95843 13.9885 5.95843 14.3364 6.30634C14.6844 6.65425 14.6844 7.21834 14.3364 7.56625Z" fill="#722875"/>
<path d="M7.76744 9.31199C8.42353 9.31199 8.95533 8.78019 8.95533 8.12413C8.95533 7.46811 8.42353 6.93628 7.76744 6.93628C7.1114 6.93628 6.57959 7.46811 6.57959 8.12413C6.57959 8.78019 7.1114 9.31199 7.76744 9.31199Z" fill="#722875"/>
<path d="M12.5189 14.0635C13.175 14.0635 13.7068 13.5317 13.7068 12.8756C13.7068 12.2195 13.175 11.6877 12.5189 11.6877C11.8629 11.6877 11.3311 12.2195 11.3311 12.8756C11.3311 13.5317 11.8629 14.0635 12.5189 14.0635Z" fill="#722875"/>
<path fill-rule="evenodd" clip-rule="evenodd" d="M12.4944 1.02102C11.2234 -0.340341 9.06516 -0.340341 7.79427 1.02102C7.45737 1.38185 6.95854 1.54393 6.47393 1.45002C4.6455 1.0957 2.89951 2.36425 2.67145 4.21267C2.61101 4.70259 2.30272 5.12692 1.85545 5.3358C0.167976 6.12388 -0.498944 8.17643 0.403041 9.80581C0.642108 10.2377 0.642108 10.7623 0.403041 11.1942C-0.498944 12.8236 0.167976 14.8762 1.85545 15.6642C2.30272 15.873 2.61101 16.2974 2.67145 16.7873C2.89951 18.6357 4.6455 19.9042 6.47393 19.55C6.95854 19.4561 7.45737 19.6182 7.79427 19.979C9.06516 21.3403 11.2234 21.3403 12.4944 19.979C12.8313 19.6182 13.33 19.4561 13.8147 19.55C15.6431 19.9042 17.389 18.6357 17.6171 16.7873C17.6776 16.2974 17.9858 15.873 18.4332 15.6642C20.1206 14.8762 20.7875 12.8236 19.8856 11.1942C19.6464 10.7623 19.6464 10.2377 19.8856 9.80581C20.7875 8.17643 20.1206 6.12388 18.4332 5.3358C17.9858 5.12692 17.6776 4.70259 17.6171 4.21267C17.389 2.36425 15.6431 1.0957 13.8147 1.45002C13.33 1.54393 12.8313 1.38185 12.4944 1.02102ZM9.09664 2.23695C9.66324 1.63006 10.6253 1.63006 11.1919 2.23695C11.9476 3.04634 13.0666 3.4099 14.1536 3.19926C14.9687 3.04131 15.7471 3.60683 15.8488 4.43084C15.9843 5.52981 16.6759 6.48166 17.6791 6.9502C18.4315 7.30153 18.7287 8.21658 18.3266 8.94295C17.7904 9.91177 17.7904 11.0882 18.3266 12.057C18.7287 12.7834 18.4315 13.6984 17.6791 14.0498C16.6759 14.5184 15.9843 15.4702 15.8488 16.5691C15.7471 17.3932 14.9687 17.9586 14.1536 17.8008C13.0666 17.5901 11.9476 17.9537 11.1919 18.7631C10.6253 19.3699 9.66324 19.3699 9.09664 18.7631C8.34104 17.9537 7.22204 17.5901 6.13496 17.8008C5.31985 17.9586 4.54149 17.3932 4.43983 16.5691C4.30425 15.4702 3.61268 14.5184 2.60941 14.0498C1.85713 13.6984 1.55982 12.7834 1.96192 12.057C2.49819 11.0882 2.49819 9.91177 1.96192 8.94295C1.55982 8.21658 1.85713 7.30153 2.60941 6.9502C3.61268 6.48166 4.30425 5.52981 4.43983 4.43084C4.54149 3.60683 5.31985 3.04131 6.13496 3.19926C7.22204 3.4099 8.34104 3.04634 9.09664 2.23695Z" fill="#722875"/>
</svg>
