<svg width="96" height="96" viewBox="0 0 96 96" fill="none" xmlns="http://www.w3.org/2000/svg">
<g clip-path="url(#clip0_1254_6491)">
<g clip-path="url(#clip1_1254_6491)">
<path d="M65.7897 47.7513C76.2727 47.7513 84.7708 39.2531 84.7708 28.7702C84.7708 18.2872 76.2727 9.78906 65.7897 9.78906C55.3067 9.78906 46.8086 18.2872 46.8086 28.7702C46.8086 39.2531 55.3067 47.7513 65.7897 47.7513Z" fill="#F4F7FE"/>
<path opacity="0.3" d="M22.9038 86.792C29.2418 86.792 34.3799 81.654 34.3799 75.3159C34.3799 68.9778 29.2418 63.8398 22.9038 63.8398C16.5657 63.8398 11.4277 68.9778 11.4277 75.3159C11.4277 81.654 16.5657 86.792 22.9038 86.792Z" fill="#652178"/>
<path d="M43.7371 58.3281C29.715 58.3281 18.3086 46.9217 18.3086 32.8996C18.3086 18.8776 29.715 7.46484 43.7371 7.46484C57.7591 7.46484 69.1655 18.8712 69.1655 32.8933C69.1655 46.9154 57.7591 58.3281 43.7371 58.3281ZM43.7371 8.73152C30.4117 8.73152 19.5753 19.5742 19.5753 32.8933C19.5753 46.2124 30.4117 57.0614 43.7371 57.0614C57.0625 57.0614 67.9052 46.2187 67.9052 32.8996C67.9052 19.5806 57.0625 8.73152 43.7371 8.73152Z" fill="black"/>
<path d="M52.4825 24.3828H34.9961V25.6495H52.4825V24.3828Z" fill="black"/>
<path d="M52.7439 29.1289H40.0898V30.3956H52.7439V29.1289Z" fill="black"/>
<path d="M37.6874 35.9494L36.9629 36.9883L46.8483 43.8823L47.5728 42.8433L37.6874 35.9494Z" fill="black"/>
<path d="M38.0229 37.474C37.4719 37.474 36.9906 37.2017 36.6929 36.7267C36.3193 36.1187 36.3003 35.251 36.6549 34.6177C36.9589 34.0667 37.5036 33.75 38.1369 33.75H44.673V35.0167H38.1369C37.9596 35.0167 37.8456 35.08 37.7633 35.232C37.6303 35.4663 37.6366 35.84 37.7759 36.0617C37.8583 36.201 37.9596 36.2073 38.0483 36.2073L38.1053 37.474C38.0736 37.474 38.0483 37.474 38.0229 37.474Z" fill="black"/>
<path d="M44.3496 35.0215L44.3306 33.7548C46.9462 33.7168 48.0863 31.7028 48.0609 29.7205C48.0356 27.7508 46.7689 25.6481 44.1342 25.6925L44.1152 24.4258C44.1469 24.4258 44.1722 24.4258 44.2039 24.4258C47.5226 24.4258 49.2896 27.0668 49.3276 29.7078C49.3593 32.3045 47.6619 34.9708 44.3496 35.0215Z" fill="black"/>
<path d="M31.6408 32.2695H30.3926V33.5368H31.6408V32.2695Z" fill="black"/>
<path d="M83.3074 81.0742H80.6094V82.3409H83.3074V81.0742Z" fill="black"/>
<path d="M56.8786 32.2695H55.6367V33.5368H56.8786V32.2695Z" fill="black"/>
<path d="M69.5134 12.3711H68.2715V13.6384H69.5134V12.3711Z" fill="black"/>
<path d="M72.0061 12.3711H70.7578V13.6384H72.0061V12.3711Z" fill="black"/>
<path d="M70.7658 13.6367H69.5176V14.904H70.7658V13.6367Z" fill="black"/>
<path d="M70.7658 11.1016H69.5176V12.3688H70.7658V11.1016Z" fill="black"/>
<path d="M18.3244 54.1367H17.0762V55.404H18.3244V54.1367Z" fill="black"/>
<path d="M20.8108 54.1367H19.5625V55.404H20.8108V54.1367Z" fill="black"/>
<path d="M19.5725 55.4141H18.3242V56.6813H19.5725V55.4141Z" fill="black"/>
<path d="M19.5725 52.875H18.3242V54.1423H19.5725V52.875Z" fill="black"/>
<path d="M39.2337 72.66L36.0734 72.6473L30.766 71.6657L25.275 66.2823H22.0703V65.0156H25.788L31.374 70.4877L36.2507 71.3933H39.2337V72.66Z" fill="black"/>
<path d="M44.9919 86.0789L44.8589 86.0472L22.5338 81.1579L8.7207 67.2181V63.7031H15.7697L26.4731 74.1405L31.8755 76.1482H33.8578V77.4149H31.6475L25.7828 75.2299L15.2567 64.9635H9.98738V66.6925L23.1671 79.9989L44.9982 84.7806L62.8393 81.1135V67.3321C61.3256 66.5595 54.8149 63.7348 50.3563 69.8212L50.1093 70.1568L49.7039 70.0682C49.6343 70.0492 42.7119 68.5291 40.0645 72.1012L39.1842 74.8435H54.9543V76.1102H37.4425L38.9752 71.4425C41.6985 67.6045 47.9116 68.4468 49.5772 68.7508C55.2266 61.5118 63.707 66.3631 63.7893 66.4138L64.0997 66.5975V82.1522L44.9919 86.0789Z" fill="black"/>
<mask id="mask0_1254_6491" style="mask-type:luminance" maskUnits="userSpaceOnUse" x="20" y="9" width="46" height="46">
<path d="M25.1129 11.7395L62.3657 9.03516L65.1334 39.923L63.4741 42.6463L58.3884 39.923L57.337 42.0573L61.137 44.939L55.1774 50.8354L42.2763 54.7811L26.4809 49.1317L20.8125 30.7903L25.1129 11.7395Z" fill="white"/>
</mask>
<g mask="url(#mask0_1254_6491)">
<path d="M43.7363 52.1602C33.1153 52.1602 24.4766 43.5215 24.4766 32.9004C24.4766 22.2793 33.1153 13.6406 43.7363 13.6406C54.3574 13.6406 62.9961 22.2793 62.9961 32.9004C62.9961 43.5215 54.3574 52.1602 43.7363 52.1602ZM43.7363 14.9073C33.8119 14.9073 25.7432 22.9823 25.7432 32.9004C25.7432 42.8184 33.8183 50.8935 43.7363 50.8935C53.6544 50.8935 61.7294 42.8184 61.7294 32.9004C61.7294 22.9823 53.6607 14.9073 43.7363 14.9073Z" fill="black"/>
</g>
<mask id="mask1_1254_6491" style="mask-type:luminance" maskUnits="userSpaceOnUse" x="69" y="58" width="22" height="33">
<path d="M78.2336 58.3945L90.115 60.3199L89.7667 79.9723H84.9596V83.291H89.7667L89.678 89.0607L69.2402 90.891L69.6772 58.3945H78.2336Z" fill="white"/>
</mask>
<g mask="url(#mask1_1254_6491)">
<path d="M85.8994 87.3236H72.916C72.08 87.3236 71.4023 86.6459 71.4023 85.8099V62.3574C71.4023 61.5214 72.08 60.8438 72.916 60.8438H85.8994C86.7354 60.8438 87.4131 61.5214 87.4131 62.3574V85.8162C87.4131 86.6459 86.7291 87.3236 85.8994 87.3236ZM72.9097 62.1104C72.7767 62.1104 72.6627 62.2181 72.6627 62.3574V85.8162C72.6627 85.9492 72.7704 86.0632 72.9097 86.0632H85.8931C86.0261 86.0632 86.1401 85.9556 86.1401 85.8162V62.3574C86.1401 62.2244 86.0324 62.1104 85.8931 62.1104H72.9097Z" fill="black"/>
</g>
<mask id="mask2_1254_6491" style="mask-type:luminance" maskUnits="userSpaceOnUse" x="59" y="60" width="17" height="31">
<path d="M65.1294 62.3163H66.4404V65.6476H68.5367V61.5309L74.1291 64.3366L75.8771 90.8798L61.2027 89.9234L59.2773 60.3086L65.1294 62.3163Z" fill="white"/>
</mask>
<g mask="url(#mask2_1254_6491)">
<path d="M71.4469 84.46H64.0622C63.3908 84.46 62.8398 83.909 62.8398 83.2376V64.9216C62.8398 64.2502 63.3908 63.6992 64.0622 63.6992H71.4469C72.1182 63.6992 72.6692 64.2502 72.6692 64.9216V83.2376C72.6692 83.909 72.1182 84.46 71.4469 84.46ZM71.4026 64.9216L64.0622 64.9659L64.1065 83.2376L71.4026 83.1933V64.9216Z" fill="black"/>
</g>
<path d="M60.5067 41.6657C60.8566 41.6657 61.1403 41.382 61.1403 41.0321C61.1403 40.6821 60.8566 40.3984 60.5067 40.3984C60.1567 40.3984 59.873 40.6821 59.873 41.0321C59.873 41.382 60.1567 41.6657 60.5067 41.6657Z" fill="black"/>
<path d="M59.1219 44.0446C59.4719 44.0446 59.7555 43.7609 59.7555 43.411C59.7555 43.061 59.4719 42.7773 59.1219 42.7773C58.772 42.7773 58.4883 43.061 58.4883 43.411C58.4883 43.7609 58.772 44.0446 59.1219 44.0446Z" fill="black"/>
<path d="M47.2821 44.0446C47.632 44.0446 47.9157 43.7609 47.9157 43.411C47.9157 43.061 47.632 42.7773 47.2821 42.7773C46.9321 42.7773 46.6484 43.061 46.6484 43.411C46.6484 43.7609 46.9321 44.0446 47.2821 44.0446Z" fill="black"/>
<path d="M40.0926 30.3962C40.4426 30.3962 40.7263 30.1125 40.7263 29.7625C40.7263 29.4126 40.4426 29.1289 40.0926 29.1289C39.7427 29.1289 39.459 29.4126 39.459 29.7625C39.459 30.1125 39.7427 30.3962 40.0926 30.3962Z" fill="black"/>
<path d="M52.7489 30.3962C53.0988 30.3962 53.3825 30.1125 53.3825 29.7625C53.3825 29.4126 53.0988 29.1289 52.7489 29.1289C52.3989 29.1289 52.1152 29.4126 52.1152 29.7625C52.1152 30.1125 52.3989 30.3962 52.7489 30.3962Z" fill="black"/>
<path d="M52.3895 25.6501C52.7394 25.6501 53.0231 25.3664 53.0231 25.0164C53.0231 24.6665 52.7394 24.3828 52.3895 24.3828C52.0395 24.3828 51.7559 24.6665 51.7559 25.0164C51.7559 25.3664 52.0395 25.6501 52.3895 25.6501Z" fill="black"/>
<path d="M35.0028 25.6501C35.3527 25.6501 35.6364 25.3664 35.6364 25.0164C35.6364 24.6665 35.3527 24.3828 35.0028 24.3828C34.6528 24.3828 34.3691 24.6665 34.3691 25.0164C34.3691 25.3664 34.6528 25.6501 35.0028 25.6501Z" fill="black"/>
<path d="M22.0692 66.2829C22.4191 66.2829 22.7028 65.9992 22.7028 65.6493C22.7028 65.2993 22.4191 65.0156 22.0692 65.0156C21.7192 65.0156 21.4355 65.2993 21.4355 65.6493C21.4355 65.9992 21.7192 66.2829 22.0692 66.2829Z" fill="black"/>
<path d="M33.7957 77.4313C34.1457 77.4313 34.4294 77.1476 34.4294 76.7977C34.4294 76.4477 34.1457 76.1641 33.7957 76.1641C33.4458 76.1641 33.1621 76.4477 33.1621 76.7977C33.1621 77.1476 33.4458 77.4313 33.7957 77.4313Z" fill="black"/>
<path d="M54.9422 76.1188C55.2922 76.1188 55.5759 75.8351 55.5759 75.4852C55.5759 75.1352 55.2922 74.8516 54.9422 74.8516C54.5923 74.8516 54.3086 75.1352 54.3086 75.4852C54.3086 75.8351 54.5923 76.1188 54.9422 76.1188Z" fill="black"/>
<path d="M66.3524 64.9704C66.7023 64.9704 66.986 64.6867 66.986 64.3368C66.986 63.9868 66.7023 63.7031 66.3524 63.7031C66.0024 63.7031 65.7188 63.9868 65.7188 64.3368C65.7188 64.6867 66.0024 64.9704 66.3524 64.9704Z" fill="black"/>
<path d="M68.5418 64.9704C68.8918 64.9704 69.1755 64.6867 69.1755 64.3368C69.1755 63.9868 68.8918 63.7031 68.5418 63.7031C68.1919 63.7031 67.9082 63.9868 67.9082 64.3368C67.9082 64.6867 68.1919 64.9704 68.5418 64.9704Z" fill="black"/>
<path d="M86.7782 80.5329C87.1281 80.5329 87.4118 80.2492 87.4118 79.8993C87.4118 79.5493 87.1281 79.2656 86.7782 79.2656C86.4282 79.2656 86.1445 79.5493 86.1445 79.8993C86.1445 80.2492 86.4282 80.5329 86.7782 80.5329Z" fill="black"/>
<path d="M86.7782 83.986C87.1281 83.986 87.4118 83.7023 87.4118 83.3524C87.4118 83.0024 87.1281 82.7188 86.7782 82.7188C86.4282 82.7188 86.1445 83.0024 86.1445 83.3524C86.1445 83.7023 86.4282 83.986 86.7782 83.986Z" fill="black"/>
<path d="M83.3055 82.3415C83.6555 82.3415 83.9391 82.0578 83.9391 81.7079C83.9391 81.3579 83.6555 81.0742 83.3055 81.0742C82.9556 81.0742 82.6719 81.3579 82.6719 81.7079C82.6719 82.0578 82.9556 82.3415 83.3055 82.3415Z" fill="black"/>
<path d="M80.6082 82.3415C80.9582 82.3415 81.2419 82.0578 81.2419 81.7079C81.2419 81.3579 80.9582 81.0742 80.6082 81.0742C80.2583 81.0742 79.9746 81.3579 79.9746 81.7079C79.9746 82.0578 80.2583 82.3415 80.6082 82.3415Z" fill="black"/>
</g>
</g>
<defs>
<clipPath id="clip0_1254_6491">
<rect width="95.0005" height="95.0005" fill="white" transform="translate(0.773438 0.0234375)"/>
</clipPath>
<clipPath id="clip1_1254_6491">
<rect width="95.0005" height="95.0005" fill="white" transform="translate(0.773438 0.0234375)"/>
</clipPath>
</defs>
</svg>
