<svg width="65" height="68" viewBox="0 0 65 68" fill="none" xmlns="http://www.w3.org/2000/svg">
<g filter="url(#filter0_d_1054_9885)">
<rect x="8.11328" y="5.07812" width="48.0695" height="51.0738" rx="8.70303" fill="white"/>
<rect x="8.54843" y="5.51328" width="47.1992" height="50.2035" rx="8.26788" stroke="black" stroke-opacity="0.1" stroke-width="0.870303"/>
</g>
<path d="M42.4413 39.9829L37.8334 35.2332C38.4907 34.3937 39.005 33.4511 39.3765 32.4054C39.748 31.3597 39.9338 30.2551 39.9338 29.0916C39.9338 27.7366 39.6837 26.4627 39.1836 25.2697C38.6836 24.0767 38.0013 23.0347 37.1369 22.1437C36.2725 21.2527 35.2616 20.5494 34.1043 20.0339C32.947 19.5185 31.7182 19.2607 30.418 19.2607C29.1035 19.2607 27.8676 19.5185 26.7103 20.0339C25.553 20.5494 24.5421 21.2527 23.6777 22.1437C22.8133 23.0347 22.131 24.0767 21.631 25.2697C21.1309 26.4627 20.8809 27.7366 20.8809 29.0916C20.8809 30.4318 21.1309 31.6985 21.631 32.8914C22.131 34.0844 22.8133 35.1264 23.6777 36.0174C24.5421 36.9085 25.553 37.6117 26.7103 38.1272C27.8676 38.6427 29.1035 38.9004 30.418 38.9004C31.5325 38.9004 32.5934 38.7126 33.6007 38.3371C34.608 37.9615 35.5117 37.4423 36.3118 36.7796L36.2903 36.8017L40.9196 41.5514C41.0196 41.6545 41.1339 41.7355 41.2625 41.7944C41.3911 41.8534 41.5269 41.8828 41.6697 41.8828C41.9698 41.8828 42.227 41.7724 42.4413 41.5514C42.6556 41.3305 42.7628 41.0728 42.7628 40.7782C42.7628 40.6162 42.7342 40.4689 42.677 40.3364C42.6199 40.2038 42.5413 40.086 42.4413 39.9829ZM23.0455 29.0916C23.0455 28.0312 23.2384 27.0444 23.6241 26.1313C24.0099 25.2034 24.535 24.3971 25.1994 23.7122C25.8638 23.0274 26.646 22.4861 27.5462 22.0885C28.432 21.6908 29.3893 21.492 30.418 21.492C31.4325 21.492 32.3826 21.6908 33.2685 22.0885C34.1686 22.4861 34.9509 23.0274 35.6152 23.7122C36.2796 24.3971 36.8047 25.2034 37.1905 26.1313C37.5905 27.0444 37.7906 28.0312 37.7906 29.0916C37.7906 30.1373 37.5905 31.1167 37.1905 32.0298C36.8047 32.9577 36.2796 33.764 35.6152 34.4489C34.9509 35.1337 34.1686 35.675 33.2685 36.0726C32.3826 36.485 31.4325 36.6912 30.418 36.6912C29.3893 36.6912 28.432 36.485 27.5462 36.0726C26.646 35.675 25.8638 35.1337 25.1994 34.4489C24.535 33.764 24.0099 32.9577 23.6241 32.0298C23.2384 31.1167 23.0455 30.1373 23.0455 29.0916Z" fill="black" fill-opacity="0.9"/>
<defs>
<filter id="filter0_d_1054_9885" x="0.280555" y="0.72661" width="63.7348" height="66.7397" filterUnits="userSpaceOnUse" color-interpolation-filters="sRGB">
<feFlood flood-opacity="0" result="BackgroundImageFix"/>
<feColorMatrix in="SourceAlpha" type="matrix" values="0 0 0 0 0 0 0 0 0 0 0 0 0 0 0 0 0 0 127 0" result="hardAlpha"/>
<feMorphology radius="4.35151" operator="dilate" in="SourceAlpha" result="effect1_dropShadow_1054_9885"/>
<feOffset dy="3.48121"/>
<feGaussianBlur stdDeviation="1.74061"/>
<feComposite in2="hardAlpha" operator="out"/>
<feColorMatrix type="matrix" values="0 0 0 0 0 0 0 0 0 0.537255 0 0 0 0 0.882353 0 0 0 0.03 0"/>
<feBlend mode="normal" in2="BackgroundImageFix" result="effect1_dropShadow_1054_9885"/>
<feBlend mode="normal" in="SourceGraphic" in2="effect1_dropShadow_1054_9885" result="shape"/>
</filter>
</defs>
</svg>
