<svg width="26" height="19" viewBox="0 0 26 19" fill="none" xmlns="http://www.w3.org/2000/svg">
<path d="M5.53063 10.8047C4.35514 10.8047 3.40039 11.761 3.40039 12.9357C3.40039 14.1104 4.3554 15.0665 5.53063 15.0665C6.70612 15.0665 7.66113 14.1104 7.66113 12.936C7.66165 11.761 6.70612 10.8047 5.53063 10.8047Z" fill="#722875"/>
<path d="M5.53009 7.40625C2.48073 7.40625 0 9.88646 0 12.9363C0 15.986 2.48099 18.4672 5.53009 18.4672C8.57998 18.4672 11.062 15.9857 11.062 12.9363C11.0623 9.88646 8.57998 7.40625 5.53009 7.40625ZM5.53087 16.0507C3.81379 16.0507 2.41651 14.654 2.41651 12.9361C2.41651 11.2182 3.81353 9.8212 5.53087 9.8212C7.24822 9.8212 8.64524 11.2185 8.64524 12.9361C8.64524 14.6537 7.24822 16.0507 5.53087 16.0507Z" fill="#722875"/>
<path d="M22.0592 10.5859C19.8868 10.5859 18.1211 12.3527 18.1211 14.5245C18.1211 16.6966 19.8865 18.4642 22.0592 18.4642C24.2307 18.4642 25.9988 16.6966 25.9988 14.5245C25.9991 12.3527 24.2307 10.5859 22.0592 10.5859ZM22.0592 16.3784C21.0353 16.3784 20.2056 15.5487 20.2056 14.5248C20.2056 13.5009 21.035 12.6717 22.0592 12.6717C23.0831 12.6717 23.9133 13.5006 23.9133 14.5248C23.9133 15.5484 23.0831 16.3784 22.0592 16.3784Z" fill="#722875"/>
<path d="M18.8695 10.9642C18.0458 10.3197 16.7201 9.52378 14.9226 9.13247V8.63273C16.9408 9.04667 18.3966 9.93641 19.2692 10.6402C20.0562 10.0714 21.0188 9.73204 22.0616 9.73204C22.6274 9.73204 23.1677 9.83579 23.6706 10.0173C23.6178 8.7825 23.4652 7.48194 23.0538 7.3262C21.0294 6.57243 18.3916 6.12158 16.2645 5.93126V2.01061C16.2645 1.46017 16.5388 1.33251 16.5773 1.31691C16.8394 1.24333 16.9918 0.97084 16.9171 0.709533C16.8433 0.448745 16.5744 0.298201 16.31 0.370743C15.9276 0.479166 15.2807 0.945359 15.2807 2.01061V5.85846C15.1301 5.84988 14.9881 5.84468 14.847 5.83896L13.6962 0.887637C13.6512 0.695492 13.4967 0.548588 13.3028 0.514527C13.0657 0.472926 7.44716 -0.503921 3.22126 0.346822C2.95527 0.400384 2.78237 0.659611 2.83541 0.926119C2.88897 1.19237 3.14716 1.36631 3.41496 1.31119C3.47373 1.29949 3.53483 1.29143 3.59385 1.28051L2.81799 5.79371C2.81669 5.80307 2.82007 5.81243 2.81877 5.82258H2.6443C1.71452 5.82258 1.52939 6.42215 1.52939 6.42215L0.959717 7.85011L1.43319 8.08542C2.54056 7.14835 3.9706 6.58024 5.53064 6.58024C9.0371 6.58024 11.8886 9.43251 11.8886 12.9372C11.8886 13.5521 11.7966 14.1446 11.6328 14.7073H17.291C17.2887 14.6423 17.2814 14.5783 17.2814 14.5123C17.2814 13.1038 17.8968 11.8402 18.8695 10.9642ZM20.7476 7.51548C20.8734 7.46634 21.0159 7.52822 21.0671 7.65459L21.466 8.67147C21.5156 8.79758 21.4527 8.94006 21.3269 8.99024C21.2972 9.00116 21.2673 9.00688 21.2366 9.00688C21.1389 9.00688 21.0466 8.9476 21.0078 8.85114L20.6085 7.83425C20.5591 7.70789 20.6212 7.56488 20.7476 7.51548ZM19.5885 7.51548C19.713 7.46634 19.857 7.52822 19.9072 7.65459L20.3066 8.67147C20.356 8.79758 20.2933 8.94006 20.1672 8.99024C20.1376 9.00116 20.1074 9.00688 20.077 9.00688C19.9785 9.00688 19.8864 8.9476 19.8479 8.85114L19.4491 7.83425C19.3994 7.70789 19.4616 7.56488 19.5885 7.51548ZM8.04881 6.06646C7.66218 5.93984 7.28881 5.84858 6.96094 5.82258H3.81148L4.5382 1.59564H8.04881V6.06646ZM13.9382 9.85425L12.1564 9.85217C11.5649 8.26404 10.2971 7.12937 9.03216 6.47363V1.5959H12.8506L13.9377 6.27577V9.85451L13.9382 9.85425Z" fill="#722875"/>
</svg>
