<svg width="26" height="19" viewBox="0 0 26 19" fill="none" xmlns="http://www.w3.org/2000/svg">
<path d="M5.53063 10.8054C4.35514 10.8054 3.40039 11.7617 3.40039 12.9364C3.40039 14.1112 4.3554 15.0672 5.53063 15.0672C6.70612 15.0672 7.66113 14.1112 7.66113 12.9367C7.66165 11.7617 6.70612 10.8054 5.53063 10.8054Z" fill="#722875"/>
<path d="M5.53009 7.40674C2.48073 7.40674 0 9.88695 0 12.9368C0 15.9865 2.48099 18.4677 5.53009 18.4677C8.57998 18.4677 11.062 15.9862 11.062 12.9368C11.0623 9.88695 8.57998 7.40674 5.53009 7.40674ZM5.53087 16.0512C3.81379 16.0512 2.41651 14.6544 2.41651 12.9366C2.41651 11.2187 3.81353 9.82169 5.53087 9.82169C7.24822 9.82169 8.64524 11.219 8.64524 12.9366C8.64524 14.6542 7.24822 16.0512 5.53087 16.0512Z" fill="#722875"/>
<path d="M22.0597 10.5891C19.8873 10.5891 18.1216 12.3559 18.1216 14.5277C18.1216 16.6998 19.887 18.4673 22.0597 18.4673C24.2312 18.4673 25.9993 16.6998 25.9993 14.5277C25.9995 12.3559 24.2312 10.5891 22.0597 10.5891ZM22.0597 16.3816C21.0357 16.3816 20.2061 15.5519 20.2061 14.528C20.2061 13.5041 21.0355 12.6749 22.0597 12.6749C23.0836 12.6749 23.9138 13.5038 23.9138 14.528C23.9138 15.5516 23.0836 16.3816 22.0597 16.3816Z" fill="#722875"/>
<path d="M18.8698 10.9642C18.0461 10.3197 16.7203 9.52378 14.9229 9.13247V8.63273C16.941 9.04667 18.3968 9.93641 19.2694 10.6402C20.0564 10.0714 21.019 9.73204 22.0619 9.73204C22.6277 9.73204 23.168 9.83579 23.6708 10.0173C23.618 8.7825 23.4654 7.48194 23.0541 7.3262C21.0297 6.57243 18.3919 6.12158 16.2648 5.93126V2.01061C16.2648 1.46017 16.5391 1.33251 16.5776 1.31691C16.8396 1.24333 16.992 0.97084 16.9174 0.709533C16.8435 0.448745 16.5747 0.298201 16.3103 0.370743C15.9278 0.479166 15.2809 0.945359 15.2809 2.01061V5.85846C15.1304 5.84988 14.9884 5.84468 14.8472 5.83896L13.6964 0.887637C13.6514 0.695492 13.497 0.548588 13.303 0.514527C13.0659 0.472926 7.4474 -0.503921 3.2215 0.346822C2.95552 0.400384 2.78261 0.659611 2.83565 0.926119C2.88921 1.19237 3.1474 1.36631 3.41521 1.31119C3.47397 1.29949 3.53507 1.29143 3.59409 1.28051L2.81823 5.79371C2.81693 5.80307 2.82031 5.81243 2.81901 5.82258H2.64455C1.71476 5.82258 1.52964 6.42215 1.52964 6.42215L0.959961 7.85011L1.43343 8.08542C2.5408 7.14835 3.97084 6.58024 5.53089 6.58024C9.03734 6.58024 11.8888 9.43251 11.8888 12.9372C11.8888 13.5521 11.7968 14.1446 11.633 14.7073H17.2913C17.2889 14.6423 17.2817 14.5783 17.2817 14.5123C17.2817 13.1038 17.8971 11.8402 18.8698 10.9642ZM20.7478 7.51548C20.8737 7.46634 21.0161 7.52822 21.0674 7.65459L21.4662 8.67147C21.5159 8.79758 21.4529 8.94006 21.3271 8.99024C21.2975 9.00116 21.2676 9.00688 21.2369 9.00688C21.1391 9.00688 21.0468 8.9476 21.0081 8.85114L20.6087 7.83425C20.5593 7.70789 20.6214 7.56488 20.7478 7.51548ZM19.5887 7.51548C19.7132 7.46634 19.8573 7.52822 19.9075 7.65459L20.3068 8.67147C20.3562 8.79758 20.2936 8.94006 20.1675 8.99024C20.1378 9.00116 20.1077 9.00688 20.0773 9.00688C19.9787 9.00688 19.8867 8.9476 19.8482 8.85114L19.4493 7.83425C19.3997 7.70789 19.4618 7.56488 19.5887 7.51548ZM8.04906 6.06646C7.66243 5.93984 7.28906 5.84858 6.96119 5.82258H3.81172L4.53844 1.59564H8.04906V6.06646ZM13.9385 9.85425L12.1567 9.85217C11.5651 8.26404 10.2973 7.12937 9.0324 6.47363V1.5959H12.8509L13.938 6.27577V9.85451L13.9385 9.85425Z" fill="#722875"/>
</svg>
