<svg width="18" height="16" viewBox="0 0 18 16" fill="none" xmlns="http://www.w3.org/2000/svg">
<path d="M17.9435 5.68978C17.8739 5.56419 17.7712 5.46011 17.6465 5.3889C17.5218 5.31768 17.38 5.28207 17.2365 5.28593H11.8626L10.1656 0.439101C10.0241 -0.0994919 9.03426 -0.0994919 8.75143 0.439101L7.05442 5.28593H1.68057C1.53702 5.28204 1.39516 5.31765 1.27046 5.38886C1.14576 5.46008 1.04301 5.56417 0.97342 5.68978C0.832066 5.95901 0.97342 6.22837 1.25625 6.4976L5.64025 9.45942L3.94324 14.3062C3.80176 14.5755 3.94324 14.8448 4.22608 15.1141C4.35765 15.1805 4.50296 15.2151 4.65033 15.2151C4.7977 15.2151 4.94301 15.1805 5.07458 15.1141L9.45858 12.1523L13.8426 15.1141C13.9667 15.2017 14.1149 15.2487 14.2668 15.2487C14.4187 15.2487 14.567 15.2017 14.6911 15.1141C14.9739 14.9795 15.1154 14.7102 14.9739 14.3062L13.2769 9.45942L17.6609 6.4976C17.9435 6.22837 18.085 5.95914 17.9435 5.68978ZM11.8625 11.4173C11.5796 11.5519 12.5351 10.8939 11.7927 11.4173L12.0832 11.8622L12.9938 12.8253L12.164 11.088C12.0225 10.9534 12.7754 8.19168 12.6343 8.19168L9.60031 2.86296C10.7866 6.33324 8.01301 7.77678 11.863 7.77678L11.8625 11.4173Z" fill="#FF9933"/>
</svg>
