<svg width="14" height="15" viewBox="0 0 14 15" fill="none" xmlns="http://www.w3.org/2000/svg">
<path d="M6.76338 0.732672C10.4042 0.732672 13.4025 3.73098 13.4025 7.37177C13.4025 11.0393 10.4042 14.0109 6.76338 14.0109C3.09582 14.0109 0.124285 11.0393 0.124285 7.37177C0.124285 3.73098 3.09582 0.732672 6.76338 0.732672ZM11.127 3.81129C11.0199 3.97191 10.0829 5.17659 7.96806 6.03324C8.18222 6.46157 8.31608 6.78282 8.4767 7.15761C10.3506 6.91667 12.2246 7.29146 12.412 7.345C12.412 6.00647 11.9301 4.77503 11.127 3.81129ZM10.5113 3.14202C9.11919 1.91058 7.21848 1.45548 5.42486 1.88381C5.58548 2.09797 6.60276 3.49004 7.53973 5.20336C9.54752 4.45378 10.4042 3.30265 10.5113 3.14202ZM4.32726 2.25859C2.7478 3.00817 1.5699 4.48055 1.19511 6.22064C1.46281 6.24741 3.79185 6.24741 6.44214 5.55137C5.50517 3.86483 4.48789 2.47276 4.32726 2.25859ZM1.08803 7.39854C1.08803 8.84415 1.62344 10.1827 2.53364 11.1732C3.44383 9.6205 5.31777 7.96072 7.37911 7.37177C7.21848 7.05052 7.08463 6.72928 6.89724 6.40803C4.08633 7.26469 1.32896 7.23792 1.08803 7.21115C1.08803 7.29146 1.08803 7.345 1.08803 7.39854ZM3.25644 11.8692C4.94299 13.181 7.13817 13.3951 8.95857 12.6188C8.87826 12.1102 8.55701 10.3701 7.7539 8.30874C5.4784 9.08509 3.87216 10.6646 3.25644 11.8692ZM9.92231 12.0834C11.1805 11.2267 12.0907 9.86143 12.3584 8.28197C12.1443 8.22843 10.5916 7.77333 8.82472 8.04104C9.54752 10.1024 9.86877 11.7621 9.92231 12.0834Z" fill="#071C1F"/>
</svg>
