<svg width="17" height="23" viewBox="0 0 17 23" fill="none" xmlns="http://www.w3.org/2000/svg">
<path d="M11.4942 21.1348L10.9359 21.9717C11.0874 22.0727 11.2635 22.1308 11.4454 22.1396C11.6273 22.1484 11.8082 22.1077 11.9688 22.0218C12.1293 21.9359 12.2636 21.8081 12.3572 21.6518C12.4507 21.4956 12.5001 21.3169 12.5001 21.1348H11.4942ZM8.47648 19.123L9.03476 18.2861C8.86946 18.1757 8.6752 18.1168 8.47648 18.1168C8.27777 18.1168 8.0835 18.1757 7.9182 18.2861L8.47648 19.123ZM5.45875 21.1348H4.45285C4.45283 21.3169 4.50223 21.4956 4.59581 21.6518C4.6894 21.8081 4.82363 21.9359 4.9842 22.0218C5.14477 22.1077 5.32566 22.1484 5.50755 22.1396C5.68946 22.1308 5.86555 22.0727 6.01703 21.9717L5.45875 21.1348ZM12.0525 20.2979L9.03476 18.2861L7.9182 19.9599L10.9359 21.9717L12.0525 20.2979ZM7.9182 18.2861L4.90047 20.2979L6.01703 21.9717L9.03476 19.9599L7.9182 18.2861ZM9.24299 2.46306L9.28524 2.51335L10.8172 1.20969L10.775 1.1594L9.24299 2.46306ZM11.8252 3.56553L11.8905 3.5605L11.7296 1.55472L11.6642 1.55975L11.8252 3.56553ZM12.9739 4.64387L12.9689 4.70925L14.9747 4.87019L14.9797 4.80481L12.9739 4.64387ZM14.0211 7.24918L14.0713 7.29143L15.375 5.75943L15.3247 5.71718L14.0211 7.24918ZM14.0713 8.82443L14.0211 8.86668L15.3247 10.3987L15.375 10.3564L14.0713 8.82443ZM12.9689 11.4066L12.9739 11.472L14.9797 11.311L14.9747 11.2456L12.9689 11.4066ZM11.8905 12.5553L11.8252 12.5503L11.6642 14.5561L11.7296 14.5611L11.8905 12.5553ZM9.28524 13.6025L9.24299 13.6528L10.775 14.9565L10.8172 14.9061L9.28524 13.6025ZM7.70998 13.6528L7.66773 13.6025L6.13573 14.9061L6.17798 14.9565L7.70998 13.6528ZM5.12781 12.5503L5.06243 12.5553L5.22337 14.5611L5.28876 14.5561L5.12781 12.5503ZM3.97907 11.472L3.98409 11.4066L1.97831 11.2456L1.97328 11.311L3.97907 11.472ZM2.93191 8.86668L2.88161 8.82443L1.57796 10.3564L1.62825 10.3987L2.93191 8.86668ZM2.88161 7.29143L2.93191 7.24918L1.62825 5.71718L1.57796 5.75943L2.88161 7.29143ZM3.98409 4.70925L3.97907 4.64387L1.97328 4.80481L1.97831 4.87019L3.98409 4.70925ZM5.06243 3.5605L5.12681 3.56553L5.28876 1.55975L5.22337 1.55472L5.06243 3.5605ZM7.66773 2.51335L7.70998 2.46306L6.17798 1.1594L6.13573 1.20969L7.66773 2.51335ZM5.12681 3.56553C5.60325 3.60383 6.08297 3.52842 6.52455 3.34548C6.96614 3.16255 7.35795 2.87735 7.66773 2.51335L6.13573 1.20969C6.03238 1.33096 5.90169 1.42593 5.75443 1.48678C5.60718 1.54764 5.44757 1.57265 5.28876 1.55975L5.12681 3.56553ZM3.97907 4.64387C3.96737 4.49863 3.98737 4.35258 4.03769 4.21584C4.088 4.0791 4.16742 3.95491 4.27044 3.85189C4.37347 3.74886 4.49766 3.66944 4.6344 3.61912C4.77115 3.56882 4.91719 3.54882 5.06243 3.5605L5.22337 1.55472C4.78775 1.51981 4.34973 1.57994 3.93961 1.73093C3.52951 1.88193 3.15708 2.1202 2.84811 2.42928C2.53914 2.73835 2.30097 3.11084 2.1501 3.52101C1.99923 3.93116 1.93823 4.36919 1.97328 4.80481L3.97907 4.64387ZM2.93191 7.24918C3.2959 6.9394 3.58112 6.54758 3.76404 6.10599C3.94697 5.66441 4.0224 5.18569 3.98409 4.70925L1.97831 4.87019C1.99122 5.02902 1.9662 5.18862 1.90535 5.33587C1.84448 5.48312 1.74951 5.61381 1.62825 5.71718L2.93191 7.24918ZM2.88161 8.82443C2.7705 8.73 2.68124 8.61253 2.62004 8.48018C2.55882 8.34783 2.52711 8.20374 2.52711 8.05793C2.52711 7.9121 2.55882 7.76802 2.62004 7.63567C2.68124 7.50331 2.7705 7.38586 2.88161 7.29143L1.57796 5.75943C1.24495 6.04272 0.97748 6.39499 0.794053 6.79187C0.610626 7.18873 0.515625 7.62071 0.515625 8.05793C0.515625 8.49513 0.610626 8.92712 0.794053 9.32399C0.97748 9.72086 1.24495 10.0731 1.57796 10.3564L2.88161 8.82443ZM3.98409 11.4066C4.0224 10.9302 3.94697 10.4514 3.76404 10.0099C3.58112 9.56827 3.2959 9.17646 2.93191 8.86668L1.62825 10.3987C1.74951 10.502 1.84448 10.6327 1.90535 10.78C1.9662 10.9272 1.99122 11.0868 1.97831 11.2456L3.98409 11.4066ZM5.06243 12.5553C4.91719 12.567 4.77115 12.547 4.6344 12.4967C4.49766 12.4464 4.37347 12.367 4.27044 12.264C4.16742 12.1609 4.088 12.0368 4.03769 11.9C3.98737 11.7633 3.96737 11.6172 3.97907 11.472L1.97328 11.311C1.93836 11.7467 1.99849 12.1847 2.14949 12.5948C2.3005 13.0049 2.53877 13.3773 2.84784 13.6863C3.15691 13.9952 3.5294 14.2334 3.93956 14.3843C4.34972 14.5352 4.78776 14.5962 5.22337 14.5611L5.06243 12.5553ZM9.24299 13.6528C9.14856 13.764 9.03109 13.8522 8.89875 13.9133C8.76639 13.9746 8.62231 14.0063 8.47648 14.0063C8.33066 14.0063 8.18658 13.9746 8.05422 13.9133C7.92188 13.8522 7.80441 13.764 7.70998 13.6528L6.17798 14.9565C6.46128 15.2894 6.81355 15.5569 7.21042 15.7403C7.60729 15.9238 8.03928 16.0188 8.47648 16.0188C8.9137 16.0188 9.34568 15.9238 9.74255 15.7403C10.1394 15.5569 10.4917 15.2894 10.775 14.9565L9.24299 13.6528ZM12.9739 11.472C12.9856 11.6173 12.9666 11.7634 12.9162 11.9003C12.8659 12.0371 12.7863 12.1613 12.6832 12.2644C12.5801 12.3674 12.4558 12.4468 12.3189 12.4971C12.182 12.5473 12.0359 12.5672 11.8905 12.5553L11.7296 14.5611C12.1652 14.596 12.6032 14.5359 13.0134 14.3849C13.4235 14.2339 13.7959 13.9956 14.1049 13.6865C14.4138 13.3776 14.652 13.005 14.8029 12.5949C14.9538 12.1847 15.0148 11.7467 14.9797 11.311L12.9739 11.472ZM14.0211 8.86668C13.657 9.17646 13.3718 9.56827 13.189 10.0099C13.006 10.4514 12.9306 10.9302 12.9689 11.4066L14.9747 11.2456C14.9617 11.0868 14.9867 10.9272 15.0476 10.78C15.1084 10.6327 15.2035 10.502 15.3247 10.3987L14.0211 8.86668ZM14.0713 7.29143C14.1825 7.38586 14.2718 7.50331 14.3329 7.63567C14.3941 7.76802 14.4258 7.9121 14.4258 8.05793C14.4258 8.20374 14.3941 8.34783 14.3329 8.48018C14.2718 8.61253 14.1825 8.73 14.0713 8.82443L15.375 10.3564C15.708 10.0731 15.9755 9.72086 16.1589 9.32399C16.3424 8.92712 16.4374 8.49513 16.4374 8.05793C16.4374 7.62071 16.3424 7.18873 16.1589 6.79187C15.9755 6.39499 15.708 6.04272 15.375 5.75943L14.0713 7.29143ZM12.9689 4.70925C12.9306 5.18569 13.006 5.66441 13.189 6.10599C13.3718 6.54758 13.657 6.9394 14.0211 7.24918L15.3247 5.71718C15.2035 5.61381 15.1084 5.48312 15.0476 5.33587C14.9867 5.18862 14.9617 5.02902 14.9747 4.87019L12.9689 4.70925ZM11.8905 3.5605C12.0358 3.54882 12.1818 3.56882 12.3186 3.61912C12.4553 3.66944 12.5795 3.74886 12.6825 3.85189C12.7856 3.95491 12.8649 4.0791 12.9153 4.21584C12.9656 4.35258 12.9856 4.49863 12.9739 4.64387L14.9797 4.80481C15.0146 4.36919 14.9545 3.93117 14.8035 3.52106C14.6525 3.11094 14.4142 2.73852 14.1051 2.42955C13.796 2.12057 13.4236 1.88242 13.0134 1.73154C12.6032 1.58067 12.1652 1.51967 11.7296 1.55472L11.8905 3.5605ZM9.28524 2.51335C9.59502 2.87735 9.98683 3.16255 10.4284 3.34548C10.87 3.52842 11.3487 3.60383 11.8252 3.56553L11.6642 1.55975C11.5054 1.57265 11.3458 1.54764 11.1985 1.48678C11.0513 1.42593 10.9206 1.33096 10.8172 1.20969L9.28524 2.51335ZM10.775 1.1594C10.4917 0.826564 10.1385 0.559242 9.74169 0.375922C9.34492 0.1926 8.91306 0.0976562 8.47598 0.0976562C8.0389 0.0976562 7.60704 0.1926 7.21026 0.375922C6.8135 0.559242 6.46128 0.826564 6.17798 1.1594L7.70998 2.46306C7.80441 2.35194 7.92188 2.26269 8.05422 2.20147C8.18658 2.14026 8.33066 2.10855 8.47648 2.10855C8.62231 2.10855 8.76639 2.14026 8.89875 2.20147C9.03109 2.26269 9.14856 2.35194 9.24299 2.46306L10.775 1.1594ZM7.66773 13.6025C7.39904 13.2867 7.06815 13.0296 6.6957 12.8474C6.32326 12.6652 5.91725 12.5616 5.50302 12.5432L5.41449 14.5531C5.55252 14.5593 5.68779 14.5937 5.81187 14.6546C5.93596 14.7153 6.0462 14.8009 6.13573 14.9061L7.66773 13.6025ZM5.50302 12.5432C5.37793 12.5377 5.25261 12.5403 5.12781 12.5503L5.28876 14.5561C5.33057 14.5525 5.37256 14.5515 5.41449 14.5531L5.50302 12.5432ZM6.46467 21.1348V13.5481H4.45285V21.1348H6.46467ZM11.8252 12.5503C11.7 12.5402 11.5754 12.5378 11.45 12.5432L11.5385 14.5531C11.5804 14.5515 11.6224 14.5525 11.6642 14.5561L11.8252 12.5503ZM11.45 12.5432C11.0357 12.5616 10.6297 12.6652 10.2573 12.8474C9.88482 13.0296 9.55393 13.2867 9.28524 13.6025L10.8172 14.9061C10.9069 14.8012 11.0171 14.7157 11.1412 14.6551C11.2653 14.5945 11.4005 14.5592 11.5385 14.5531L11.45 12.5432ZM10.4883 13.5492V21.1348H12.5001V13.5481L10.4883 13.5492Z" fill="#F37021"/>
<path d="M10.4846 7.05078L7.46684 10.0685L6.46094 9.0626" stroke="#F37021" stroke-width="1.40831" stroke-linecap="round" stroke-linejoin="round"/>
</svg>
