<svg width="13" height="13" viewBox="0 0 13 13" fill="none" xmlns="http://www.w3.org/2000/svg">
<path d="M6.71062 3.35736C8.38399 3.35736 9.76518 4.73856 9.76518 6.41193C9.76518 8.11186 8.38399 9.46649 6.71062 9.46649C5.01069 9.46649 3.65606 8.11186 3.65606 6.41193C3.65606 4.73856 5.01069 3.35736 6.71062 3.35736ZM6.71062 8.40403C7.79964 8.40403 8.67616 7.52751 8.67616 6.41193C8.67616 5.32291 7.79964 4.44638 6.71062 4.44638C5.59504 4.44638 4.71851 5.32291 4.71851 6.41193C4.71851 7.52751 5.6216 8.40403 6.71062 8.40403ZM10.5886 3.25112C10.5886 3.64954 10.2698 3.96828 9.87143 3.96828C9.47301 3.96828 9.15427 3.64954 9.15427 3.25112C9.15427 2.8527 9.47301 2.53396 9.87143 2.53396C10.2698 2.53396 10.5886 2.8527 10.5886 3.25112ZM12.6073 3.96828C12.6604 4.95105 12.6604 7.89937 12.6073 8.88214C12.5541 9.83835 12.3416 10.6618 11.651 11.3789C10.9604 12.0695 10.1105 12.282 9.15427 12.3351C8.1715 12.3882 5.22318 12.3882 4.24041 12.3351C3.2842 12.282 2.46079 12.0695 1.74363 11.3789C1.05304 10.6618 0.840547 9.83835 0.787424 8.88214C0.734301 7.89937 0.734301 4.95105 0.787424 3.96828C0.840547 3.01207 1.05304 2.1621 1.74363 1.4715C2.46079 0.780908 3.2842 0.568417 4.24041 0.515294C5.22318 0.462171 8.1715 0.462171 9.15427 0.515294C10.1105 0.568417 10.9604 0.780908 11.651 1.4715C12.3416 2.1621 12.5541 3.01207 12.6073 3.96828ZM11.3323 9.91803C11.651 9.14775 11.5714 7.28845 11.5714 6.41193C11.5714 5.56196 11.651 3.70266 11.3323 2.90582C11.1198 2.40115 10.7214 1.97617 10.2167 1.79024C9.41988 1.4715 7.56058 1.55119 6.71062 1.55119C5.83409 1.55119 3.97479 1.4715 3.20451 1.79024C2.67328 2.00273 2.27486 2.40115 2.06237 2.90582C1.74363 3.70266 1.82332 5.56196 1.82332 6.41193C1.82332 7.28845 1.74363 9.14775 2.06237 9.91803C2.27486 10.4493 2.67328 10.8477 3.20451 11.0602C3.97479 11.3789 5.83409 11.2992 6.71062 11.2992C7.56058 11.2992 9.41988 11.3789 10.2167 11.0602C10.7214 10.8477 11.1464 10.4493 11.3323 9.91803Z" fill="#071C1F"/>
</svg>
