<svg width="27" height="22" viewBox="0 0 27 22" fill="none" xmlns="http://www.w3.org/2000/svg">
<path d="M20.107 11.0126L19.1518 13.2904H21.0622L20.107 11.0126Z" fill="#652178"/>
<path d="M11.5377 14.6285V16.3604C11.5377 17.5938 12.5401 18.5962 13.7735 18.5962H20.5018L22.8583 20.9527C22.9581 21.0525 23.0945 21.105 23.2257 21.105C23.294 21.105 23.3622 21.0892 23.4304 21.063C23.6246 20.9842 23.7506 20.7901 23.7506 20.5801V18.5962H23.9972C25.2306 18.5962 26.233 17.5938 26.233 16.3604V8.96028C26.233 7.72692 25.2306 6.72449 23.9972 6.72449H17.8882V11.0754C17.8882 13.033 16.2927 14.6285 14.3298 14.6285H11.5377ZM17.1062 15.4577L17.8777 13.6156V13.6103L19.6201 9.44838C19.6988 9.24894 19.893 9.12298 20.103 9.12298C20.3129 9.12298 20.5071 9.24894 20.5858 9.44838L22.3283 13.6103L22.3335 13.6156L23.0998 15.4577C23.2152 15.7254 23.0893 16.0298 22.8216 16.1453C22.7534 16.1715 22.6851 16.182 22.6169 16.182C22.4122 16.182 22.218 16.0613 22.1341 15.8619L21.499 14.3398H18.7069L18.0718 15.8619C17.9616 16.1295 17.652 16.2555 17.3896 16.1453C17.1219 16.0351 16.9959 15.7254 17.1062 15.4577Z" fill="#652178"/>
<path d="M2.50346 13.5827H2.87084V15.9602C2.87084 16.1754 2.9968 16.3643 3.19099 16.4483C3.25922 16.4746 3.32745 16.485 3.39568 16.485C3.53214 16.485 3.66334 16.4326 3.76306 16.3328L6.51844 13.5827H14.3385C15.7188 13.5827 16.8472 12.4596 16.8472 11.0793V2.50871C16.8472 1.12839 15.7188 0 14.3385 0H2.50346C1.12315 0 0 1.12839 0 2.50871V11.074C0 12.4596 1.12315 13.5827 2.50346 13.5827Z" fill="#652178"/>
<path d="M11.9956 3.10048V4.05182H10.6767V11.1003H9.55241V7.77067L8.06054 7.75986C8.13261 7.96887 8.16865 8.18868 8.16865 8.41931C8.16865 9.04632 7.96685 9.55082 7.56325 9.93279C7.15965 10.3148 6.62633 10.5058 5.96328 10.5058C5.48761 10.5058 5.06239 10.4121 4.68763 10.2247C4.32007 10.0373 4.03178 9.77784 3.82278 9.44632C3.62098 9.10758 3.52008 8.72201 3.52008 8.28958H4.57952C4.57952 8.64993 4.69844 8.94903 4.93627 9.18686C5.18131 9.41749 5.49842 9.5328 5.88761 9.5328C6.26958 9.5328 6.57228 9.42109 6.7957 9.19767C7.01912 8.97425 7.13083 8.67876 7.13083 8.3112C7.13083 8.1022 7.09119 7.91842 7.01191 7.75986H6.99029V7.70581C6.75966 7.295 6.35246 7.0896 5.76869 7.0896H5.32545V6.1707H5.76869C6.16508 6.1707 6.47138 6.0662 6.68759 5.85719C6.91101 5.64098 7.02272 5.38513 7.02272 5.08964C7.02272 4.7509 6.91101 4.48064 6.68759 4.27884C6.47138 4.06984 6.19751 3.96533 5.86598 3.96533C5.52004 3.96533 5.22816 4.06623 4.99032 4.26803C4.7597 4.46262 4.64438 4.72568 4.64438 5.05721H3.59575C3.59575 4.6464 3.68945 4.28605 3.87683 3.97614C4.07142 3.66624 4.34169 3.42841 4.68763 3.26264C5.03357 3.08967 5.42635 3.00319 5.86598 3.00319C6.51462 3.00319 7.03713 3.17976 7.43352 3.53291C7.83712 3.88605 8.03892 4.35451 8.03892 4.93829C8.03892 5.34909 7.93081 5.70224 7.7146 5.99773C7.49839 6.28601 7.18488 6.48421 6.77408 6.59231V6.61393C6.97587 6.65718 7.16326 6.72925 7.33623 6.83015H9.55241V3.10048H11.9956Z" fill="white"/>
</svg>
