<svg width="15" height="12" viewBox="0 0 15 12" fill="none" xmlns="http://www.w3.org/2000/svg">
<path d="M10.8987 6.34375L10.4023 7.52747H11.3951L10.8987 6.34375Z" fill="#652178"/>
<path d="M6.44531 8.22248V9.1229C6.44531 9.76411 6.96647 10.2853 7.60768 10.2853H11.1057L12.3308 11.5104C12.3826 11.5622 12.4536 11.5895 12.5218 11.5895C12.5573 11.5895 12.5927 11.5813 12.6282 11.5677C12.7292 11.5268 12.7947 11.4258 12.7947 11.3167V10.2853H12.9229C13.5641 10.2853 14.0853 9.76411 14.0853 9.1229V5.27564C14.0853 4.63443 13.5641 4.11328 12.9229 4.11328H9.74686V6.37525C9.74686 7.393 8.91738 8.22248 7.8969 8.22248H6.44531ZM9.34031 8.65359L9.7414 7.69587V7.69314L10.6473 5.5294C10.6882 5.42572 10.7892 5.36023 10.8983 5.36023C11.0075 5.36023 11.1084 5.42572 11.1493 5.5294L12.0552 7.69314L12.0579 7.69587L12.4563 8.65359C12.5163 8.79275 12.4509 8.95101 12.3117 9.01103C12.2762 9.02468 12.2408 9.03013 12.2053 9.03013C12.0989 9.03013 11.9979 8.96738 11.9543 8.86369L11.6241 8.07241H10.1725L9.84236 8.86369C9.78506 9.00285 9.62408 9.06833 9.48765 9.01103C9.34849 8.95373 9.28301 8.79275 9.34031 8.65359Z" fill="#652178"/>
<path d="M1.74488 7.67477H1.93588V8.91081C1.93588 9.02268 2.00136 9.12091 2.10232 9.16456C2.13779 9.17821 2.17326 9.18366 2.20873 9.18366C2.27968 9.18366 2.34789 9.15638 2.39973 9.10454L3.83222 7.67477H7.89777C8.61538 7.67477 9.20201 7.09087 9.20201 6.37326V1.91753C9.20201 1.19992 8.61538 0.613281 7.89777 0.613281H1.74488C1.02727 0.613281 0.443359 1.19992 0.443359 1.91753V6.37053C0.443359 7.09086 1.02727 7.67477 1.74488 7.67477Z" fill="#652178"/>
<path d="M6.74604 1.60659V2.10118H6.06036V5.76562H5.47585V4.03457L4.70024 4.02895C4.73771 4.13761 4.75645 4.25189 4.75645 4.37179C4.75645 4.69777 4.65153 4.96005 4.44171 5.15863C4.23188 5.35722 3.95461 5.45651 3.6099 5.45651C3.36261 5.45651 3.14154 5.4078 2.9467 5.31038C2.75561 5.21296 2.60574 5.07807 2.49708 4.90572C2.39217 4.72961 2.33971 4.52916 2.33971 4.30434H2.8905C2.8905 4.49169 2.95233 4.64718 3.07597 4.77083C3.20337 4.89073 3.36823 4.95068 3.57056 4.95068C3.76914 4.95068 3.92651 4.8926 4.04267 4.77645C4.15882 4.6603 4.2169 4.50667 4.2169 4.31558C4.2169 4.20692 4.19629 4.11138 4.15507 4.02895H4.14383V4.00085C4.02393 3.78727 3.81223 3.68049 3.50874 3.68049H3.2783V3.20276H3.50874C3.71481 3.20276 3.87406 3.14843 3.98646 3.03977C4.10262 2.92737 4.16069 2.79435 4.16069 2.64073C4.16069 2.46463 4.10262 2.32412 3.98646 2.21921C3.87406 2.11055 3.73168 2.05622 3.55932 2.05622C3.37947 2.05622 3.22772 2.10867 3.10407 2.21359C2.98417 2.31475 2.92422 2.45151 2.92422 2.62387H2.37905C2.37905 2.4103 2.42776 2.22295 2.52518 2.06184C2.62635 1.90072 2.76685 1.77708 2.9467 1.6909C3.12655 1.60097 3.33076 1.55601 3.55932 1.55601C3.89654 1.55601 4.16819 1.64781 4.37426 1.83141C4.58409 2.015 4.689 2.25855 4.689 2.56205C4.689 2.77562 4.6328 2.95922 4.52039 3.11284C4.40799 3.26271 4.245 3.36575 4.03143 3.42195V3.43319C4.13634 3.45568 4.23376 3.49314 4.32368 3.5456H5.47585V1.60659H6.74604Z" fill="white"/>
</svg>
