<svg width="8" height="12" viewBox="0 0 8 12" fill="none" xmlns="http://www.w3.org/2000/svg">
<path d="M4.01226 0.765625C1.94161 0.765625 0.256836 2.377 0.256836 4.35689C0.256836 5.29977 0.686597 6.55366 1.53415 8.08382C2.21482 9.31235 3.00229 10.4233 3.41186 10.9761C3.48107 11.0705 3.57156 11.1473 3.676 11.2003C3.78043 11.2532 3.89588 11.2808 4.01297 11.2808C4.13006 11.2808 4.2455 11.2532 4.34993 11.2003C4.45437 11.1473 4.54486 11.0705 4.61407 10.9761C5.02294 10.4233 5.81111 9.31235 6.49178 8.08382C7.33793 6.55413 7.76769 5.30024 7.76769 4.35689C7.76769 2.377 6.08291 0.765625 4.01226 0.765625ZM4.01226 6.02342C3.71516 6.02342 3.42473 5.93531 3.1777 5.77025C2.93067 5.60518 2.73813 5.37056 2.62444 5.09607C2.51074 4.82157 2.48099 4.51952 2.53896 4.22812C2.59692 3.93672 2.73998 3.66905 2.95007 3.45896C3.16015 3.24887 3.42781 3.10579 3.7192 3.04783C4.0106 2.98987 4.31263 3.01961 4.58712 3.13331C4.8616 3.24701 5.09621 3.43956 5.26127 3.6866C5.42633 3.93364 5.51443 4.22408 5.51443 4.52119C5.514 4.91947 5.35559 5.30132 5.07398 5.58295C4.79236 5.86457 4.41053 6.02298 4.01226 6.02342Z" fill="#652178"/>
</svg>
