<svg width="13" height="10" viewBox="0 0 13 10" fill="none" xmlns="http://www.w3.org/2000/svg">
<path d="M10.9585 0.205857C11.5552 0.205857 12.0602 0.710807 12.0602 1.30757V7.91782C12.0602 8.53753 11.5552 9.01953 10.9585 9.01953H1.4103C0.790592 9.01953 0.308594 8.53753 0.308594 7.91782V1.30757C0.308594 0.710807 0.790592 0.205857 1.4103 0.205857H10.9585ZM10.9585 1.30757H1.4103V2.24861C1.91525 2.6847 2.74154 3.32737 4.48591 4.7045C4.8761 5.00288 5.63352 5.73736 6.18438 5.7144C6.71228 5.73736 7.4697 5.00288 7.85989 4.7045C9.60427 3.32737 10.4305 2.6847 10.9585 2.24861V1.30757ZM1.4103 7.91782H10.9585V3.67165C10.4305 4.08479 9.67312 4.68155 8.54846 5.57669C8.02056 5.96688 7.14837 6.83906 6.18438 6.81611C5.19743 6.83906 4.30229 5.96688 3.79734 5.57669C2.67268 4.68155 1.91525 4.08479 1.4103 3.67165V7.91782Z" fill="#334141"/>
</svg>
