<svg width="13" height="13" viewBox="0 0 13 13" fill="none" xmlns="http://www.w3.org/2000/svg">
<path d="M12.1563 1.55291C12.4088 1.62176 12.5924 1.82833 12.5924 2.08081C12.5924 7.97954 7.81831 12.7307 1.94253 12.7307C1.6671 12.7307 1.46053 12.57 1.39167 12.3175L0.84082 9.93049C0.794916 9.67801 0.909677 9.40258 1.16215 9.28782L3.73281 8.18611C3.96233 8.0943 4.21481 8.16316 4.37547 8.34678L5.52308 9.74687C7.31336 8.89763 8.75936 7.42869 9.58564 5.68432L8.18555 4.5367C8.00193 4.37604 7.93307 4.12356 8.02488 3.89404L9.12659 1.32338C9.24135 1.07091 9.51678 0.933194 9.76926 1.00205L12.1563 1.55291Z" fill="#334141"/>
</svg>
