<svg width="48" height="48" viewBox="0 0 48 48" fill="none" xmlns="http://www.w3.org/2000/svg">
<path d="M46.9573 43.7595L36.9217 33.7533C38.3531 31.9847 39.4734 29.999 40.2825 27.7961C41.0915 25.5932 41.4961 23.2662 41.4961 20.815C41.4961 17.9605 40.9515 15.2767 39.8624 12.7635C38.7732 10.2503 37.2873 8.05517 35.4047 6.17804C33.522 4.3009 31.3204 2.81937 28.7999 1.73342C26.2793 0.647476 23.6031 0.104504 20.7714 0.104504C17.9085 0.104504 15.2168 0.647476 12.6962 1.73342C10.1756 2.81937 7.97403 4.3009 6.09138 6.17804C4.20873 8.05517 2.72284 10.2503 1.6337 12.7635C0.544568 15.2767 0 17.9605 0 20.815C0 23.6385 0.544568 26.3068 1.6337 28.82C2.72284 31.3332 4.20873 33.5283 6.09138 35.4055C7.97403 37.2826 10.1756 38.7641 12.6962 39.8501C15.2168 40.936 17.9085 41.479 20.7714 41.479C23.1986 41.479 25.5091 41.0834 27.7029 40.2922C29.8968 39.501 31.865 38.4073 33.6076 37.0111L33.5609 37.0577L43.6432 47.0639C43.861 47.281 44.11 47.4517 44.3901 47.5758C44.6701 47.6999 44.9657 47.762 45.2769 47.762C45.9304 47.762 46.4905 47.5293 46.9573 47.0639C47.4241 46.5985 47.6575 46.0555 47.6575 45.4349C47.6575 45.0936 47.5952 44.7834 47.4707 44.5041C47.3463 44.2249 47.1751 43.9767 46.9573 43.7595ZM4.7144 20.815C4.7144 18.5811 5.1345 16.5023 5.97469 14.5786C6.81488 12.6239 7.95847 10.9252 9.40546 9.48241C10.8525 8.03966 12.5562 6.89941 14.5166 6.06169C16.4459 5.22396 18.5309 4.80509 20.7714 4.80509C22.9808 4.80509 25.0501 5.22396 26.9794 6.06169C28.9399 6.89941 30.6436 8.03966 32.0906 9.48241C33.5376 10.9252 34.6812 12.6239 35.5214 14.5786C36.3927 16.5023 36.8283 18.5811 36.8283 20.815C36.8283 23.0179 36.3927 25.0812 35.5214 27.0049C34.6812 28.9596 33.5376 30.6583 32.0906 32.1011C30.6436 33.5438 28.9399 34.6841 26.9794 35.5218C25.0501 36.3906 22.9808 36.8249 20.7714 36.8249C18.5309 36.8249 16.4459 36.3906 14.5166 35.5218C12.5562 34.6841 10.8525 33.5438 9.40546 32.1011C7.95847 30.6583 6.81488 28.9596 5.97469 27.0049C5.1345 25.0812 4.7144 23.0179 4.7144 20.815Z" fill="#722875"/>
</svg>
