<svg width="14" height="12" viewBox="0 0 14 12" fill="none" xmlns="http://www.w3.org/2000/svg">
<path d="M12.3238 3.58763C12.3238 3.72149 12.3238 3.82857 12.3238 3.96242C12.3238 7.68353 9.51288 11.94 4.34616 11.94C2.73992 11.94 1.26754 11.4849 0.0360975 10.6818C0.250262 10.7086 0.464426 10.7354 0.705362 10.7354C2.01712 10.7354 3.22179 10.2803 4.18553 9.5307C2.95409 9.50393 1.91004 8.70081 1.56202 7.57645C1.74941 7.60322 1.91004 7.62999 2.09743 7.62999C2.33837 7.62999 2.60607 7.57645 2.82024 7.52291C1.53525 7.2552 0.571509 6.13084 0.571509 4.76554V4.73877C0.946297 4.95293 1.4014 5.06001 1.8565 5.08678C1.08015 4.57814 0.598279 3.72149 0.598279 2.75775C0.598279 2.22233 0.732132 1.74046 0.973067 1.33891C2.36514 3.02545 4.45324 4.14981 6.78228 4.28367C6.72874 4.0695 6.70197 3.85534 6.70197 3.64117C6.70197 2.08848 7.96018 0.830265 9.51288 0.830265C10.316 0.830265 11.0388 1.15151 11.5742 1.71369C12.1899 1.57984 12.8057 1.33891 13.3411 1.01766C13.1269 1.68692 12.6986 2.22233 12.1096 2.57035C12.6718 2.51681 13.234 2.35619 13.7159 2.14202C13.3411 2.7042 12.8592 3.18607 12.3238 3.58763Z" fill="#071C1F"/>
</svg>
