<svg width="716" height="37" viewBox="0 0 716 37" fill="none" xmlns="http://www.w3.org/2000/svg">
<line x1="0.955078" y1="18.6092" x2="667.332" y2="18.6092" stroke="#FAA61A" stroke-width="0.750425"/>
<path d="M673.909 18.6076L662.043 1.34787H679.143L691.009 18.6076H673.909Z" stroke="#FAA61A" stroke-width="0.750425"/>
<path d="M673.909 19.3611L662.043 36.6209H679.143L691.009 19.3611H673.909Z" fill="#FAA61A" stroke="#FAA61A" stroke-width="0.750425"/>
<mask id="path-4-inside-1_1254_1997" fill="white">
<path fill-rule="evenodd" clip-rule="evenodd" d="M703.354 0.972656H685.344L697.726 18.9829L685.344 36.993H703.354L715.736 18.9829L703.354 0.972656Z"/>
</mask>
<path d="M685.344 0.972656V0.222231H683.917L684.725 1.39779L685.344 0.972656ZM703.354 0.972656L703.972 0.547519L703.749 0.222231H703.354V0.972656ZM697.726 18.9829L698.344 19.408L698.636 18.9829L698.344 18.5577L697.726 18.9829ZM685.344 36.993L684.725 36.5679L683.917 37.7435H685.344V36.993ZM703.354 36.993V37.7435H703.749L703.972 37.4182L703.354 36.993ZM715.736 18.9829L716.354 19.408L716.647 18.9829L716.354 18.5577L715.736 18.9829ZM685.344 1.72308H703.354V0.222231H685.344V1.72308ZM698.344 18.5577L685.962 0.547519L684.725 1.39779L697.107 19.408L698.344 18.5577ZM697.107 18.5577L684.725 36.5679L685.962 37.4182L698.344 19.408L697.107 18.5577ZM685.344 37.7435H703.354V36.2426H685.344V37.7435ZM703.972 37.4182L716.354 19.408L715.118 18.5577L702.736 36.5679L703.972 37.4182ZM702.736 1.39779L715.118 19.408L716.354 18.5577L703.972 0.547519L702.736 1.39779Z" fill="#FAA61A" mask="url(#path-4-inside-1_1254_1997)"/>
</svg>
