<svg width="1256" height="372" viewBox="0 0 1256 372" fill="none" xmlns="http://www.w3.org/2000/svg">
<g clip-path="url(#clip0_1254_2056)">
<g clip-path="url(#clip1_1254_2056)">
<path opacity="0.4" d="M201.876 12.3674L99.326 19.9004C97.6249 19.993 95.9803 20.5431 94.5657 21.4925C93.1512 22.4419 92.019 23.7554 91.2888 25.2946C90.5585 26.8337 90.2571 28.5414 90.4165 30.2375C90.5759 31.9337 91.1901 33.5553 92.1943 34.9315L156.623 123.072C157.63 124.45 158.991 125.53 160.562 126.198C162.133 126.865 163.855 127.096 165.546 126.864C167.238 126.632 168.835 125.948 170.168 124.882C171.502 123.817 172.522 122.41 173.121 120.812L211.283 25.1338C211.836 23.659 212.012 22.0696 211.795 20.5096C211.578 18.9496 210.975 17.4684 210.041 16.2004C209.107 14.9324 207.871 13.9177 206.445 13.2484C205.019 12.5791 203.449 12.2763 201.876 12.3674Z" fill="url(#paint0_linear_1254_2056)"/>
<path d="M218.284 40.0322L122.919 1.56476C121.352 0.897533 119.634 0.665727 117.946 0.893808C116.258 1.12189 114.663 1.80139 113.329 2.86061C111.995 3.91983 110.972 5.31947 110.368 6.91183C109.763 8.50418 109.6 10.2302 109.895 11.9077L128.822 119.42C129.114 121.104 129.857 122.676 130.971 123.972C132.085 125.267 133.529 126.237 135.149 126.777C136.77 127.318 138.507 127.41 140.176 127.043C141.844 126.676 143.382 125.864 144.627 124.693L221.064 55.6234C222.208 54.5456 223.066 53.1998 223.559 51.7074C224.053 50.2151 224.167 48.6232 223.891 47.0758C223.615 45.5284 222.958 44.074 221.979 42.8443C221 41.6145 219.73 40.648 218.284 40.0322Z" fill="url(#paint1_linear_1254_2056)"/>
<path d="M151.633 69.4649C155.635 69.4677 159.548 68.279 162.873 66.0503L174.485 77.6668C174.937 78.1055 175.543 78.3509 176.173 78.3509C176.803 78.3509 177.408 78.1055 177.86 77.6668L180.115 75.4119C180.554 74.9597 180.799 74.3545 180.799 73.7244C180.799 73.0944 180.554 72.4892 180.115 72.037L168.459 60.4601C170.955 56.7117 172.128 52.2367 171.79 47.7457C171.453 43.2547 169.625 39.0052 166.596 35.6721C163.567 32.3389 159.511 30.1131 155.073 29.3483C150.635 28.5834 146.068 29.3232 142.098 31.4503C138.128 33.5774 134.983 36.9697 133.162 41.0887C131.34 45.2076 130.947 49.8169 132.045 54.1848C133.143 58.5526 135.668 62.4284 139.221 65.1968C142.773 67.9652 147.149 69.4674 151.653 69.4649H151.633ZM151.633 36.9494C154.065 36.9484 156.443 37.6688 158.466 39.0195C160.489 40.3702 162.066 42.2904 162.997 44.5373C163.928 46.7843 164.172 49.2569 163.698 51.6424C163.223 54.028 162.052 56.2193 160.332 57.9392C158.612 59.659 156.421 60.8302 154.035 61.3044C151.65 61.7787 149.177 61.5348 146.93 60.6036C144.683 59.6723 142.763 58.0956 141.412 56.0729C140.061 54.0501 139.341 51.6722 139.342 49.24C139.344 45.9811 140.64 42.8565 142.945 40.5521C145.249 38.2478 148.374 36.952 151.633 36.9494Z" fill="white"/>
</g>
<path opacity="0.04" d="M52.2134 209.198C52.7116 208.899 53.4589 208.749 54.4553 208.749H72.5399C73.0381 208.749 73.4366 208.949 73.7356 209.347C74.1341 209.646 74.3334 210.045 74.3334 210.543V311.578C74.3334 312.076 74.1341 312.524 73.7356 312.923C73.4366 313.222 73.0381 313.371 72.5399 313.371H55.0531C54.5549 313.371 54.1065 313.222 53.708 312.923C53.4091 312.524 53.2596 312.076 53.2596 311.578V229.674C53.2596 229.474 53.16 229.275 52.9607 229.076C52.7614 228.877 52.5621 228.827 52.3628 228.926L37.5663 232.962L36.9685 233.111C36.0717 233.111 35.6234 232.563 35.6234 231.467L35.175 218.614C35.175 217.617 35.6234 216.92 36.5201 216.521L52.2134 209.198Z" fill="#222222"/>
<path d="M87.9342 298.055C87.0237 298.055 86.2042 297.898 85.4758 297.586C84.7474 297.261 84.1751 296.806 83.7589 296.221C83.3426 295.635 83.1345 294.952 83.1345 294.172H85.5148C85.5669 294.757 85.7945 295.238 86.1977 295.616C86.614 295.993 87.1928 296.181 87.9342 296.181C88.7017 296.181 89.3 295.999 89.7292 295.635C90.1585 295.258 90.3731 294.777 90.3731 294.191C90.3731 293.736 90.2365 293.365 89.9634 293.079C89.7032 292.793 89.3715 292.572 88.9683 292.416C88.5781 292.26 88.0318 292.091 87.3294 291.909C86.4449 291.674 85.723 291.44 85.1637 291.206C84.6173 290.959 84.1491 290.582 83.7589 290.075C83.3686 289.567 83.1735 288.891 83.1735 288.045C83.1735 287.265 83.3686 286.582 83.7589 285.997C84.1491 285.411 84.6954 284.963 85.3978 284.65C86.1002 284.338 86.9131 284.182 87.8367 284.182C89.1504 284.182 90.2235 284.514 91.056 285.177C91.9015 285.828 92.3697 286.725 92.4608 287.87H90.0024C89.9634 287.375 89.7292 286.953 89.3 286.602C88.8708 286.25 88.3049 286.075 87.6025 286.075C86.9652 286.075 86.4449 286.237 86.0416 286.563C85.6384 286.888 85.4368 287.356 85.4368 287.967C85.4368 288.384 85.5604 288.728 85.8075 289.001C86.0677 289.262 86.3928 289.47 86.7831 289.626C87.1733 289.782 87.7066 289.951 88.383 290.133C89.2805 290.38 90.0089 290.627 90.5682 290.874C91.1405 291.122 91.6218 291.505 92.012 292.026C92.4153 292.533 92.6169 293.216 92.6169 294.074C92.6169 294.764 92.4283 295.414 92.0511 296.025C91.6868 296.637 91.147 297.131 90.4316 297.508C89.7292 297.872 88.8968 298.055 87.9342 298.055ZM105.094 292.279C105.094 292.683 105.068 293.047 105.016 293.372H96.8023C96.8673 294.23 97.186 294.92 97.7583 295.44C98.3307 295.96 99.0331 296.221 99.8655 296.221C101.062 296.221 101.908 295.72 102.402 294.718H104.802C104.477 295.707 103.885 296.52 103.026 297.157C102.181 297.781 101.127 298.094 99.8655 298.094C98.8379 298.094 97.9144 297.866 97.095 297.411C96.2885 296.942 95.6511 296.292 95.1829 295.46C94.7276 294.614 94.5 293.639 94.5 292.533C94.5 291.427 94.7211 290.458 95.1634 289.626C95.6186 288.78 96.2495 288.13 97.0559 287.675C97.8754 287.219 98.8119 286.992 99.8655 286.992C100.88 286.992 101.784 287.213 102.578 287.655C103.371 288.097 103.989 288.722 104.431 289.528C104.873 290.322 105.094 291.239 105.094 292.279ZM102.773 291.577C102.76 290.757 102.467 290.101 101.895 289.606C101.322 289.112 100.613 288.865 99.768 288.865C99.0005 288.865 98.3437 289.112 97.7974 289.606C97.251 290.088 96.9259 290.744 96.8218 291.577H102.773ZM106.542 292.494C106.542 291.414 106.763 290.458 107.205 289.626C107.661 288.793 108.272 288.149 109.039 287.694C109.82 287.226 110.678 286.992 111.615 286.992C112.46 286.992 113.195 287.161 113.82 287.499C114.457 287.824 114.964 288.234 115.341 288.728V287.167H117.585V297.918H115.341V296.318C114.964 296.825 114.45 297.248 113.8 297.586C113.15 297.924 112.408 298.094 111.576 298.094C110.652 298.094 109.807 297.859 109.039 297.391C108.272 296.91 107.661 296.247 107.205 295.401C106.763 294.543 106.542 293.574 106.542 292.494ZM115.341 292.533C115.341 291.791 115.185 291.148 114.873 290.601C114.574 290.055 114.177 289.639 113.683 289.353C113.189 289.066 112.655 288.923 112.083 288.923C111.511 288.923 110.977 289.066 110.483 289.353C109.989 289.626 109.586 290.036 109.274 290.582C108.974 291.115 108.825 291.752 108.825 292.494C108.825 293.235 108.974 293.886 109.274 294.445C109.586 295.004 109.989 295.434 110.483 295.733C110.99 296.019 111.524 296.162 112.083 296.162C112.655 296.162 113.189 296.019 113.683 295.733C114.177 295.447 114.574 295.03 114.873 294.484C115.185 293.925 115.341 293.274 115.341 292.533ZM122.731 288.728C123.056 288.182 123.485 287.759 124.019 287.46C124.565 287.148 125.209 286.992 125.95 286.992V289.294H125.384C124.513 289.294 123.85 289.515 123.394 289.957C122.952 290.4 122.731 291.167 122.731 292.26V297.918H120.507V287.167H122.731V288.728ZM127.253 292.533C127.253 291.427 127.475 290.458 127.917 289.626C128.372 288.78 128.996 288.13 129.79 287.675C130.583 287.219 131.494 286.992 132.521 286.992C133.822 286.992 134.895 287.304 135.741 287.928C136.599 288.54 137.178 289.418 137.477 290.562H135.077C134.882 290.029 134.57 289.613 134.141 289.314C133.712 289.014 133.172 288.865 132.521 288.865C131.611 288.865 130.882 289.19 130.336 289.84C129.803 290.478 129.536 291.375 129.536 292.533C129.536 293.691 129.803 294.595 130.336 295.245C130.882 295.895 131.611 296.221 132.521 296.221C133.809 296.221 134.661 295.655 135.077 294.523H137.477C137.165 295.616 136.58 296.487 135.721 297.138C134.863 297.775 133.796 298.094 132.521 298.094C131.494 298.094 130.583 297.866 129.79 297.411C128.996 296.942 128.372 296.292 127.917 295.46C127.475 294.614 127.253 293.639 127.253 292.533ZM145.254 286.992C146.074 286.992 146.802 287.167 147.44 287.519C148.09 287.87 148.597 288.39 148.962 289.079C149.339 289.769 149.527 290.601 149.527 291.577V297.918H147.323V291.909C147.323 290.946 147.082 290.211 146.601 289.704C146.119 289.184 145.463 288.923 144.63 288.923C143.798 288.923 143.134 289.184 142.64 289.704C142.159 290.211 141.918 290.946 141.918 291.909V297.918H139.694V283.48H141.918V288.416C142.295 287.961 142.77 287.61 143.342 287.362C143.928 287.115 144.565 286.992 145.254 286.992ZM167.481 284.358L162.994 293.001V297.918H160.769V293.001L156.262 284.358H158.74L161.881 291.011L165.023 284.358H167.481ZM173.909 298.094C172.895 298.094 171.978 297.866 171.158 297.411C170.339 296.942 169.695 296.292 169.227 295.46C168.758 294.614 168.524 293.639 168.524 292.533C168.524 291.44 168.765 290.471 169.246 289.626C169.727 288.78 170.384 288.13 171.217 287.675C172.049 287.219 172.979 286.992 174.007 286.992C175.034 286.992 175.965 287.219 176.797 287.675C177.629 288.13 178.286 288.78 178.768 289.626C179.249 290.471 179.49 291.44 179.49 292.533C179.49 293.626 179.242 294.595 178.748 295.44C178.254 296.286 177.577 296.942 176.719 297.411C175.873 297.866 174.937 298.094 173.909 298.094ZM173.909 296.162C174.482 296.162 175.015 296.025 175.509 295.752C176.017 295.479 176.426 295.069 176.738 294.523C177.051 293.977 177.207 293.313 177.207 292.533C177.207 291.752 177.057 291.096 176.758 290.562C176.459 290.016 176.062 289.606 175.568 289.333C175.074 289.06 174.54 288.923 173.968 288.923C173.396 288.923 172.862 289.06 172.368 289.333C171.887 289.606 171.503 290.016 171.217 290.562C170.931 291.096 170.788 291.752 170.788 292.533C170.788 293.691 171.08 294.588 171.666 295.225C172.264 295.85 173.012 296.162 173.909 296.162ZM191.424 287.167V297.918H189.2V296.65C188.849 297.092 188.387 297.443 187.815 297.703C187.255 297.95 186.657 298.074 186.02 298.074C185.174 298.074 184.413 297.898 183.737 297.547C183.074 297.196 182.547 296.676 182.157 295.986C181.779 295.297 181.591 294.465 181.591 293.489V287.167H183.796V293.157C183.796 294.12 184.036 294.861 184.517 295.382C184.999 295.889 185.656 296.142 186.488 296.142C187.321 296.142 187.977 295.889 188.459 295.382C188.953 294.861 189.2 294.12 189.2 293.157V287.167H191.424ZM196.583 288.728C196.909 288.182 197.338 287.759 197.871 287.46C198.417 287.148 199.061 286.992 199.803 286.992V289.294H199.237C198.365 289.294 197.702 289.515 197.247 289.957C196.804 290.4 196.583 291.167 196.583 292.26V297.918H194.359V287.167H196.583V288.728ZM91.5114 313.153V317.133H96.194V318.948H91.5114V323.103H96.7794V324.918H89.2871V311.338H96.7794V313.153H91.5114ZM98.7776 319.494C98.7776 318.414 98.9987 317.458 99.4409 316.626C99.8962 315.793 100.508 315.149 101.275 314.694C102.055 314.226 102.92 313.992 103.87 313.992C104.702 313.992 105.437 314.161 106.075 314.499C106.725 314.837 107.226 315.247 107.577 315.728V314.167H109.821V330.03H107.577V323.357C107.226 323.838 106.719 324.248 106.055 324.586C105.392 324.924 104.637 325.094 103.792 325.094C102.868 325.094 102.023 324.859 101.255 324.391C100.501 323.91 99.8962 323.247 99.4409 322.401C98.9987 321.543 98.7776 320.574 98.7776 319.494ZM107.577 319.533C107.577 318.791 107.421 318.148 107.109 317.601C106.81 317.055 106.413 316.639 105.919 316.353C105.424 316.066 104.891 315.923 104.319 315.923C103.746 315.923 103.213 316.066 102.719 316.353C102.225 316.626 101.821 317.036 101.509 317.582C101.21 318.115 101.06 318.752 101.06 319.494C101.06 320.235 101.21 320.886 101.509 321.445C101.821 322.004 102.225 322.434 102.719 322.733C103.226 323.019 103.759 323.162 104.319 323.162C104.891 323.162 105.424 323.019 105.919 322.733C106.413 322.447 106.81 322.03 107.109 321.484C107.421 320.925 107.577 320.274 107.577 319.533ZM122.478 314.167V324.918H120.254V323.65C119.903 324.092 119.441 324.443 118.869 324.703C118.309 324.95 117.711 325.074 117.074 325.074C116.228 325.074 115.467 324.898 114.791 324.547C114.128 324.196 113.601 323.676 113.211 322.986C112.833 322.297 112.645 321.465 112.645 320.489V314.167H114.849V320.157C114.849 321.12 115.09 321.861 115.571 322.382C116.053 322.889 116.71 323.142 117.542 323.142C118.374 323.142 119.031 322.889 119.513 322.382C120.007 321.861 120.254 321.12 120.254 320.157V314.167H122.478ZM126.545 312.743C126.141 312.743 125.803 312.606 125.53 312.333C125.257 312.06 125.12 311.722 125.12 311.319C125.12 310.916 125.257 310.577 125.53 310.304C125.803 310.031 126.141 309.894 126.545 309.894C126.935 309.894 127.267 310.031 127.54 310.304C127.813 310.577 127.949 310.916 127.949 311.319C127.949 311.722 127.813 312.06 127.54 312.333C127.267 312.606 126.935 312.743 126.545 312.743ZM127.637 314.167V324.918H125.413V314.167H127.637ZM132.782 315.748C133.159 315.253 133.673 314.837 134.323 314.499C134.974 314.161 135.708 313.992 136.528 313.992C137.464 313.992 138.316 314.226 139.084 314.694C139.864 315.149 140.476 315.793 140.918 316.626C141.36 317.458 141.581 318.414 141.581 319.494C141.581 320.574 141.36 321.543 140.918 322.401C140.476 323.247 139.864 323.91 139.084 324.391C138.316 324.859 137.464 325.094 136.528 325.094C135.708 325.094 134.98 324.931 134.343 324.606C133.705 324.268 133.185 323.851 132.782 323.357V330.03H130.558V314.167H132.782V315.748ZM139.318 319.494C139.318 318.752 139.162 318.115 138.85 317.582C138.551 317.036 138.147 316.626 137.64 316.353C137.146 316.066 136.612 315.923 136.04 315.923C135.481 315.923 134.948 316.066 134.44 316.353C133.946 316.639 133.543 317.055 133.231 317.601C132.931 318.148 132.782 318.791 132.782 319.533C132.782 320.274 132.931 320.925 133.231 321.484C133.543 322.03 133.946 322.447 134.44 322.733C134.948 323.019 135.481 323.162 136.04 323.162C136.612 323.162 137.146 323.019 137.64 322.733C138.147 322.434 138.551 322.004 138.85 321.445C139.162 320.886 139.318 320.235 139.318 319.494ZM156.795 313.992C157.64 313.992 158.395 314.167 159.058 314.519C159.734 314.87 160.261 315.39 160.638 316.079C161.029 316.769 161.224 317.601 161.224 318.577V324.918H159.019V318.909C159.019 317.946 158.778 317.211 158.297 316.704C157.816 316.184 157.159 315.923 156.326 315.923C155.494 315.923 154.831 316.184 154.336 316.704C153.855 317.211 153.614 317.946 153.614 318.909V324.918H151.41V318.909C151.41 317.946 151.169 317.211 150.688 316.704C150.206 316.184 149.55 315.923 148.717 315.923C147.885 315.923 147.221 316.184 146.727 316.704C146.246 317.211 146.005 317.946 146.005 318.909V324.918H143.781V314.167H146.005V315.397C146.369 314.954 146.831 314.61 147.39 314.362C147.95 314.115 148.548 313.992 149.185 313.992C150.044 313.992 150.811 314.174 151.488 314.538C152.164 314.902 152.684 315.429 153.049 316.118C153.374 315.468 153.881 314.954 154.57 314.577C155.26 314.187 156.001 313.992 156.795 313.992ZM173.907 319.279C173.907 319.683 173.881 320.047 173.829 320.372H165.615C165.68 321.23 165.999 321.92 166.571 322.44C167.143 322.96 167.846 323.221 168.678 323.221C169.875 323.221 170.72 322.72 171.215 321.718H173.614C173.289 322.707 172.697 323.52 171.839 324.157C170.993 324.781 169.94 325.094 168.678 325.094C167.651 325.094 166.727 324.866 165.908 324.411C165.101 323.942 164.464 323.292 163.996 322.46C163.54 321.614 163.313 320.639 163.313 319.533C163.313 318.427 163.534 317.458 163.976 316.626C164.431 315.78 165.062 315.13 165.869 314.675C166.688 314.219 167.625 313.992 168.678 313.992C169.693 313.992 170.597 314.213 171.39 314.655C172.184 315.097 172.802 315.722 173.244 316.528C173.686 317.322 173.907 318.239 173.907 319.279ZM171.585 318.577C171.572 317.757 171.28 317.101 170.707 316.606C170.135 316.112 169.426 315.865 168.581 315.865C167.813 315.865 167.156 316.112 166.61 316.606C166.064 317.088 165.739 317.744 165.634 318.577H171.585ZM181.52 313.992C182.366 313.992 183.12 314.167 183.783 314.519C184.46 314.87 184.987 315.39 185.364 316.079C185.741 316.769 185.93 317.601 185.93 318.577V324.918H183.725V318.909C183.725 317.946 183.484 317.211 183.003 316.704C182.522 316.184 181.865 315.923 181.032 315.923C180.2 315.923 179.536 316.184 179.042 316.704C178.561 317.211 178.32 317.946 178.32 318.909V324.918H176.096V314.167H178.32V315.397C178.685 314.954 179.146 314.61 179.706 314.362C180.278 314.115 180.883 313.992 181.52 313.992ZM191.362 315.982V321.933C191.362 322.336 191.453 322.629 191.635 322.811C191.83 322.98 192.155 323.064 192.61 323.064H193.976V324.918H192.22C191.219 324.918 190.451 324.684 189.918 324.216C189.385 323.747 189.118 322.986 189.118 321.933V315.982H187.85V314.167H189.118V311.494H191.362V314.167H193.976V315.982H191.362Z" fill="#222222"/>
<path d="M70.1872 190.645C70.1872 192.855 71.9791 194.647 74.1895 194.647C76.3998 194.647 78.1917 192.855 78.1917 190.645C78.1917 188.434 76.3998 186.642 74.1895 186.642C71.9791 186.642 70.1872 188.434 70.1872 190.645ZM1176.31 190.644C1176.31 192.855 1178.11 194.647 1180.32 194.647C1182.53 194.647 1184.32 192.855 1184.32 190.644C1184.32 188.434 1182.53 186.642 1180.32 186.642C1178.11 186.642 1176.31 188.434 1176.31 190.644ZM74.1895 191.395L79.0409 191.395L79.0409 189.894L74.1895 189.894L74.1895 191.395ZM88.7437 191.395L98.4466 191.395L98.4466 189.894L88.7437 189.894L88.7437 191.395ZM108.149 191.395L117.852 191.395L117.852 189.894L108.149 189.894L108.149 191.395ZM127.555 191.395L137.258 191.395L137.258 189.894L127.555 189.894L127.555 191.395ZM146.961 191.395L156.664 191.395L156.664 189.894L146.961 189.894L146.961 191.395ZM166.367 191.395L176.07 191.395L176.07 189.894L166.367 189.894L166.367 191.395ZM185.772 191.395L195.475 191.395L195.475 189.894L185.772 189.894L185.772 191.395ZM205.178 191.395L214.881 191.395L214.881 189.894L205.178 189.894L205.178 191.395ZM224.584 191.395L234.287 191.395L234.287 189.894L224.584 189.894L224.584 191.395ZM243.99 191.395L253.692 191.395L253.692 189.894L243.99 189.894L243.99 191.395ZM263.395 191.395L273.098 191.395L273.098 189.894L263.395 189.894L263.395 191.395ZM282.801 191.395L292.504 191.395L292.504 189.894L282.801 189.894L282.801 191.395ZM302.207 191.395L311.91 191.395L311.91 189.894L302.207 189.894L302.207 191.395ZM321.612 191.395L331.315 191.395L331.315 189.894L321.612 189.894L321.612 191.395ZM341.018 191.395L350.721 191.395L350.721 189.894L341.018 189.894L341.018 191.395ZM360.424 191.395L370.127 191.395L370.127 189.894L360.424 189.894L360.424 191.395ZM379.83 191.395L389.532 191.395L389.532 189.894L379.83 189.894L379.83 191.395ZM399.235 191.395L408.938 191.395L408.938 189.894L399.235 189.894L399.235 191.395ZM418.641 191.395L428.344 191.395L428.344 189.894L418.641 189.894L418.641 191.395ZM438.047 191.395L447.75 191.395L447.75 189.894L438.047 189.894L438.047 191.395ZM457.452 191.395L467.155 191.395L467.155 189.894L457.452 189.894L457.452 191.395ZM476.858 191.395L486.561 191.395L486.561 189.894L476.858 189.894L476.858 191.395ZM496.264 191.395L505.967 191.395L505.967 189.894L496.264 189.894L496.264 191.395ZM515.67 191.395L525.372 191.395L525.372 189.894L515.67 189.894L515.67 191.395ZM535.075 191.395L544.778 191.395L544.778 189.894L535.075 189.894L535.075 191.395ZM554.481 191.395L564.184 191.395L564.184 189.894L554.481 189.894L554.481 191.395ZM573.887 191.395L583.589 191.395L583.589 189.894L573.887 189.894L573.887 191.395ZM593.292 191.395L602.995 191.395L602.995 189.894L593.292 189.894L593.292 191.395ZM612.698 191.395L622.401 191.395L622.401 189.894L612.698 189.894L612.698 191.395ZM632.104 191.395L641.807 191.395L641.807 189.894L632.104 189.894L632.104 191.395ZM651.51 191.395L661.213 191.395L661.213 189.894L651.51 189.894L651.51 191.395ZM670.915 191.395L680.618 191.395L680.618 189.894L670.915 189.894L670.915 191.395ZM690.321 191.395L700.024 191.395L700.024 189.894L690.321 189.894L690.321 191.395ZM709.727 191.395L719.43 191.395L719.43 189.894L709.727 189.894L709.727 191.395ZM729.133 191.395L738.836 191.395L738.836 189.894L729.133 189.894L729.133 191.395ZM748.538 191.395L758.241 191.395L758.241 189.894L748.538 189.894L748.538 191.395ZM767.944 191.395L777.647 191.395L777.647 189.894L767.944 189.894L767.944 191.395ZM787.35 191.395L797.053 191.395L797.053 189.894L787.35 189.894L787.35 191.395ZM806.756 191.395L816.459 191.395L816.459 189.894L806.756 189.894L806.756 191.395ZM826.161 191.395L835.864 191.395L835.864 189.894L826.161 189.894L826.161 191.395ZM845.567 191.395L855.27 191.395L855.27 189.894L845.567 189.894L845.567 191.395ZM864.973 191.395L874.676 191.395L874.676 189.894L864.973 189.894L864.973 191.395ZM884.379 191.395L894.082 191.395L894.082 189.894L884.379 189.894L884.379 191.395ZM903.784 191.395L913.487 191.395L913.487 189.894L903.784 189.894L903.784 191.395ZM923.19 191.395L932.893 191.395L932.893 189.894L923.19 189.894L923.19 191.395ZM942.596 191.395L952.299 191.395L952.299 189.894L942.596 189.894L942.596 191.395ZM962.002 191.395L971.705 191.395L971.705 189.894L962.002 189.894L962.002 191.395ZM981.408 191.395L991.11 191.395L991.11 189.894L981.408 189.894L981.408 191.395ZM1000.81 191.395L1010.52 191.395L1010.52 189.894L1000.81 189.894L1000.81 191.395ZM1020.22 191.395L1029.92 191.395L1029.92 189.894L1020.22 189.894L1020.22 191.395ZM1039.62 191.395L1049.33 191.395L1049.33 189.894L1039.62 189.894L1039.62 191.395ZM1059.03 191.395L1068.73 191.395L1068.73 189.894L1059.03 189.894L1059.03 191.395ZM1078.44 191.395L1088.14 191.395L1088.14 189.894L1078.44 189.894L1078.44 191.395ZM1097.84 191.395L1107.55 191.395L1107.55 189.894L1097.84 189.894L1097.84 191.395ZM1117.25 191.395L1126.95 191.395L1126.95 189.894L1117.25 189.894L1117.25 191.395ZM1136.65 191.395L1146.36 191.395L1146.36 189.894L1136.65 189.894L1136.65 191.395ZM1156.06 191.395L1165.76 191.395L1165.76 189.894L1156.06 189.894L1156.06 191.395ZM1175.47 191.395L1180.32 191.395L1180.32 189.894L1175.47 189.894L1175.47 191.395Z" fill="#FAA61A"/>
<circle cx="153.734" cy="190.644" r="6.75382" fill="#EE2E5D"/>
<g clip-path="url(#clip2_1254_2056)">
<path opacity="0.4" d="M515.5 12.0728L413.136 21.6249C411.438 21.7516 409.805 22.3341 408.41 23.3112C407.016 24.2882 405.911 25.6236 405.211 27.1764C404.512 28.7291 404.245 30.4418 404.438 32.1339C404.631 33.8259 405.276 35.4345 406.307 36.7901L472.431 123.64C473.465 124.998 474.847 126.051 476.43 126.687C478.013 127.323 479.739 127.519 481.424 127.254C483.11 126.989 484.692 126.273 486.004 125.182C487.316 124.09 488.308 122.665 488.875 121.055L525.12 24.6481C525.642 23.1659 525.787 21.5769 525.541 20.0247C525.295 18.4726 524.666 17.0062 523.711 15.7581C522.756 14.51 521.506 13.5194 520.072 12.876C518.638 12.2326 517.067 11.9565 515.5 12.0728Z" fill="url(#paint2_linear_1254_2056)"/>
<path d="M532.31 40.034L436.966 1.56953C435.399 0.901915 433.681 0.669715 431.994 0.897443C430.306 1.12517 428.711 1.80438 427.378 2.86336C426.044 3.92234 425.021 5.3218 424.417 6.91401C423.812 8.50622 423.649 10.2321 423.944 11.9094L442.864 119.42C443.161 121.1 443.907 122.669 445.023 123.961C446.138 125.252 447.583 126.217 449.202 126.755C450.822 127.292 452.557 127.381 454.223 127.013C455.889 126.645 457.425 125.833 458.667 124.664L535.086 55.6226C536.229 54.5447 537.086 53.1992 537.579 51.7074C538.072 50.2156 538.186 48.6246 537.91 47.0778C537.635 45.531 536.978 44.0772 536.001 42.8475C535.023 41.6177 533.754 40.6508 532.31 40.034Z" fill="url(#paint3_linear_1254_2056)"/>
<path d="M465.283 36.01H452.3C451.619 36.0093 450.944 36.1431 450.314 36.4037C449.684 36.6643 449.112 37.0465 448.63 37.5285C448.148 38.0106 447.766 38.5829 447.505 39.2128C447.244 39.8428 447.111 40.5179 447.111 41.1996V77.5517C447.111 78.2334 447.244 78.9086 447.505 79.5385C447.766 80.1684 448.148 80.7408 448.63 81.2228C449.112 81.7049 449.684 82.0871 450.314 82.3477C450.944 82.6082 451.619 82.742 452.3 82.7414H465.283V87.936H470.472V30.8203H465.283V36.01ZM465.283 74.952H452.3L465.283 59.3732V74.952ZM488.644 36.01H475.666V41.1996H488.644V74.952L475.666 59.3732V82.7414H488.644C489.326 82.742 490.001 82.6083 490.631 82.3478C491.261 82.0873 491.834 81.7051 492.316 81.2231C492.799 80.7412 493.181 80.1688 493.442 79.5389C493.704 78.9089 493.838 78.2337 493.838 77.5517V41.1996C493.838 40.5177 493.704 39.8424 493.442 39.2125C493.181 38.5825 492.799 38.0102 492.316 37.5282C491.834 37.0463 491.261 36.6641 490.631 36.4036C490.001 36.1431 489.326 36.0093 488.644 36.01Z" fill="white"/>
</g>
<path opacity="0.04" d="M347.672 294.39C347.473 294.589 347.423 294.788 347.523 294.988C347.622 295.187 347.822 295.286 348.121 295.286H388.624C389.122 295.286 389.521 295.486 389.82 295.884C390.218 296.183 390.418 296.582 390.418 297.08V311.578C390.418 312.076 390.218 312.524 389.82 312.923C389.521 313.222 389.122 313.371 388.624 313.371H321.367C320.869 313.371 320.421 313.222 320.022 312.923C319.723 312.524 319.574 312.076 319.574 311.578V297.827C319.574 296.931 319.873 296.183 320.471 295.585C325.353 290.803 330.335 285.621 335.417 280.042C340.498 274.362 343.687 270.825 344.982 269.43C347.772 266.142 350.612 263.003 353.501 260.014C362.568 249.95 367.102 242.477 367.102 237.595C367.102 234.108 365.857 231.268 363.366 229.076C360.875 226.784 357.636 225.638 353.651 225.638C349.665 225.638 346.427 226.784 343.936 229.076C341.445 231.268 340.199 234.207 340.199 237.894V241.631C340.199 242.129 340 242.577 339.601 242.976C339.303 243.275 338.904 243.424 338.406 243.424H320.77C320.271 243.424 319.823 243.275 319.424 242.976C319.125 242.577 318.976 242.129 318.976 241.631V234.606C319.275 229.225 320.969 224.492 324.058 220.407C327.146 216.222 331.232 213.034 336.313 210.842C341.495 208.65 347.274 207.554 353.651 207.554C360.725 207.554 366.853 208.899 372.034 211.589C377.315 214.18 381.35 217.717 384.14 222.201C387.03 226.685 388.475 231.667 388.475 237.147C388.475 241.332 387.429 245.616 385.336 250C383.244 254.384 380.105 259.117 375.92 264.199C372.831 268.085 369.493 271.921 365.906 275.707C362.319 279.494 356.989 284.974 349.914 292.148L347.672 294.39Z" fill="#222222"/>
<path d="M397.212 291.109C397.212 289.782 397.518 288.592 398.129 287.538C398.754 286.484 399.593 285.665 400.646 285.08C401.713 284.481 402.877 284.182 404.139 284.182C405.583 284.182 406.864 284.54 407.982 285.255C409.114 285.958 409.934 286.959 410.441 288.26H407.768C407.417 287.545 406.929 287.011 406.305 286.66C405.68 286.309 404.958 286.133 404.139 286.133C403.241 286.133 402.441 286.335 401.739 286.738C401.037 287.141 400.484 287.72 400.08 288.475C399.69 289.229 399.495 290.107 399.495 291.109C399.495 292.11 399.69 292.988 400.08 293.743C400.484 294.497 401.037 295.082 401.739 295.499C402.441 295.902 403.241 296.103 404.139 296.103C404.958 296.103 405.68 295.928 406.305 295.577C406.929 295.225 407.417 294.692 407.768 293.977H410.441C409.934 295.277 409.114 296.279 407.982 296.981C406.864 297.684 405.583 298.035 404.139 298.035C402.864 298.035 401.7 297.742 400.646 297.157C399.593 296.559 398.754 295.733 398.129 294.679C397.518 293.626 397.212 292.435 397.212 291.109ZM417.707 298.094C416.693 298.094 415.776 297.866 414.956 297.411C414.137 296.942 413.493 296.292 413.025 295.46C412.557 294.614 412.322 293.639 412.322 292.533C412.322 291.44 412.563 290.471 413.044 289.626C413.526 288.78 414.182 288.13 415.015 287.675C415.847 287.219 416.777 286.992 417.805 286.992C418.833 286.992 419.763 287.219 420.595 287.675C421.428 288.13 422.084 288.78 422.566 289.626C423.047 290.471 423.288 291.44 423.288 292.533C423.288 293.626 423.041 294.595 422.546 295.44C422.052 296.286 421.376 296.942 420.517 297.411C419.672 297.866 418.735 298.094 417.707 298.094ZM417.707 296.162C418.28 296.162 418.813 296.025 419.307 295.752C419.815 295.479 420.224 295.069 420.537 294.523C420.849 293.977 421.005 293.313 421.005 292.533C421.005 291.752 420.855 291.096 420.556 290.562C420.257 290.016 419.86 289.606 419.366 289.333C418.872 289.06 418.338 288.923 417.766 288.923C417.194 288.923 416.66 289.06 416.166 289.333C415.685 289.606 415.301 290.016 415.015 290.562C414.729 291.096 414.586 291.752 414.586 292.533C414.586 293.691 414.878 294.588 415.464 295.225C416.062 295.85 416.81 296.162 417.707 296.162ZM438.5 286.992C439.346 286.992 440.1 287.167 440.764 287.519C441.44 287.87 441.967 288.39 442.344 289.079C442.734 289.769 442.929 290.601 442.929 291.577V297.918H440.725V291.909C440.725 290.946 440.484 290.211 440.003 289.704C439.521 289.184 438.865 288.923 438.032 288.923C437.2 288.923 436.536 289.184 436.042 289.704C435.561 290.211 435.32 290.946 435.32 291.909V297.918H433.115V291.909C433.115 290.946 432.875 290.211 432.393 289.704C431.912 289.184 431.255 288.923 430.423 288.923C429.59 288.923 428.927 289.184 428.433 289.704C427.951 290.211 427.711 290.946 427.711 291.909V297.918H425.486V287.167H427.711V288.397C428.075 287.954 428.537 287.61 429.096 287.362C429.655 287.115 430.254 286.992 430.891 286.992C431.75 286.992 432.517 287.174 433.193 287.538C433.87 287.902 434.39 288.429 434.754 289.118C435.079 288.468 435.587 287.954 436.276 287.577C436.965 287.187 437.707 286.992 438.5 286.992ZM447.984 288.748C448.361 288.253 448.875 287.837 449.525 287.499C450.176 287.161 450.911 286.992 451.73 286.992C452.667 286.992 453.519 287.226 454.286 287.694C455.066 288.149 455.678 288.793 456.12 289.626C456.562 290.458 456.783 291.414 456.783 292.494C456.783 293.574 456.562 294.543 456.12 295.401C455.678 296.247 455.066 296.91 454.286 297.391C453.519 297.859 452.667 298.094 451.73 298.094C450.911 298.094 450.182 297.931 449.545 297.606C448.907 297.268 448.387 296.851 447.984 296.357V303.03H445.76V287.167H447.984V288.748ZM454.52 292.494C454.52 291.752 454.364 291.115 454.052 290.582C453.753 290.036 453.349 289.626 452.842 289.353C452.348 289.066 451.815 288.923 451.242 288.923C450.683 288.923 450.15 289.066 449.642 289.353C449.148 289.639 448.745 290.055 448.433 290.601C448.133 291.148 447.984 291.791 447.984 292.533C447.984 293.274 448.133 293.925 448.433 294.484C448.745 295.03 449.148 295.447 449.642 295.733C450.15 296.019 450.683 296.162 451.242 296.162C451.815 296.162 452.348 296.019 452.842 295.733C453.349 295.434 453.753 295.004 454.052 294.445C454.364 293.886 454.52 293.235 454.52 292.494ZM458.242 292.494C458.242 291.414 458.463 290.458 458.905 289.626C459.36 288.793 459.972 288.149 460.739 287.694C461.519 287.226 462.378 286.992 463.314 286.992C464.16 286.992 464.895 287.161 465.519 287.499C466.157 287.824 466.664 288.234 467.041 288.728V287.167H469.285V297.918H467.041V296.318C466.664 296.825 466.15 297.248 465.5 297.586C464.849 297.924 464.108 298.094 463.275 298.094C462.352 298.094 461.506 297.859 460.739 297.391C459.972 296.91 459.36 296.247 458.905 295.401C458.463 294.543 458.242 293.574 458.242 292.494ZM467.041 292.533C467.041 291.791 466.885 291.148 466.573 290.601C466.274 290.055 465.877 289.639 465.383 289.353C464.888 289.066 464.355 288.923 463.783 288.923C463.21 288.923 462.677 289.066 462.183 289.353C461.688 289.626 461.285 290.036 460.973 290.582C460.674 291.115 460.524 291.752 460.524 292.494C460.524 293.235 460.674 293.886 460.973 294.445C461.285 295.004 461.688 295.434 462.183 295.733C462.69 296.019 463.223 296.162 463.783 296.162C464.355 296.162 464.888 296.019 465.383 295.733C465.877 295.447 466.274 295.03 466.573 294.484C466.885 293.925 467.041 293.274 467.041 292.533ZM474.431 288.728C474.756 288.182 475.185 287.759 475.718 287.46C476.265 287.148 476.908 286.992 477.65 286.992V289.294H477.084C476.213 289.294 475.549 289.515 475.094 289.957C474.652 290.4 474.431 291.167 474.431 292.26V297.918H472.206V287.167H474.431V288.728ZM489.547 292.279C489.547 292.683 489.521 293.047 489.469 293.372H481.255C481.32 294.23 481.639 294.92 482.211 295.44C482.784 295.96 483.486 296.221 484.319 296.221C485.515 296.221 486.361 295.72 486.855 294.718H489.255C488.93 295.707 488.338 296.52 487.479 297.157C486.634 297.781 485.58 298.094 484.319 298.094C483.291 298.094 482.367 297.866 481.548 297.411C480.741 296.942 480.104 296.292 479.636 295.46C479.181 294.614 478.953 293.639 478.953 292.533C478.953 291.427 479.174 290.458 479.616 289.626C480.072 288.78 480.702 288.13 481.509 287.675C482.328 287.219 483.265 286.992 484.319 286.992C485.333 286.992 486.237 287.213 487.031 287.655C487.824 288.097 488.442 288.722 488.884 289.528C489.326 290.322 489.547 291.239 489.547 292.279ZM487.226 291.577C487.213 290.757 486.92 290.101 486.348 289.606C485.775 289.112 485.066 288.865 484.221 288.865C483.454 288.865 482.797 289.112 482.25 289.606C481.704 290.088 481.379 290.744 481.275 291.577H487.226ZM506.853 284.358L502.365 293.001V297.918H500.141V293.001L495.634 284.358H498.112L501.253 291.011L504.394 284.358H506.853ZM513.281 298.094C512.267 298.094 511.35 297.866 510.53 297.411C509.711 296.942 509.067 296.292 508.598 295.46C508.13 294.614 507.896 293.639 507.896 292.533C507.896 291.44 508.137 290.471 508.618 289.626C509.099 288.78 509.756 288.13 510.589 287.675C511.421 287.219 512.351 286.992 513.379 286.992C514.406 286.992 515.336 287.219 516.169 287.675C517.001 288.13 517.658 288.78 518.139 289.626C518.621 290.471 518.861 291.44 518.861 292.533C518.861 293.626 518.614 294.595 518.12 295.44C517.626 296.286 516.949 296.942 516.091 297.411C515.245 297.866 514.309 298.094 513.281 298.094ZM513.281 296.162C513.853 296.162 514.387 296.025 514.881 295.752C515.388 295.479 515.798 295.069 516.11 294.523C516.422 293.977 516.579 293.313 516.579 292.533C516.579 291.752 516.429 291.096 516.13 290.562C515.831 290.016 515.434 289.606 514.94 289.333C514.445 289.06 513.912 288.923 513.34 288.923C512.767 288.923 512.234 289.06 511.74 289.333C511.258 289.606 510.875 290.016 510.589 290.562C510.302 291.096 510.159 291.752 510.159 292.533C510.159 293.691 510.452 294.588 511.037 295.225C511.636 295.85 512.384 296.162 513.281 296.162ZM530.796 287.167V297.918H528.572V296.65C528.221 297.092 527.759 297.443 527.187 297.703C526.627 297.95 526.029 298.074 525.392 298.074C524.546 298.074 523.785 297.898 523.109 297.547C522.445 297.196 521.919 296.676 521.528 295.986C521.151 295.297 520.963 294.465 520.963 293.489V287.167H523.167V293.157C523.167 294.12 523.408 294.861 523.889 295.382C524.37 295.889 525.027 296.142 525.86 296.142C526.692 296.142 527.349 295.889 527.83 295.382C528.325 294.861 528.572 294.12 528.572 293.157V287.167H530.796ZM535.955 288.728C536.28 288.182 536.71 287.759 537.243 287.46C537.789 287.148 538.433 286.992 539.174 286.992V289.294H538.609C537.737 289.294 537.074 289.515 536.618 289.957C536.176 290.4 535.955 291.167 535.955 292.26V297.918H533.731V287.167H535.955V288.728ZM428.945 325.055C428.034 325.055 427.215 324.898 426.486 324.586C425.758 324.261 425.186 323.806 424.769 323.221C424.353 322.635 424.145 321.952 424.145 321.172H426.525C426.577 321.757 426.805 322.238 427.208 322.616C427.624 322.993 428.203 323.181 428.945 323.181C429.712 323.181 430.31 322.999 430.74 322.635C431.169 322.258 431.384 321.777 431.384 321.191C431.384 320.736 431.247 320.365 430.974 320.079C430.714 319.793 430.382 319.572 429.979 319.416C429.588 319.26 429.042 319.091 428.34 318.909C427.455 318.674 426.733 318.44 426.174 318.206C425.628 317.959 425.159 317.582 424.769 317.075C424.379 316.567 424.184 315.891 424.184 315.045C424.184 314.265 424.379 313.582 424.769 312.997C425.159 312.411 425.706 311.963 426.408 311.65C427.111 311.338 427.924 311.182 428.847 311.182C430.161 311.182 431.234 311.514 432.066 312.177C432.912 312.828 433.38 313.725 433.471 314.87H431.013C430.974 314.375 430.74 313.953 430.31 313.602C429.881 313.25 429.315 313.075 428.613 313.075C427.976 313.075 427.455 313.237 427.052 313.563C426.649 313.888 426.447 314.356 426.447 314.967C426.447 315.384 426.571 315.728 426.818 316.001C427.078 316.262 427.403 316.47 427.793 316.626C428.184 316.782 428.717 316.951 429.393 317.133C430.291 317.38 431.019 317.627 431.579 317.874C432.151 318.122 432.632 318.505 433.022 319.026C433.426 319.533 433.627 320.216 433.627 321.074C433.627 321.764 433.439 322.414 433.061 323.025C432.697 323.637 432.157 324.131 431.442 324.508C430.74 324.872 429.907 325.055 428.945 325.055ZM446.105 319.279C446.105 319.683 446.079 320.047 446.027 320.372H437.813C437.878 321.23 438.196 321.92 438.769 322.44C439.341 322.96 440.043 323.221 440.876 323.221C442.073 323.221 442.918 322.72 443.412 321.718H445.812C445.487 322.707 444.895 323.52 444.037 324.157C443.191 324.781 442.138 325.094 440.876 325.094C439.848 325.094 438.925 324.866 438.105 324.411C437.299 323.942 436.662 323.292 436.193 322.46C435.738 321.614 435.51 320.639 435.51 319.533C435.51 318.427 435.732 317.458 436.174 316.626C436.629 315.78 437.26 315.13 438.066 314.675C438.886 314.219 439.822 313.992 440.876 313.992C441.891 313.992 442.795 314.213 443.588 314.655C444.381 315.097 444.999 315.722 445.442 316.528C445.884 317.322 446.105 318.239 446.105 319.279ZM443.783 318.577C443.77 317.757 443.477 317.101 442.905 316.606C442.333 316.112 441.624 315.865 440.778 315.865C440.011 315.865 439.354 316.112 438.808 316.606C438.261 317.088 437.936 317.744 437.832 318.577H443.783ZM450.518 310.48V324.918H448.294V310.48H450.518ZM463.291 319.279C463.291 319.683 463.265 320.047 463.213 320.372H454.999C455.064 321.23 455.383 321.92 455.955 322.44C456.528 322.96 457.23 323.221 458.062 323.221C459.259 323.221 460.105 322.72 460.599 321.718H462.999C462.674 322.707 462.082 323.52 461.223 324.157C460.378 324.781 459.324 325.094 458.062 325.094C457.035 325.094 456.111 324.866 455.292 324.411C454.485 323.942 453.848 323.292 453.38 322.46C452.925 321.614 452.697 320.639 452.697 319.533C452.697 318.427 452.918 317.458 453.36 316.626C453.816 315.78 454.446 315.13 455.253 314.675C456.072 314.219 457.009 313.992 458.062 313.992C459.077 313.992 459.981 314.213 460.774 314.655C461.568 315.097 462.186 315.722 462.628 316.528C463.07 317.322 463.291 318.239 463.291 319.279ZM460.97 318.577C460.957 317.757 460.664 317.101 460.092 316.606C459.519 316.112 458.81 315.865 457.965 315.865C457.197 315.865 456.541 316.112 455.994 316.606C455.448 317.088 455.123 317.744 455.019 318.577H460.97ZM464.739 319.533C464.739 318.427 464.96 317.458 465.402 316.626C465.858 315.78 466.482 315.13 467.275 314.675C468.069 314.219 468.979 313.992 470.007 313.992C471.308 313.992 472.381 314.304 473.226 314.928C474.085 315.54 474.663 316.418 474.963 317.562H472.563C472.368 317.029 472.056 316.613 471.626 316.314C471.197 316.014 470.657 315.865 470.007 315.865C469.096 315.865 468.368 316.19 467.822 316.84C467.288 317.478 467.022 318.375 467.022 319.533C467.022 320.691 467.288 321.595 467.822 322.245C468.368 322.895 469.096 323.221 470.007 323.221C471.295 323.221 472.147 322.655 472.563 321.523H474.963C474.65 322.616 474.065 323.487 473.207 324.138C472.348 324.775 471.282 325.094 470.007 325.094C468.979 325.094 468.069 324.866 467.275 324.411C466.482 323.942 465.858 323.292 465.402 322.46C464.96 321.614 464.739 320.639 464.739 319.533ZM479.774 315.982V321.933C479.774 322.336 479.865 322.629 480.047 322.811C480.243 322.98 480.568 323.064 481.023 323.064H482.389V324.918H480.633C479.631 324.918 478.864 324.684 478.33 324.216C477.797 323.747 477.531 322.986 477.531 321.933V315.982H476.262V314.167H477.531V311.494H479.774V314.167H482.389V315.982H479.774ZM485.57 312.743C485.167 312.743 484.829 312.606 484.556 312.333C484.283 312.06 484.146 311.722 484.146 311.319C484.146 310.916 484.283 310.577 484.556 310.304C484.829 310.031 485.167 309.894 485.57 309.894C485.961 309.894 486.292 310.031 486.565 310.304C486.839 310.577 486.975 310.916 486.975 311.319C486.975 311.722 486.839 312.06 486.565 312.333C486.292 312.606 485.961 312.743 485.57 312.743ZM486.663 314.167V324.918H484.439V314.167H486.663ZM494.246 325.094C493.232 325.094 492.315 324.866 491.495 324.411C490.676 323.942 490.032 323.292 489.564 322.46C489.096 321.614 488.861 320.639 488.861 319.533C488.861 318.44 489.102 317.471 489.583 316.626C490.065 315.78 490.721 315.13 491.554 314.675C492.386 314.219 493.316 313.992 494.344 313.992C495.372 313.992 496.302 314.219 497.134 314.675C497.967 315.13 498.623 315.78 499.105 316.626C499.586 317.471 499.827 318.44 499.827 319.533C499.827 320.626 499.579 321.595 499.085 322.44C498.591 323.286 497.915 323.942 497.056 324.411C496.211 324.866 495.274 325.094 494.246 325.094ZM494.246 323.162C494.819 323.162 495.352 323.025 495.846 322.752C496.354 322.479 496.763 322.069 497.076 321.523C497.388 320.977 497.544 320.313 497.544 319.533C497.544 318.752 497.394 318.096 497.095 317.562C496.796 317.016 496.399 316.606 495.905 316.333C495.411 316.06 494.877 315.923 494.305 315.923C493.733 315.923 493.199 316.06 492.705 316.333C492.224 316.606 491.84 317.016 491.554 317.562C491.268 318.096 491.125 318.752 491.125 319.533C491.125 320.691 491.417 321.588 492.003 322.225C492.601 322.85 493.349 323.162 494.246 323.162ZM507.449 313.992C508.295 313.992 509.049 314.167 509.713 314.519C510.389 314.87 510.916 315.39 511.293 316.079C511.67 316.769 511.859 317.601 511.859 318.577V324.918H509.654V318.909C509.654 317.946 509.414 317.211 508.932 316.704C508.451 316.184 507.794 315.923 506.962 315.923C506.129 315.923 505.466 316.184 504.972 316.704C504.49 317.211 504.25 317.946 504.25 318.909V324.918H502.025V314.167H504.25V315.397C504.614 314.954 505.076 314.61 505.635 314.362C506.207 314.115 506.812 313.992 507.449 313.992Z" fill="#222222"/>
<circle cx="469.664" cy="190.644" r="6.75382" fill="#EE2E5D"/>
<g clip-path="url(#clip3_1254_2056)">
<path opacity="0.4" d="M829.607 12.3674L727.056 19.9004C725.355 19.993 723.711 20.5431 722.296 21.4925C720.882 22.4419 719.749 23.7554 719.019 25.2946C718.289 26.8337 717.988 28.5414 718.147 30.2375C718.306 31.9337 718.921 33.5553 719.925 34.9315L784.353 123.072C785.36 124.45 786.721 125.53 788.292 126.198C789.863 126.865 791.586 127.096 793.277 126.864C794.968 126.632 796.565 125.948 797.899 124.882C799.232 123.817 800.253 122.41 800.852 120.812L839.013 25.1338C839.566 23.659 839.742 22.0696 839.526 20.5096C839.309 18.9496 838.706 17.4684 837.771 16.2004C836.837 14.9324 835.601 13.9177 834.175 13.2484C832.75 12.5791 831.179 12.2763 829.607 12.3674Z" fill="url(#paint4_linear_1254_2056)"/>
<path d="M846.012 40.0322L750.648 1.56476C749.081 0.897533 747.363 0.665727 745.675 0.893808C743.987 1.12189 742.392 1.80139 741.058 2.86061C739.724 3.91983 738.701 5.31947 738.096 6.91183C737.492 8.50418 737.328 10.2302 737.623 11.9077L756.551 119.42C756.843 121.104 757.585 122.676 758.699 123.972C759.813 125.267 761.257 126.237 762.878 126.777C764.499 127.318 766.235 127.41 767.904 127.043C769.573 126.676 771.111 125.864 772.355 124.693L848.792 55.6234C849.937 54.5456 850.794 53.1998 851.288 51.7074C851.781 50.2151 851.895 48.6232 851.619 47.0758C851.344 45.5284 850.686 44.074 849.707 42.8443C848.728 41.6145 847.458 40.648 846.012 40.0322Z" fill="url(#paint5_linear_1254_2056)"/>
<path d="M802.059 66.8655C802.105 67.9716 802.439 69.0464 803.029 69.9833C803.618 70.9201 804.443 71.6863 805.421 72.2057C806.398 72.7252 807.495 72.9798 808.601 72.9442C809.708 72.9086 810.786 72.5841 811.728 72.0029C812.67 71.4218 813.444 70.6042 813.972 69.6314C814.5 68.6586 814.765 67.5645 814.739 66.4578C814.714 65.3511 814.399 64.2703 813.827 63.3229C813.254 62.3755 812.443 61.5944 811.476 61.0572V47.8003L808.333 50.9423V62.0732C808.333 62.402 808.436 62.7226 808.629 62.9894C808.821 63.2563 809.092 63.4559 809.404 63.5599C809.957 63.7464 810.448 64.0803 810.824 64.5256C811.201 64.9709 811.449 65.5106 811.541 66.0864C811.634 66.6623 811.567 67.2524 811.348 67.7932C811.13 68.3339 810.768 68.8046 810.301 69.1546C809.835 69.5045 809.281 69.7203 808.701 69.7788C808.121 69.8372 807.535 69.736 807.008 69.4861C806.481 69.2362 806.033 68.8471 805.711 68.3608C805.389 67.8745 805.206 67.3095 805.181 66.7267C805.179 66.5159 805.135 66.3076 805.051 66.1142C804.966 65.9209 804.844 65.7465 804.691 65.6014C804.538 65.4564 804.357 65.3436 804.16 65.2699C803.962 65.1961 803.752 65.1629 803.541 65.1723C803.33 65.1816 803.124 65.2332 802.933 65.3241C802.743 65.415 802.573 65.5433 802.433 65.7013C802.294 65.8593 802.187 66.0438 802.12 66.2438C802.053 66.4438 802.028 66.6553 802.044 66.8655H802.059ZM777.928 71.2515V74.3935H767.401C765.735 74.3935 764.136 75.0556 762.958 76.234C761.779 77.4125 761.117 79.0109 761.117 80.6775C761.117 82.3442 761.779 83.9425 762.958 85.121C764.136 86.2995 765.735 86.9616 767.401 86.9616H798.927C800.594 86.9616 802.192 86.2995 803.37 85.121C804.549 83.9425 805.211 82.3442 805.211 80.6775C805.211 79.0109 804.549 77.4125 803.37 76.234C802.192 75.0556 800.594 74.3935 798.927 74.3935H788.4V71.2515H792.643C793.059 71.2515 793.459 71.0859 793.753 70.7913C794.048 70.4967 794.214 70.0971 794.214 69.6805V64.9674H772.219C771.802 64.9674 771.402 64.8019 771.108 64.5073C770.813 64.2127 770.648 63.8131 770.648 63.3964V55.5414H764.785C763.812 55.5427 762.88 55.9295 762.193 56.6169C761.505 57.3044 761.118 58.2365 761.117 59.2087V69.6854C761.117 70.1021 761.283 70.5017 761.577 70.7963C761.872 71.0909 762.272 71.2564 762.688 71.2564L777.928 71.2515ZM798.927 83.8195C798.305 83.8205 797.697 83.6371 797.18 83.2924C796.662 82.9478 796.259 82.4574 796.02 81.8834C795.782 81.3093 795.719 80.6774 795.84 80.0676C795.96 79.4578 796.259 78.8975 796.698 78.4575C797.138 78.0176 797.697 77.7179 798.307 77.5962C798.917 77.4746 799.549 77.5365 800.123 77.7742C800.698 78.0119 801.189 78.4146 801.534 78.9314C801.88 79.4482 802.064 80.0559 802.064 80.6775C802.063 81.5096 801.732 82.3073 801.144 82.8961C800.556 83.4849 799.759 83.8169 798.927 83.8195ZM767.401 77.5355C768.023 77.5355 768.63 77.7198 769.147 78.065C769.664 78.4103 770.067 78.901 770.304 79.4751C770.542 80.0493 770.604 80.681 770.483 81.2905C770.362 81.9 770.063 82.4598 769.623 82.8993C769.184 83.3387 768.624 83.6379 768.014 83.7592C767.405 83.8804 766.773 83.8182 766.199 83.5804C765.625 83.3426 765.134 82.9398 764.789 82.4231C764.444 81.9064 764.259 81.299 764.259 80.6775C764.259 79.8442 764.59 79.045 765.18 78.4558C765.769 77.8665 766.568 77.5355 767.401 77.5355ZM772.853 83.8195C773.408 82.8654 773.7 81.7813 773.7 80.6775C773.7 79.5737 773.408 78.4896 772.853 77.5355H793.5C792.947 78.4905 792.656 79.5742 792.656 80.6775C792.656 81.7808 792.947 82.8646 793.5 83.8195H772.853ZM813.359 41.4915C813.797 41.0538 814.144 40.5342 814.381 39.9623C814.617 39.3905 814.739 38.7776 814.739 38.1586C814.739 37.5397 814.617 36.9268 814.381 36.3549C814.144 35.7831 813.797 35.2635 813.359 34.8258C812.921 34.3881 812.402 34.041 811.83 33.8041C811.258 33.5672 810.645 33.4453 810.026 33.4453C809.407 33.4453 808.794 33.5672 808.222 33.8041C807.65 34.041 807.131 34.3881 806.693 34.8258L795.988 45.5305C796.891 47.1588 797.362 48.9912 797.356 50.8531V57.494L813.359 41.4915Z" fill="white"/>
<path d="M773.789 61.8274H794.212V50.8551C794.21 48.7726 793.381 46.7761 791.909 45.3036C790.436 43.831 788.44 43.0026 786.357 43H773.789V61.8274Z" fill="white"/>
</g>
<path opacity="0.04" d="M700.964 263.452C702.957 268.035 703.954 273.316 703.954 279.294C703.954 284.675 703.057 289.657 701.263 294.24C698.872 300.617 694.837 305.599 689.157 309.186C683.577 312.773 676.951 314.567 669.279 314.567C661.706 314.567 655.031 312.674 649.251 308.887C643.572 305.101 639.487 299.97 636.996 293.493C635.601 289.607 634.804 285.422 634.604 280.938C634.604 279.743 635.202 279.145 636.398 279.145H654.034C655.23 279.145 655.828 279.743 655.828 280.938C656.226 284.226 656.774 286.668 657.472 288.262C658.368 290.853 659.813 292.895 661.806 294.39C663.898 295.785 666.34 296.482 669.13 296.482C674.709 296.482 678.546 294.041 680.638 289.159C682.033 286.169 682.73 282.682 682.73 278.696C682.73 274.013 681.983 270.177 680.489 267.188C678.197 262.505 674.361 260.163 668.98 260.163C667.884 260.163 666.738 260.512 665.543 261.21C664.347 261.808 662.902 262.704 661.208 263.9C660.81 264.199 660.411 264.348 660.013 264.348C659.415 264.348 658.966 264.049 658.667 263.452L649.849 251.046C649.65 250.748 649.55 250.399 649.55 250C649.55 249.402 649.75 248.904 650.148 248.506L673.912 227.731C674.112 227.531 674.161 227.332 674.062 227.133C674.062 226.934 673.912 226.834 673.613 226.834H638.49C637.992 226.834 637.544 226.685 637.145 226.386C636.846 225.987 636.697 225.539 636.697 225.04V210.543C636.697 210.045 636.846 209.646 637.145 209.347C637.544 208.949 637.992 208.749 638.49 208.749H700.815C701.313 208.749 701.712 208.949 702.011 209.347C702.409 209.646 702.609 210.045 702.609 210.543V226.983C702.609 227.781 702.26 228.528 701.562 229.225L681.983 247.161C681.784 247.36 681.684 247.559 681.684 247.758C681.784 247.958 682.033 248.057 682.431 248.057C691.1 249.751 697.278 254.883 700.964 263.452Z" fill="#222222"/>
<path d="M714.106 297.918L710.984 292.494H709.286V297.918H707.062V284.358H711.745C712.785 284.358 713.663 284.54 714.379 284.904C715.107 285.268 715.647 285.756 715.998 286.367C716.362 286.979 716.545 287.662 716.545 288.416C716.545 289.301 716.284 290.107 715.764 290.835C715.257 291.551 714.47 292.039 713.403 292.299L716.759 297.918H714.106ZM709.286 290.718H711.745C712.577 290.718 713.202 290.51 713.618 290.094C714.047 289.678 714.262 289.118 714.262 288.416C714.262 287.714 714.054 287.167 713.637 286.777C713.221 286.374 712.59 286.172 711.745 286.172H709.286V290.718ZM729.243 292.279C729.243 292.683 729.217 293.047 729.165 293.372H720.951C721.016 294.23 721.335 294.92 721.907 295.44C722.479 295.96 723.182 296.221 724.014 296.221C725.211 296.221 726.056 295.72 726.55 294.718H728.95C728.625 295.707 728.033 296.52 727.175 297.157C726.329 297.781 725.276 298.094 724.014 298.094C722.986 298.094 722.063 297.866 721.243 297.411C720.437 296.942 719.8 296.292 719.331 295.46C718.876 294.614 718.648 293.639 718.648 292.533C718.648 291.427 718.87 290.458 719.312 289.626C719.767 288.78 720.398 288.13 721.204 287.675C722.024 287.219 722.96 286.992 724.014 286.992C725.029 286.992 725.933 287.213 726.726 287.655C727.52 288.097 728.137 288.722 728.58 289.528C729.022 290.322 729.243 291.239 729.243 292.279ZM726.921 291.577C726.908 290.757 726.616 290.101 726.043 289.606C725.471 289.112 724.762 288.865 723.916 288.865C723.149 288.865 722.492 289.112 721.946 289.606C721.4 290.088 721.074 290.744 720.97 291.577H726.921ZM735.334 298.094C734.489 298.094 733.728 297.944 733.051 297.645C732.388 297.333 731.861 296.916 731.471 296.396C731.081 295.863 730.873 295.271 730.847 294.621H733.149C733.188 295.076 733.403 295.46 733.793 295.772C734.196 296.071 734.697 296.221 735.295 296.221C735.919 296.221 736.401 296.103 736.739 295.869C737.09 295.622 737.266 295.31 737.266 294.933C737.266 294.53 737.071 294.23 736.68 294.035C736.303 293.84 735.698 293.626 734.866 293.391C734.059 293.17 733.403 292.956 732.895 292.748C732.388 292.539 731.946 292.221 731.568 291.791C731.204 291.362 731.022 290.796 731.022 290.094C731.022 289.522 731.191 289.001 731.529 288.533C731.868 288.052 732.349 287.675 732.973 287.402C733.611 287.128 734.339 286.992 735.158 286.992C736.381 286.992 737.363 287.304 738.105 287.928C738.859 288.54 739.262 289.379 739.314 290.445H737.09C737.051 289.964 736.856 289.58 736.505 289.294C736.154 289.008 735.679 288.865 735.08 288.865C734.495 288.865 734.046 288.975 733.734 289.197C733.422 289.418 733.266 289.71 733.266 290.075C733.266 290.361 733.37 290.601 733.578 290.796C733.786 290.992 734.04 291.148 734.339 291.265C734.638 291.369 735.08 291.505 735.666 291.674C736.446 291.883 737.084 292.097 737.578 292.318C738.085 292.526 738.521 292.839 738.885 293.255C739.249 293.671 739.438 294.224 739.451 294.913C739.451 295.525 739.282 296.071 738.944 296.552C738.605 297.033 738.124 297.411 737.5 297.684C736.888 297.957 736.167 298.094 735.334 298.094ZM751.707 292.279C751.707 292.683 751.681 293.047 751.629 293.372H743.415C743.48 294.23 743.799 294.92 744.371 295.44C744.944 295.96 745.646 296.221 746.478 296.221C747.675 296.221 748.521 295.72 749.015 294.718H751.415C751.09 295.707 750.498 296.52 749.639 297.157C748.794 297.781 747.74 298.094 746.478 298.094C745.451 298.094 744.527 297.866 743.708 297.411C742.901 296.942 742.264 296.292 741.796 295.46C741.341 294.614 741.113 293.639 741.113 292.533C741.113 291.427 741.334 290.458 741.776 289.626C742.232 288.78 742.862 288.13 743.669 287.675C744.488 287.219 745.425 286.992 746.478 286.992C747.493 286.992 748.397 287.213 749.19 287.655C749.984 288.097 750.602 288.722 751.044 289.528C751.486 290.322 751.707 291.239 751.707 292.279ZM749.386 291.577C749.373 290.757 749.08 290.101 748.508 289.606C747.935 289.112 747.226 288.865 746.381 288.865C745.613 288.865 744.957 289.112 744.41 289.606C743.864 290.088 743.539 290.744 743.435 291.577H749.386ZM756.121 288.728C756.446 288.182 756.875 287.759 757.408 287.46C757.955 287.148 758.598 286.992 759.34 286.992V289.294H758.774C757.903 289.294 757.239 289.515 756.784 289.957C756.342 290.4 756.121 291.167 756.121 292.26V297.918H753.896V287.167H756.121V288.728ZM765.54 295.928L768.584 287.167H770.945L766.847 297.918H764.194L760.116 287.167H762.497L765.54 295.928ZM782.479 292.279C782.479 292.683 782.453 293.047 782.401 293.372H774.187C774.252 294.23 774.571 294.92 775.143 295.44C775.715 295.96 776.418 296.221 777.25 296.221C778.447 296.221 779.292 295.72 779.787 294.718H782.187C781.861 295.707 781.27 296.52 780.411 297.157C779.566 297.781 778.512 298.094 777.25 298.094C776.223 298.094 775.299 297.866 774.48 297.411C773.673 296.942 773.036 296.292 772.568 295.46C772.112 294.614 771.885 293.639 771.885 292.533C771.885 291.427 772.106 290.458 772.548 289.626C773.003 288.78 773.634 288.13 774.441 287.675C775.26 287.219 776.197 286.992 777.25 286.992C778.265 286.992 779.169 287.213 779.962 287.655C780.756 288.097 781.374 288.722 781.816 289.528C782.258 290.322 782.479 291.239 782.479 292.279ZM780.157 291.577C780.144 290.757 779.852 290.101 779.279 289.606C778.707 289.112 777.998 288.865 777.153 288.865C776.385 288.865 775.728 289.112 775.182 289.606C774.636 290.088 774.311 290.744 774.207 291.577H780.157ZM798.497 284.358V286.172H794.887V297.918H792.663V286.172H789.034V284.358H798.497ZM806.31 286.992C807.13 286.992 807.858 287.167 808.495 287.519C809.146 287.87 809.653 288.39 810.017 289.079C810.394 289.769 810.583 290.601 810.583 291.577V297.918H808.378V291.909C808.378 290.946 808.138 290.211 807.656 289.704C807.175 289.184 806.518 288.923 805.686 288.923C804.853 288.923 804.19 289.184 803.696 289.704C803.214 290.211 802.974 290.946 802.974 291.909V297.918H800.749V283.48H802.974V288.416C803.351 287.961 803.826 287.61 804.398 287.362C804.983 287.115 805.621 286.992 806.31 286.992ZM823.273 292.279C823.273 292.683 823.247 293.047 823.195 293.372H814.981C815.046 294.23 815.365 294.92 815.937 295.44C816.509 295.96 817.212 296.221 818.044 296.221C819.241 296.221 820.086 295.72 820.581 294.718H822.981C822.655 295.707 822.064 296.52 821.205 297.157C820.36 297.781 819.306 298.094 818.044 298.094C817.017 298.094 816.093 297.866 815.274 297.411C814.467 296.942 813.83 296.292 813.362 295.46C812.906 294.614 812.679 293.639 812.679 292.533C812.679 291.427 812.9 290.458 813.342 289.626C813.797 288.78 814.428 288.13 815.235 287.675C816.054 287.219 816.991 286.992 818.044 286.992C819.059 286.992 819.963 287.213 820.756 287.655C821.55 288.097 822.168 288.722 822.61 289.528C823.052 290.322 823.273 291.239 823.273 292.279ZM820.951 291.577C820.938 290.757 820.646 290.101 820.073 289.606C819.501 289.112 818.792 288.865 817.947 288.865C817.179 288.865 816.522 289.112 815.976 289.606C815.43 290.088 815.105 290.744 815.001 291.577H820.951ZM715.117 313.153V317.133H719.799V318.948H715.117V323.103H720.385V324.918H712.893V311.338H720.385V313.153H715.117ZM722.383 319.494C722.383 318.414 722.604 317.458 723.046 316.626C723.502 315.793 724.113 315.149 724.88 314.694C725.661 314.226 726.526 313.992 727.475 313.992C728.308 313.992 729.043 314.161 729.68 314.499C730.331 314.837 730.831 315.247 731.183 315.728V314.167H733.426V330.03H731.183V323.357C730.831 323.838 730.324 324.248 729.661 324.586C728.997 324.924 728.243 325.094 727.397 325.094C726.474 325.094 725.628 324.859 724.861 324.391C724.107 323.91 723.502 323.247 723.046 322.401C722.604 321.543 722.383 320.574 722.383 319.494ZM731.183 319.533C731.183 318.791 731.026 318.148 730.714 317.601C730.415 317.055 730.018 316.639 729.524 316.353C729.03 316.066 728.496 315.923 727.924 315.923C727.352 315.923 726.819 316.066 726.324 316.353C725.83 316.626 725.427 317.036 725.115 317.582C724.815 318.115 724.666 318.752 724.666 319.494C724.666 320.235 724.815 320.886 725.115 321.445C725.427 322.004 725.83 322.434 726.324 322.733C726.832 323.019 727.365 323.162 727.924 323.162C728.496 323.162 729.03 323.019 729.524 322.733C730.018 322.447 730.415 322.03 730.714 321.484C731.026 320.925 731.183 320.274 731.183 319.533ZM746.084 314.167V324.918H743.86V323.65C743.508 324.092 743.047 324.443 742.474 324.703C741.915 324.95 741.317 325.074 740.679 325.074C739.834 325.074 739.073 324.898 738.396 324.547C737.733 324.196 737.206 323.676 736.816 322.986C736.439 322.297 736.25 321.465 736.25 320.489V314.167H738.455V320.157C738.455 321.12 738.696 321.861 739.177 322.382C739.658 322.889 740.315 323.142 741.147 323.142C741.98 323.142 742.637 322.889 743.118 322.382C743.612 321.861 743.86 321.12 743.86 320.157V314.167H746.084ZM750.15 312.743C749.747 312.743 749.409 312.606 749.136 312.333C748.862 312.06 748.726 311.722 748.726 311.319C748.726 310.916 748.862 310.577 749.136 310.304C749.409 310.031 749.747 309.894 750.15 309.894C750.54 309.894 750.872 310.031 751.145 310.304C751.418 310.577 751.555 310.916 751.555 311.319C751.555 311.722 751.418 312.06 751.145 312.333C750.872 312.606 750.54 312.743 750.15 312.743ZM751.243 314.167V324.918H749.019V314.167H751.243ZM756.387 315.748C756.764 315.253 757.278 314.837 757.929 314.499C758.579 314.161 759.314 313.992 760.133 313.992C761.07 313.992 761.922 314.226 762.689 314.694C763.47 315.149 764.081 315.793 764.523 316.626C764.966 317.458 765.187 318.414 765.187 319.494C765.187 320.574 764.966 321.543 764.523 322.401C764.081 323.247 763.47 323.91 762.689 324.391C761.922 324.859 761.07 325.094 760.133 325.094C759.314 325.094 758.586 324.931 757.948 324.606C757.311 324.268 756.791 323.851 756.387 323.357V330.03H754.163V314.167H756.387V315.748ZM762.923 319.494C762.923 318.752 762.767 318.115 762.455 317.582C762.156 317.036 761.753 316.626 761.246 316.353C760.751 316.066 760.218 315.923 759.646 315.923C759.086 315.923 758.553 316.066 758.046 316.353C757.551 316.639 757.148 317.055 756.836 317.601C756.537 318.148 756.387 318.791 756.387 319.533C756.387 320.274 756.537 320.925 756.836 321.484C757.148 322.03 757.551 322.447 758.046 322.733C758.553 323.019 759.086 323.162 759.646 323.162C760.218 323.162 760.751 323.019 761.246 322.733C761.753 322.434 762.156 322.004 762.455 321.445C762.767 320.886 762.923 320.235 762.923 319.494ZM780.4 313.992C781.246 313.992 782 314.167 782.663 314.519C783.34 314.87 783.867 315.39 784.244 316.079C784.634 316.769 784.829 317.601 784.829 318.577V324.918H782.624V318.909C782.624 317.946 782.384 317.211 781.903 316.704C781.421 316.184 780.764 315.923 779.932 315.923C779.099 315.923 778.436 316.184 777.942 316.704C777.461 317.211 777.22 317.946 777.22 318.909V324.918H775.015V318.909C775.015 317.946 774.775 317.211 774.293 316.704C773.812 316.184 773.155 315.923 772.323 315.923C771.49 315.923 770.827 316.184 770.332 316.704C769.851 317.211 769.611 317.946 769.611 318.909V324.918H767.386V314.167H769.611V315.397C769.975 314.954 770.437 314.61 770.996 314.362C771.555 314.115 772.154 313.992 772.791 313.992C773.649 313.992 774.417 314.174 775.093 314.538C775.77 314.902 776.29 315.429 776.654 316.118C776.979 315.468 777.487 314.954 778.176 314.577C778.865 314.187 779.607 313.992 780.4 313.992ZM797.513 319.279C797.513 319.683 797.487 320.047 797.435 320.372H789.22C789.285 321.23 789.604 321.92 790.176 322.44C790.749 322.96 791.451 323.221 792.284 323.221C793.48 323.221 794.326 322.72 794.82 321.718H797.22C796.895 322.707 796.303 323.52 795.444 324.157C794.599 324.781 793.545 325.094 792.284 325.094C791.256 325.094 790.333 324.866 789.513 324.411C788.707 323.942 788.069 323.292 787.601 322.46C787.146 321.614 786.918 320.639 786.918 319.533C786.918 318.427 787.139 317.458 787.581 316.626C788.037 315.78 788.668 315.13 789.474 314.675C790.294 314.219 791.23 313.992 792.284 313.992C793.298 313.992 794.202 314.213 794.996 314.655C795.789 315.097 796.407 315.722 796.849 316.528C797.291 317.322 797.513 318.239 797.513 319.279ZM795.191 318.577C795.178 317.757 794.885 317.101 794.313 316.606C793.74 316.112 793.032 315.865 792.186 315.865C791.419 315.865 790.762 316.112 790.215 316.606C789.669 317.088 789.344 317.744 789.24 318.577H795.191ZM805.126 313.992C805.971 313.992 806.725 314.167 807.389 314.519C808.065 314.87 808.592 315.39 808.969 316.079C809.346 316.769 809.535 317.601 809.535 318.577V324.918H807.33V318.909C807.33 317.946 807.09 317.211 806.608 316.704C806.127 316.184 805.47 315.923 804.638 315.923C803.805 315.923 803.142 316.184 802.648 316.704C802.166 317.211 801.926 317.946 801.926 318.909V324.918H799.702V314.167H801.926V315.397C802.29 314.954 802.752 314.61 803.311 314.362C803.883 314.115 804.488 313.992 805.126 313.992ZM814.967 315.982V321.933C814.967 322.336 815.058 322.629 815.24 322.811C815.435 322.98 815.761 323.064 816.216 323.064H817.582V324.918H815.826C814.824 324.918 814.057 324.684 813.523 324.216C812.99 323.747 812.723 322.986 812.723 321.933V315.982H811.455V314.167H812.723V311.494H814.967V314.167H817.582V315.982H814.967Z" fill="#222222"/>
<circle cx="785.594" cy="190.644" r="6.75382" fill="#EE2E5D"/>
<g clip-path="url(#clip4_1254_2056)">
<path opacity="0.4" d="M1142.94 11.6939L1040.57 21.246C1038.87 21.3727 1037.24 21.9552 1035.85 22.9323C1034.45 23.9093 1033.35 25.2447 1032.65 26.7975C1031.95 28.3502 1031.68 30.0629 1031.87 31.7549C1032.07 33.447 1032.71 35.0556 1033.74 36.4112L1099.87 123.261C1100.9 124.619 1102.28 125.672 1103.87 126.308C1105.45 126.944 1107.17 127.14 1108.86 126.875C1110.55 126.61 1112.13 125.894 1113.44 124.803C1114.75 123.711 1115.74 122.286 1116.31 120.676L1152.56 24.2692C1153.08 22.7869 1153.22 21.198 1152.98 19.6458C1152.73 18.0937 1152.1 16.6273 1151.15 15.3792C1150.19 14.1311 1148.94 13.1405 1147.51 12.4971C1146.07 11.8537 1144.5 11.5776 1142.94 11.6939Z" fill="url(#paint6_linear_1254_2056)"/>
<path d="M1160.04 40.034L1064.7 1.56953C1063.13 0.901915 1061.41 0.669715 1059.73 0.897443C1058.04 1.12517 1056.44 1.80438 1055.11 2.86336C1053.78 3.92234 1052.75 5.3218 1052.15 6.91401C1051.54 8.50622 1051.38 10.2321 1051.68 11.9094L1070.6 119.42C1070.89 121.1 1071.64 122.669 1072.75 123.961C1073.87 125.252 1075.31 126.217 1076.93 126.755C1078.55 127.292 1080.29 127.381 1081.96 127.013C1083.62 126.645 1085.16 125.833 1086.4 124.664L1162.82 55.6226C1163.96 54.5447 1164.82 53.1992 1165.31 51.7074C1165.8 50.2156 1165.92 48.6246 1165.64 47.0778C1165.37 45.531 1164.71 44.0772 1163.73 42.8475C1162.76 41.6177 1161.49 40.6508 1160.04 40.034Z" fill="url(#paint7_linear_1254_2056)"/>
<path d="M1077.56 81.3347H1080.75C1081.8 81.3347 1082.82 80.9151 1083.56 80.168C1084.31 79.421 1084.73 78.4078 1084.73 77.3514V51.2555C1084.73 50.1986 1084.31 49.1849 1083.57 48.4371C1082.82 47.6893 1081.81 47.2685 1080.75 47.2672H1077.56C1076.5 47.2672 1075.49 47.6874 1074.74 48.4353C1073.99 49.1833 1073.57 50.1977 1073.57 51.2555V77.3514C1073.57 78.4091 1073.99 79.4236 1074.74 80.1715C1075.49 80.9195 1076.5 81.3396 1077.56 81.3396V81.3347ZM1092.22 81.4234H1118.32C1119.25 81.392 1120.16 81.1755 1121.01 80.7866C1121.85 80.3977 1122.61 79.8442 1123.24 79.1584L1124.61 77.5877C1125.63 76.3404 1126.32 74.8548 1126.61 73.2696L1129.84 52.3731C1129.99 51.2766 1129.8 50.1599 1129.29 49.1762C1128.78 48.1925 1127.98 47.3898 1127 46.8782L1126.13 46.4499C1124.76 45.8018 1123.27 45.4479 1121.75 45.411H1109.71L1112.37 37.981C1112.6 37.3537 1112.68 36.6829 1112.62 36.0176C1112.56 35.3523 1112.35 34.7093 1112.01 34.1355C1111.68 33.585 1111.23 33.1154 1110.69 32.7611C1110.15 32.4067 1109.55 32.1765 1108.91 32.0872C1108.2 31.9839 1107.48 31.9313 1106.77 31.9297C1103.45 31.9297 1100.66 33.0966 1098.69 35.3123C1098.12 36.0043 1097.62 36.7403 1097.17 37.5132C1097 37.7988 1096.83 38.0696 1096.68 38.2813C1094.65 41.2799 1091.63 43.8452 1090.01 45.1106C1089.28 45.7143 1088.67 46.4682 1088.25 47.3222C1087.83 48.1763 1087.59 49.1109 1087.55 50.0639V76.7704C1087.55 78.004 1088.04 79.1868 1088.92 80.0591C1089.79 80.9314 1090.97 81.4221 1092.2 81.4234H1092.22ZM1093.7 50.1575C1093.73 50.0658 1093.78 49.9795 1093.84 49.9014C1095.75 48.4243 1099.28 45.3765 1101.77 41.7083C1101.96 41.4276 1102.17 41.0731 1102.4 40.7235C1102.67 40.2604 1102.96 39.8148 1103.28 39.3892C1103.95 38.6665 1104.86 38.216 1105.84 38.1238L1103.05 45.9575C1102.8 46.5883 1102.71 47.2706 1102.79 47.9432C1102.87 48.6157 1103.12 49.2576 1103.51 49.8114C1103.9 50.3651 1104.42 50.8134 1105.03 51.1162C1105.64 51.4189 1106.31 51.5665 1106.98 51.546H1121.78C1122.35 51.5858 1122.91 51.7188 1123.43 51.9399L1123.73 52.0876L1120.59 72.3538C1120.47 72.7957 1120.26 73.21 1119.98 73.5749L1118.65 75.1111C1118.52 75.1999 1118.38 75.2635 1118.23 75.2982H1093.67L1093.7 50.1575Z" fill="white"/>
</g>
<path opacity="0.04" d="M1015.4 267.786C1015.9 267.786 1016.29 267.985 1016.59 268.384C1016.99 268.683 1017.19 269.081 1017.19 269.579V284.675C1017.19 285.173 1016.99 285.621 1016.59 286.02C1016.29 286.319 1015.9 286.468 1015.4 286.468H1008.97C1008.47 286.468 1008.22 286.717 1008.22 287.216V311.578C1008.22 312.076 1008.02 312.524 1007.63 312.923C1007.33 313.222 1006.93 313.371 1006.43 313.371H988.943C988.445 313.371 987.996 313.222 987.598 312.923C987.299 312.524 987.149 312.076 987.149 311.578V287.216C987.149 286.717 986.9 286.468 986.402 286.468H940.518C940.02 286.468 939.571 286.319 939.173 286.02C938.874 285.621 938.724 285.173 938.724 284.675V272.718C938.724 272.12 938.874 271.373 939.173 270.476L966.075 210.095C966.474 209.198 967.171 208.749 968.168 208.749H986.85C987.548 208.749 987.996 208.949 988.195 209.347C988.494 209.646 988.494 210.144 988.195 210.842L963.236 266.889C963.136 267.088 963.136 267.288 963.236 267.487C963.335 267.686 963.485 267.786 963.684 267.786H986.402C986.9 267.786 987.149 267.537 987.149 267.039V248.506C987.149 248.007 987.299 247.609 987.598 247.31C987.996 246.911 988.445 246.712 988.943 246.712H1006.43C1006.93 246.712 1007.33 246.911 1007.63 247.31C1008.02 247.609 1008.22 248.007 1008.22 248.506V267.039C1008.22 267.537 1008.47 267.786 1008.97 267.786H1015.4Z" fill="#222222"/>
<path d="M1042.28 288.26C1041.93 287.584 1041.44 287.076 1040.82 286.738C1040.2 286.387 1039.47 286.211 1038.65 286.211C1037.76 286.211 1036.96 286.413 1036.25 286.816C1035.55 287.219 1035 287.792 1034.6 288.533C1034.21 289.275 1034.01 290.133 1034.01 291.109C1034.01 292.084 1034.21 292.949 1034.6 293.704C1035 294.445 1035.55 295.017 1036.25 295.421C1036.96 295.824 1037.76 296.025 1038.65 296.025C1039.86 296.025 1040.85 295.687 1041.6 295.011C1042.36 294.334 1042.82 293.417 1042.99 292.26H1037.89V290.484H1045.37V292.221C1045.22 293.274 1044.85 294.243 1044.23 295.128C1043.64 296.012 1042.85 296.721 1041.87 297.255C1040.91 297.775 1039.84 298.035 1038.65 298.035C1037.38 298.035 1036.22 297.742 1035.16 297.157C1034.11 296.559 1033.27 295.733 1032.65 294.679C1032.03 293.626 1031.73 292.435 1031.73 291.109C1031.73 289.782 1032.03 288.592 1032.65 287.538C1033.27 286.484 1034.11 285.665 1035.16 285.08C1036.23 284.481 1037.39 284.182 1038.65 284.182C1040.1 284.182 1041.38 284.54 1042.5 285.255C1043.63 285.958 1044.45 286.959 1044.96 288.26H1042.28ZM1057.41 292.279C1057.41 292.683 1057.39 293.047 1057.34 293.372H1049.12C1049.19 294.23 1049.5 294.92 1050.08 295.44C1050.65 295.96 1051.35 296.221 1052.18 296.221C1053.38 296.221 1054.23 295.72 1054.72 294.718H1057.12C1056.8 295.707 1056.2 296.52 1055.35 297.157C1054.5 297.781 1053.45 298.094 1052.18 298.094C1051.16 298.094 1050.23 297.866 1049.41 297.411C1048.61 296.942 1047.97 296.292 1047.5 295.46C1047.05 294.614 1046.82 293.639 1046.82 292.533C1046.82 291.427 1047.04 290.458 1047.48 289.626C1047.94 288.78 1048.57 288.13 1049.37 287.675C1050.19 287.219 1051.13 286.992 1052.18 286.992C1053.2 286.992 1054.1 287.213 1054.9 287.655C1055.69 288.097 1056.31 288.722 1056.75 289.528C1057.19 290.322 1057.41 291.239 1057.41 292.279ZM1055.09 291.577C1055.08 290.757 1054.79 290.101 1054.21 289.606C1053.64 289.112 1052.93 288.865 1052.09 288.865C1051.32 288.865 1050.66 289.112 1050.12 289.606C1049.57 290.088 1049.24 290.744 1049.14 291.577H1055.09ZM1062.2 288.982V294.933C1062.2 295.336 1062.29 295.629 1062.47 295.811C1062.67 295.98 1062.99 296.064 1063.45 296.064H1064.81V297.918H1063.06C1062.05 297.918 1061.29 297.684 1060.75 297.216C1060.22 296.747 1059.95 295.986 1059.95 294.933V288.982H1058.69V287.167H1059.95V284.494H1062.2V287.167H1064.81V288.982H1062.2ZM1076.4 298.055C1075.49 298.055 1074.67 297.898 1073.94 297.586C1073.21 297.261 1072.64 296.806 1072.22 296.221C1071.81 295.635 1071.6 294.952 1071.6 294.172H1073.98C1074.03 294.757 1074.26 295.238 1074.66 295.616C1075.08 295.993 1075.66 296.181 1076.4 296.181C1077.17 296.181 1077.76 295.999 1078.19 295.635C1078.62 295.258 1078.84 294.777 1078.84 294.191C1078.84 293.736 1078.7 293.365 1078.43 293.079C1078.17 292.793 1077.84 292.572 1077.43 292.416C1077.04 292.26 1076.5 292.091 1075.79 291.909C1074.91 291.674 1074.19 291.44 1073.63 291.206C1073.08 290.959 1072.61 290.582 1072.22 290.075C1071.83 289.567 1071.64 288.891 1071.64 288.045C1071.64 287.265 1071.83 286.582 1072.22 285.997C1072.61 285.411 1073.16 284.963 1073.86 284.65C1074.56 284.338 1075.38 284.182 1076.3 284.182C1077.61 284.182 1078.69 284.514 1079.52 285.177C1080.37 285.828 1080.83 286.725 1080.92 287.87H1078.47C1078.43 287.375 1078.19 286.953 1077.76 286.602C1077.33 286.25 1076.77 286.075 1076.07 286.075C1075.43 286.075 1074.91 286.237 1074.51 286.563C1074.1 286.888 1073.9 287.356 1073.9 287.967C1073.9 288.384 1074.02 288.728 1074.27 289.001C1074.53 289.262 1074.86 289.47 1075.25 289.626C1075.64 289.782 1076.17 289.951 1076.85 290.133C1077.74 290.38 1078.47 290.627 1079.03 290.874C1079.6 291.122 1080.09 291.505 1080.48 292.026C1080.88 292.533 1081.08 293.216 1081.08 294.074C1081.08 294.764 1080.89 295.414 1080.51 296.025C1080.15 296.637 1079.61 297.131 1078.9 297.508C1078.19 297.872 1077.36 298.055 1076.4 298.055ZM1086.3 288.982V294.933C1086.3 295.336 1086.39 295.629 1086.57 295.811C1086.77 295.98 1087.09 296.064 1087.55 296.064H1088.91V297.918H1087.16C1086.16 297.918 1085.39 297.684 1084.86 297.216C1084.32 296.747 1084.06 295.986 1084.06 294.933V288.982H1082.79V287.167H1084.06V284.494H1086.3V287.167H1088.91V288.982H1086.3ZM1090.22 292.494C1090.22 291.414 1090.44 290.458 1090.89 289.626C1091.34 288.793 1091.95 288.149 1092.72 287.694C1093.5 287.226 1094.36 286.992 1095.3 286.992C1096.14 286.992 1096.88 287.161 1097.5 287.499C1098.14 287.824 1098.65 288.234 1099.02 288.728V287.167H1101.27V297.918H1099.02V296.318C1098.65 296.825 1098.13 297.248 1097.48 297.586C1096.83 297.924 1096.09 298.094 1095.26 298.094C1094.33 298.094 1093.49 297.859 1092.72 297.391C1091.95 296.91 1091.34 296.247 1090.89 295.401C1090.44 294.543 1090.22 293.574 1090.22 292.494ZM1099.02 292.533C1099.02 291.791 1098.87 291.148 1098.55 290.601C1098.26 290.055 1097.86 289.639 1097.36 289.353C1096.87 289.066 1096.34 288.923 1095.76 288.923C1095.19 288.923 1094.66 289.066 1094.16 289.353C1093.67 289.626 1093.27 290.036 1092.95 290.582C1092.66 291.115 1092.51 291.752 1092.51 292.494C1092.51 293.235 1092.66 293.886 1092.95 294.445C1093.27 295.004 1093.67 295.434 1094.16 295.733C1094.67 296.019 1095.2 296.162 1095.76 296.162C1096.34 296.162 1096.87 296.019 1097.36 295.733C1097.86 295.447 1098.26 295.03 1098.55 294.484C1098.87 293.925 1099.02 293.274 1099.02 292.533ZM1106.41 288.728C1106.74 288.182 1107.17 287.759 1107.7 287.46C1108.25 287.148 1108.89 286.992 1109.63 286.992V289.294H1109.07C1108.19 289.294 1107.53 289.515 1107.08 289.957C1106.63 290.4 1106.41 291.167 1106.41 292.26V297.918H1104.19V287.167H1106.41V288.728ZM1114.27 288.982V294.933C1114.27 295.336 1114.36 295.629 1114.54 295.811C1114.74 295.98 1115.06 296.064 1115.52 296.064H1116.89V297.918H1115.13C1114.13 297.918 1113.36 297.684 1112.83 297.216C1112.29 296.747 1112.03 295.986 1112.03 294.933V288.982H1110.76V287.167H1112.03V284.494H1114.27V287.167H1116.89V288.982H1114.27ZM1134.05 284.358L1129.56 293.001V297.918H1127.34V293.001L1122.83 284.358H1125.31L1128.45 291.011L1131.59 284.358H1134.05ZM1140.48 298.094C1139.47 298.094 1138.55 297.866 1137.73 297.411C1136.91 296.942 1136.27 296.292 1135.8 295.46C1135.33 294.614 1135.1 293.639 1135.1 292.533C1135.1 291.44 1135.34 290.471 1135.82 289.626C1136.3 288.78 1136.96 288.13 1137.79 287.675C1138.62 287.219 1139.55 286.992 1140.58 286.992C1141.61 286.992 1142.54 287.219 1143.37 287.675C1144.2 288.13 1144.86 288.78 1145.34 289.626C1145.82 290.471 1146.06 291.44 1146.06 292.533C1146.06 293.626 1145.81 294.595 1145.32 295.44C1144.82 296.286 1144.15 296.942 1143.29 297.411C1142.44 297.866 1141.51 298.094 1140.48 298.094ZM1140.48 296.162C1141.05 296.162 1141.59 296.025 1142.08 295.752C1142.59 295.479 1143 295.069 1143.31 294.523C1143.62 293.977 1143.78 293.313 1143.78 292.533C1143.78 291.752 1143.63 291.096 1143.33 290.562C1143.03 290.016 1142.63 289.606 1142.14 289.333C1141.64 289.06 1141.11 288.923 1140.54 288.923C1139.97 288.923 1139.43 289.06 1138.94 289.333C1138.46 289.606 1138.07 290.016 1137.79 290.562C1137.5 291.096 1137.36 291.752 1137.36 292.533C1137.36 293.691 1137.65 294.588 1138.24 295.225C1138.83 295.85 1139.58 296.162 1140.48 296.162ZM1158 287.167V297.918H1155.77V296.65C1155.42 297.092 1154.96 297.443 1154.39 297.703C1153.83 297.95 1153.23 298.074 1152.59 298.074C1151.75 298.074 1150.98 297.898 1150.31 297.547C1149.64 297.196 1149.12 296.676 1148.73 295.986C1148.35 295.297 1148.16 294.465 1148.16 293.489V287.167H1150.37V293.157C1150.37 294.12 1150.61 294.861 1151.09 295.382C1151.57 295.889 1152.23 296.142 1153.06 296.142C1153.89 296.142 1154.55 295.889 1155.03 295.382C1155.52 294.861 1155.77 294.12 1155.77 293.157V287.167H1158ZM1163.15 288.728C1163.48 288.182 1163.91 287.759 1164.44 287.46C1164.99 287.148 1165.63 286.992 1166.37 286.992V289.294H1165.81C1164.94 289.294 1164.27 289.515 1163.82 289.957C1163.38 290.4 1163.15 291.167 1163.15 292.26V297.918H1160.93V287.167H1163.15V288.728ZM1076.09 315.397C1076.09 316.086 1075.92 316.736 1075.6 317.348C1075.27 317.959 1074.75 318.46 1074.04 318.85C1073.32 319.227 1072.41 319.416 1071.29 319.416H1068.83V324.918H1066.6V311.358H1071.29C1072.33 311.358 1073.21 311.54 1073.92 311.904C1074.65 312.255 1075.19 312.737 1075.54 313.348C1075.9 313.959 1076.09 314.642 1076.09 315.397ZM1071.29 317.601C1072.13 317.601 1072.76 317.413 1073.18 317.036C1073.6 316.645 1073.8 316.099 1073.8 315.397C1073.8 313.914 1072.96 313.172 1071.29 313.172H1068.83V317.601H1071.29ZM1080.43 315.728C1080.76 315.182 1081.19 314.759 1081.72 314.46C1082.27 314.148 1082.91 313.992 1083.65 313.992V316.294H1083.09C1082.21 316.294 1081.55 316.515 1081.1 316.957C1080.65 317.4 1080.43 318.167 1080.43 319.26V324.918H1078.21V314.167H1080.43V315.728ZM1090.36 325.094C1089.34 325.094 1088.43 324.866 1087.61 324.411C1086.79 323.942 1086.14 323.292 1085.68 322.46C1085.21 321.614 1084.97 320.639 1084.97 319.533C1084.97 318.44 1085.21 317.471 1085.7 316.626C1086.18 315.78 1086.83 315.13 1087.67 314.675C1088.5 314.219 1089.43 313.992 1090.46 313.992C1091.48 313.992 1092.41 314.219 1093.25 314.675C1094.08 315.13 1094.74 315.78 1095.22 316.626C1095.7 317.471 1095.94 318.44 1095.94 319.533C1095.94 320.626 1095.69 321.595 1095.2 322.44C1094.7 323.286 1094.03 323.942 1093.17 324.411C1092.32 324.866 1091.39 325.094 1090.36 325.094ZM1090.36 323.162C1090.93 323.162 1091.46 323.025 1091.96 322.752C1092.47 322.479 1092.88 322.069 1093.19 321.523C1093.5 320.977 1093.66 320.313 1093.66 319.533C1093.66 318.752 1093.51 318.096 1093.21 317.562C1092.91 317.016 1092.51 316.606 1092.02 316.333C1091.52 316.06 1090.99 315.923 1090.42 315.923C1089.85 315.923 1089.31 316.06 1088.82 316.333C1088.34 316.606 1087.95 317.016 1087.67 317.562C1087.38 318.096 1087.24 318.752 1087.24 319.533C1087.24 320.691 1087.53 321.588 1088.12 322.225C1088.71 322.85 1089.46 323.162 1090.36 323.162ZM1099.27 312.743C1098.87 312.743 1098.53 312.606 1098.26 312.333C1097.98 312.06 1097.85 311.722 1097.85 311.319C1097.85 310.916 1097.98 310.577 1098.26 310.304C1098.53 310.031 1098.87 309.894 1099.27 309.894C1099.66 309.894 1099.99 310.031 1100.26 310.304C1100.54 310.577 1100.67 310.916 1100.67 311.319C1100.67 311.722 1100.54 312.06 1100.26 312.333C1099.99 312.606 1099.66 312.743 1099.27 312.743ZM1100.36 327.025C1100.36 328.079 1100.1 328.84 1099.56 329.308C1099.04 329.789 1098.28 330.03 1097.28 330.03H1096.13V328.157H1096.89C1097.34 328.157 1097.66 328.066 1097.85 327.884C1098.04 327.715 1098.14 327.428 1098.14 327.025V314.167H1100.36V327.025ZM1113.14 319.279C1113.14 319.683 1113.11 320.047 1113.06 320.372H1104.84C1104.91 321.23 1105.23 321.92 1105.8 322.44C1106.37 322.96 1107.07 323.221 1107.91 323.221C1109.1 323.221 1109.95 322.72 1110.44 321.718H1112.84C1112.52 322.707 1111.93 323.52 1111.07 324.157C1110.22 324.781 1109.17 325.094 1107.91 325.094C1106.88 325.094 1105.96 324.866 1105.14 324.411C1104.33 323.942 1103.69 323.292 1103.22 322.46C1102.77 321.614 1102.54 320.639 1102.54 319.533C1102.54 318.427 1102.76 317.458 1103.2 316.626C1103.66 315.78 1104.29 315.13 1105.1 314.675C1105.92 314.219 1106.85 313.992 1107.91 313.992C1108.92 313.992 1109.83 314.213 1110.62 314.655C1111.41 315.097 1112.03 315.722 1112.47 316.528C1112.91 317.322 1113.14 318.239 1113.14 319.279ZM1110.81 318.577C1110.8 317.757 1110.51 317.101 1109.94 316.606C1109.36 316.112 1108.65 315.865 1107.81 315.865C1107.04 315.865 1106.39 316.112 1105.84 316.606C1105.29 317.088 1104.97 317.744 1104.86 318.577H1110.81ZM1114.58 319.533C1114.58 318.427 1114.8 317.458 1115.25 316.626C1115.7 315.78 1116.33 315.13 1117.12 314.675C1117.91 314.219 1118.82 313.992 1119.85 313.992C1121.15 313.992 1122.23 314.304 1123.07 314.928C1123.93 315.54 1124.51 316.418 1124.81 317.562H1122.41C1122.21 317.029 1121.9 316.613 1121.47 316.314C1121.04 316.014 1120.5 315.865 1119.85 315.865C1118.94 315.865 1118.21 316.19 1117.67 316.84C1117.13 317.478 1116.87 318.375 1116.87 319.533C1116.87 320.691 1117.13 321.595 1117.67 322.245C1118.21 322.895 1118.94 323.221 1119.85 323.221C1121.14 323.221 1121.99 322.655 1122.41 321.523H1124.81C1124.49 322.616 1123.91 323.487 1123.05 324.138C1122.19 324.775 1121.13 325.094 1119.85 325.094C1118.82 325.094 1117.91 324.866 1117.12 324.411C1116.33 323.942 1115.7 323.292 1115.25 322.46C1114.8 321.614 1114.58 320.639 1114.58 319.533ZM1129.62 315.982V321.933C1129.62 322.336 1129.71 322.629 1129.89 322.811C1130.09 322.98 1130.41 323.064 1130.87 323.064H1132.23V324.918H1130.48C1129.48 324.918 1128.71 324.684 1128.17 324.216C1127.64 323.747 1127.37 322.986 1127.37 321.933V315.982H1126.11V314.167H1127.37V311.494H1129.62V314.167H1132.23V315.982H1129.62Z" fill="#222222"/>
<circle cx="1101.52" cy="190.644" r="6.75382" fill="#EE2E5D"/>
</g>
<defs>
<linearGradient id="paint0_linear_1254_2056" x1="74.0126" y1="43.2318" x2="182.6" y2="91.3211" gradientUnits="userSpaceOnUse">
<stop stop-color="#EA384F"/>
<stop offset="1" stop-color="#F4951B"/>
</linearGradient>
<linearGradient id="paint1_linear_1254_2056" x1="94.3623" y1="34.8832" x2="201.289" y2="75.246" gradientUnits="userSpaceOnUse">
<stop stop-color="#EA384F"/>
<stop offset="1" stop-color="#F4951B"/>
</linearGradient>
<linearGradient id="paint2_linear_1254_2056" x1="388.045" y1="43.1215" x2="496.717" y2="90.8562" gradientUnits="userSpaceOnUse">
<stop stop-color="#EA384F"/>
<stop offset="1" stop-color="#F4951B"/>
</linearGradient>
<linearGradient id="paint3_linear_1254_2056" x1="408.415" y1="34.8787" x2="515.314" y2="75.2306" gradientUnits="userSpaceOnUse">
<stop stop-color="#EA384F"/>
<stop offset="1" stop-color="#F4951B"/>
</linearGradient>
<linearGradient id="paint4_linear_1254_2056" x1="701.743" y1="43.2318" x2="810.331" y2="91.3211" gradientUnits="userSpaceOnUse">
<stop stop-color="#EA384F"/>
<stop offset="1" stop-color="#F4951B"/>
</linearGradient>
<linearGradient id="paint5_linear_1254_2056" x1="722.091" y1="34.8832" x2="829.017" y2="75.246" gradientUnits="userSpaceOnUse">
<stop stop-color="#EA384F"/>
<stop offset="1" stop-color="#F4951B"/>
</linearGradient>
<linearGradient id="paint6_linear_1254_2056" x1="1015.48" y1="42.7426" x2="1124.15" y2="90.4773" gradientUnits="userSpaceOnUse">
<stop stop-color="#EA384F"/>
<stop offset="1" stop-color="#F4951B"/>
</linearGradient>
<linearGradient id="paint7_linear_1254_2056" x1="1036.15" y1="34.8787" x2="1143.05" y2="75.2306" gradientUnits="userSpaceOnUse">
<stop stop-color="#EA384F"/>
<stop offset="1" stop-color="#F4951B"/>
</linearGradient>
<clipPath id="clip0_1254_2056">
<rect width="1255.46" height="370.556" fill="white" transform="translate(0.273438 0.789062)"/>
</clipPath>
<clipPath id="clip1_1254_2056">
<rect width="133.674" height="126.466" fill="white" transform="translate(90.3613 0.789062)"/>
</clipPath>
<clipPath id="clip2_1254_2056">
<rect width="133.996" height="126.466" fill="white" transform="translate(404.068 0.789062)"/>
</clipPath>
<clipPath id="clip3_1254_2056">
<rect width="133.674" height="126.466" fill="white" transform="translate(718.094 0.789062)"/>
</clipPath>
<clipPath id="clip4_1254_2056">
<rect width="133.996" height="126.466" fill="white" transform="translate(1031.8 0.789062)"/>
</clipPath>
</defs>
</svg>
