<svg width="1673" height="494" viewBox="0 0 1673 494" fill="none" xmlns="http://www.w3.org/2000/svg">
<g clip-path="url(#clip0_210_60)">
<g clip-path="url(#clip1_210_60)">
<path opacity="0.4" d="M268.655 15.4318L131.998 25.47C129.731 25.5935 127.54 26.3265 125.655 27.5916C123.77 28.8568 122.261 30.6072 121.288 32.6582C120.315 34.7093 119.913 36.9849 120.126 39.2451C120.338 41.5053 121.156 43.6663 122.495 45.5002L208.351 162.954C209.693 164.791 211.506 166.23 213.6 167.12C215.693 168.009 217.988 168.316 220.242 168.008C222.496 167.699 224.624 166.786 226.401 165.366C228.178 163.946 229.538 162.072 230.336 159.942L281.19 32.4439C281.927 30.4787 282.161 28.3606 281.872 26.2818C281.583 24.203 280.78 22.2292 279.535 20.5395C278.29 18.8498 276.642 17.4977 274.742 16.6058C272.843 15.7138 270.75 15.3103 268.655 15.4318Z" fill="url(#paint0_linear_210_60)"/>
<path d="M290.517 52.2957L163.437 1.03475C161.349 0.145618 159.059 -0.163281 156.81 0.140654C154.561 0.44459 152.435 1.35008 150.658 2.76157C148.88 4.17307 147.517 6.0382 146.711 8.16013C145.906 10.2821 145.688 12.5821 146.081 14.8175L171.303 158.086C171.692 160.33 172.682 162.426 174.166 164.152C175.651 165.878 177.575 167.17 179.735 167.89C181.894 168.611 184.209 168.733 186.433 168.244C188.656 167.755 190.706 166.673 192.364 165.113L294.222 73.0721C295.747 71.6359 296.89 69.8424 297.548 67.8538C298.206 65.8651 298.358 63.7439 297.99 61.6818C297.622 59.6197 296.746 57.6817 295.442 56.0429C294.137 54.4042 292.445 53.1163 290.517 52.2957Z" fill="url(#paint1_linear_210_60)"/>
<path d="M201.702 91.5109C207.035 91.5146 212.25 89.9306 216.68 86.9607L232.154 102.441C232.757 103.025 233.563 103.352 234.403 103.352C235.242 103.352 236.049 103.025 236.652 102.441L239.657 99.4358C240.241 98.8332 240.568 98.0266 240.568 97.1871C240.568 96.3475 240.241 95.541 239.657 94.9384L224.123 79.5113C227.45 74.5163 229.013 68.553 228.563 62.5684C228.113 56.5838 225.677 50.921 221.641 46.4793C217.605 42.0376 212.2 39.0716 206.286 38.0523C200.371 37.0331 194.286 38.019 188.996 40.8534C183.706 43.6879 179.514 48.2085 177.087 53.6973C174.66 59.1861 174.136 65.3285 175.599 71.1489C177.062 76.9694 180.428 82.1342 185.162 85.8233C189.896 89.5124 195.726 91.5142 201.728 91.5109H201.702ZM201.702 48.1815C204.943 48.1802 208.112 49.1402 210.807 50.94C213.503 52.7399 215.604 55.2988 216.845 58.293C218.086 61.2872 218.411 64.5821 217.779 67.7611C217.147 70.94 215.586 73.8601 213.294 76.152C211.002 78.4438 208.082 80.0044 204.903 80.6364C201.724 81.2684 198.429 80.9434 195.435 79.7025C192.44 78.4615 189.881 76.3604 188.082 73.665C186.282 70.9695 185.322 67.8008 185.323 64.5596C185.326 60.2169 187.053 56.0531 190.124 52.9824C193.195 49.9116 197.359 48.185 201.702 48.1815Z" fill="white"/>
</g>
<path opacity="0.04" d="M69.2163 278.181C69.8802 277.783 70.876 277.583 72.2038 277.583H96.303C96.9668 277.583 97.498 277.849 97.8963 278.38C98.4274 278.778 98.693 279.31 98.693 279.973V414.61C98.693 415.274 98.4274 415.871 97.8963 416.403C97.498 416.801 96.9668 417 96.303 417H73.0005C72.3366 417 71.7391 416.801 71.208 416.403C70.8096 415.871 70.6105 415.274 70.6105 414.61V305.467C70.6105 305.201 70.4777 304.936 70.2121 304.67C69.9466 304.404 69.681 304.338 69.4155 304.471L49.698 309.848L48.9013 310.048C47.7063 310.048 47.1088 309.317 47.1088 307.857L46.5113 290.728C46.5113 289.401 47.1088 288.471 48.3038 287.94L69.2163 278.181Z" fill="#222222"/>
<path d="M134.873 379.343H131.701V396.295H128.971V379.343H123.849V396.295H121.145V388.287L117.557 388.261C117.731 388.764 117.817 389.293 117.817 389.847C117.817 391.355 117.332 392.569 116.361 393.487C115.391 394.406 114.108 394.865 112.513 394.865C111.369 394.865 110.347 394.64 109.445 394.189C108.561 393.739 107.868 393.115 107.365 392.317C106.88 391.503 106.637 390.575 106.637 389.535H109.185C109.185 390.402 109.471 391.121 110.043 391.693C110.633 392.248 111.395 392.525 112.331 392.525C113.25 392.525 113.978 392.257 114.515 391.719C115.053 391.182 115.321 390.471 115.321 389.587C115.321 389.085 115.226 388.643 115.035 388.261H114.983V388.131C114.429 387.143 113.449 386.649 112.045 386.649H110.979V384.439H112.045C112.999 384.439 113.735 384.188 114.255 383.685C114.793 383.165 115.061 382.55 115.061 381.839C115.061 381.025 114.793 380.375 114.255 379.889C113.735 379.387 113.077 379.135 112.279 379.135C111.447 379.135 110.745 379.378 110.173 379.863C109.619 380.331 109.341 380.964 109.341 381.761H106.819C106.819 380.773 107.045 379.907 107.495 379.161C107.963 378.416 108.613 377.844 109.445 377.445C110.277 377.029 111.222 376.821 112.279 376.821C113.839 376.821 115.096 377.246 116.049 378.095C117.02 378.945 117.505 380.071 117.505 381.475C117.505 382.463 117.245 383.313 116.725 384.023C116.205 384.717 115.451 385.193 114.463 385.453V385.505C114.949 385.609 115.399 385.783 115.815 386.025H121.145V377.055H134.873V379.343ZM151.903 379.343H148.731V396.295H146.027V389.483C145.593 390.107 145.021 390.593 144.311 390.939C143.6 391.286 142.768 391.459 141.815 391.459C139.977 391.459 138.573 390.87 137.603 389.691C136.649 388.513 136.173 386.927 136.173 384.933V379.343H133.469V377.055H151.903V379.343ZM146.027 379.343H138.903V384.933C138.903 386.251 139.197 387.282 139.787 388.027C140.376 388.773 141.277 389.145 142.491 389.145C143.6 389.145 144.467 388.79 145.091 388.079C145.715 387.351 146.027 386.459 146.027 385.401V379.343ZM169.456 379.343V382.567C170.6 382.914 171.502 383.59 172.16 384.595C172.836 385.601 173.174 386.857 173.174 388.365C173.174 389.613 172.932 390.723 172.446 391.693C171.961 392.664 171.242 393.427 170.288 393.981C169.335 394.536 168.182 394.813 166.83 394.813C166.692 394.813 166.397 394.796 165.946 394.761V392.369L166.674 392.421C167.853 392.421 168.772 392.057 169.43 391.329C170.089 390.601 170.418 389.631 170.418 388.417C170.418 387.325 170.15 386.441 169.612 385.765C169.075 385.072 168.321 384.725 167.35 384.725C166.31 384.725 165.522 385.115 164.984 385.895C164.464 386.658 164.204 387.689 164.204 388.989V389.457H161.916V388.989C161.916 387.707 161.665 386.675 161.162 385.895C160.66 385.115 159.906 384.725 158.9 384.725C157.895 384.725 157.115 385.063 156.56 385.739C156.006 386.415 155.728 387.308 155.728 388.417C155.728 389.631 156.058 390.601 156.716 391.329C157.375 392.057 158.294 392.421 159.472 392.421L160.2 392.369V394.761C159.75 394.796 159.455 394.813 159.316 394.813C157.964 394.813 156.812 394.536 155.858 393.981C154.905 393.427 154.186 392.664 153.7 391.693C153.215 390.723 152.972 389.613 152.972 388.365C152.972 387.1 153.206 386.017 153.674 385.115C154.16 384.214 154.818 383.529 155.65 383.061C156.5 382.576 157.462 382.333 158.536 382.333C159.767 382.333 160.746 382.671 161.474 383.347C162.22 384.006 162.74 384.838 163.034 385.843H163.112C163.372 384.977 163.797 384.231 164.386 383.607C164.993 382.983 165.79 382.585 166.778 382.411V379.343H150.658V377.055H175.462V379.343H169.456ZM166.878 377.159C166.029 375.825 165.336 374.871 164.798 374.299C164.261 373.71 163.741 373.329 163.238 373.155C162.718 372.965 162.008 372.869 161.106 372.869H159.936V370.633H161.054C162.389 370.651 163.446 370.798 164.226 371.075C164.989 371.335 165.769 371.916 166.566 372.817C167.346 373.719 168.308 375.166 169.452 377.159H166.878ZM186.538 388.235V390.783C186.538 391.789 186.772 392.603 187.24 393.227C187.725 393.834 188.462 394.137 189.45 394.137C190.317 394.137 190.993 393.86 191.478 393.305C191.963 392.733 192.206 391.988 192.206 391.069V390.705H194.858V391.095C194.858 392.777 194.381 394.103 193.428 395.073C192.475 396.027 191.175 396.503 189.528 396.503C187.708 396.503 186.295 395.975 185.29 394.917C184.285 393.843 183.782 392.404 183.782 390.601V385.921H187.526C188.947 385.921 190.109 385.618 191.01 385.011C191.929 384.405 192.388 383.477 192.388 382.229C192.388 381.293 192.137 380.557 191.634 380.019C191.131 379.465 190.447 379.187 189.58 379.187C188.713 379.187 188.029 379.465 187.526 380.019C187.023 380.557 186.772 381.293 186.772 382.229C186.772 382.455 186.789 382.81 186.824 383.295H184.12C184.051 382.775 184.016 382.394 184.016 382.151C184.016 381.094 184.241 380.167 184.692 379.369C185.143 378.555 185.784 377.931 186.616 377.497C187.465 377.047 188.453 376.821 189.58 376.821C191.261 376.821 192.605 377.315 193.61 378.303C194.633 379.274 195.144 380.643 195.144 382.411C195.144 384.301 194.52 385.748 193.272 386.753C192.041 387.741 190.447 388.235 188.488 388.235H186.538ZM203.724 377.055V379.343H200.552V396.295H197.796V377.055H203.724ZM211.554 377.055V379.343H208.382V396.295H205.652V379.343H202.48V377.055H205.73C204.898 375.755 204.214 374.819 203.676 374.247C203.156 373.675 202.645 373.303 202.142 373.129C201.622 372.956 200.92 372.869 200.036 372.869H198.866V370.633H199.984C201.302 370.651 202.342 370.789 203.104 371.049C203.884 371.309 204.664 371.89 205.444 372.791C206.242 373.675 207.204 375.097 208.33 377.055H211.554ZM230.346 379.343H227.226V396.295H224.496V391.017C223.959 391.919 223.196 392.629 222.208 393.149C221.238 393.652 220.111 393.903 218.828 393.903C217.164 393.903 215.795 393.505 214.72 392.707C213.646 391.91 213.108 390.783 213.108 389.327C213.108 388.27 213.42 387.412 214.044 386.753C214.668 386.095 215.396 385.696 216.228 385.557V385.479C215.292 385.254 214.504 384.777 213.862 384.049C213.238 383.321 212.926 382.368 212.926 381.189C212.926 379.889 213.351 378.841 214.2 378.043C215.05 377.229 216.15 376.821 217.502 376.821C218.872 376.821 219.946 377.211 220.726 377.991C221.524 378.771 221.922 379.785 221.922 381.033C221.922 381.259 221.905 381.562 221.87 381.943H219.816L219.842 381.345C219.842 380.704 219.643 380.175 219.244 379.759C218.846 379.326 218.291 379.109 217.58 379.109C216.87 379.109 216.306 379.335 215.89 379.785C215.474 380.236 215.266 380.799 215.266 381.475C215.266 382.394 215.613 383.105 216.306 383.607C217 384.11 217.91 384.361 219.036 384.361H220.544V386.571H219.14C218.1 386.571 217.294 386.797 216.722 387.247C216.168 387.681 215.89 388.279 215.89 389.041C215.89 389.891 216.22 390.541 216.878 390.991C217.537 391.425 218.404 391.641 219.478 391.641C220.449 391.641 221.307 391.433 222.052 391.017C222.815 390.584 223.413 389.986 223.846 389.223C224.28 388.443 224.496 387.559 224.496 386.571V377.055H230.346V379.343ZM232.16 396.295V379.343H228.988V377.055H238.062V379.343H234.89V396.295H232.16ZM140.012 416.709C140.012 417.767 139.76 418.651 139.258 419.361C138.755 420.055 138.096 420.479 137.282 420.635V420.687C138.339 420.93 139.18 421.511 139.804 422.429C140.445 423.331 140.766 424.388 140.766 425.601C140.766 426.693 140.532 427.664 140.064 428.513C139.613 429.363 138.954 430.03 138.088 430.515C137.221 430.983 136.19 431.217 134.994 431.217C133.78 431.217 132.688 430.975 131.718 430.489C130.764 429.987 130.019 429.293 129.482 428.409C128.944 427.508 128.676 426.477 128.676 425.315H131.276C131.276 426.303 131.614 427.127 132.29 427.785C132.983 428.444 133.841 428.773 134.864 428.773C135.869 428.773 136.675 428.461 137.282 427.837C137.888 427.213 138.192 426.399 138.192 425.393C138.192 424.457 137.897 423.651 137.308 422.975C136.718 422.282 135.843 421.935 134.682 421.935H133.382V419.543H134.318C135.306 419.543 136.06 419.275 136.58 418.737C137.117 418.2 137.386 417.472 137.386 416.553V414.343H126.804V412.055H142.924V414.343H140.012V416.709ZM160.117 414.343H156.945V431.295H154.241V424.483C153.807 425.107 153.235 425.593 152.525 425.939C151.814 426.286 150.982 426.459 150.029 426.459C148.191 426.459 146.787 425.87 145.817 424.691C144.863 423.513 144.387 421.927 144.387 419.933V414.343H141.683V412.055H160.117V414.343ZM154.241 414.343H147.117V419.933C147.117 421.251 147.411 422.282 148.001 423.027C148.59 423.773 149.491 424.145 150.705 424.145C151.814 424.145 152.681 423.79 153.305 423.079C153.929 422.351 154.241 421.459 154.241 420.401V414.343ZM173.796 414.343V419.413C174.177 418.668 174.723 418.079 175.434 417.645C176.162 417.195 177.037 416.969 178.06 416.969C179.117 416.969 180.053 417.229 180.868 417.749C181.683 418.252 182.315 418.954 182.766 419.855C183.217 420.739 183.442 421.753 183.442 422.897C183.442 424.128 183.208 425.194 182.74 426.095C182.272 426.979 181.631 427.664 180.816 428.149C180.001 428.617 179.074 428.851 178.034 428.851C177.41 428.851 176.855 428.791 176.37 428.669V426.511C176.63 426.581 176.951 426.615 177.332 426.615C178.303 426.615 179.1 426.295 179.724 425.653C180.365 424.995 180.686 424.093 180.686 422.949C180.686 421.875 180.357 420.999 179.698 420.323C179.057 419.647 178.242 419.309 177.254 419.309C176.11 419.309 175.243 419.691 174.654 420.453C174.082 421.216 173.796 422.126 173.796 423.183V431.295H171.17V426.537C170.771 427.283 170.191 427.881 169.428 428.331C168.665 428.782 167.747 429.007 166.672 429.007C165.597 429.007 164.644 428.756 163.812 428.253C162.98 427.751 162.33 427.049 161.862 426.147C161.411 425.229 161.186 424.163 161.186 422.949C161.186 421.753 161.42 420.705 161.888 419.803C162.356 418.902 163.015 418.209 163.864 417.723C164.713 417.221 165.684 416.969 166.776 416.969C167.816 416.969 168.709 417.186 169.454 417.619C170.199 418.053 170.771 418.633 171.17 419.361V414.343H158.872V412.055H185.73V414.343H173.796ZM167.556 426.719C168.336 426.719 168.995 426.537 169.532 426.173C170.087 425.809 170.494 425.341 170.754 424.769C171.031 424.197 171.17 423.608 171.17 423.001C171.17 422.013 170.858 421.155 170.234 420.427C169.61 419.682 168.717 419.309 167.556 419.309C166.533 419.309 165.675 419.647 164.982 420.323C164.289 420.982 163.942 421.866 163.942 422.975C163.942 424.119 164.28 425.029 164.956 425.705C165.632 426.381 166.499 426.719 167.556 426.719ZM189.821 422.793V426.043C189.821 426.997 190.037 427.759 190.471 428.331C190.904 428.903 191.545 429.189 192.395 429.189C193.175 429.189 193.79 428.929 194.241 428.409C194.709 427.872 194.943 427.161 194.943 426.277V425.705H197.569V426.199C197.569 427.829 197.109 429.129 196.191 430.099C195.289 431.053 194.041 431.529 192.447 431.529C190.731 431.529 189.413 431.018 188.495 429.995C187.593 428.955 187.143 427.595 187.143 425.913V420.557H189.847C192.672 420.557 194.085 419.205 194.085 416.501V414.343H184.517V412.055H199.649V414.343H196.789V416.501C196.789 418.512 196.303 420.063 195.333 421.155C194.362 422.247 192.854 422.793 190.809 422.793H189.821ZM222.195 414.343H219.023V431.295H216.293V414.343H211.691V421.467C211.691 423.062 211.241 424.353 210.339 425.341C209.438 426.329 208.155 426.823 206.491 426.823C204.845 426.823 203.571 426.329 202.669 425.341C201.768 424.336 201.317 423.045 201.317 421.467V414.343H198.405V412.055H222.195V414.343ZM209.013 414.343H203.995V421.727C203.995 422.559 204.221 423.235 204.671 423.755C205.139 424.258 205.755 424.509 206.517 424.509C207.297 424.509 207.904 424.258 208.337 423.755C208.788 423.235 209.013 422.559 209.013 421.727V414.343ZM216.428 412.159C215.579 410.825 214.886 409.871 214.348 409.299C213.811 408.71 213.291 408.329 212.788 408.155C212.268 407.965 211.558 407.869 210.656 407.869H209.486V405.633H210.604C211.939 405.651 212.996 405.798 213.776 406.075C214.539 406.335 215.319 406.916 216.116 407.817C216.896 408.719 217.858 410.166 219.002 412.159H216.428Z" fill="#222222"/>
<path d="M93.1676 253C93.1676 255.946 95.5555 258.333 98.501 258.333C101.446 258.333 103.834 255.946 103.834 253C103.834 250.054 101.446 247.667 98.501 247.667C95.5555 247.667 93.1676 250.054 93.1676 253ZM1567.17 253C1567.17 255.945 1569.56 258.333 1572.5 258.333C1575.45 258.333 1577.83 255.945 1577.83 253C1577.83 250.054 1575.45 247.667 1572.5 247.667C1569.56 247.667 1567.17 250.054 1567.17 253ZM98.501 254L104.966 254L104.966 252L98.501 252L98.501 254ZM117.896 254L130.826 254L130.826 252L117.896 252L117.896 254ZM143.755 254L156.685 254L156.685 252L143.755 252L143.755 254ZM169.615 254L182.545 254L182.545 252L169.615 252L169.615 254ZM195.475 254L208.404 254L208.404 252L195.475 252L195.475 254ZM221.334 254L234.264 254L234.264 252L221.334 252L221.334 254ZM247.194 254L260.124 254L260.124 252L247.194 252L247.194 254ZM273.054 254L285.983 254L285.983 252L273.054 252L273.054 254ZM298.913 254L311.843 254L311.843 252L298.913 252L298.913 254ZM324.773 254L337.703 254L337.703 252L324.773 252L324.773 254ZM350.633 254L363.562 254L363.562 252L350.633 252L350.633 254ZM376.492 254L389.422 254L389.422 252L376.492 252L376.492 254ZM402.352 254L415.282 254L415.282 252L402.352 252L402.352 254ZM428.211 254L441.141 254L441.141 252L428.211 252L428.211 254ZM454.071 254L467.001 254L467.001 252L454.071 252L454.071 254ZM479.931 254L492.86 254L492.86 252L479.931 252L479.931 254ZM505.79 254L518.72 254L518.72 252L505.79 252L505.79 254ZM531.65 254L544.58 254L544.58 252L531.65 252L531.65 254ZM557.51 254L570.439 254L570.439 252L557.51 252L557.51 254ZM583.369 254L596.299 254L596.299 252L583.369 252L583.369 254ZM609.229 254L622.159 254L622.159 252L609.229 252L609.229 254ZM635.088 254L648.018 254L648.018 252L635.088 252L635.088 254ZM660.948 254L673.878 254L673.878 252L660.948 252L660.948 254ZM686.808 254L699.737 254L699.737 252L686.808 252L686.808 254ZM712.667 254L725.597 254L725.597 252L712.667 252L712.667 254ZM738.527 254L751.457 254L751.457 252L738.527 252L738.527 254ZM764.386 254L777.316 254L777.316 252L764.386 252L764.386 254ZM790.246 254L803.176 254L803.176 252L790.246 252L790.246 254ZM816.106 254L829.036 254L829.036 252L816.106 252L816.106 254ZM841.965 254L854.895 254L854.895 252L841.965 252L841.965 254ZM867.825 254L880.755 254L880.755 252L867.825 252L867.825 254ZM893.685 254L906.614 254L906.614 252L893.685 252L893.685 254ZM919.544 254L932.474 254L932.474 252L919.544 252L919.544 254ZM945.404 254L958.334 254L958.334 252L945.404 252L945.404 254ZM971.263 254L984.193 254L984.193 252L971.263 252L971.263 254ZM997.123 254L1010.05 254L1010.05 252L997.123 252L997.123 254ZM1022.98 254L1035.91 254L1035.91 252L1022.98 252L1022.98 254ZM1048.84 254L1061.77 254L1061.77 252L1048.84 252L1048.84 254ZM1074.7 254L1087.63 254L1087.63 252L1074.7 252L1074.7 254ZM1100.56 254L1113.49 254L1113.49 252L1100.56 252L1100.56 254ZM1126.42 254L1139.35 254L1139.35 252L1126.42 252L1126.42 254ZM1152.28 254L1165.21 254L1165.21 252L1152.28 252L1152.28 254ZM1178.14 254L1191.07 254L1191.07 252L1178.14 252L1178.14 254ZM1204 254L1216.93 254L1216.93 252L1204 252L1204 254ZM1229.86 254L1242.79 254L1242.79 252L1229.86 252L1229.86 254ZM1255.72 254L1268.65 254L1268.65 252L1255.72 252L1255.72 254ZM1281.58 254L1294.51 254L1294.51 252L1281.58 252L1281.58 254ZM1307.44 254L1320.37 254L1320.37 252L1307.44 252L1307.44 254ZM1333.3 254L1346.23 254L1346.23 252L1333.3 252L1333.3 254ZM1359.16 254L1372.09 254L1372.09 252L1359.16 252L1359.16 254ZM1385.02 254L1397.95 254L1397.95 252L1385.02 252L1385.02 254ZM1410.88 254L1423.81 254L1423.81 252L1410.88 252L1410.88 254ZM1436.74 254L1449.67 254L1449.67 252L1436.74 252L1436.74 254ZM1462.6 254L1475.53 254L1475.53 252L1462.6 252L1462.6 254ZM1488.46 254L1501.39 254L1501.39 252L1488.46 252L1488.46 254ZM1514.32 254L1527.25 254L1527.25 252L1514.32 252L1514.32 254ZM1540.18 254L1553.1 254L1553.1 252L1540.18 252L1540.18 254ZM1566.03 254L1572.5 254L1572.5 252L1566.03 252L1566.03 254Z" fill="#FAA61A"/>
<circle cx="204.5" cy="253" r="9" fill="#EE2E5D"/>
<g clip-path="url(#clip2_210_60)">
<path opacity="0.4" d="M686.58 15.0346L550.172 27.7635C547.909 27.9323 545.733 28.7086 543.875 30.0106C542.017 31.3126 540.544 33.092 539.612 35.1612C538.68 37.2304 538.324 39.5127 538.581 41.7675C538.838 44.0222 539.699 46.1658 541.072 47.9723L629.188 163.707C630.565 165.516 632.406 166.919 634.516 167.767C636.626 168.614 638.926 168.875 641.172 168.522C643.418 168.169 645.526 167.215 647.274 165.761C649.022 164.307 650.344 162.407 651.1 160.262L699.4 31.7921C700.095 29.8169 700.288 27.6995 699.96 25.6311C699.632 23.5628 698.794 21.6087 697.522 19.9455C696.25 18.2822 694.583 16.9623 692.673 16.1049C690.762 15.2475 688.668 14.8796 686.58 15.0346Z" fill="url(#paint2_linear_210_60)"/>
<path d="M708.981 52.2962L581.928 1.03932C579.84 0.149671 577.551 -0.159754 575.303 0.143711C573.054 0.447176 570.928 1.35227 569.151 2.76345C567.374 4.17462 566.011 6.03952 565.205 8.16126C564.4 10.283 564.182 12.5829 564.575 14.8181L589.788 158.084C590.184 160.324 591.178 162.414 592.664 164.135C594.151 165.856 596.076 167.142 598.234 167.858C600.392 168.574 602.704 168.694 604.925 168.203C607.145 167.712 609.192 166.631 610.847 165.072L712.681 73.0693C714.204 71.6329 715.346 69.8399 716.003 67.852C716.66 65.8641 716.812 63.7439 716.445 61.6827C716.077 59.6215 715.203 57.6841 713.9 56.0454C712.597 54.4067 710.907 53.1182 708.981 52.2962Z" fill="url(#paint3_linear_210_60)"/>
<path d="M619.663 46.9356H602.362C601.454 46.9348 600.554 47.1131 599.715 47.4603C598.876 47.8075 598.113 48.3169 597.471 48.9592C596.828 49.6016 596.319 50.3643 595.972 51.2037C595.625 52.0432 595.446 52.9428 595.447 53.8512V102.293C595.446 103.202 595.625 104.101 595.972 104.941C596.319 105.78 596.828 106.543 597.471 107.185C598.113 107.828 598.876 108.337 599.715 108.684C600.554 109.031 601.454 109.21 602.362 109.209H619.663V116.131H626.577V40.02H619.663V46.9356ZM619.663 98.8289H602.362L619.663 78.069V98.8289ZM650.793 46.9356H633.499V53.8512H650.793V98.8289L633.499 78.069V109.209H650.793C651.701 109.21 652.601 109.032 653.441 108.684C654.281 108.337 655.044 107.828 655.687 107.186C656.329 106.543 656.839 105.781 657.187 104.941C657.535 104.102 657.714 103.202 657.714 102.293V53.8512C657.714 52.9425 657.535 52.0427 657.187 51.2032C656.839 50.3638 656.329 49.6011 655.687 48.9588C655.044 48.3166 654.281 47.8073 653.441 47.4602C652.601 47.113 651.701 46.9348 650.793 46.9356Z" fill="white"/>
</g>
<path opacity="0.04" d="M462.938 391.706C462.672 391.971 462.606 392.237 462.738 392.503C462.871 392.768 463.137 392.901 463.535 392.901H517.509C518.173 392.901 518.704 393.166 519.103 393.698C519.634 394.096 519.899 394.627 519.899 395.291V414.61C519.899 415.274 519.634 415.871 519.103 416.403C518.704 416.801 518.173 417 517.509 417H427.884C427.22 417 426.623 416.801 426.092 416.403C425.693 415.871 425.494 415.274 425.494 414.61V396.287C425.494 395.092 425.893 394.096 426.689 393.299C433.195 386.926 439.834 380.021 446.606 372.586C453.378 365.018 457.627 360.304 459.353 358.445C463.07 354.063 466.855 349.881 470.705 345.898C482.788 332.487 488.829 322.529 488.829 316.023C488.829 311.375 487.17 307.591 483.85 304.67C480.531 301.616 476.215 300.089 470.904 300.089C465.593 300.089 461.278 301.616 457.958 304.67C454.639 307.591 452.979 311.508 452.979 316.421V321.4C452.979 322.064 452.714 322.661 452.183 323.193C451.784 323.591 451.253 323.79 450.589 323.79H427.088C426.424 323.79 425.826 323.591 425.295 323.193C424.897 322.661 424.698 322.064 424.698 321.4V312.039C425.096 304.869 427.353 298.562 431.469 293.118C435.585 287.542 441.029 283.293 447.801 280.372C454.705 277.451 462.406 275.99 470.904 275.99C480.331 275.99 488.497 277.783 495.402 281.368C502.439 284.82 507.816 289.533 511.534 295.508C515.385 301.483 517.31 308.122 517.31 315.425C517.31 321.002 515.916 326.711 513.128 332.553C510.339 338.396 506.157 344.703 500.58 351.474C496.464 356.653 492.016 361.764 487.236 366.81C482.456 371.856 475.352 379.158 465.925 388.718L462.938 391.706Z" fill="#222222"/>
<path d="M545.752 379.343H542.58V396.295H539.85V385.739H536.21C534.72 385.739 533.55 386.095 532.7 386.805C531.851 387.516 531.426 388.547 531.426 389.899C531.426 391.217 531.799 392.248 532.544 392.993C533.307 393.721 534.399 394.085 535.82 394.085H536.366V396.243H535.43C533.385 396.243 531.747 395.706 530.516 394.631C529.286 393.539 528.67 391.945 528.67 389.847C528.67 387.698 529.346 386.086 530.698 385.011C532.05 383.937 533.844 383.399 536.08 383.399H539.85V379.343H526.356V377.055H545.752V379.343ZM545.213 399.805C545.213 401.227 544.745 402.345 543.809 403.159C542.855 403.974 541.555 404.381 539.909 404.381C538.106 404.381 536.615 403.913 535.437 402.977C534.241 402.059 533.669 400.655 533.721 398.765H536.139C536.087 399.927 536.407 400.793 537.101 401.365C537.777 401.955 538.687 402.249 539.831 402.249C540.784 402.249 541.538 402.033 542.093 401.599C542.63 401.166 542.899 400.559 542.899 399.779C542.899 399.155 542.691 398.627 542.275 398.193C541.859 397.777 541.287 397.569 540.559 397.569H539.857V395.437H540.559C542.049 395.437 543.202 395.836 544.017 396.633C544.814 397.431 545.213 398.488 545.213 399.805ZM566.611 379.343H563.439V396.295H560.709V386.649H556.367V388.443C556.367 390.211 555.933 391.581 555.067 392.551C554.217 393.505 552.987 393.981 551.375 393.981C549.849 393.981 548.627 393.539 547.709 392.655C546.79 391.771 546.331 390.61 546.331 389.171C546.331 387.663 546.816 386.493 547.787 385.661C548.775 384.829 550.04 384.413 551.583 384.413H553.819V379.343H544.511V377.055H566.611V379.343ZM560.709 379.343H556.367V384.413H560.709V379.343ZM553.819 386.649H551.661C550.829 386.649 550.153 386.875 549.633 387.325C549.113 387.776 548.853 388.391 548.853 389.171C548.853 389.934 549.087 390.541 549.555 390.991C550.023 391.442 550.621 391.667 551.349 391.667C552.129 391.667 552.735 391.399 553.169 390.861C553.602 390.307 553.819 389.544 553.819 388.573V386.649ZM585.87 379.343H582.698V396.295H579.968V391.329C579.465 392.109 578.789 392.725 577.94 393.175C577.108 393.609 576.163 393.825 575.106 393.825C574.083 393.825 573.156 393.626 572.324 393.227C571.509 392.811 570.859 392.222 570.374 391.459C569.889 390.679 569.646 389.761 569.646 388.703C569.646 387.871 569.811 387.126 570.14 386.467C570.487 385.809 570.981 385.271 571.622 384.855H567.306V382.697H576.796V384.855H575.834C574.759 384.855 573.884 385.176 573.208 385.817C572.549 386.441 572.22 387.256 572.22 388.261C572.22 389.284 572.567 390.09 573.26 390.679C573.971 391.269 574.846 391.563 575.886 391.563C577.099 391.546 578.079 391.113 578.824 390.263C579.587 389.414 579.968 388.348 579.968 387.065V379.343H565.382V377.055H585.87V379.343ZM593.702 377.055V379.343H590.53V396.295H587.8V379.343H584.628V377.055H587.878V375.989C587.878 374.984 587.687 374.143 587.306 373.467C586.925 372.774 586.249 372.427 585.278 372.427C584.307 372.427 583.623 372.774 583.224 373.467C582.825 374.143 582.626 374.984 582.626 375.989V377.679H579.974V376.119C579.974 374.299 580.399 372.852 581.248 371.777C582.097 370.685 583.441 370.139 585.278 370.139C587.15 370.139 588.493 370.677 589.308 371.751C590.123 372.826 590.53 374.282 590.53 376.119V377.055H593.702ZM618.598 379.343H615.426V396.295H612.696V385.739H609.056C607.566 385.739 606.396 386.095 605.546 386.805C604.697 387.516 604.272 388.547 604.272 389.899C604.272 391.217 604.645 392.248 605.39 392.993C606.153 393.721 607.245 394.085 608.666 394.085H609.212V396.243H608.276C606.231 396.243 604.593 395.706 603.362 394.631C602.132 393.539 601.516 391.945 601.516 389.847C601.516 387.698 602.192 386.086 603.544 385.011C604.896 383.937 606.69 383.399 608.926 383.399H612.696V379.343H599.202V377.055H618.598V379.343ZM618.058 399.805C618.058 401.227 617.59 402.345 616.654 403.159C615.701 403.974 614.401 404.381 612.754 404.381C610.952 404.381 609.461 403.913 608.282 402.977C607.086 402.059 606.514 400.655 606.566 398.765H608.984C608.932 399.927 609.253 400.793 609.946 401.365C610.622 401.955 611.532 402.249 612.676 402.249C613.63 402.249 614.384 402.033 614.938 401.599C615.476 401.166 615.744 400.559 615.744 399.779C615.744 399.155 615.536 398.627 615.12 398.193C614.704 397.777 614.132 397.569 613.404 397.569H612.702V395.437H613.404C614.895 395.437 616.048 395.836 616.862 396.633C617.66 397.431 618.058 398.488 618.058 399.805ZM636.154 379.343V382.567C637.298 382.914 638.2 383.59 638.858 384.595C639.534 385.601 639.872 386.857 639.872 388.365C639.872 389.613 639.63 390.723 639.144 391.693C638.659 392.664 637.94 393.427 636.986 393.981C636.033 394.536 634.88 394.813 633.528 394.813C633.39 394.813 633.095 394.796 632.644 394.761V392.369L633.372 392.421C634.551 392.421 635.47 392.057 636.128 391.329C636.787 390.601 637.116 389.631 637.116 388.417C637.116 387.325 636.848 386.441 636.31 385.765C635.773 385.072 635.019 384.725 634.048 384.725C633.008 384.725 632.22 385.115 631.682 385.895C631.162 386.658 630.902 387.689 630.902 388.989V389.457H628.614V388.989C628.614 387.707 628.363 386.675 627.86 385.895C627.358 385.115 626.604 384.725 625.598 384.725C624.593 384.725 623.813 385.063 623.258 385.739C622.704 386.415 622.426 387.308 622.426 388.417C622.426 389.631 622.756 390.601 623.414 391.329C624.073 392.057 624.992 392.421 626.17 392.421L626.898 392.369V394.761C626.448 394.796 626.153 394.813 626.014 394.813C624.662 394.813 623.51 394.536 622.556 393.981C621.603 393.427 620.884 392.664 620.398 391.693C619.913 390.723 619.67 389.613 619.67 388.365C619.67 387.1 619.904 386.017 620.372 385.115C620.858 384.214 621.516 383.529 622.348 383.061C623.198 382.576 624.16 382.333 625.234 382.333C626.465 382.333 627.444 382.671 628.172 383.347C628.918 384.006 629.438 384.838 629.732 385.843H629.81C630.07 384.977 630.495 384.231 631.084 383.607C631.691 382.983 632.488 382.585 633.476 382.411V379.343H617.356V377.055H642.16V379.343H636.154ZM662.966 379.343H659.794V396.295H657.064V385.531H652.54C653.32 386.433 653.71 387.516 653.71 388.781C653.71 389.769 653.485 390.636 653.034 391.381C652.584 392.109 651.96 392.664 651.162 393.045C650.382 393.427 649.507 393.617 648.536 393.617C647.531 393.617 646.612 393.409 645.78 392.993C644.948 392.56 644.29 391.953 643.804 391.173C643.336 390.393 643.102 389.483 643.102 388.443C643.102 387.351 643.345 386.415 643.83 385.635C644.333 384.855 645.009 384.266 645.858 383.867C646.725 383.451 647.696 383.243 648.77 383.243H657.064V379.343H640.944V377.055H662.966V379.343ZM648.588 391.303C649.455 391.303 650.157 391.035 650.694 390.497C651.249 389.96 651.526 389.267 651.526 388.417C651.526 387.585 651.249 386.901 650.694 386.363C650.14 385.809 649.438 385.531 648.588 385.531C647.704 385.531 646.976 385.809 646.404 386.363C645.85 386.901 645.572 387.594 645.572 388.443C645.572 389.293 645.85 389.986 646.404 390.523C646.959 391.043 647.687 391.303 648.588 391.303ZM664.886 396.295V379.343H661.714V377.055H670.788V379.343H667.616V396.295H664.886ZM691.212 379.343V384.413C691.593 383.668 692.139 383.079 692.85 382.645C693.578 382.195 694.453 381.969 695.476 381.969C696.533 381.969 697.469 382.229 698.284 382.749C699.099 383.252 699.731 383.954 700.182 384.855C700.633 385.739 700.858 386.753 700.858 387.897C700.858 389.128 700.624 390.194 700.156 391.095C699.688 391.979 699.047 392.664 698.232 393.149C697.417 393.617 696.49 393.851 695.45 393.851C694.826 393.851 694.271 393.791 693.786 393.669V391.511C694.046 391.581 694.367 391.615 694.748 391.615C695.719 391.615 696.516 391.295 697.14 390.653C697.781 389.995 698.102 389.093 698.102 387.949C698.102 386.875 697.773 385.999 697.114 385.323C696.473 384.647 695.658 384.309 694.67 384.309C693.526 384.309 692.659 384.691 692.07 385.453C691.498 386.216 691.212 387.126 691.212 388.183V396.295H688.586V391.537C688.187 392.283 687.607 392.881 686.844 393.331C686.081 393.782 685.163 394.007 684.088 394.007C683.013 394.007 682.06 393.756 681.228 393.253C680.396 392.751 679.746 392.049 679.278 391.147C678.827 390.229 678.602 389.163 678.602 387.949C678.602 386.753 678.836 385.705 679.304 384.803C679.772 383.902 680.431 383.209 681.28 382.723C682.129 382.221 683.1 381.969 684.192 381.969C685.232 381.969 686.125 382.186 686.87 382.619C687.615 383.053 688.187 383.633 688.586 384.361V379.343H676.288V377.055H703.146V379.343H691.212ZM684.972 391.719C685.752 391.719 686.411 391.537 686.948 391.173C687.503 390.809 687.91 390.341 688.17 389.769C688.447 389.197 688.586 388.608 688.586 388.001C688.586 387.013 688.274 386.155 687.65 385.427C687.026 384.682 686.133 384.309 684.972 384.309C683.949 384.309 683.091 384.647 682.398 385.323C681.705 385.982 681.358 386.866 681.358 387.975C681.358 389.119 681.696 390.029 682.372 390.705C683.048 391.381 683.915 391.719 684.972 391.719ZM707.237 387.793V391.043C707.237 391.997 707.453 392.759 707.887 393.331C708.32 393.903 708.961 394.189 709.811 394.189C710.591 394.189 711.206 393.929 711.657 393.409C712.125 392.872 712.359 392.161 712.359 391.277V390.705H714.985V391.199C714.985 392.829 714.525 394.129 713.607 395.099C712.705 396.053 711.457 396.529 709.863 396.529C708.147 396.529 706.829 396.018 705.911 394.995C705.009 393.955 704.559 392.595 704.559 390.913V385.557H707.263C710.088 385.557 711.501 384.205 711.501 381.501V379.343H701.933V377.055H717.065V379.343H714.205V381.501C714.205 383.512 713.719 385.063 712.749 386.155C711.778 387.247 710.27 387.793 708.225 387.793H707.237ZM718.993 396.295V379.343H715.821V377.055H724.895V379.343H721.723V396.295H718.993ZM612.285 405.035C616.047 405.035 618.889 405.668 620.813 406.933C622.755 408.181 623.725 409.984 623.725 412.341V412.783H621.047V412.419C621.047 408.987 618.118 407.271 612.259 407.271C609.451 407.271 607.345 407.635 605.941 408.363C604.555 409.091 603.835 410.322 603.783 412.055H606.981V414.343H603.809V431.295H601.079V414.343H597.907V412.055H601.079C601.149 409.681 602.111 407.921 603.965 406.777C605.82 405.616 608.593 405.035 612.285 405.035ZM627.75 414.343H624.578V431.295H621.848V420.531H617.324C618.104 421.433 618.494 422.516 618.494 423.781C618.494 424.769 618.268 425.636 617.818 426.381C617.367 427.109 616.743 427.664 615.946 428.045C615.166 428.427 614.29 428.617 613.32 428.617C612.314 428.617 611.396 428.409 610.564 427.993C609.732 427.56 609.073 426.953 608.588 426.173C608.12 425.393 607.886 424.483 607.886 423.443C607.886 422.351 608.128 421.415 608.614 420.635C609.116 419.855 609.792 419.266 610.642 418.867C611.508 418.451 612.479 418.243 613.554 418.243H621.848V414.343H605.728V412.055H627.75V414.343ZM613.372 426.303C614.238 426.303 614.94 426.035 615.478 425.497C616.032 424.96 616.31 424.267 616.31 423.417C616.31 422.585 616.032 421.901 615.478 421.363C614.923 420.809 614.221 420.531 613.372 420.531C612.488 420.531 611.76 420.809 611.188 421.363C610.633 421.901 610.356 422.594 610.356 423.443C610.356 424.293 610.633 424.986 611.188 425.523C611.742 426.043 612.47 426.303 613.372 426.303ZM645.217 412.055V414.343H642.045V431.295H639.393V426.589C638.942 427.352 638.318 427.959 637.521 428.409C636.741 428.843 635.805 429.059 634.713 429.059C633.534 429.059 632.494 428.799 631.593 428.279C630.709 427.759 630.024 427.031 629.539 426.095C629.054 425.159 628.811 424.085 628.811 422.871C628.811 421.71 629.054 420.679 629.539 419.777C630.042 418.859 630.735 418.148 631.619 417.645C632.52 417.125 633.552 416.865 634.713 416.865C635.788 416.865 636.724 417.082 637.521 417.515C638.318 417.949 638.942 418.547 639.393 419.309V414.343H626.497V412.055H645.217ZM635.415 426.875C636.282 426.875 637.01 426.685 637.599 426.303C638.206 425.922 638.656 425.437 638.951 424.847C639.246 424.258 639.393 423.643 639.393 423.001V422.975C639.393 422.317 639.246 421.693 638.951 421.103C638.656 420.497 638.206 420.011 637.599 419.647C637.01 419.266 636.282 419.075 635.415 419.075C634.288 419.075 633.352 419.431 632.607 420.141C631.862 420.852 631.489 421.788 631.489 422.949C631.489 424.145 631.853 425.099 632.581 425.809C633.326 426.52 634.271 426.875 635.415 426.875ZM652.13 419.075C651.35 419.075 650.7 419.214 650.18 419.491C649.66 419.769 649.4 420.254 649.4 420.947C649.4 421.606 649.625 422.083 650.076 422.377C650.527 422.672 651.107 422.819 651.818 422.819H652.988C654.496 422.819 655.761 423.175 656.784 423.885C657.807 424.596 658.318 425.723 658.318 427.265C658.318 428.617 657.833 429.701 656.862 430.515C655.891 431.313 654.513 431.711 652.728 431.711C650.804 431.711 649.253 431.261 648.074 430.359C646.913 429.441 646.315 428.219 646.28 426.693H648.984C649.001 427.577 649.331 428.288 649.972 428.825C650.613 429.363 651.506 429.631 652.65 429.631C653.638 429.631 654.401 429.415 654.938 428.981C655.475 428.531 655.744 427.95 655.744 427.239C655.744 426.373 655.441 425.749 654.834 425.367C654.227 424.969 653.447 424.769 652.494 424.769H651.48C650.18 424.769 649.053 424.475 648.1 423.885C647.147 423.279 646.67 422.273 646.67 420.869C646.67 419.587 647.121 418.642 648.022 418.035C648.923 417.429 650.041 417.125 651.376 417.125H654.028V414.343H643.966V412.055H660.06V414.343H656.654V419.075H652.13Z" fill="#222222"/>
<circle cx="625.5" cy="253" r="9" fill="#EE2E5D"/>
<g clip-path="url(#clip3_210_60)">
<path opacity="0.4" d="M1105.15 15.4318L968.496 25.47C966.229 25.5935 964.038 26.3265 962.153 27.5916C960.268 28.8568 958.759 30.6072 957.786 32.6582C956.813 34.7093 956.411 36.9849 956.624 39.2451C956.836 41.5053 957.654 43.6663 958.993 45.5002L1044.85 162.954C1046.19 164.791 1048 166.23 1050.1 167.12C1052.19 168.009 1054.49 168.316 1056.74 168.008C1058.99 167.699 1061.12 166.786 1062.9 165.366C1064.68 163.946 1066.04 162.072 1066.83 159.942L1117.69 32.4439C1118.42 30.4787 1118.66 28.3606 1118.37 26.2818C1118.08 24.203 1117.28 22.2292 1116.03 20.5395C1114.79 18.8498 1113.14 17.4977 1111.24 16.6058C1109.34 15.7138 1107.25 15.3103 1105.15 15.4318Z" fill="url(#paint4_linear_210_60)"/>
<path d="M1127.02 52.2957L999.935 1.03475C997.847 0.145618 995.557 -0.163281 993.308 0.140654C991.059 0.44459 988.933 1.35008 987.156 2.76157C985.378 4.17307 984.015 6.0382 983.209 8.16013C982.404 10.2821 982.186 12.5821 982.579 14.8175L1007.8 158.086C1008.19 160.33 1009.18 162.426 1010.66 164.152C1012.15 165.878 1014.07 167.17 1016.23 167.89C1018.39 168.611 1020.71 168.733 1022.93 168.244C1025.15 167.755 1027.2 166.673 1028.86 165.113L1130.72 73.0721C1132.25 71.6359 1133.39 69.8424 1134.05 67.8538C1134.7 65.8651 1134.86 63.7439 1134.49 61.6818C1134.12 59.6197 1133.24 57.6817 1131.94 56.0429C1130.64 54.4042 1128.94 53.1163 1127.02 52.2957Z" fill="url(#paint5_linear_210_60)"/>
<path d="M1068.44 88.0502C1068.5 89.5241 1068.95 90.9564 1069.73 92.2048C1070.52 93.4532 1071.62 94.4743 1072.92 95.1664C1074.22 95.8586 1075.68 96.1979 1077.16 96.1505C1078.63 96.103 1080.07 95.6706 1081.33 94.8962C1082.58 94.1217 1083.61 93.0322 1084.32 91.7359C1085.02 90.4396 1085.37 88.9816 1085.34 87.5068C1085.3 86.032 1084.89 84.5918 1084.12 83.3293C1083.36 82.0668 1082.28 81.026 1080.99 80.3102V62.6443L1076.8 66.8312V81.664C1076.8 82.1022 1076.94 82.5294 1077.2 82.885C1077.45 83.2406 1077.81 83.5066 1078.23 83.6453C1078.97 83.8938 1079.62 84.3387 1080.12 84.9321C1080.62 85.5254 1080.95 86.2446 1081.08 87.012C1081.2 87.7794 1081.11 88.5658 1080.82 89.2863C1080.53 90.0069 1080.05 90.6342 1079.42 91.1005C1078.8 91.5668 1078.07 91.8544 1077.29 91.9323C1076.52 92.0102 1075.74 91.8753 1075.04 91.5423C1074.33 91.2093 1073.74 90.6908 1073.31 90.0427C1072.88 89.3947 1072.63 88.6418 1072.6 87.8653C1072.6 87.5842 1072.54 87.3066 1072.43 87.049C1072.32 86.7914 1072.15 86.559 1071.95 86.3657C1071.74 86.1724 1071.5 86.0221 1071.24 85.9238C1070.98 85.8256 1070.7 85.7814 1070.42 85.7938C1070.14 85.8062 1069.86 85.875 1069.61 85.9961C1069.35 86.1172 1069.13 86.2882 1068.94 86.4987C1068.75 86.7093 1068.61 86.9552 1068.52 87.2217C1068.43 87.4883 1068.4 87.77 1068.42 88.0502H1068.44ZM1036.28 93.8948V98.0818H1022.26C1020.04 98.0818 1017.91 98.964 1016.34 100.534C1014.77 102.105 1013.88 104.235 1013.88 106.456C1013.88 108.677 1014.77 110.807 1016.34 112.377C1017.91 113.947 1020.04 114.83 1022.26 114.83H1064.27C1066.49 114.83 1068.62 113.947 1070.19 112.377C1071.76 110.807 1072.64 108.677 1072.64 106.456C1072.64 104.235 1071.76 102.105 1070.19 100.534C1068.62 98.964 1066.49 98.0818 1064.27 98.0818H1050.24V93.8948H1055.89C1056.45 93.8948 1056.98 93.6742 1057.37 93.2816C1057.77 92.889 1057.99 92.3565 1057.99 91.8013V85.5208H1028.68C1028.12 85.5208 1027.59 85.3002 1027.2 84.9076C1026.8 84.515 1026.58 83.9825 1026.58 83.4273V72.9598H1018.77C1017.47 72.9616 1016.23 73.477 1015.32 74.3931C1014.4 75.3093 1013.88 76.5513 1013.88 77.8469V91.8079C1013.88 92.3631 1014.1 92.8956 1014.5 93.2882C1014.89 93.6808 1015.42 93.9014 1015.98 93.9014L1036.28 93.8948ZM1064.27 110.643C1063.44 110.644 1062.63 110.4 1061.94 109.94C1061.25 109.481 1060.71 108.828 1060.39 108.063C1060.08 107.298 1059.99 106.456 1060.15 105.643C1060.31 104.83 1060.71 104.084 1061.3 103.497C1061.88 102.911 1062.63 102.512 1063.44 102.35C1064.25 102.188 1065.1 102.27 1065.86 102.587C1066.63 102.904 1067.28 103.44 1067.74 104.129C1068.2 104.818 1068.45 105.627 1068.45 106.456C1068.45 107.565 1068.01 108.628 1067.22 109.412C1066.44 110.197 1065.38 110.639 1064.27 110.643ZM1022.26 102.269C1023.09 102.269 1023.89 102.514 1024.58 102.974C1025.27 103.434 1025.81 104.088 1026.13 104.853C1026.44 105.619 1026.53 106.46 1026.36 107.273C1026.2 108.085 1025.8 108.831 1025.22 109.416C1024.63 110.002 1023.89 110.401 1023.07 110.562C1022.26 110.724 1021.42 110.641 1020.65 110.324C1019.89 110.007 1019.24 109.47 1018.78 108.782C1018.32 108.093 1018.07 107.284 1018.07 106.456C1018.07 105.345 1018.51 104.28 1019.3 103.495C1020.08 102.71 1021.15 102.269 1022.26 102.269ZM1029.52 110.643C1030.26 109.371 1030.65 107.927 1030.65 106.456C1030.65 104.985 1030.26 103.54 1029.52 102.269H1057.04C1056.3 103.541 1055.91 104.986 1055.91 106.456C1055.91 107.926 1056.3 109.37 1057.04 110.643H1029.52ZM1083.5 54.2373C1084.08 53.654 1084.54 52.9616 1084.86 52.1996C1085.18 51.4376 1085.34 50.6208 1085.34 49.796C1085.34 48.9712 1085.18 48.1545 1084.86 47.3924C1084.54 46.6304 1084.08 45.938 1083.5 45.3548C1082.92 44.7715 1082.22 44.3089 1081.46 43.9932C1080.7 43.6776 1079.88 43.5151 1079.06 43.5151C1078.23 43.5151 1077.42 43.6776 1076.65 43.9932C1075.89 44.3089 1075.2 44.7715 1074.62 45.3548L1060.35 59.6196C1061.55 61.7894 1062.18 64.2313 1062.17 66.7124V75.5619L1083.5 54.2373Z" fill="white"/>
<path d="M1030.77 81.3338H1057.99V66.7123C1057.98 63.9373 1056.88 61.2769 1054.92 59.3146C1052.95 57.3523 1050.29 56.2484 1047.52 56.2449H1030.77V81.3338Z" fill="white"/>
</g>
<path opacity="0.04" d="M933.727 350.478C936.382 356.586 937.71 363.623 937.71 371.59C937.71 378.76 936.515 385.399 934.125 391.507C930.938 400.004 925.561 406.643 917.993 411.423C910.557 416.203 901.727 418.593 891.503 418.593C881.412 418.593 872.516 416.071 864.815 411.025C857.247 405.979 851.803 399.141 848.483 390.511C846.625 385.333 845.562 379.756 845.297 373.781C845.297 372.188 846.093 371.391 847.687 371.391H871.188C872.782 371.391 873.578 372.188 873.578 373.781C874.11 378.163 874.84 381.416 875.769 383.54C876.964 386.992 878.89 389.714 881.545 391.706C884.333 393.565 887.587 394.494 891.304 394.494C898.74 394.494 903.852 391.241 906.64 384.735C908.499 380.752 909.428 376.104 909.428 370.793C909.428 364.553 908.433 359.441 906.441 355.458C903.387 349.217 898.275 346.097 891.105 346.097C889.645 346.097 888.118 346.561 886.524 347.491C884.931 348.288 883.006 349.483 880.748 351.076C880.217 351.474 879.686 351.673 879.155 351.673C878.358 351.673 877.761 351.275 877.363 350.478L865.612 333.948C865.346 333.549 865.213 333.084 865.213 332.553C865.213 331.757 865.479 331.093 866.01 330.562L897.678 302.878C897.943 302.612 898.01 302.346 897.877 302.081C897.877 301.815 897.678 301.683 897.279 301.683H850.475C849.811 301.683 849.214 301.483 848.683 301.085C848.284 300.554 848.085 299.956 848.085 299.293V279.973C848.085 279.31 848.284 278.778 848.683 278.38C849.214 277.849 849.811 277.583 850.475 277.583H933.528C934.192 277.583 934.723 277.849 935.121 278.38C935.652 278.778 935.918 279.31 935.918 279.973V301.882C935.918 302.944 935.453 303.94 934.523 304.869L908.433 328.769C908.167 329.035 908.034 329.3 908.034 329.566C908.167 329.831 908.499 329.964 909.03 329.964C920.582 332.221 928.814 339.059 933.727 350.478Z" fill="#222222"/>
<path d="M954.254 387.793V391.043C954.254 391.997 954.471 392.759 954.904 393.331C955.338 393.903 955.979 394.189 956.828 394.189C957.608 394.189 958.224 393.929 958.674 393.409C959.142 392.872 959.376 392.161 959.376 391.277V390.705H962.002V391.199C962.002 392.829 961.543 394.129 960.624 395.099C959.723 396.053 958.475 396.529 956.88 396.529C955.164 396.529 953.847 396.018 952.928 394.995C952.027 393.955 951.576 392.595 951.576 390.913V385.557H954.28C957.106 385.557 958.518 384.205 958.518 381.501V379.343H948.95V377.055H964.082V379.343H961.222V381.501C961.222 383.512 960.737 385.063 959.766 386.155C958.796 387.247 957.288 387.793 955.242 387.793H954.254ZM966.011 396.295V379.343H962.839V377.055H971.913V379.343H968.741V396.295H966.011ZM996.373 377.055V379.343H993.201V396.295H990.497V391.095C990.133 391.667 989.639 392.118 989.015 392.447C988.409 392.777 987.681 392.941 986.831 392.941C986.519 392.941 986.207 392.915 985.895 392.863C985.358 393.921 984.587 394.779 983.581 395.437C982.576 396.079 981.397 396.399 980.045 396.399C977.983 396.399 976.345 395.81 975.131 394.631C973.918 393.453 973.311 391.815 973.311 389.717V385.895H974.169C975.331 385.895 976.223 385.618 976.847 385.063C977.489 384.491 977.809 383.521 977.809 382.151V379.343H970.659V377.055H996.373ZM980.123 394.033C980.99 394.033 981.727 393.843 982.333 393.461C982.94 393.08 983.417 392.586 983.763 391.979C983.122 391.511 982.619 390.896 982.255 390.133C981.909 389.371 981.735 388.513 981.735 387.559C981.735 386.537 981.952 385.627 982.385 384.829C982.836 384.015 983.443 383.391 984.205 382.957C984.985 382.507 985.861 382.281 986.831 382.281C987.681 382.281 988.409 382.446 989.015 382.775C989.639 383.105 990.133 383.555 990.497 384.127V379.343H980.539V382.489C980.539 384.275 980.123 385.601 979.291 386.467C978.477 387.334 977.385 387.802 976.015 387.871V390.029C976.015 391.225 976.379 392.196 977.107 392.941C977.835 393.669 978.841 394.033 980.123 394.033ZM987.377 390.835C988.383 390.835 989.154 390.515 989.691 389.873C990.229 389.215 990.497 388.461 990.497 387.611C990.497 386.745 990.229 385.991 989.691 385.349C989.171 384.708 988.4 384.387 987.377 384.387C986.476 384.387 985.713 384.673 985.089 385.245C984.483 385.817 984.179 386.589 984.179 387.559C984.179 388.582 984.483 389.388 985.089 389.977C985.696 390.549 986.459 390.835 987.377 390.835ZM1004.21 377.055V379.343H1001.04V396.295H998.308V379.343H995.136V377.055H998.386V375.989C998.386 374.984 998.195 374.143 997.814 373.467C997.432 372.774 996.756 372.427 995.786 372.427C994.815 372.427 994.13 372.774 993.732 373.467C993.333 374.143 993.134 374.984 993.134 375.989V377.679H990.482V376.119C990.482 374.299 990.906 372.852 991.756 371.777C992.605 370.685 993.948 370.139 995.786 370.139C997.658 370.139 999.001 370.677 999.816 371.751C1000.63 372.826 1001.04 374.282 1001.04 376.119V377.055H1004.21ZM1021.68 377.055V379.343H1018.5V396.295H1015.85V391.589C1015.4 392.352 1014.78 392.959 1013.98 393.409C1013.2 393.843 1012.26 394.059 1011.17 394.059C1009.99 394.059 1008.95 393.799 1008.05 393.279C1007.17 392.759 1006.48 392.031 1006 391.095C1005.51 390.159 1005.27 389.085 1005.27 387.871C1005.27 386.71 1005.51 385.679 1006 384.777C1006.5 383.859 1007.19 383.148 1008.08 382.645C1008.98 382.125 1010.01 381.865 1011.17 381.865C1012.25 381.865 1013.18 382.082 1013.98 382.515C1014.78 382.949 1015.4 383.547 1015.85 384.309V379.343H1002.96V377.055H1021.68ZM1011.87 391.875C1012.74 391.875 1013.47 391.685 1014.06 391.303C1014.66 390.922 1015.12 390.437 1015.41 389.847C1015.7 389.258 1015.85 388.643 1015.85 388.001V387.975C1015.85 387.317 1015.7 386.693 1015.41 386.103C1015.12 385.497 1014.66 385.011 1014.06 384.647C1013.47 384.266 1012.74 384.075 1011.87 384.075C1010.75 384.075 1009.81 384.431 1009.07 385.141C1008.32 385.852 1007.95 386.788 1007.95 387.949C1007.95 389.145 1008.31 390.099 1009.04 390.809C1009.79 391.52 1010.73 391.875 1011.87 391.875ZM1036.67 384.309C1035.39 384.309 1034.33 384.647 1033.5 385.323C1032.68 385.999 1032.27 386.944 1032.27 388.157C1032.27 389.267 1032.6 390.151 1033.26 390.809C1033.92 391.468 1034.81 391.797 1035.91 391.797C1036.8 391.797 1037.57 391.52 1038.23 390.965C1038.89 390.411 1039.22 389.622 1039.22 388.599H1041.74V396.841H1039.06V392.187C1038.68 392.742 1038.14 393.184 1037.45 393.513C1036.77 393.825 1036.01 393.981 1035.16 393.981C1034.09 393.981 1033.12 393.756 1032.25 393.305C1031.4 392.837 1030.72 392.161 1030.22 391.277C1029.74 390.393 1029.49 389.327 1029.49 388.079C1029.49 386.762 1029.8 385.644 1030.4 384.725C1031.01 383.807 1031.83 383.122 1032.87 382.671C1033.91 382.203 1035.09 381.969 1036.41 381.969H1038.02V379.343H1027.18V377.055H1044.29L1044.26 379.343H1040.75V384.309H1036.67ZM965.51 416.709C965.51 417.767 965.258 418.651 964.756 419.361C964.253 420.055 963.594 420.479 962.78 420.635V420.687C963.837 420.93 964.678 421.511 965.302 422.429C965.943 423.331 966.264 424.388 966.264 425.601C966.264 426.693 966.03 427.664 965.562 428.513C965.111 429.363 964.452 430.03 963.586 430.515C962.719 430.983 961.688 431.217 960.492 431.217C959.278 431.217 958.186 430.975 957.216 430.489C956.262 429.987 955.517 429.293 954.98 428.409C954.442 427.508 954.174 426.477 954.174 425.315H956.774C956.774 426.303 957.112 427.127 957.788 427.785C958.481 428.444 959.339 428.773 960.362 428.773C961.367 428.773 962.173 428.461 962.78 427.837C963.386 427.213 963.69 426.399 963.69 425.393C963.69 424.457 963.395 423.651 962.806 422.975C962.216 422.282 961.341 421.935 960.18 421.935H958.88V419.543H959.816C960.804 419.543 961.558 419.275 962.078 418.737C962.615 418.2 962.884 417.472 962.884 416.553V414.343H952.302V412.055H968.422V414.343H965.51V416.709ZM985.615 414.343H982.443V431.295H979.739V424.483C979.305 425.107 978.733 425.593 978.023 425.939C977.312 426.286 976.48 426.459 975.527 426.459C973.689 426.459 972.285 425.87 971.315 424.691C970.361 423.513 969.885 421.927 969.885 419.933V414.343H967.181V412.055H985.615V414.343ZM979.739 414.343H972.615V419.933C972.615 421.251 972.909 422.282 973.499 423.027C974.088 423.773 974.989 424.145 976.203 424.145C977.312 424.145 978.179 423.79 978.803 423.079C979.427 422.351 979.739 421.459 979.739 420.401V414.343ZM999.294 414.343V419.413C999.675 418.668 1000.22 418.079 1000.93 417.645C1001.66 417.195 1002.54 416.969 1003.56 416.969C1004.62 416.969 1005.55 417.229 1006.37 417.749C1007.18 418.252 1007.81 418.954 1008.26 419.855C1008.71 420.739 1008.94 421.753 1008.94 422.897C1008.94 424.128 1008.71 425.194 1008.24 426.095C1007.77 426.979 1007.13 427.664 1006.31 428.149C1005.5 428.617 1004.57 428.851 1003.53 428.851C1002.91 428.851 1002.35 428.791 1001.87 428.669V426.511C1002.13 426.581 1002.45 426.615 1002.83 426.615C1003.8 426.615 1004.6 426.295 1005.22 425.653C1005.86 424.995 1006.18 424.093 1006.18 422.949C1006.18 421.875 1005.85 420.999 1005.2 420.323C1004.55 419.647 1003.74 419.309 1002.75 419.309C1001.61 419.309 1000.74 419.691 1000.15 420.453C999.58 421.216 999.294 422.126 999.294 423.183V431.295H996.668V426.537C996.269 427.283 995.689 427.881 994.926 428.331C994.163 428.782 993.245 429.007 992.17 429.007C991.095 429.007 990.142 428.756 989.31 428.253C988.478 427.751 987.828 427.049 987.36 426.147C986.909 425.229 986.684 424.163 986.684 422.949C986.684 421.753 986.918 420.705 987.386 419.803C987.854 418.902 988.513 418.209 989.362 417.723C990.211 417.221 991.182 416.969 992.274 416.969C993.314 416.969 994.207 417.186 994.952 417.619C995.697 418.053 996.269 418.633 996.668 419.361V414.343H984.37V412.055H1011.23V414.343H999.294ZM993.054 426.719C993.834 426.719 994.493 426.537 995.03 426.173C995.585 425.809 995.992 425.341 996.252 424.769C996.529 424.197 996.668 423.608 996.668 423.001C996.668 422.013 996.356 421.155 995.732 420.427C995.108 419.682 994.215 419.309 993.054 419.309C992.031 419.309 991.173 419.647 990.48 420.323C989.787 420.982 989.44 421.866 989.44 422.975C989.44 424.119 989.778 425.029 990.454 425.705C991.13 426.381 991.997 426.719 993.054 426.719ZM1015.32 422.793V426.043C1015.32 426.997 1015.54 427.759 1015.97 428.331C1016.4 428.903 1017.04 429.189 1017.89 429.189C1018.67 429.189 1019.29 428.929 1019.74 428.409C1020.21 427.872 1020.44 427.161 1020.44 426.277V425.705H1023.07V426.199C1023.07 427.829 1022.61 429.129 1021.69 430.099C1020.79 431.053 1019.54 431.529 1017.94 431.529C1016.23 431.529 1014.91 431.018 1013.99 429.995C1013.09 428.955 1012.64 427.595 1012.64 425.913V420.557H1015.34C1018.17 420.557 1019.58 419.205 1019.58 416.501V414.343H1010.01V412.055H1025.15V414.343H1022.29V416.501C1022.29 418.512 1021.8 420.063 1020.83 421.155C1019.86 422.247 1018.35 422.793 1016.31 422.793H1015.32ZM1047.69 414.343H1044.52V431.295H1041.79V414.343H1037.19V421.467C1037.19 423.062 1036.74 424.353 1035.84 425.341C1034.94 426.329 1033.65 426.823 1031.99 426.823C1030.34 426.823 1029.07 426.329 1028.17 425.341C1027.27 424.336 1026.82 423.045 1026.82 421.467V414.343H1023.9V412.055H1047.69V414.343ZM1034.51 414.343H1029.49V421.727C1029.49 422.559 1029.72 423.235 1030.17 423.755C1030.64 424.258 1031.25 424.509 1032.02 424.509C1032.8 424.509 1033.4 424.258 1033.84 423.755C1034.29 423.235 1034.51 422.559 1034.51 421.727V414.343ZM1041.93 412.159C1041.08 410.825 1040.38 409.871 1039.85 409.299C1039.31 408.71 1038.79 408.329 1038.29 408.155C1037.77 407.965 1037.06 407.869 1036.15 407.869H1034.98V405.633H1036.1C1037.44 405.651 1038.49 405.798 1039.27 406.075C1040.04 406.335 1040.82 406.916 1041.61 407.817C1042.39 408.719 1043.36 410.166 1044.5 412.159H1041.93Z" fill="#222222"/>
<circle cx="1046.5" cy="253" r="9" fill="#EE2E5D"/>
<g clip-path="url(#clip4_210_60)">
<path opacity="0.4" d="M1522.69 14.536L1386.28 27.2649C1384.01 27.4337 1381.84 28.2101 1379.98 29.5121C1378.12 30.8141 1376.65 32.5935 1375.72 34.6627C1374.79 36.7319 1374.43 39.0142 1374.69 41.2689C1374.94 43.5237 1375.8 45.6673 1377.18 47.4737L1465.29 163.209C1466.67 165.018 1468.51 166.42 1470.62 167.268C1472.73 168.116 1475.03 168.377 1477.28 168.024C1479.52 167.671 1481.63 166.717 1483.38 165.262C1485.13 163.808 1486.45 161.908 1487.21 159.764L1535.51 31.2936C1536.2 29.3184 1536.39 27.2009 1536.07 25.1326C1535.74 23.0642 1534.9 21.1102 1533.63 19.4469C1532.36 17.7837 1530.69 16.4638 1528.78 15.6063C1526.87 14.7489 1524.77 14.3811 1522.69 14.536Z" fill="url(#paint6_linear_210_60)"/>
<path d="M1545.48 52.2962L1418.43 1.03932C1416.34 0.149671 1414.05 -0.159754 1411.8 0.143711C1409.55 0.447176 1407.43 1.35227 1405.65 2.76345C1403.87 4.17462 1402.51 6.03952 1401.71 8.16126C1400.9 10.283 1400.68 12.5829 1401.08 14.8181L1426.29 158.084C1426.68 160.324 1427.68 162.414 1429.16 164.135C1430.65 165.856 1432.58 167.142 1434.73 167.858C1436.89 168.574 1439.2 168.694 1441.42 168.203C1443.65 167.712 1445.69 166.631 1447.35 165.072L1549.18 73.0693C1550.7 71.6329 1551.85 69.8399 1552.5 67.852C1553.16 65.8641 1553.31 63.7439 1552.94 61.6827C1552.58 59.6215 1551.7 57.6841 1550.4 56.0454C1549.1 54.4067 1547.41 53.1182 1545.48 52.2962Z" fill="url(#paint7_linear_210_60)"/>
<path d="M1435.57 107.332H1439.82C1441.23 107.332 1442.58 106.773 1443.57 105.778C1444.57 104.782 1445.13 103.432 1445.13 102.024V67.2494C1445.13 65.841 1444.57 64.4902 1443.57 63.4937C1442.58 62.4972 1441.23 61.9365 1439.82 61.9348H1435.57C1434.16 61.9348 1432.81 62.4947 1431.81 63.4914C1430.81 64.4881 1430.25 65.8399 1430.25 67.2494V102.024C1430.25 103.434 1430.81 104.786 1431.81 105.782C1432.81 106.779 1434.16 107.339 1435.57 107.339V107.332ZM1455.11 107.451H1489.88C1491.12 107.409 1492.34 107.12 1493.47 106.602C1494.59 106.084 1495.61 105.346 1496.44 104.432L1498.27 102.339C1499.63 100.677 1500.54 98.6974 1500.93 96.585L1505.24 68.7389C1505.44 67.2776 1505.18 65.7895 1504.51 64.4786C1503.83 63.1678 1502.76 62.0982 1501.46 61.4164L1500.3 60.8456C1498.47 59.982 1496.48 59.5104 1494.46 59.4612H1478.42L1481.95 49.5602C1482.26 48.7243 1482.37 47.8304 1482.29 46.9438C1482.21 46.0572 1481.93 45.2003 1481.47 44.4358C1481.03 43.7022 1480.43 43.0764 1479.72 42.6042C1479 42.132 1478.19 41.8252 1477.35 41.7063C1476.4 41.5686 1475.45 41.4984 1474.49 41.4963C1470.07 41.4963 1466.35 43.0514 1463.73 46.0039C1462.97 46.9261 1462.3 47.9069 1461.7 48.9369C1461.47 49.3174 1461.25 49.6783 1461.04 49.9604C1458.35 53.9562 1454.32 57.3747 1452.17 59.0609C1451.18 59.8654 1450.38 60.8701 1449.82 62.0081C1449.25 63.1462 1448.93 64.3916 1448.89 65.6616V101.25C1448.89 102.894 1449.54 104.47 1450.7 105.633C1451.87 106.795 1453.44 107.449 1455.09 107.451H1455.11ZM1457.08 65.7863C1457.12 65.6641 1457.19 65.5491 1457.26 65.4451C1459.82 63.4767 1464.52 59.4152 1467.83 54.5271C1468.08 54.1531 1468.37 53.6807 1468.67 53.2148C1469.03 52.5977 1469.42 52.0038 1469.85 51.4367C1470.74 50.4737 1471.95 49.8733 1473.26 49.7505L1469.53 60.1895C1469.2 61.0301 1469.09 61.9393 1469.2 62.8355C1469.3 63.7318 1469.63 64.5872 1470.15 65.3251C1470.67 66.063 1471.37 66.6604 1472.18 67.0638C1472.98 67.4672 1473.88 67.664 1474.78 67.6366H1494.5C1495.25 67.6896 1496 67.8669 1496.7 68.1615L1497.09 68.3583L1492.91 95.3646C1492.75 95.9535 1492.47 96.5056 1492.1 96.9918L1490.32 99.0389C1490.16 99.1573 1489.97 99.242 1489.77 99.2883H1457.03L1457.08 65.7863Z" fill="white"/>
</g>
<path opacity="0.04" d="M1352.73 356.254C1353.4 356.254 1353.93 356.52 1354.32 357.051C1354.86 357.449 1355.12 357.98 1355.12 358.644V378.76C1355.12 379.424 1354.86 380.021 1354.32 380.553C1353.93 380.951 1353.4 381.15 1352.73 381.15H1344.17C1343.5 381.15 1343.17 381.482 1343.17 382.146V414.61C1343.17 415.274 1342.91 415.871 1342.37 416.403C1341.98 416.801 1341.45 417 1340.78 417H1317.48C1316.82 417 1316.22 416.801 1315.69 416.403C1315.29 415.871 1315.09 415.274 1315.09 414.61V382.146C1315.09 381.482 1314.76 381.15 1314.09 381.15H1252.95C1252.29 381.15 1251.69 380.951 1251.16 380.553C1250.76 380.021 1250.56 379.424 1250.56 378.76V362.827C1250.56 362.03 1250.76 361.034 1251.16 359.839L1287.01 279.376C1287.54 278.181 1288.47 277.583 1289.79 277.583H1314.69C1315.62 277.583 1316.22 277.849 1316.48 278.38C1316.88 278.778 1316.88 279.442 1316.48 280.372L1283.22 355.059C1283.09 355.325 1283.09 355.59 1283.22 355.856C1283.36 356.121 1283.55 356.254 1283.82 356.254H1314.09C1314.76 356.254 1315.09 355.922 1315.09 355.258V330.562C1315.09 329.898 1315.29 329.367 1315.69 328.968C1316.22 328.437 1316.82 328.172 1317.48 328.172H1340.78C1341.45 328.172 1341.98 328.437 1342.37 328.968C1342.91 329.367 1343.17 329.898 1343.17 330.562V355.258C1343.17 355.922 1343.5 356.254 1344.17 356.254H1352.73Z" fill="#222222"/>
<path d="M1395.72 379.343H1392.55V396.295H1389.82V379.343H1384.7V396.295H1381.99V388.287L1378.41 388.261C1378.58 388.764 1378.67 389.293 1378.67 389.847C1378.67 391.355 1378.18 392.569 1377.21 393.487C1376.24 394.406 1374.96 394.865 1373.36 394.865C1372.22 394.865 1371.2 394.64 1370.29 394.189C1369.41 393.739 1368.72 393.115 1368.21 392.317C1367.73 391.503 1367.49 390.575 1367.49 389.535H1370.03C1370.03 390.402 1370.32 391.121 1370.89 391.693C1371.48 392.248 1372.24 392.525 1373.18 392.525C1374.1 392.525 1374.83 392.257 1375.36 391.719C1375.9 391.182 1376.17 390.471 1376.17 389.587C1376.17 389.085 1376.08 388.643 1375.88 388.261H1375.83V388.131C1375.28 387.143 1374.3 386.649 1372.89 386.649H1371.83V384.439H1372.89C1373.85 384.439 1374.58 384.188 1375.1 383.685C1375.64 383.165 1375.91 382.55 1375.91 381.839C1375.91 381.025 1375.64 380.375 1375.1 379.889C1374.58 379.387 1373.93 379.135 1373.13 379.135C1372.3 379.135 1371.59 379.378 1371.02 379.863C1370.47 380.331 1370.19 380.964 1370.19 381.761H1367.67C1367.67 380.773 1367.89 379.907 1368.34 379.161C1368.81 378.416 1369.46 377.844 1370.29 377.445C1371.13 377.029 1372.07 376.821 1373.13 376.821C1374.69 376.821 1375.95 377.246 1376.9 378.095C1377.87 378.945 1378.35 380.071 1378.35 381.475C1378.35 382.463 1378.09 383.313 1377.57 384.023C1377.05 384.717 1376.3 385.193 1375.31 385.453V385.505C1375.8 385.609 1376.25 385.783 1376.66 386.025H1381.99V377.055H1395.72V379.343ZM1412.75 379.343H1409.58V396.295H1406.88V389.483C1406.44 390.107 1405.87 390.593 1405.16 390.939C1404.45 391.286 1403.62 391.459 1402.66 391.459C1400.83 391.459 1399.42 390.87 1398.45 389.691C1397.5 388.513 1397.02 386.927 1397.02 384.933V379.343H1394.32V377.055H1412.75V379.343ZM1406.88 379.343H1399.75V384.933C1399.75 386.251 1400.05 387.282 1400.64 388.027C1401.23 388.773 1402.13 389.145 1403.34 389.145C1404.45 389.145 1405.32 388.79 1405.94 388.079C1406.56 387.351 1406.88 386.459 1406.88 385.401V379.343ZM1430.31 379.343V382.567C1431.45 382.914 1432.35 383.59 1433.01 384.595C1433.69 385.601 1434.02 386.857 1434.02 388.365C1434.02 389.613 1433.78 390.723 1433.3 391.693C1432.81 392.664 1432.09 393.427 1431.14 393.981C1430.18 394.536 1429.03 394.813 1427.68 394.813C1427.54 394.813 1427.25 394.796 1426.8 394.761V392.369L1427.52 392.421C1428.7 392.421 1429.62 392.057 1430.28 391.329C1430.94 390.601 1431.27 389.631 1431.27 388.417C1431.27 387.325 1431 386.441 1430.46 385.765C1429.92 385.072 1429.17 384.725 1428.2 384.725C1427.16 384.725 1426.37 385.115 1425.83 385.895C1425.31 386.658 1425.05 387.689 1425.05 388.989V389.457H1422.77V388.989C1422.77 387.707 1422.51 386.675 1422.01 385.895C1421.51 385.115 1420.76 384.725 1419.75 384.725C1418.74 384.725 1417.96 385.063 1417.41 385.739C1416.86 386.415 1416.58 387.308 1416.58 388.417C1416.58 389.631 1416.91 390.601 1417.57 391.329C1418.22 392.057 1419.14 392.421 1420.32 392.421L1421.05 392.369V394.761C1420.6 394.796 1420.3 394.813 1420.17 394.813C1418.81 394.813 1417.66 394.536 1416.71 393.981C1415.75 393.427 1415.04 392.664 1414.55 391.693C1414.06 390.723 1413.82 389.613 1413.82 388.365C1413.82 387.1 1414.06 386.017 1414.52 385.115C1415.01 384.214 1415.67 383.529 1416.5 383.061C1417.35 382.576 1418.31 382.333 1419.39 382.333C1420.62 382.333 1421.6 382.671 1422.32 383.347C1423.07 384.006 1423.59 384.838 1423.88 385.843H1423.96C1424.22 384.977 1424.65 384.231 1425.24 383.607C1425.84 382.983 1426.64 382.585 1427.63 382.411V379.343H1411.51V377.055H1436.31V379.343H1430.31ZM1427.73 377.159C1426.88 375.825 1426.19 374.871 1425.65 374.299C1425.11 373.71 1424.59 373.329 1424.09 373.155C1423.57 372.965 1422.86 372.869 1421.96 372.869H1420.79V370.633H1421.9C1423.24 370.651 1424.3 370.798 1425.08 371.075C1425.84 371.335 1426.62 371.916 1427.42 372.817C1428.2 373.719 1429.16 375.166 1430.3 377.159H1427.73ZM1460.28 379.343H1457.11V396.295H1454.41V389.405C1454.22 389.683 1453.99 389.925 1453.73 390.133L1447.75 396.711H1444.76L1449.96 391.329C1448.19 391.277 1446.85 390.679 1445.93 389.535C1445.01 388.391 1444.55 386.857 1444.55 384.933V379.343H1441.85V377.055H1460.28V379.343ZM1454.41 379.343H1447.28V384.933C1447.28 386.251 1447.58 387.282 1448.17 388.027C1448.76 388.773 1449.66 389.145 1450.87 389.145C1451.98 389.145 1452.85 388.79 1453.47 388.079C1454.1 387.351 1454.41 386.459 1454.41 385.401V379.343ZM1462.21 396.295V379.343H1459.04V377.055H1468.11V379.343H1464.94V396.295H1462.21ZM1472.16 387.793V391.043C1472.16 391.997 1472.38 392.759 1472.81 393.331C1473.25 393.903 1473.89 394.189 1474.74 394.189C1475.52 394.189 1476.13 393.929 1476.58 393.409C1477.05 392.872 1477.29 392.161 1477.29 391.277V390.705H1479.91V391.199C1479.91 392.829 1479.45 394.129 1478.53 395.099C1477.63 396.053 1476.38 396.529 1474.79 396.529C1473.07 396.529 1471.76 396.018 1470.84 394.995C1469.94 393.955 1469.49 392.595 1469.49 390.913V385.557H1472.19C1475.01 385.557 1476.43 384.205 1476.43 381.501V379.343H1466.86V377.055H1481.99V379.343H1479.13V381.501C1479.13 383.512 1478.65 385.063 1477.68 386.155C1476.7 387.247 1475.2 387.793 1473.15 387.793H1472.16ZM1479.47 373.025C1479.47 373.511 1479.3 373.918 1478.97 374.247C1478.64 374.577 1478.24 374.741 1477.75 374.741C1477.27 374.741 1476.86 374.577 1476.53 374.247C1476.18 373.918 1476.01 373.511 1476.01 373.025C1476.01 372.54 1476.18 372.133 1476.53 371.803C1476.86 371.474 1477.27 371.309 1477.75 371.309C1478.24 371.309 1478.64 371.474 1478.97 371.803C1479.3 372.133 1479.47 372.54 1479.47 373.025ZM1503.11 377.055V379.343H1499.91V396.295H1497.18V386.649H1493.23V388.443C1493.23 390.211 1492.79 391.581 1491.93 392.551C1491.08 393.505 1489.86 393.981 1488.26 393.981C1486.74 393.981 1485.51 393.539 1484.57 392.655C1483.65 391.771 1483.19 390.61 1483.19 389.171C1483.19 387.663 1483.69 386.493 1484.67 385.661C1485.66 384.829 1486.93 384.413 1488.47 384.413H1490.68V382.099C1490.68 381.181 1490.51 380.461 1490.16 379.941C1489.81 379.421 1489.28 379.161 1488.57 379.161C1487.95 379.161 1487.44 379.378 1487.04 379.811C1486.66 380.245 1486.47 380.834 1486.47 381.579C1486.47 381.909 1486.5 382.221 1486.57 382.515H1483.84C1483.77 382.099 1483.74 381.753 1483.74 381.475C1483.74 380.071 1484.15 378.945 1484.99 378.095C1485.82 377.246 1486.98 376.821 1488.47 376.821C1490.13 376.821 1491.34 377.333 1492.08 378.355C1492.85 379.378 1493.23 380.782 1493.23 382.567V384.413H1497.18V377.055H1503.11ZM1490.68 386.649H1488.55C1487.7 386.649 1487.01 386.875 1486.49 387.325C1485.99 387.776 1485.74 388.391 1485.74 389.171C1485.74 389.934 1485.97 390.541 1486.44 390.991C1486.91 391.442 1487.51 391.667 1488.24 391.667C1489.02 391.667 1489.61 391.399 1490.03 390.861C1490.46 390.307 1490.68 389.544 1490.68 388.573V386.649ZM1523.53 379.343V384.413C1523.91 383.668 1524.45 383.079 1525.16 382.645C1525.89 382.195 1526.77 381.969 1527.79 381.969C1528.85 381.969 1529.78 382.229 1530.6 382.749C1531.41 383.252 1532.04 383.954 1532.5 384.855C1532.95 385.739 1533.17 386.753 1533.17 387.897C1533.17 389.128 1532.94 390.194 1532.47 391.095C1532 391.979 1531.36 392.664 1530.55 393.149C1529.73 393.617 1528.8 393.851 1527.76 393.851C1527.14 393.851 1526.58 393.791 1526.1 393.669V391.511C1526.36 391.581 1526.68 391.615 1527.06 391.615C1528.03 391.615 1528.83 391.295 1529.45 390.653C1530.09 389.995 1530.42 389.093 1530.42 387.949C1530.42 386.875 1530.09 385.999 1529.43 385.323C1528.79 384.647 1527.97 384.309 1526.98 384.309C1525.84 384.309 1524.97 384.691 1524.38 385.453C1523.81 386.216 1523.53 387.126 1523.53 388.183V396.295H1520.9V391.537C1520.5 392.283 1519.92 392.881 1519.16 393.331C1518.39 393.782 1517.48 394.007 1516.4 394.007C1515.33 394.007 1514.37 393.756 1513.54 393.253C1512.71 392.751 1512.06 392.049 1511.59 391.147C1511.14 390.229 1510.92 389.163 1510.92 387.949C1510.92 386.753 1511.15 385.705 1511.62 384.803C1512.09 383.902 1512.74 383.209 1513.59 382.723C1514.44 382.221 1515.41 381.969 1516.51 381.969C1517.55 381.969 1518.44 382.186 1519.18 382.619C1519.93 383.053 1520.5 383.633 1520.9 384.361V379.343H1508.6V377.055H1535.46V379.343H1523.53ZM1517.29 391.719C1518.07 391.719 1518.72 391.537 1519.26 391.173C1519.82 390.809 1520.22 390.341 1520.48 389.769C1520.76 389.197 1520.9 388.608 1520.9 388.001C1520.9 387.013 1520.59 386.155 1519.96 385.427C1519.34 384.682 1518.45 384.309 1517.29 384.309C1516.26 384.309 1515.4 384.647 1514.71 385.323C1514.02 385.982 1513.67 386.866 1513.67 387.975C1513.67 389.119 1514.01 390.029 1514.69 390.705C1515.36 391.381 1516.23 391.719 1517.29 391.719ZM1539.55 387.793V391.043C1539.55 391.997 1539.77 392.759 1540.2 393.331C1540.63 393.903 1541.27 394.189 1542.12 394.189C1542.9 394.189 1543.52 393.929 1543.97 393.409C1544.44 392.872 1544.67 392.161 1544.67 391.277V390.705H1547.3V391.199C1547.3 392.829 1546.84 394.129 1545.92 395.099C1545.02 396.053 1543.77 396.529 1542.18 396.529C1540.46 396.529 1539.14 396.018 1538.22 394.995C1537.32 393.955 1536.87 392.595 1536.87 390.913V385.557H1539.58C1542.4 385.557 1543.81 384.205 1543.81 381.501V379.343H1534.25V377.055H1549.38V379.343H1546.52V381.501C1546.52 383.512 1546.03 385.063 1545.06 386.155C1544.09 387.247 1542.58 387.793 1540.54 387.793H1539.55ZM1551.31 396.295V379.343H1548.13V377.055H1557.21V379.343H1554.04V396.295H1551.31ZM1444.01 414.343H1440.84V431.295H1438.13V424.405C1437.94 424.683 1437.72 424.925 1437.46 425.133L1431.48 431.711H1428.49L1433.69 426.329C1431.92 426.277 1430.57 425.679 1429.66 424.535C1428.74 423.391 1428.28 421.857 1428.28 419.933V414.343H1425.57V412.055H1444.01V414.343ZM1438.13 414.343H1431.01V419.933C1431.01 421.251 1431.3 422.282 1431.89 423.027C1432.48 423.773 1433.38 424.145 1434.6 424.145C1435.71 424.145 1436.57 423.79 1437.2 423.079C1437.82 422.351 1438.13 421.459 1438.13 420.401V414.343ZM1457.69 414.343V419.413C1458.07 418.668 1458.62 418.079 1459.33 417.645C1460.05 417.195 1460.93 416.969 1461.95 416.969C1463.01 416.969 1463.95 417.229 1464.76 417.749C1465.57 418.252 1466.21 418.954 1466.66 419.855C1467.11 420.739 1467.33 421.753 1467.33 422.897C1467.33 424.128 1467.1 425.194 1466.63 426.095C1466.16 426.979 1465.52 427.664 1464.71 428.149C1463.89 428.617 1462.97 428.851 1461.93 428.851C1461.3 428.851 1460.75 428.791 1460.26 428.669V426.511C1460.52 426.581 1460.84 426.615 1461.22 426.615C1462.19 426.615 1462.99 426.295 1463.62 425.653C1464.26 424.995 1464.58 424.093 1464.58 422.949C1464.58 421.875 1464.25 420.999 1463.59 420.323C1462.95 419.647 1462.13 419.309 1461.15 419.309C1460 419.309 1459.14 419.691 1458.55 420.453C1457.97 421.216 1457.69 422.126 1457.69 423.183V431.295H1455.06V426.537C1454.66 427.283 1454.08 427.881 1453.32 428.331C1452.56 428.782 1451.64 429.007 1450.56 429.007C1449.49 429.007 1448.54 428.756 1447.7 428.253C1446.87 427.751 1446.22 427.049 1445.75 426.147C1445.3 425.229 1445.08 424.163 1445.08 422.949C1445.08 421.753 1445.31 420.705 1445.78 419.803C1446.25 418.902 1446.91 418.209 1447.76 417.723C1448.61 417.221 1449.58 416.969 1450.67 416.969C1451.71 416.969 1452.6 417.186 1453.35 417.619C1454.09 418.053 1454.66 418.633 1455.06 419.361V414.343H1442.76V412.055H1469.62V414.343H1457.69ZM1451.45 426.719C1452.23 426.719 1452.89 426.537 1453.42 426.173C1453.98 425.809 1454.39 425.341 1454.65 424.769C1454.92 424.197 1455.06 423.608 1455.06 423.001C1455.06 422.013 1454.75 421.155 1454.13 420.427C1453.5 419.682 1452.61 419.309 1451.45 419.309C1450.43 419.309 1449.57 419.647 1448.87 420.323C1448.18 420.982 1447.83 421.866 1447.83 422.975C1447.83 424.119 1448.17 425.029 1448.85 425.705C1449.52 426.381 1450.39 426.719 1451.45 426.719ZM1503.43 414.343H1500.26V431.295H1497.55V424.483C1497.12 425.107 1496.55 425.593 1495.84 425.939C1495.13 426.286 1494.3 426.459 1493.34 426.459C1491.83 426.459 1490.61 426.052 1489.68 425.237C1488.76 424.423 1488.16 423.296 1487.88 421.857C1487.66 421.199 1487.31 420.679 1486.84 420.297C1486.37 419.916 1485.79 419.725 1485.1 419.725C1484.06 419.725 1483.27 420.115 1482.73 420.895C1482.21 421.658 1481.95 422.689 1481.95 423.989V424.457H1479.67V423.989C1479.67 422.707 1479.41 421.675 1478.91 420.895C1478.41 420.115 1477.66 419.725 1476.65 419.725C1475.64 419.725 1474.86 420.063 1474.31 420.739C1473.76 421.415 1473.48 422.308 1473.48 423.417C1473.48 424.631 1473.81 425.601 1474.47 426.329C1475.12 427.057 1476.04 427.421 1477.22 427.421L1477.95 427.369V429.761C1477.5 429.796 1477.2 429.813 1477.07 429.813C1475.71 429.813 1474.56 429.536 1473.61 428.981C1472.65 428.427 1471.94 427.664 1471.45 426.693C1470.96 425.723 1470.72 424.613 1470.72 423.365C1470.72 422.1 1470.96 421.017 1471.42 420.115C1471.91 419.214 1472.57 418.529 1473.4 418.061C1474.25 417.576 1475.21 417.333 1476.29 417.333C1477.52 417.333 1478.5 417.671 1479.22 418.347C1479.97 419.006 1480.49 419.838 1480.78 420.843H1480.86C1481.14 419.838 1481.62 419.006 1482.32 418.347C1483.03 417.671 1483.99 417.333 1485.2 417.333C1486.17 417.333 1487.01 417.567 1487.7 418.035V414.343H1468.41V412.055H1503.43V414.343ZM1497.55 414.343H1490.43V419.933C1490.43 421.251 1490.72 422.282 1491.31 423.027C1491.9 423.773 1492.8 424.145 1494.02 424.145C1495.13 424.145 1495.99 423.79 1496.62 423.079C1497.24 422.351 1497.55 421.459 1497.55 420.401V414.343Z" fill="#222222"/>
<circle cx="1467.5" cy="253" r="9" fill="#EE2E5D"/>
</g>
<defs>
<linearGradient id="paint0_linear_210_60" x1="98.2661" y1="56.5609" x2="242.968" y2="120.644" gradientUnits="userSpaceOnUse">
<stop stop-color="#EA384F"/>
<stop offset="1" stop-color="#F4951B"/>
</linearGradient>
<linearGradient id="paint1_linear_210_60" x1="125.383" y1="45.4342" x2="267.87" y2="99.2208" gradientUnits="userSpaceOnUse">
<stop stop-color="#EA384F"/>
<stop offset="1" stop-color="#F4951B"/>
</linearGradient>
<linearGradient id="paint2_linear_210_60" x1="516.737" y1="56.4094" x2="661.55" y2="120.02" gradientUnits="userSpaceOnUse">
<stop stop-color="#EA384F"/>
<stop offset="1" stop-color="#F4951B"/>
</linearGradient>
<linearGradient id="paint3_linear_210_60" x1="543.882" y1="45.4264" x2="686.333" y2="99.1984" gradientUnits="userSpaceOnUse">
<stop stop-color="#EA384F"/>
<stop offset="1" stop-color="#F4951B"/>
</linearGradient>
<linearGradient id="paint4_linear_210_60" x1="934.764" y1="56.5609" x2="1079.47" y2="120.644" gradientUnits="userSpaceOnUse">
<stop stop-color="#EA384F"/>
<stop offset="1" stop-color="#F4951B"/>
</linearGradient>
<linearGradient id="paint5_linear_210_60" x1="961.881" y1="45.4342" x2="1104.37" y2="99.2208" gradientUnits="userSpaceOnUse">
<stop stop-color="#EA384F"/>
<stop offset="1" stop-color="#F4951B"/>
</linearGradient>
<linearGradient id="paint6_linear_210_60" x1="1352.84" y1="55.9109" x2="1497.66" y2="119.521" gradientUnits="userSpaceOnUse">
<stop stop-color="#EA384F"/>
<stop offset="1" stop-color="#F4951B"/>
</linearGradient>
<linearGradient id="paint7_linear_210_60" x1="1380.38" y1="45.4264" x2="1522.83" y2="99.1984" gradientUnits="userSpaceOnUse">
<stop stop-color="#EA384F"/>
<stop offset="1" stop-color="#F4951B"/>
</linearGradient>
<clipPath id="clip0_210_60">
<rect width="1673" height="493.795" fill="white"/>
</clipPath>
<clipPath id="clip1_210_60">
<rect width="178.132" height="168.526" fill="white" transform="translate(120.053)"/>
</clipPath>
<clipPath id="clip2_210_60">
<rect width="178.561" height="168.526" fill="white" transform="translate(538.088)"/>
</clipPath>
<clipPath id="clip3_210_60">
<rect width="178.132" height="168.526" fill="white" transform="translate(956.551)"/>
</clipPath>
<clipPath id="clip4_210_60">
<rect width="178.561" height="168.526" fill="white" transform="translate(1374.59)"/>
</clipPath>
</defs>
</svg>
