<svg width="1673" height="494" viewBox="0 0 1673 494" fill="none" xmlns="http://www.w3.org/2000/svg">
<g clip-path="url(#clip0_210_118)">
<g clip-path="url(#clip1_210_118)">
<path opacity="0.4" d="M268.655 15.4318L131.998 25.47C129.731 25.5935 127.54 26.3265 125.655 27.5916C123.77 28.8568 122.261 30.6072 121.288 32.6582C120.315 34.7093 119.913 36.9849 120.126 39.2451C120.338 41.5053 121.156 43.6663 122.495 45.5002L208.351 162.954C209.693 164.791 211.506 166.23 213.6 167.12C215.693 168.009 217.988 168.316 220.242 168.008C222.496 167.699 224.624 166.786 226.401 165.366C228.178 163.946 229.538 162.072 230.336 159.942L281.19 32.4439C281.927 30.4787 282.161 28.3606 281.872 26.2818C281.583 24.203 280.78 22.2292 279.535 20.5395C278.29 18.8498 276.642 17.4977 274.742 16.6058C272.843 15.7138 270.75 15.3103 268.655 15.4318Z" fill="url(#paint0_linear_210_118)"/>
<path d="M290.517 52.2957L163.437 1.03475C161.349 0.145618 159.059 -0.163281 156.81 0.140654C154.561 0.44459 152.435 1.35008 150.658 2.76157C148.88 4.17307 147.517 6.0382 146.711 8.16013C145.906 10.2821 145.688 12.5821 146.081 14.8175L171.303 158.086C171.692 160.33 172.682 162.426 174.166 164.152C175.651 165.878 177.575 167.17 179.735 167.89C181.894 168.611 184.209 168.733 186.433 168.244C188.656 167.755 190.706 166.673 192.364 165.113L294.222 73.0721C295.747 71.6359 296.89 69.8424 297.548 67.8538C298.206 65.8651 298.358 63.7439 297.99 61.6818C297.622 59.6197 296.746 57.6817 295.442 56.0429C294.137 54.4042 292.445 53.1163 290.517 52.2957Z" fill="url(#paint1_linear_210_118)"/>
<path d="M201.702 91.5109C207.035 91.5146 212.25 89.9306 216.68 86.9607L232.154 102.441C232.757 103.025 233.563 103.352 234.403 103.352C235.242 103.352 236.049 103.025 236.652 102.441L239.657 99.4358C240.241 98.8332 240.568 98.0266 240.568 97.1871C240.568 96.3475 240.241 95.541 239.657 94.9384L224.123 79.5113C227.45 74.5163 229.013 68.553 228.563 62.5684C228.113 56.5838 225.677 50.921 221.641 46.4793C217.605 42.0376 212.2 39.0716 206.286 38.0523C200.371 37.0331 194.286 38.019 188.996 40.8534C183.706 43.6879 179.514 48.2085 177.087 53.6973C174.66 59.1861 174.136 65.3285 175.599 71.1489C177.062 76.9694 180.428 82.1342 185.162 85.8233C189.896 89.5124 195.726 91.5142 201.728 91.5109H201.702ZM201.702 48.1815C204.943 48.1802 208.112 49.1402 210.807 50.94C213.503 52.7399 215.604 55.2988 216.845 58.293C218.086 61.2872 218.411 64.5821 217.779 67.7611C217.147 70.94 215.586 73.8601 213.294 76.152C211.002 78.4438 208.082 80.0044 204.903 80.6364C201.724 81.2684 198.429 80.9434 195.435 79.7025C192.44 78.4615 189.881 76.3604 188.082 73.665C186.282 70.9695 185.322 67.8008 185.323 64.5596C185.326 60.2169 187.053 56.0531 190.124 52.9824C193.195 49.9116 197.359 48.185 201.702 48.1815Z" fill="white"/>
</g>
<path opacity="0.04" d="M69.2163 278.181C69.8802 277.783 70.876 277.583 72.2038 277.583H96.303C96.9668 277.583 97.498 277.849 97.8963 278.38C98.4274 278.778 98.693 279.31 98.693 279.973V414.61C98.693 415.274 98.4274 415.871 97.8963 416.403C97.498 416.801 96.9668 417 96.303 417H73.0005C72.3366 417 71.7391 416.801 71.208 416.403C70.8096 415.871 70.6105 415.274 70.6105 414.61V305.467C70.6105 305.201 70.4777 304.936 70.2121 304.67C69.9466 304.404 69.681 304.338 69.4155 304.471L49.698 309.848L48.9013 310.048C47.7063 310.048 47.1088 309.317 47.1088 307.857L46.5113 290.728C46.5113 289.401 47.1088 288.471 48.3038 287.94L69.2163 278.181Z" fill="#222222"/>
<path d="M132.103 377.055V379.343H128.931V396.295H126.227V388.287L122.639 388.261C122.813 388.764 122.899 389.293 122.899 389.847C122.899 391.355 122.414 392.569 121.443 393.487C120.473 394.406 119.19 394.865 117.595 394.865C116.451 394.865 115.429 394.64 114.527 394.189C113.643 393.739 112.95 393.115 112.447 392.317C111.962 391.503 111.719 390.575 111.719 389.535H114.267C114.267 390.402 114.553 391.121 115.125 391.693C115.715 392.248 116.477 392.525 117.413 392.525C118.332 392.525 119.06 392.257 119.597 391.719C120.135 391.182 120.403 390.471 120.403 389.587C120.403 389.085 120.308 388.643 120.117 388.261H120.065V388.131C119.511 387.143 118.531 386.649 117.127 386.649H116.061V384.439H117.127C118.081 384.439 118.817 384.188 119.337 383.685C119.875 383.165 120.143 382.55 120.143 381.839C120.143 381.025 119.875 380.375 119.337 379.889C118.817 379.387 118.159 379.135 117.361 379.135C116.529 379.135 115.827 379.378 115.255 379.863C114.701 380.331 114.423 380.964 114.423 381.761H111.901C111.901 380.773 112.127 379.907 112.577 379.161C113.045 378.416 113.695 377.844 114.527 377.445C115.359 377.029 116.304 376.821 117.361 376.821C118.921 376.821 120.178 377.246 121.131 378.095C122.102 378.945 122.587 380.071 122.587 381.475C122.587 382.463 122.327 383.313 121.807 384.023C121.287 384.717 120.533 385.193 119.545 385.453V385.505C120.031 385.609 120.481 385.783 120.897 386.025H126.227V377.055H132.103ZM149.317 379.343H146.145V396.295H143.441V389.483C143.008 390.107 142.436 390.593 141.725 390.939C141.014 391.286 140.182 391.459 139.229 391.459C137.392 391.459 135.988 390.87 135.017 389.691C134.064 388.513 133.587 386.927 133.587 384.933V379.343H130.883V377.055H149.317V379.343ZM143.441 379.343H136.317V384.933C136.317 386.251 136.612 387.282 137.201 388.027C137.79 388.773 138.692 389.145 139.905 389.145C141.014 389.145 141.881 388.79 142.505 388.079C143.129 387.351 143.441 386.459 143.441 385.401V379.343ZM170.094 379.343H166.922V396.295H164.192V385.531H159.668C160.448 386.433 160.838 387.516 160.838 388.781C160.838 389.769 160.613 390.636 160.162 391.381C159.712 392.109 159.088 392.664 158.29 393.045C157.51 393.427 156.635 393.617 155.664 393.617C154.659 393.617 153.74 393.409 152.908 392.993C152.076 392.56 151.418 391.953 150.932 391.173C150.464 390.393 150.23 389.483 150.23 388.443C150.23 387.351 150.473 386.415 150.958 385.635C151.461 384.855 152.137 384.266 152.986 383.867C153.853 383.451 154.824 383.243 155.898 383.243H164.192V379.343H148.072V377.055H170.094V379.343ZM155.716 391.303C156.583 391.303 157.285 391.035 157.822 390.497C158.377 389.96 158.654 389.267 158.654 388.417C158.654 387.585 158.377 386.901 157.822 386.363C157.268 385.809 156.566 385.531 155.716 385.531C154.832 385.531 154.104 385.809 153.532 386.363C152.978 386.901 152.7 387.594 152.7 388.443C152.7 389.293 152.978 389.986 153.532 390.523C154.087 391.043 154.815 391.303 155.716 391.303ZM172.014 396.295V379.343H168.842V377.055H177.916V379.343H174.744V396.295H172.014ZM209.13 377.055V379.343H205.958V396.295H203.254V391.095C202.89 391.667 202.396 392.118 201.772 392.447C201.165 392.777 200.437 392.941 199.588 392.941C199.276 392.941 198.964 392.915 198.652 392.863C198.115 393.921 197.343 394.779 196.338 395.437C195.333 396.079 194.154 396.399 192.802 396.399C190.739 396.399 189.101 395.81 187.888 394.631C186.675 393.453 186.068 391.815 186.068 389.717V385.895H186.926C188.087 385.895 188.98 385.618 189.604 385.063C190.245 384.491 190.566 383.521 190.566 382.151V379.343H183.416V377.055H209.13ZM192.88 394.033C193.747 394.033 194.483 393.843 195.09 393.461C195.697 393.08 196.173 392.586 196.52 391.979C195.879 391.511 195.376 390.896 195.012 390.133C194.665 389.371 194.492 388.513 194.492 387.559C194.492 386.537 194.709 385.627 195.142 384.829C195.593 384.015 196.199 383.391 196.962 382.957C197.742 382.507 198.617 382.281 199.588 382.281C200.437 382.281 201.165 382.446 201.772 382.775C202.396 383.105 202.89 383.555 203.254 384.127V379.343H193.296V382.489C193.296 384.275 192.88 385.601 192.048 386.467C191.233 387.334 190.141 387.802 188.772 387.871V390.029C188.772 391.225 189.136 392.196 189.864 392.941C190.592 393.669 191.597 394.033 192.88 394.033ZM200.134 390.835C201.139 390.835 201.911 390.515 202.448 389.873C202.985 389.215 203.254 388.461 203.254 387.611C203.254 386.745 202.985 385.991 202.448 385.349C201.928 384.708 201.157 384.387 200.134 384.387C199.233 384.387 198.47 384.673 197.846 385.245C197.239 385.817 196.936 386.589 196.936 387.559C196.936 388.582 197.239 389.388 197.846 389.977C198.453 390.549 199.215 390.835 200.134 390.835ZM216.967 377.055V379.343H213.795V396.295H211.065V379.343H207.893V377.055H211.143C210.311 375.755 209.626 374.819 209.089 374.247C208.569 373.675 208.057 373.303 207.555 373.129C207.035 372.956 206.333 372.869 205.449 372.869H204.279V370.633H205.397C206.714 370.651 207.754 370.789 208.517 371.049C209.297 371.309 210.077 371.89 210.857 372.791C211.654 373.675 212.616 375.097 213.743 377.055H216.967ZM238.982 379.343H235.81V396.295H233.08V385.739H228.712V387.715C228.712 389.327 228.236 390.636 227.282 391.641C226.329 392.629 225.038 393.123 223.408 393.123C221.744 393.123 220.444 392.629 219.508 391.641C218.59 390.653 218.13 389.345 218.13 387.715V383.399H220.886V387.663C220.886 388.599 221.112 389.345 221.562 389.899C222.013 390.454 222.637 390.731 223.434 390.731C224.249 390.731 224.89 390.454 225.358 389.899C225.826 389.345 226.06 388.599 226.06 387.663V383.399H233.08V379.343H215.738V377.055H238.982V379.343ZM233.203 377.159C232.353 375.825 231.66 374.871 231.123 374.299C230.585 373.71 230.065 373.329 229.563 373.155C229.043 372.965 228.332 372.869 227.431 372.869H226.261V370.633H227.379C228.713 370.651 229.771 370.798 230.551 371.075C231.313 371.335 232.093 371.916 232.891 372.817C233.671 373.719 234.633 375.166 235.777 377.159H233.203ZM239.443 373.181C239.443 373.667 239.278 374.074 238.949 374.403C238.619 374.733 238.212 374.897 237.727 374.897C237.241 374.897 236.834 374.733 236.505 374.403C236.158 374.074 235.985 373.667 235.985 373.181C235.985 372.696 236.158 372.289 236.505 371.959C236.834 371.63 237.241 371.465 237.727 371.465C238.212 371.465 238.619 371.63 238.949 371.959C239.278 372.289 239.443 372.696 239.443 373.181ZM143.012 416.709C143.012 417.767 142.76 418.651 142.258 419.361C141.755 420.055 141.096 420.479 140.282 420.635V420.687C141.339 420.93 142.18 421.511 142.804 422.429C143.445 423.331 143.766 424.388 143.766 425.601C143.766 426.693 143.532 427.664 143.064 428.513C142.613 429.363 141.954 430.03 141.088 430.515C140.221 430.983 139.19 431.217 137.994 431.217C136.78 431.217 135.688 430.975 134.718 430.489C133.764 429.987 133.019 429.293 132.482 428.409C131.944 427.508 131.676 426.477 131.676 425.315H134.276C134.276 426.303 134.614 427.127 135.29 427.785C135.983 428.444 136.841 428.773 137.864 428.773C138.869 428.773 139.675 428.461 140.282 427.837C140.888 427.213 141.192 426.399 141.192 425.393C141.192 424.457 140.897 423.651 140.308 422.975C139.718 422.282 138.843 421.935 137.682 421.935H136.382V419.543H137.318C138.306 419.543 139.06 419.275 139.58 418.737C140.117 418.2 140.386 417.472 140.386 416.553V414.343H129.804V412.055H145.924V414.343H143.012V416.709ZM163.117 414.343H159.945V431.295H157.241V424.483C156.807 425.107 156.235 425.593 155.525 425.939C154.814 426.286 153.982 426.459 153.029 426.459C151.191 426.459 149.787 425.87 148.817 424.691C147.863 423.513 147.387 421.927 147.387 419.933V414.343H144.683V412.055H163.117V414.343ZM157.241 414.343H150.117V419.933C150.117 421.251 150.411 422.282 151.001 423.027C151.59 423.773 152.491 424.145 153.705 424.145C154.814 424.145 155.681 423.79 156.305 423.079C156.929 422.351 157.241 421.459 157.241 420.401V414.343ZM176.796 414.343V419.413C177.177 418.668 177.723 418.079 178.434 417.645C179.162 417.195 180.037 416.969 181.06 416.969C182.117 416.969 183.053 417.229 183.868 417.749C184.683 418.252 185.315 418.954 185.766 419.855C186.217 420.739 186.442 421.753 186.442 422.897C186.442 424.128 186.208 425.194 185.74 426.095C185.272 426.979 184.631 427.664 183.816 428.149C183.001 428.617 182.074 428.851 181.034 428.851C180.41 428.851 179.855 428.791 179.37 428.669V426.511C179.63 426.581 179.951 426.615 180.332 426.615C181.303 426.615 182.1 426.295 182.724 425.653C183.365 424.995 183.686 424.093 183.686 422.949C183.686 421.875 183.357 420.999 182.698 420.323C182.057 419.647 181.242 419.309 180.254 419.309C179.11 419.309 178.243 419.691 177.654 420.453C177.082 421.216 176.796 422.126 176.796 423.183V431.295H174.17V426.537C173.771 427.283 173.191 427.881 172.428 428.331C171.665 428.782 170.747 429.007 169.672 429.007C168.597 429.007 167.644 428.756 166.812 428.253C165.98 427.751 165.33 427.049 164.862 426.147C164.411 425.229 164.186 424.163 164.186 422.949C164.186 421.753 164.42 420.705 164.888 419.803C165.356 418.902 166.015 418.209 166.864 417.723C167.713 417.221 168.684 416.969 169.776 416.969C170.816 416.969 171.709 417.186 172.454 417.619C173.199 418.053 173.771 418.633 174.17 419.361V414.343H161.872V412.055H188.73V414.343H176.796ZM170.556 426.719C171.336 426.719 171.995 426.537 172.532 426.173C173.087 425.809 173.494 425.341 173.754 424.769C174.031 424.197 174.17 423.608 174.17 423.001C174.17 422.013 173.858 421.155 173.234 420.427C172.61 419.682 171.717 419.309 170.556 419.309C169.533 419.309 168.675 419.647 167.982 420.323C167.289 420.982 166.942 421.866 166.942 422.975C166.942 424.119 167.28 425.029 167.956 425.705C168.632 426.381 169.499 426.719 170.556 426.719ZM192.821 422.793V426.043C192.821 426.997 193.037 427.759 193.471 428.331C193.904 428.903 194.545 429.189 195.395 429.189C196.175 429.189 196.79 428.929 197.241 428.409C197.709 427.872 197.943 427.161 197.943 426.277V425.705H200.569V426.199C200.569 427.829 200.109 429.129 199.191 430.099C198.289 431.053 197.041 431.529 195.447 431.529C193.731 431.529 192.413 431.018 191.495 429.995C190.593 428.955 190.143 427.595 190.143 425.913V420.557H192.847C195.672 420.557 197.085 419.205 197.085 416.501V414.343H187.517V412.055H202.649V414.343H199.789V416.501C199.789 418.512 199.303 420.063 198.333 421.155C197.362 422.247 195.854 422.793 193.809 422.793H192.821ZM225.195 414.343H222.023V431.295H219.293V414.343H214.691V421.467C214.691 423.062 214.241 424.353 213.339 425.341C212.438 426.329 211.155 426.823 209.491 426.823C207.845 426.823 206.571 426.329 205.669 425.341C204.768 424.336 204.317 423.045 204.317 421.467V414.343H201.405V412.055H225.195V414.343ZM212.013 414.343H206.995V421.727C206.995 422.559 207.221 423.235 207.671 423.755C208.139 424.258 208.755 424.509 209.517 424.509C210.297 424.509 210.904 424.258 211.337 423.755C211.788 423.235 212.013 422.559 212.013 421.727V414.343Z" fill="#222222"/>
<path d="M93.1676 253C93.1676 255.946 95.5555 258.333 98.501 258.333C101.446 258.333 103.834 255.946 103.834 253C103.834 250.054 101.446 247.667 98.501 247.667C95.5555 247.667 93.1676 250.054 93.1676 253ZM1567.17 253C1567.17 255.945 1569.56 258.333 1572.5 258.333C1575.45 258.333 1577.83 255.945 1577.83 253C1577.83 250.054 1575.45 247.667 1572.5 247.667C1569.56 247.667 1567.17 250.054 1567.17 253ZM98.501 254L104.966 254L104.966 252L98.501 252L98.501 254ZM117.896 254L130.826 254L130.826 252L117.896 252L117.896 254ZM143.755 254L156.685 254L156.685 252L143.755 252L143.755 254ZM169.615 254L182.545 254L182.545 252L169.615 252L169.615 254ZM195.475 254L208.404 254L208.404 252L195.475 252L195.475 254ZM221.334 254L234.264 254L234.264 252L221.334 252L221.334 254ZM247.194 254L260.124 254L260.124 252L247.194 252L247.194 254ZM273.054 254L285.983 254L285.983 252L273.054 252L273.054 254ZM298.913 254L311.843 254L311.843 252L298.913 252L298.913 254ZM324.773 254L337.703 254L337.703 252L324.773 252L324.773 254ZM350.633 254L363.562 254L363.562 252L350.633 252L350.633 254ZM376.492 254L389.422 254L389.422 252L376.492 252L376.492 254ZM402.352 254L415.282 254L415.282 252L402.352 252L402.352 254ZM428.211 254L441.141 254L441.141 252L428.211 252L428.211 254ZM454.071 254L467.001 254L467.001 252L454.071 252L454.071 254ZM479.931 254L492.86 254L492.86 252L479.931 252L479.931 254ZM505.79 254L518.72 254L518.72 252L505.79 252L505.79 254ZM531.65 254L544.58 254L544.58 252L531.65 252L531.65 254ZM557.51 254L570.439 254L570.439 252L557.51 252L557.51 254ZM583.369 254L596.299 254L596.299 252L583.369 252L583.369 254ZM609.229 254L622.159 254L622.159 252L609.229 252L609.229 254ZM635.088 254L648.018 254L648.018 252L635.088 252L635.088 254ZM660.948 254L673.878 254L673.878 252L660.948 252L660.948 254ZM686.808 254L699.737 254L699.737 252L686.808 252L686.808 254ZM712.667 254L725.597 254L725.597 252L712.667 252L712.667 254ZM738.527 254L751.457 254L751.457 252L738.527 252L738.527 254ZM764.386 254L777.316 254L777.316 252L764.386 252L764.386 254ZM790.246 254L803.176 254L803.176 252L790.246 252L790.246 254ZM816.106 254L829.036 254L829.036 252L816.106 252L816.106 254ZM841.965 254L854.895 254L854.895 252L841.965 252L841.965 254ZM867.825 254L880.755 254L880.755 252L867.825 252L867.825 254ZM893.685 254L906.614 254L906.614 252L893.685 252L893.685 254ZM919.544 254L932.474 254L932.474 252L919.544 252L919.544 254ZM945.404 254L958.334 254L958.334 252L945.404 252L945.404 254ZM971.263 254L984.193 254L984.193 252L971.263 252L971.263 254ZM997.123 254L1010.05 254L1010.05 252L997.123 252L997.123 254ZM1022.98 254L1035.91 254L1035.91 252L1022.98 252L1022.98 254ZM1048.84 254L1061.77 254L1061.77 252L1048.84 252L1048.84 254ZM1074.7 254L1087.63 254L1087.63 252L1074.7 252L1074.7 254ZM1100.56 254L1113.49 254L1113.49 252L1100.56 252L1100.56 254ZM1126.42 254L1139.35 254L1139.35 252L1126.42 252L1126.42 254ZM1152.28 254L1165.21 254L1165.21 252L1152.28 252L1152.28 254ZM1178.14 254L1191.07 254L1191.07 252L1178.14 252L1178.14 254ZM1204 254L1216.93 254L1216.93 252L1204 252L1204 254ZM1229.86 254L1242.79 254L1242.79 252L1229.86 252L1229.86 254ZM1255.72 254L1268.65 254L1268.65 252L1255.72 252L1255.72 254ZM1281.58 254L1294.51 254L1294.51 252L1281.58 252L1281.58 254ZM1307.44 254L1320.37 254L1320.37 252L1307.44 252L1307.44 254ZM1333.3 254L1346.23 254L1346.23 252L1333.3 252L1333.3 254ZM1359.16 254L1372.09 254L1372.09 252L1359.16 252L1359.16 254ZM1385.02 254L1397.95 254L1397.95 252L1385.02 252L1385.02 254ZM1410.88 254L1423.81 254L1423.81 252L1410.88 252L1410.88 254ZM1436.74 254L1449.67 254L1449.67 252L1436.74 252L1436.74 254ZM1462.6 254L1475.53 254L1475.53 252L1462.6 252L1462.6 254ZM1488.46 254L1501.39 254L1501.39 252L1488.46 252L1488.46 254ZM1514.32 254L1527.25 254L1527.25 252L1514.32 252L1514.32 254ZM1540.18 254L1553.1 254L1553.1 252L1540.18 252L1540.18 254ZM1566.03 254L1572.5 254L1572.5 252L1566.03 252L1566.03 254Z" fill="#FAA61A"/>
<circle cx="204.5" cy="253" r="9" fill="#EE2E5D"/>
<g clip-path="url(#clip2_210_118)">
<path opacity="0.4" d="M686.58 15.0346L550.172 27.7635C547.909 27.9323 545.733 28.7086 543.875 30.0106C542.017 31.3126 540.544 33.092 539.612 35.1612C538.68 37.2304 538.324 39.5127 538.581 41.7675C538.838 44.0222 539.699 46.1658 541.072 47.9723L629.188 163.707C630.565 165.516 632.406 166.919 634.516 167.767C636.626 168.614 638.926 168.875 641.172 168.522C643.418 168.169 645.526 167.215 647.274 165.761C649.022 164.307 650.344 162.407 651.1 160.262L699.4 31.7921C700.095 29.8169 700.288 27.6995 699.96 25.6311C699.632 23.5628 698.794 21.6087 697.522 19.9455C696.25 18.2822 694.583 16.9623 692.673 16.1049C690.762 15.2475 688.668 14.8796 686.58 15.0346Z" fill="url(#paint2_linear_210_118)"/>
<path d="M708.981 52.2962L581.928 1.03932C579.84 0.149671 577.551 -0.159754 575.303 0.143711C573.054 0.447176 570.928 1.35227 569.151 2.76345C567.374 4.17462 566.011 6.03952 565.205 8.16126C564.4 10.283 564.182 12.5829 564.575 14.8181L589.788 158.084C590.184 160.324 591.178 162.414 592.664 164.135C594.151 165.856 596.076 167.142 598.234 167.858C600.392 168.574 602.704 168.694 604.925 168.203C607.145 167.712 609.192 166.631 610.847 165.072L712.681 73.0693C714.204 71.6329 715.346 69.8399 716.003 67.852C716.66 65.8641 716.812 63.7439 716.445 61.6827C716.077 59.6215 715.203 57.6841 713.9 56.0454C712.597 54.4067 710.907 53.1182 708.981 52.2962Z" fill="url(#paint3_linear_210_118)"/>
<path d="M619.663 46.9356H602.362C601.454 46.9348 600.554 47.1131 599.715 47.4603C598.876 47.8075 598.113 48.3169 597.471 48.9592C596.828 49.6016 596.319 50.3643 595.972 51.2037C595.625 52.0432 595.446 52.9428 595.447 53.8512V102.293C595.446 103.202 595.625 104.101 595.972 104.941C596.319 105.78 596.828 106.543 597.471 107.185C598.113 107.828 598.876 108.337 599.715 108.684C600.554 109.031 601.454 109.21 602.362 109.209H619.663V116.131H626.577V40.02H619.663V46.9356ZM619.663 98.8289H602.362L619.663 78.069V98.8289ZM650.793 46.9356H633.499V53.8512H650.793V98.8289L633.499 78.069V109.209H650.793C651.701 109.21 652.601 109.032 653.441 108.684C654.281 108.337 655.044 107.828 655.687 107.186C656.329 106.543 656.839 105.781 657.187 104.941C657.535 104.102 657.714 103.202 657.714 102.293V53.8512C657.714 52.9425 657.535 52.0427 657.187 51.2032C656.839 50.3638 656.329 49.6011 655.687 48.9588C655.044 48.3166 654.281 47.8073 653.441 47.4602C652.601 47.113 651.701 46.9348 650.793 46.9356Z" fill="white"/>
</g>
<path opacity="0.04" d="M462.938 391.706C462.672 391.971 462.606 392.237 462.738 392.503C462.871 392.768 463.137 392.901 463.535 392.901H517.509C518.173 392.901 518.704 393.166 519.103 393.698C519.634 394.096 519.899 394.627 519.899 395.291V414.61C519.899 415.274 519.634 415.871 519.103 416.403C518.704 416.801 518.173 417 517.509 417H427.884C427.22 417 426.623 416.801 426.092 416.403C425.693 415.871 425.494 415.274 425.494 414.61V396.287C425.494 395.092 425.893 394.096 426.689 393.299C433.195 386.926 439.834 380.021 446.606 372.586C453.378 365.018 457.627 360.304 459.353 358.445C463.07 354.063 466.855 349.881 470.705 345.898C482.788 332.487 488.829 322.529 488.829 316.023C488.829 311.375 487.17 307.591 483.85 304.67C480.531 301.616 476.215 300.089 470.904 300.089C465.593 300.089 461.278 301.616 457.958 304.67C454.639 307.591 452.979 311.508 452.979 316.421V321.4C452.979 322.064 452.714 322.661 452.183 323.193C451.784 323.591 451.253 323.79 450.589 323.79H427.088C426.424 323.79 425.826 323.591 425.295 323.193C424.897 322.661 424.698 322.064 424.698 321.4V312.039C425.096 304.869 427.353 298.562 431.469 293.118C435.585 287.542 441.029 283.293 447.801 280.372C454.705 277.451 462.406 275.99 470.904 275.99C480.331 275.99 488.497 277.783 495.402 281.368C502.439 284.82 507.816 289.533 511.534 295.508C515.385 301.483 517.31 308.122 517.31 315.425C517.31 321.002 515.916 326.711 513.128 332.553C510.339 338.396 506.157 344.703 500.58 351.474C496.464 356.653 492.016 361.764 487.236 366.81C482.456 371.856 475.352 379.158 465.925 388.718L462.938 391.706Z" fill="#222222"/>
<path d="M549.947 377.055V379.343H546.775V396.295H544.071V388.287L540.483 388.261C540.656 388.764 540.743 389.293 540.743 389.847C540.743 391.355 540.258 392.569 539.287 393.487C538.316 394.406 537.034 394.865 535.439 394.865C534.295 394.865 533.272 394.64 532.371 394.189C531.487 393.739 530.794 393.115 530.291 392.317C529.806 391.503 529.563 390.575 529.563 389.535H532.111C532.111 390.402 532.397 391.121 532.969 391.693C533.558 392.248 534.321 392.525 535.257 392.525C536.176 392.525 536.904 392.257 537.441 391.719C537.978 391.182 538.247 390.471 538.247 389.587C538.247 389.085 538.152 388.643 537.961 388.261H537.909V388.131C537.354 387.143 536.375 386.649 534.971 386.649H533.905V384.439H534.971C535.924 384.439 536.661 384.188 537.181 383.685C537.718 383.165 537.987 382.55 537.987 381.839C537.987 381.025 537.718 380.375 537.181 379.889C536.661 379.387 536.002 379.135 535.205 379.135C534.373 379.135 533.671 379.378 533.099 379.863C532.544 380.331 532.267 380.964 532.267 381.761H529.745C529.745 380.773 529.97 379.907 530.421 379.161C530.889 378.416 531.539 377.844 532.371 377.445C533.203 377.029 534.148 376.821 535.205 376.821C536.765 376.821 538.022 377.246 538.975 378.095C539.946 378.945 540.431 380.071 540.431 381.475C540.431 382.463 540.171 383.313 539.651 384.023C539.131 384.717 538.377 385.193 537.389 385.453V385.505C537.874 385.609 538.325 385.783 538.741 386.025H544.071V377.055H549.947ZM567.161 379.343H563.989V396.295H561.285V389.483C560.851 390.107 560.279 390.593 559.569 390.939C558.858 391.286 558.026 391.459 557.073 391.459C555.235 391.459 553.831 390.87 552.861 389.691C551.907 388.513 551.431 386.927 551.431 384.933V379.343H548.727V377.055H567.161V379.343ZM561.285 379.343H554.161V384.933C554.161 386.251 554.455 387.282 555.045 388.027C555.634 388.773 556.535 389.145 557.749 389.145C558.858 389.145 559.725 388.79 560.349 388.079C560.973 387.351 561.285 386.459 561.285 385.401V379.343ZM587.938 379.343H584.766V396.295H582.036V385.531H577.512C578.292 386.433 578.682 387.516 578.682 388.781C578.682 389.769 578.457 390.636 578.006 391.381C577.555 392.109 576.931 392.664 576.134 393.045C575.354 393.427 574.479 393.617 573.508 393.617C572.503 393.617 571.584 393.409 570.752 392.993C569.92 392.56 569.261 391.953 568.776 391.173C568.308 390.393 568.074 389.483 568.074 388.443C568.074 387.351 568.317 386.415 568.802 385.635C569.305 384.855 569.981 384.266 570.83 383.867C571.697 383.451 572.667 383.243 573.742 383.243H582.036V379.343H565.916V377.055H587.938V379.343ZM573.56 391.303C574.427 391.303 575.129 391.035 575.666 390.497C576.221 389.96 576.498 389.267 576.498 388.417C576.498 387.585 576.221 386.901 575.666 386.363C575.111 385.809 574.409 385.531 573.56 385.531C572.676 385.531 571.948 385.809 571.376 386.363C570.821 386.901 570.544 387.594 570.544 388.443C570.544 389.293 570.821 389.986 571.376 390.523C571.931 391.043 572.659 391.303 573.56 391.303ZM595.76 377.055V379.343H592.588V396.295H589.858V379.343H586.686V377.055H589.936V375.989C589.936 374.984 589.745 374.143 589.364 373.467C588.982 372.774 588.306 372.427 587.336 372.427C586.365 372.427 585.68 372.774 585.282 373.467C584.883 374.143 584.684 374.984 584.684 375.989V377.679H582.032V376.119C582.032 374.299 582.456 372.852 583.306 371.777C584.155 370.685 585.498 370.139 587.336 370.139C589.208 370.139 590.551 370.677 591.366 371.751C592.18 372.826 592.588 374.282 592.588 376.119V377.055H595.76ZM620.656 379.343H617.484V396.295H614.754V385.739H611.114C609.623 385.739 608.453 386.095 607.604 386.805C606.754 387.516 606.33 388.547 606.33 389.899C606.33 391.217 606.702 392.248 607.448 392.993C608.21 393.721 609.302 394.085 610.724 394.085H611.27V396.243H610.334C608.288 396.243 606.65 395.706 605.42 394.631C604.189 393.539 603.574 391.945 603.574 389.847C603.574 387.698 604.25 386.086 605.602 385.011C606.954 383.937 608.748 383.399 610.984 383.399H614.754V379.343H601.26V377.055H620.656V379.343ZM620.116 399.805C620.116 401.227 619.648 402.345 618.712 403.159C617.759 403.974 616.459 404.381 614.812 404.381C613.009 404.381 611.519 403.913 610.34 402.977C609.144 402.059 608.572 400.655 608.624 398.765H611.042C610.99 399.927 611.311 400.793 612.004 401.365C612.68 401.955 613.59 402.249 614.734 402.249C615.687 402.249 616.441 402.033 616.996 401.599C617.533 401.166 617.802 400.559 617.802 399.779C617.802 399.155 617.594 398.627 617.178 398.193C616.762 397.777 616.19 397.569 615.462 397.569H614.76V395.437H615.462C616.953 395.437 618.105 395.836 618.92 396.633C619.717 397.431 620.116 398.488 620.116 399.805ZM638.212 379.343V382.567C639.356 382.914 640.257 383.59 640.916 384.595C641.592 385.601 641.93 386.857 641.93 388.365C641.93 389.613 641.687 390.723 641.202 391.693C640.717 392.664 639.997 393.427 639.044 393.981C638.091 394.536 636.938 394.813 635.586 394.813C635.447 394.813 635.153 394.796 634.702 394.761V392.369L635.43 392.421C636.609 392.421 637.527 392.057 638.186 391.329C638.845 390.601 639.174 389.631 639.174 388.417C639.174 387.325 638.905 386.441 638.368 385.765C637.831 385.072 637.077 384.725 636.106 384.725C635.066 384.725 634.277 385.115 633.74 385.895C633.22 386.658 632.96 387.689 632.96 388.989V389.457H630.672V388.989C630.672 387.707 630.421 386.675 629.918 385.895C629.415 385.115 628.661 384.725 627.656 384.725C626.651 384.725 625.871 385.063 625.316 385.739C624.761 386.415 624.484 387.308 624.484 388.417C624.484 389.631 624.813 390.601 625.472 391.329C626.131 392.057 627.049 392.421 628.228 392.421L628.956 392.369V394.761C628.505 394.796 628.211 394.813 628.072 394.813C626.72 394.813 625.567 394.536 624.614 393.981C623.661 393.427 622.941 392.664 622.456 391.693C621.971 390.723 621.728 389.613 621.728 388.365C621.728 387.1 621.962 386.017 622.43 385.115C622.915 384.214 623.574 383.529 624.406 383.061C625.255 382.576 626.217 382.333 627.292 382.333C628.523 382.333 629.502 382.671 630.23 383.347C630.975 384.006 631.495 384.838 631.79 385.843H631.868C632.128 384.977 632.553 384.231 633.142 383.607C633.749 382.983 634.546 382.585 635.534 382.411V379.343H619.414V377.055H644.218V379.343H638.212ZM665.024 379.343H661.852V396.295H659.122V385.531H654.598C655.378 386.433 655.768 387.516 655.768 388.781C655.768 389.769 655.543 390.636 655.092 391.381C654.641 392.109 654.017 392.664 653.22 393.045C652.44 393.427 651.565 393.617 650.594 393.617C649.589 393.617 648.67 393.409 647.838 392.993C647.006 392.56 646.347 391.953 645.862 391.173C645.394 390.393 645.16 389.483 645.16 388.443C645.16 387.351 645.403 386.415 645.888 385.635C646.391 384.855 647.067 384.266 647.916 383.867C648.783 383.451 649.753 383.243 650.828 383.243H659.122V379.343H643.002V377.055H665.024V379.343ZM650.646 391.303C651.513 391.303 652.215 391.035 652.752 390.497C653.307 389.96 653.584 389.267 653.584 388.417C653.584 387.585 653.307 386.901 652.752 386.363C652.197 385.809 651.495 385.531 650.646 385.531C649.762 385.531 649.034 385.809 648.462 386.363C647.907 386.901 647.63 387.594 647.63 388.443C647.63 389.293 647.907 389.986 648.462 390.523C649.017 391.043 649.745 391.303 650.646 391.303ZM666.944 396.295V379.343H663.772V377.055H672.846V379.343H669.674V396.295H666.944ZM693.27 379.343V384.413C693.651 383.668 694.197 383.079 694.908 382.645C695.636 382.195 696.511 381.969 697.534 381.969C698.591 381.969 699.527 382.229 700.342 382.749C701.156 383.252 701.789 383.954 702.24 384.855C702.69 385.739 702.916 386.753 702.916 387.897C702.916 389.128 702.682 390.194 702.214 391.095C701.746 391.979 701.104 392.664 700.29 393.149C699.475 393.617 698.548 393.851 697.508 393.851C696.884 393.851 696.329 393.791 695.844 393.669V391.511C696.104 391.581 696.424 391.615 696.806 391.615C697.776 391.615 698.574 391.295 699.198 390.653C699.839 389.995 700.16 389.093 700.16 387.949C700.16 386.875 699.83 385.999 699.172 385.323C698.53 384.647 697.716 384.309 696.728 384.309C695.584 384.309 694.717 384.691 694.128 385.453C693.556 386.216 693.27 387.126 693.27 388.183V396.295H690.644V391.537C690.245 392.283 689.664 392.881 688.902 393.331C688.139 393.782 687.22 394.007 686.146 394.007C685.071 394.007 684.118 393.756 683.286 393.253C682.454 392.751 681.804 392.049 681.336 391.147C680.885 390.229 680.66 389.163 680.66 387.949C680.66 386.753 680.894 385.705 681.362 384.803C681.83 383.902 682.488 383.209 683.338 382.723C684.187 382.221 685.158 381.969 686.25 381.969C687.29 381.969 688.182 382.186 688.928 382.619C689.673 383.053 690.245 383.633 690.644 384.361V379.343H678.346V377.055H705.204V379.343H693.27ZM687.03 391.719C687.81 391.719 688.468 391.537 689.006 391.173C689.56 390.809 689.968 390.341 690.228 389.769C690.505 389.197 690.644 388.608 690.644 388.001C690.644 387.013 690.332 386.155 689.708 385.427C689.084 384.682 688.191 384.309 687.03 384.309C686.007 384.309 685.149 384.647 684.456 385.323C683.762 385.982 683.416 386.866 683.416 387.975C683.416 389.119 683.754 390.029 684.43 390.705C685.106 391.381 685.972 391.719 687.03 391.719ZM709.294 387.793V391.043C709.294 391.997 709.511 392.759 709.944 393.331C710.378 393.903 711.019 394.189 711.868 394.189C712.648 394.189 713.264 393.929 713.714 393.409C714.182 392.872 714.416 392.161 714.416 391.277V390.705H717.042V391.199C717.042 392.829 716.583 394.129 715.664 395.099C714.763 396.053 713.515 396.529 711.92 396.529C710.204 396.529 708.887 396.018 707.968 394.995C707.067 393.955 706.616 392.595 706.616 390.913V385.557H709.32C712.146 385.557 713.558 384.205 713.558 381.501V379.343H703.99V377.055H719.122V379.343H716.262V381.501C716.262 383.512 715.777 385.063 714.806 386.155C713.836 387.247 712.328 387.793 710.282 387.793H709.294ZM713.685 377.159C712.836 375.825 712.142 374.871 711.605 374.299C711.068 373.71 710.548 373.329 710.045 373.155C709.525 372.965 708.814 372.869 707.913 372.869H706.743V370.633H707.861C709.196 370.651 710.253 370.798 711.033 371.075C711.796 371.335 712.576 371.916 713.373 372.817C714.153 373.719 715.115 375.166 716.259 377.159H713.685ZM719.925 373.181C719.925 373.667 719.76 374.074 719.431 374.403C719.102 374.733 718.694 374.897 718.209 374.897C717.724 374.897 717.316 374.733 716.987 374.403C716.64 374.074 716.467 373.667 716.467 373.181C716.467 372.696 716.64 372.289 716.987 371.959C717.316 371.63 717.724 371.465 718.209 371.465C718.694 371.465 719.102 371.63 719.431 371.959C719.76 372.289 719.925 372.696 719.925 373.181ZM616.695 414.343H613.523V431.295H610.793V426.329C610.29 427.109 609.614 427.725 608.765 428.175C607.933 428.609 606.988 428.825 605.931 428.825C604.908 428.825 603.981 428.626 603.149 428.227C602.334 427.811 601.684 427.222 601.199 426.459C600.714 425.679 600.471 424.761 600.471 423.703C600.471 422.871 600.636 422.126 600.965 421.467C601.312 420.809 601.806 420.271 602.447 419.855H598.131V417.697H607.621V419.855H606.659C605.584 419.855 604.709 420.176 604.033 420.817C603.374 421.441 603.045 422.256 603.045 423.261C603.045 424.284 603.392 425.09 604.085 425.679C604.796 426.269 605.671 426.563 606.711 426.563C607.924 426.546 608.904 426.113 609.649 425.263C610.412 424.414 610.793 423.348 610.793 422.065V414.343H596.207V412.055H616.695V414.343ZM636.019 414.343H632.847V431.295H630.117V426.095C629.597 426.858 628.878 427.473 627.959 427.941C627.04 428.392 625.948 428.617 624.683 428.617C622.482 428.617 620.774 427.959 619.561 426.641C618.365 425.324 617.767 423.539 617.767 421.285C617.767 420.835 617.793 420.393 617.845 419.959H618.183C619.674 419.959 620.783 419.647 621.511 419.023C622.239 418.382 622.603 417.359 622.603 415.955V414.343H615.453V412.055H636.019V414.343ZM630.117 414.343H625.307V416.423C625.307 419.578 623.686 421.251 620.445 421.441V421.545C620.445 423.001 620.87 424.163 621.719 425.029C622.568 425.896 623.747 426.329 625.255 426.329C626.174 426.329 627.006 426.13 627.751 425.731C628.496 425.333 629.077 424.778 629.493 424.067C629.909 423.357 630.117 422.551 630.117 421.649V414.343ZM656.797 414.343H653.625V431.295H650.895V420.531H646.371C647.151 421.433 647.541 422.516 647.541 423.781C647.541 424.769 647.316 425.636 646.865 426.381C646.415 427.109 645.791 427.664 644.993 428.045C644.213 428.427 643.338 428.617 642.367 428.617C641.362 428.617 640.443 428.409 639.611 427.993C638.779 427.56 638.121 426.953 637.635 426.173C637.167 425.393 636.933 424.483 636.933 423.443C636.933 422.351 637.176 421.415 637.661 420.635C638.164 419.855 638.84 419.266 639.689 418.867C640.556 418.451 641.527 418.243 642.601 418.243H650.895V414.343H634.775V412.055H656.797V414.343ZM642.419 426.303C643.286 426.303 643.988 426.035 644.525 425.497C645.08 424.96 645.357 424.267 645.357 423.417C645.357 422.585 645.08 421.901 644.525 421.363C643.971 420.809 643.269 420.531 642.419 420.531C641.535 420.531 640.807 420.809 640.235 421.363C639.681 421.901 639.403 422.594 639.403 423.443C639.403 424.293 639.681 424.986 640.235 425.523C640.79 426.043 641.518 426.303 642.419 426.303Z" fill="#222222"/>
<circle cx="625.5" cy="253" r="9" fill="#EE2E5D"/>
<g clip-path="url(#clip3_210_118)">
<path opacity="0.4" d="M1105.15 15.4318L968.496 25.47C966.229 25.5935 964.038 26.3265 962.153 27.5916C960.268 28.8568 958.759 30.6072 957.786 32.6582C956.813 34.7093 956.411 36.9849 956.624 39.2451C956.836 41.5053 957.654 43.6663 958.993 45.5002L1044.85 162.954C1046.19 164.791 1048 166.23 1050.1 167.12C1052.19 168.009 1054.49 168.316 1056.74 168.008C1058.99 167.699 1061.12 166.786 1062.9 165.366C1064.68 163.946 1066.04 162.072 1066.83 159.942L1117.69 32.4439C1118.42 30.4787 1118.66 28.3606 1118.37 26.2818C1118.08 24.203 1117.28 22.2292 1116.03 20.5395C1114.79 18.8498 1113.14 17.4977 1111.24 16.6058C1109.34 15.7138 1107.25 15.3103 1105.15 15.4318Z" fill="url(#paint4_linear_210_118)"/>
<path d="M1127.02 52.2957L999.935 1.03475C997.847 0.145618 995.557 -0.163281 993.308 0.140654C991.059 0.44459 988.933 1.35008 987.156 2.76157C985.378 4.17307 984.015 6.0382 983.209 8.16013C982.404 10.2821 982.186 12.5821 982.579 14.8175L1007.8 158.086C1008.19 160.33 1009.18 162.426 1010.66 164.152C1012.15 165.878 1014.07 167.17 1016.23 167.89C1018.39 168.611 1020.71 168.733 1022.93 168.244C1025.15 167.755 1027.2 166.673 1028.86 165.113L1130.72 73.0721C1132.25 71.6359 1133.39 69.8424 1134.05 67.8538C1134.7 65.8651 1134.86 63.7439 1134.49 61.6818C1134.12 59.6197 1133.24 57.6817 1131.94 56.0429C1130.64 54.4042 1128.94 53.1163 1127.02 52.2957Z" fill="url(#paint5_linear_210_118)"/>
<path d="M1068.44 88.0502C1068.5 89.5241 1068.95 90.9564 1069.73 92.2048C1070.52 93.4532 1071.62 94.4743 1072.92 95.1664C1074.22 95.8586 1075.68 96.1979 1077.16 96.1505C1078.63 96.103 1080.07 95.6706 1081.33 94.8962C1082.58 94.1217 1083.61 93.0322 1084.32 91.7359C1085.02 90.4396 1085.37 88.9816 1085.34 87.5068C1085.3 86.032 1084.89 84.5918 1084.12 83.3293C1083.36 82.0668 1082.28 81.026 1080.99 80.3102V62.6443L1076.8 66.8312V81.664C1076.8 82.1022 1076.94 82.5294 1077.2 82.885C1077.45 83.2406 1077.81 83.5066 1078.23 83.6453C1078.97 83.8938 1079.62 84.3387 1080.12 84.9321C1080.62 85.5254 1080.95 86.2446 1081.08 87.012C1081.2 87.7794 1081.11 88.5658 1080.82 89.2863C1080.53 90.0069 1080.05 90.6342 1079.42 91.1005C1078.8 91.5668 1078.07 91.8544 1077.29 91.9323C1076.52 92.0102 1075.74 91.8753 1075.04 91.5423C1074.33 91.2093 1073.74 90.6908 1073.31 90.0427C1072.88 89.3947 1072.63 88.6418 1072.6 87.8653C1072.6 87.5842 1072.54 87.3066 1072.43 87.049C1072.32 86.7914 1072.15 86.559 1071.95 86.3657C1071.74 86.1724 1071.5 86.0221 1071.24 85.9238C1070.98 85.8256 1070.7 85.7814 1070.42 85.7938C1070.14 85.8062 1069.86 85.875 1069.61 85.9961C1069.35 86.1172 1069.13 86.2882 1068.94 86.4987C1068.75 86.7093 1068.61 86.9552 1068.52 87.2217C1068.43 87.4883 1068.4 87.77 1068.42 88.0502H1068.44ZM1036.28 93.8948V98.0818H1022.26C1020.04 98.0818 1017.91 98.964 1016.34 100.534C1014.77 102.105 1013.88 104.235 1013.88 106.456C1013.88 108.677 1014.77 110.807 1016.34 112.377C1017.91 113.947 1020.04 114.83 1022.26 114.83H1064.27C1066.49 114.83 1068.62 113.947 1070.19 112.377C1071.76 110.807 1072.64 108.677 1072.64 106.456C1072.64 104.235 1071.76 102.105 1070.19 100.534C1068.62 98.964 1066.49 98.0818 1064.27 98.0818H1050.24V93.8948H1055.89C1056.45 93.8948 1056.98 93.6742 1057.37 93.2816C1057.77 92.889 1057.99 92.3565 1057.99 91.8013V85.5208H1028.68C1028.12 85.5208 1027.59 85.3002 1027.2 84.9076C1026.8 84.515 1026.58 83.9825 1026.58 83.4273V72.9598H1018.77C1017.47 72.9616 1016.23 73.477 1015.32 74.3931C1014.4 75.3093 1013.88 76.5513 1013.88 77.8469V91.8079C1013.88 92.3631 1014.1 92.8956 1014.5 93.2882C1014.89 93.6808 1015.42 93.9014 1015.98 93.9014L1036.28 93.8948ZM1064.27 110.643C1063.44 110.644 1062.63 110.4 1061.94 109.94C1061.25 109.481 1060.71 108.828 1060.39 108.063C1060.08 107.298 1059.99 106.456 1060.15 105.643C1060.31 104.83 1060.71 104.084 1061.3 103.497C1061.88 102.911 1062.63 102.512 1063.44 102.35C1064.25 102.188 1065.1 102.27 1065.86 102.587C1066.63 102.904 1067.28 103.44 1067.74 104.129C1068.2 104.818 1068.45 105.627 1068.45 106.456C1068.45 107.565 1068.01 108.628 1067.22 109.412C1066.44 110.197 1065.38 110.639 1064.27 110.643ZM1022.26 102.269C1023.09 102.269 1023.89 102.514 1024.58 102.974C1025.27 103.434 1025.81 104.088 1026.13 104.853C1026.44 105.619 1026.53 106.46 1026.36 107.273C1026.2 108.085 1025.8 108.831 1025.22 109.416C1024.63 110.002 1023.89 110.401 1023.07 110.562C1022.26 110.724 1021.42 110.641 1020.65 110.324C1019.89 110.007 1019.24 109.47 1018.78 108.782C1018.32 108.093 1018.07 107.284 1018.07 106.456C1018.07 105.345 1018.51 104.28 1019.3 103.495C1020.08 102.71 1021.15 102.269 1022.26 102.269ZM1029.52 110.643C1030.26 109.371 1030.65 107.927 1030.65 106.456C1030.65 104.985 1030.26 103.54 1029.52 102.269H1057.04C1056.3 103.541 1055.91 104.986 1055.91 106.456C1055.91 107.926 1056.3 109.37 1057.04 110.643H1029.52ZM1083.5 54.2373C1084.08 53.654 1084.54 52.9616 1084.86 52.1996C1085.18 51.4376 1085.34 50.6208 1085.34 49.796C1085.34 48.9712 1085.18 48.1545 1084.86 47.3924C1084.54 46.6304 1084.08 45.938 1083.5 45.3548C1082.92 44.7715 1082.22 44.3089 1081.46 43.9932C1080.7 43.6776 1079.88 43.5151 1079.06 43.5151C1078.23 43.5151 1077.42 43.6776 1076.65 43.9932C1075.89 44.3089 1075.2 44.7715 1074.62 45.3548L1060.35 59.6196C1061.55 61.7894 1062.18 64.2313 1062.17 66.7124V75.5619L1083.5 54.2373Z" fill="white"/>
<path d="M1030.77 81.3338H1057.99V66.7123C1057.98 63.9373 1056.88 61.2769 1054.92 59.3146C1052.95 57.3523 1050.29 56.2484 1047.52 56.2449H1030.77V81.3338Z" fill="white"/>
</g>
<path opacity="0.04" d="M933.727 350.478C936.382 356.586 937.71 363.623 937.71 371.59C937.71 378.76 936.515 385.399 934.125 391.507C930.938 400.004 925.561 406.643 917.993 411.423C910.557 416.203 901.727 418.593 891.503 418.593C881.412 418.593 872.516 416.071 864.815 411.025C857.247 405.979 851.803 399.141 848.483 390.511C846.625 385.333 845.562 379.756 845.297 373.781C845.297 372.188 846.093 371.391 847.687 371.391H871.188C872.782 371.391 873.578 372.188 873.578 373.781C874.11 378.163 874.84 381.416 875.769 383.54C876.964 386.992 878.89 389.714 881.545 391.706C884.333 393.565 887.587 394.494 891.304 394.494C898.74 394.494 903.852 391.241 906.64 384.735C908.499 380.752 909.428 376.104 909.428 370.793C909.428 364.553 908.433 359.441 906.441 355.458C903.387 349.217 898.275 346.097 891.105 346.097C889.645 346.097 888.118 346.561 886.524 347.491C884.931 348.288 883.006 349.483 880.748 351.076C880.217 351.474 879.686 351.673 879.155 351.673C878.358 351.673 877.761 351.275 877.363 350.478L865.612 333.948C865.346 333.549 865.213 333.084 865.213 332.553C865.213 331.757 865.479 331.093 866.01 330.562L897.678 302.878C897.943 302.612 898.01 302.346 897.877 302.081C897.877 301.815 897.678 301.683 897.279 301.683H850.475C849.811 301.683 849.214 301.483 848.683 301.085C848.284 300.554 848.085 299.956 848.085 299.293V279.973C848.085 279.31 848.284 278.778 848.683 278.38C849.214 277.849 849.811 277.583 850.475 277.583H933.528C934.192 277.583 934.723 277.849 935.121 278.38C935.652 278.778 935.918 279.31 935.918 279.973V301.882C935.918 302.944 935.453 303.94 934.523 304.869L908.433 328.769C908.167 329.035 908.034 329.3 908.034 329.566C908.167 329.831 908.499 329.964 909.03 329.964C920.582 332.221 928.814 339.059 933.727 350.478Z" fill="#222222"/>
<path d="M976.827 379.343H973.655V396.295H970.925V379.343H965.803V396.295H963.099V388.287L959.511 388.261C959.685 388.764 959.771 389.293 959.771 389.847C959.771 391.355 959.286 392.569 958.315 393.487C957.345 394.406 956.062 394.865 954.467 394.865C953.323 394.865 952.301 394.64 951.399 394.189C950.515 393.739 949.822 393.115 949.319 392.317C948.834 391.503 948.591 390.575 948.591 389.535H951.139C951.139 390.402 951.425 391.121 951.997 391.693C952.587 392.248 953.349 392.525 954.285 392.525C955.204 392.525 955.932 392.257 956.469 391.719C957.007 391.182 957.275 390.471 957.275 389.587C957.275 389.085 957.18 388.643 956.989 388.261H956.937V388.131C956.383 387.143 955.403 386.649 953.999 386.649H952.933V384.439H953.999C954.953 384.439 955.689 384.188 956.209 383.685C956.747 383.165 957.015 382.55 957.015 381.839C957.015 381.025 956.747 380.375 956.209 379.889C955.689 379.387 955.031 379.135 954.233 379.135C953.401 379.135 952.699 379.378 952.127 379.863C951.573 380.331 951.295 380.964 951.295 381.761H948.773C948.773 380.773 948.999 379.907 949.449 379.161C949.917 378.416 950.567 377.844 951.399 377.445C952.231 377.029 953.176 376.821 954.233 376.821C955.793 376.821 957.05 377.246 958.003 378.095C958.974 378.945 959.459 380.071 959.459 381.475C959.459 382.463 959.199 383.313 958.679 384.023C958.159 384.717 957.405 385.193 956.417 385.453V385.505C956.903 385.609 957.353 385.783 957.769 386.025H963.099V377.055H976.827V379.343ZM980.727 387.793V391.043C980.727 391.997 980.944 392.759 981.377 393.331C981.81 393.903 982.452 394.189 983.301 394.189C984.081 394.189 984.696 393.929 985.147 393.409C985.615 392.872 985.849 392.161 985.849 391.277V390.705H988.475V391.199C988.475 392.829 988.016 394.129 987.097 395.099C986.196 396.053 984.948 396.529 983.353 396.529C981.637 396.529 980.32 396.018 979.401 394.995C978.5 393.955 978.049 392.595 978.049 390.913V385.557H980.753C983.578 385.557 984.991 384.205 984.991 381.501V379.343H975.423V377.055H990.555V379.343H987.695V381.501C987.695 383.512 987.21 385.063 986.239 386.155C985.268 387.247 983.76 387.793 981.715 387.793H980.727ZM1004.39 370.009C1008.46 370.009 1011.51 370.642 1013.52 371.907C1015.53 373.155 1016.53 374.984 1016.53 377.393V377.809H1013.86V377.445C1013.86 375.66 1013.06 374.351 1011.46 373.519C1009.89 372.67 1007.51 372.245 1004.34 372.245C1001.24 372.245 998.949 372.618 997.476 373.363C996.02 374.091 995.257 375.322 995.188 377.055H998.386V379.343H995.214V396.295H992.484V379.343H989.312V377.055H992.484C992.553 374.663 993.55 372.895 995.474 371.751C997.415 370.59 1000.39 370.009 1004.39 370.009ZM1019.65 377.055V379.343H1016.48V396.295H1013.85V386.753H1006.15C1005.24 387.187 1004.53 387.551 1004.05 387.845C1003.58 388.14 1003.17 388.513 1002.83 388.963C1002.5 389.414 1002.33 389.96 1002.33 390.601C1002.33 391.347 1002.57 391.971 1003.06 392.473C1003.56 392.976 1004.22 393.227 1005.04 393.227C1005.9 393.227 1006.59 392.95 1007.09 392.395C1007.61 391.823 1007.87 391.13 1007.87 390.315H1010.16V397.777H1007.66V393.669C1007.4 394.137 1006.97 394.562 1006.36 394.943C1005.76 395.307 1005.01 395.489 1004.13 395.489C1002.76 395.489 1001.65 395.091 1000.8 394.293C999.949 393.479 999.524 392.43 999.524 391.147C999.524 390.263 999.715 389.509 1000.1 388.885C1000.49 388.244 1001 387.715 1001.6 387.299C1002.21 386.866 1002.96 386.424 1003.87 385.973C1002.79 385.713 1001.91 385.211 1001.21 384.465C1000.54 383.703 1000.2 382.732 1000.2 381.553C1000.2 380.6 1000.43 379.768 1000.88 379.057C1001.34 378.329 1001.98 377.775 1002.77 377.393C1003.59 376.995 1004.5 376.795 1005.5 376.795C1006.42 376.795 1007.25 376.969 1008 377.315C1008.76 377.662 1009.37 378.173 1009.82 378.849C1010.27 379.508 1010.5 380.305 1010.5 381.241C1010.5 381.987 1010.35 382.645 1010.05 383.217C1009.76 383.772 1009.35 384.283 1008.83 384.751H1013.85V377.055H1019.65ZM1002.64 381.735C1002.64 382.602 1002.97 383.313 1003.63 383.867C1004.29 384.405 1005.15 384.691 1006.21 384.725C1006.85 384.327 1007.34 383.893 1007.69 383.425C1008.03 382.957 1008.21 382.403 1008.21 381.761C1008.21 380.999 1007.94 380.375 1007.4 379.889C1006.88 379.404 1006.22 379.161 1005.43 379.161C1004.65 379.161 1003.99 379.387 1003.45 379.837C1002.91 380.288 1002.64 380.921 1002.64 381.735ZM1037.81 379.343H1034.63V396.295H1031.9V385.739H1028.26C1026.77 385.739 1025.6 386.095 1024.75 386.805C1023.9 387.516 1023.48 388.547 1023.48 389.899C1023.48 391.217 1023.85 392.248 1024.6 392.993C1025.36 393.721 1026.45 394.085 1027.87 394.085H1028.42V396.243H1027.48C1025.44 396.243 1023.8 395.706 1022.57 394.631C1021.34 393.539 1020.72 391.945 1020.72 389.847C1020.72 387.698 1021.4 386.086 1022.75 385.011C1024.1 383.937 1025.9 383.399 1028.13 383.399H1031.9V379.343H1018.41V377.055H1037.81V379.343ZM1058.24 379.343V384.413C1058.62 383.668 1059.17 383.079 1059.88 382.645C1060.61 382.195 1061.48 381.969 1062.51 381.969C1063.56 381.969 1064.5 382.229 1065.31 382.749C1066.13 383.252 1066.76 383.954 1067.21 384.855C1067.66 385.739 1067.89 386.753 1067.89 387.897C1067.89 389.128 1067.65 390.194 1067.19 391.095C1066.72 391.979 1066.08 392.664 1065.26 393.149C1064.45 393.617 1063.52 393.851 1062.48 393.851C1061.86 393.851 1061.3 393.791 1060.82 393.669V391.511C1061.08 391.581 1061.4 391.615 1061.78 391.615C1062.75 391.615 1063.55 391.295 1064.17 390.653C1064.81 389.995 1065.13 389.093 1065.13 387.949C1065.13 386.875 1064.8 385.999 1064.14 385.323C1063.5 384.647 1062.69 384.309 1061.7 384.309C1060.56 384.309 1059.69 384.691 1059.1 385.453C1058.53 386.216 1058.24 387.126 1058.24 388.183V396.295H1055.62V391.537C1055.22 392.283 1054.64 392.881 1053.87 393.331C1053.11 393.782 1052.19 394.007 1051.12 394.007C1050.04 394.007 1049.09 393.756 1048.26 393.253C1047.43 392.751 1046.78 392.049 1046.31 391.147C1045.86 390.229 1045.63 389.163 1045.63 387.949C1045.63 386.753 1045.87 385.705 1046.33 384.803C1046.8 383.902 1047.46 383.209 1048.31 382.723C1049.16 382.221 1050.13 381.969 1051.22 381.969C1052.26 381.969 1053.15 382.186 1053.9 382.619C1054.64 383.053 1055.22 383.633 1055.62 384.361V379.343H1043.32V377.055H1070.18V379.343H1058.24ZM1052 391.719C1052.78 391.719 1053.44 391.537 1053.98 391.173C1054.53 390.809 1054.94 390.341 1055.2 389.769C1055.48 389.197 1055.62 388.608 1055.62 388.001C1055.62 387.013 1055.3 386.155 1054.68 385.427C1054.06 384.682 1053.16 384.309 1052 384.309C1050.98 384.309 1050.12 384.647 1049.43 385.323C1048.73 385.982 1048.39 386.866 1048.39 387.975C1048.39 389.119 1048.73 390.029 1049.4 390.705C1050.08 391.381 1050.94 391.719 1052 391.719ZM1074.27 387.793V391.043C1074.27 391.997 1074.48 392.759 1074.92 393.331C1075.35 393.903 1075.99 394.189 1076.84 394.189C1077.62 394.189 1078.24 393.929 1078.69 393.409C1079.15 392.872 1079.39 392.161 1079.39 391.277V390.705H1082.01V391.199C1082.01 392.829 1081.55 394.129 1080.64 395.099C1079.73 396.053 1078.49 396.529 1076.89 396.529C1075.18 396.529 1073.86 396.018 1072.94 394.995C1072.04 393.955 1071.59 392.595 1071.59 390.913V385.557H1074.29C1077.12 385.557 1078.53 384.205 1078.53 381.501V379.343H1068.96V377.055H1084.09V379.343H1081.23V381.501C1081.23 383.512 1080.75 385.063 1079.78 386.155C1078.81 387.247 1077.3 387.793 1075.25 387.793H1074.27ZM1078.66 377.159C1077.81 375.825 1077.11 374.871 1076.58 374.299C1076.04 373.71 1075.52 373.329 1075.02 373.155C1074.5 372.965 1073.79 372.869 1072.88 372.869H1071.71V370.633H1072.83C1074.17 370.651 1075.22 370.798 1076 371.075C1076.77 371.335 1077.55 371.916 1078.34 372.817C1079.12 373.719 1080.09 375.166 1081.23 377.159H1078.66ZM1084.9 373.181C1084.9 373.667 1084.73 374.074 1084.4 374.403C1084.07 374.733 1083.67 374.897 1083.18 374.897C1082.7 374.897 1082.29 374.733 1081.96 374.403C1081.61 374.074 1081.44 373.667 1081.44 373.181C1081.44 372.696 1081.61 372.289 1081.96 371.959C1082.29 371.63 1082.7 371.465 1083.18 371.465C1083.67 371.465 1084.07 371.63 1084.4 371.959C1084.73 372.289 1084.9 372.696 1084.9 373.181ZM984.01 416.709C984.01 417.767 983.758 418.651 983.256 419.361C982.753 420.055 982.094 420.479 981.28 420.635V420.687C982.337 420.93 983.178 421.511 983.802 422.429C984.443 423.331 984.764 424.388 984.764 425.601C984.764 426.693 984.53 427.664 984.062 428.513C983.611 429.363 982.952 430.03 982.086 430.515C981.219 430.983 980.188 431.217 978.992 431.217C977.778 431.217 976.686 430.975 975.716 430.489C974.762 429.987 974.017 429.293 973.48 428.409C972.942 427.508 972.674 426.477 972.674 425.315H975.274C975.274 426.303 975.612 427.127 976.288 427.785C976.981 428.444 977.839 428.773 978.862 428.773C979.867 428.773 980.673 428.461 981.28 427.837C981.886 427.213 982.19 426.399 982.19 425.393C982.19 424.457 981.895 423.651 981.306 422.975C980.716 422.282 979.841 421.935 978.68 421.935H977.38V419.543H978.316C979.304 419.543 980.058 419.275 980.578 418.737C981.115 418.2 981.384 417.472 981.384 416.553V414.343H970.802V412.055H986.922V414.343H984.01V416.709ZM1004.11 414.343H1000.94V431.295H998.239V424.483C997.805 425.107 997.233 425.593 996.523 425.939C995.812 426.286 994.98 426.459 994.027 426.459C992.189 426.459 990.785 425.87 989.815 424.691C988.861 423.513 988.385 421.927 988.385 419.933V414.343H985.681V412.055H1004.11V414.343ZM998.239 414.343H991.115V419.933C991.115 421.251 991.409 422.282 991.999 423.027C992.588 423.773 993.489 424.145 994.703 424.145C995.812 424.145 996.679 423.79 997.303 423.079C997.927 422.351 998.239 421.459 998.239 420.401V414.343ZM1017.79 414.343V419.413C1018.18 418.668 1018.72 418.079 1019.43 417.645C1020.16 417.195 1021.04 416.969 1022.06 416.969C1023.12 416.969 1024.05 417.229 1024.87 417.749C1025.68 418.252 1026.31 418.954 1026.76 419.855C1027.21 420.739 1027.44 421.753 1027.44 422.897C1027.44 424.128 1027.21 425.194 1026.74 426.095C1026.27 426.979 1025.63 427.664 1024.81 428.149C1024 428.617 1023.07 428.851 1022.03 428.851C1021.41 428.851 1020.85 428.791 1020.37 428.669V426.511C1020.63 426.581 1020.95 426.615 1021.33 426.615C1022.3 426.615 1023.1 426.295 1023.72 425.653C1024.36 424.995 1024.68 424.093 1024.68 422.949C1024.68 421.875 1024.35 420.999 1023.7 420.323C1023.05 419.647 1022.24 419.309 1021.25 419.309C1020.11 419.309 1019.24 419.691 1018.65 420.453C1018.08 421.216 1017.79 422.126 1017.79 423.183V431.295H1015.17V426.537C1014.77 427.283 1014.19 427.881 1013.43 428.331C1012.66 428.782 1011.74 429.007 1010.67 429.007C1009.6 429.007 1008.64 428.756 1007.81 428.253C1006.98 427.751 1006.33 427.049 1005.86 426.147C1005.41 425.229 1005.18 424.163 1005.18 422.949C1005.18 421.753 1005.42 420.705 1005.89 419.803C1006.35 418.902 1007.01 418.209 1007.86 417.723C1008.71 417.221 1009.68 416.969 1010.77 416.969C1011.81 416.969 1012.71 417.186 1013.45 417.619C1014.2 418.053 1014.77 418.633 1015.17 419.361V414.343H1002.87V412.055H1029.73V414.343H1017.79ZM1011.55 426.719C1012.33 426.719 1012.99 426.537 1013.53 426.173C1014.08 425.809 1014.49 425.341 1014.75 424.769C1015.03 424.197 1015.17 423.608 1015.17 423.001C1015.17 422.013 1014.86 421.155 1014.23 420.427C1013.61 419.682 1012.72 419.309 1011.55 419.309C1010.53 419.309 1009.67 419.647 1008.98 420.323C1008.29 420.982 1007.94 421.866 1007.94 422.975C1007.94 424.119 1008.28 425.029 1008.95 425.705C1009.63 426.381 1010.5 426.719 1011.55 426.719ZM1033.82 422.793V426.043C1033.82 426.997 1034.04 427.759 1034.47 428.331C1034.9 428.903 1035.54 429.189 1036.39 429.189C1037.17 429.189 1037.79 428.929 1038.24 428.409C1038.71 427.872 1038.94 427.161 1038.94 426.277V425.705H1041.57V426.199C1041.57 427.829 1041.11 429.129 1040.19 430.099C1039.29 431.053 1038.04 431.529 1036.44 431.529C1034.73 431.529 1033.41 431.018 1032.49 429.995C1031.59 428.955 1031.14 427.595 1031.14 425.913V420.557H1033.84C1036.67 420.557 1038.08 419.205 1038.08 416.501V414.343H1028.51V412.055H1043.65V414.343H1040.79V416.501C1040.79 418.512 1040.3 420.063 1039.33 421.155C1038.36 422.247 1036.85 422.793 1034.81 422.793H1033.82ZM1066.19 414.343H1063.02V431.295H1060.29V414.343H1055.69V421.467C1055.69 423.062 1055.24 424.353 1054.34 425.341C1053.44 426.329 1052.15 426.823 1050.49 426.823C1048.84 426.823 1047.57 426.329 1046.67 425.341C1045.77 424.336 1045.32 423.045 1045.32 421.467V414.343H1042.4V412.055H1066.19V414.343ZM1053.01 414.343H1047.99V421.727C1047.99 422.559 1048.22 423.235 1048.67 423.755C1049.14 424.258 1049.75 424.509 1050.52 424.509C1051.3 424.509 1051.9 424.258 1052.34 423.755C1052.79 423.235 1053.01 422.559 1053.01 421.727V414.343Z" fill="#222222"/>
<circle cx="1046.5" cy="253" r="9" fill="#EE2E5D"/>
<g clip-path="url(#clip4_210_118)">
<path opacity="0.4" d="M1522.69 14.536L1386.28 27.2649C1384.01 27.4337 1381.84 28.2101 1379.98 29.5121C1378.12 30.8141 1376.65 32.5935 1375.72 34.6627C1374.79 36.7319 1374.43 39.0142 1374.69 41.2689C1374.94 43.5237 1375.8 45.6673 1377.18 47.4737L1465.29 163.209C1466.67 165.018 1468.51 166.42 1470.62 167.268C1472.73 168.116 1475.03 168.377 1477.28 168.024C1479.52 167.671 1481.63 166.717 1483.38 165.262C1485.13 163.808 1486.45 161.908 1487.21 159.764L1535.51 31.2936C1536.2 29.3184 1536.39 27.2009 1536.07 25.1326C1535.74 23.0642 1534.9 21.1102 1533.63 19.4469C1532.36 17.7837 1530.69 16.4638 1528.78 15.6063C1526.87 14.7489 1524.77 14.3811 1522.69 14.536Z" fill="url(#paint6_linear_210_118)"/>
<path d="M1545.48 52.2962L1418.43 1.03932C1416.34 0.149671 1414.05 -0.159754 1411.8 0.143711C1409.55 0.447176 1407.43 1.35227 1405.65 2.76345C1403.87 4.17462 1402.51 6.03952 1401.71 8.16126C1400.9 10.283 1400.68 12.5829 1401.08 14.8181L1426.29 158.084C1426.68 160.324 1427.68 162.414 1429.16 164.135C1430.65 165.856 1432.58 167.142 1434.73 167.858C1436.89 168.574 1439.2 168.694 1441.42 168.203C1443.65 167.712 1445.69 166.631 1447.35 165.072L1549.18 73.0693C1550.7 71.6329 1551.85 69.8399 1552.5 67.852C1553.16 65.8641 1553.31 63.7439 1552.94 61.6827C1552.58 59.6215 1551.7 57.6841 1550.4 56.0454C1549.1 54.4067 1547.41 53.1182 1545.48 52.2962Z" fill="url(#paint7_linear_210_118)"/>
<path d="M1435.57 107.332H1439.82C1441.23 107.332 1442.58 106.773 1443.57 105.778C1444.57 104.782 1445.13 103.432 1445.13 102.024V67.2494C1445.13 65.841 1444.57 64.4902 1443.57 63.4937C1442.58 62.4972 1441.23 61.9365 1439.82 61.9348H1435.57C1434.16 61.9348 1432.81 62.4947 1431.81 63.4914C1430.81 64.4881 1430.25 65.8399 1430.25 67.2494V102.024C1430.25 103.434 1430.81 104.786 1431.81 105.782C1432.81 106.779 1434.16 107.339 1435.57 107.339V107.332ZM1455.11 107.451H1489.88C1491.12 107.409 1492.34 107.12 1493.47 106.602C1494.59 106.084 1495.61 105.346 1496.44 104.432L1498.27 102.339C1499.63 100.677 1500.54 98.6974 1500.93 96.585L1505.24 68.7389C1505.44 67.2776 1505.18 65.7895 1504.51 64.4786C1503.83 63.1678 1502.76 62.0982 1501.46 61.4164L1500.3 60.8456C1498.47 59.982 1496.48 59.5104 1494.46 59.4612H1478.42L1481.95 49.5602C1482.26 48.7243 1482.37 47.8304 1482.29 46.9438C1482.21 46.0572 1481.93 45.2003 1481.47 44.4358C1481.03 43.7022 1480.43 43.0764 1479.72 42.6042C1479 42.132 1478.19 41.8252 1477.35 41.7063C1476.4 41.5686 1475.45 41.4984 1474.49 41.4963C1470.07 41.4963 1466.35 43.0514 1463.73 46.0039C1462.97 46.9261 1462.3 47.9069 1461.7 48.9369C1461.47 49.3174 1461.25 49.6783 1461.04 49.9604C1458.35 53.9562 1454.32 57.3747 1452.17 59.0609C1451.18 59.8654 1450.38 60.8701 1449.82 62.0081C1449.25 63.1462 1448.93 64.3916 1448.89 65.6616V101.25C1448.89 102.894 1449.54 104.47 1450.7 105.633C1451.87 106.795 1453.44 107.449 1455.09 107.451H1455.11ZM1457.08 65.7863C1457.12 65.6641 1457.19 65.5491 1457.26 65.4451C1459.82 63.4767 1464.52 59.4152 1467.83 54.5271C1468.08 54.1531 1468.37 53.6807 1468.67 53.2148C1469.03 52.5977 1469.42 52.0038 1469.85 51.4367C1470.74 50.4737 1471.95 49.8733 1473.26 49.7505L1469.53 60.1895C1469.2 61.0301 1469.09 61.9393 1469.2 62.8355C1469.3 63.7318 1469.63 64.5872 1470.15 65.3251C1470.67 66.063 1471.37 66.6604 1472.18 67.0638C1472.98 67.4672 1473.88 67.664 1474.78 67.6366H1494.5C1495.25 67.6896 1496 67.8669 1496.7 68.1615L1497.09 68.3583L1492.91 95.3646C1492.75 95.9535 1492.47 96.5056 1492.1 96.9918L1490.32 99.0389C1490.16 99.1573 1489.97 99.242 1489.77 99.2883H1457.03L1457.08 65.7863Z" fill="white"/>
</g>
<path opacity="0.04" d="M1352.73 356.254C1353.4 356.254 1353.93 356.52 1354.32 357.051C1354.86 357.449 1355.12 357.98 1355.12 358.644V378.76C1355.12 379.424 1354.86 380.021 1354.32 380.553C1353.93 380.951 1353.4 381.15 1352.73 381.15H1344.17C1343.5 381.15 1343.17 381.482 1343.17 382.146V414.61C1343.17 415.274 1342.91 415.871 1342.37 416.403C1341.98 416.801 1341.45 417 1340.78 417H1317.48C1316.82 417 1316.22 416.801 1315.69 416.403C1315.29 415.871 1315.09 415.274 1315.09 414.61V382.146C1315.09 381.482 1314.76 381.15 1314.09 381.15H1252.95C1252.29 381.15 1251.69 380.951 1251.16 380.553C1250.76 380.021 1250.56 379.424 1250.56 378.76V362.827C1250.56 362.03 1250.76 361.034 1251.16 359.839L1287.01 279.376C1287.54 278.181 1288.47 277.583 1289.79 277.583H1314.69C1315.62 277.583 1316.22 277.849 1316.48 278.38C1316.88 278.778 1316.88 279.442 1316.48 280.372L1283.22 355.059C1283.09 355.325 1283.09 355.59 1283.22 355.856C1283.36 356.121 1283.55 356.254 1283.82 356.254H1314.09C1314.76 356.254 1315.09 355.922 1315.09 355.258V330.562C1315.09 329.898 1315.29 329.367 1315.69 328.968C1316.22 328.437 1316.82 328.172 1317.48 328.172H1340.78C1341.45 328.172 1341.98 328.437 1342.37 328.968C1342.91 329.367 1343.17 329.898 1343.17 330.562V355.258C1343.17 355.922 1343.5 356.254 1344.17 356.254H1352.73Z" fill="#222222"/>
<path d="M1377.89 377.055V379.343H1374.72V396.295H1372.02V388.287L1368.43 388.261C1368.6 388.764 1368.69 389.293 1368.69 389.847C1368.69 391.355 1368.2 392.569 1367.23 393.487C1366.26 394.406 1364.98 394.865 1363.38 394.865C1362.24 394.865 1361.22 394.64 1360.32 394.189C1359.43 393.739 1358.74 393.115 1358.24 392.317C1357.75 391.503 1357.51 390.575 1357.51 389.535H1360.06C1360.06 390.402 1360.34 391.121 1360.91 391.693C1361.5 392.248 1362.27 392.525 1363.2 392.525C1364.12 392.525 1364.85 392.257 1365.39 391.719C1365.92 391.182 1366.19 390.471 1366.19 389.587C1366.19 389.085 1366.1 388.643 1365.91 388.261H1365.85V388.131C1365.3 387.143 1364.32 386.649 1362.92 386.649H1361.85V384.439H1362.92C1363.87 384.439 1364.61 384.188 1365.13 383.685C1365.66 383.165 1365.93 382.55 1365.93 381.839C1365.93 381.025 1365.66 380.375 1365.13 379.889C1364.61 379.387 1363.95 379.135 1363.15 379.135C1362.32 379.135 1361.62 379.378 1361.04 379.863C1360.49 380.331 1360.21 380.964 1360.21 381.761H1357.69C1357.69 380.773 1357.92 379.907 1358.37 379.161C1358.83 378.416 1359.48 377.844 1360.32 377.445C1361.15 377.029 1362.09 376.821 1363.15 376.821C1364.71 376.821 1365.97 377.246 1366.92 378.095C1367.89 378.945 1368.38 380.071 1368.38 381.475C1368.38 382.463 1368.12 383.313 1367.6 384.023C1367.08 384.717 1366.32 385.193 1365.33 385.453V385.505C1365.82 385.609 1366.27 385.783 1366.69 386.025H1372.02V377.055H1377.89ZM1395.11 379.343H1391.93V396.295H1389.23V389.483C1388.8 390.107 1388.22 390.593 1387.51 390.939C1386.8 391.286 1385.97 391.459 1385.02 391.459C1383.18 391.459 1381.78 390.87 1380.81 389.691C1379.85 388.513 1379.38 386.927 1379.38 384.933V379.343H1376.67V377.055H1395.11V379.343ZM1389.23 379.343H1382.11V384.933C1382.11 386.251 1382.4 387.282 1382.99 388.027C1383.58 388.773 1384.48 389.145 1385.69 389.145C1386.8 389.145 1387.67 388.79 1388.29 388.079C1388.92 387.351 1389.23 386.459 1389.23 385.401V379.343ZM1415.88 379.343H1412.71V396.295H1409.98V385.531H1405.46C1406.24 386.433 1406.63 387.516 1406.63 388.781C1406.63 389.769 1406.4 390.636 1405.95 391.381C1405.5 392.109 1404.88 392.664 1404.08 393.045C1403.3 393.427 1402.42 393.617 1401.45 393.617C1400.45 393.617 1399.53 393.409 1398.7 392.993C1397.87 392.56 1397.21 391.953 1396.72 391.173C1396.25 390.393 1396.02 389.483 1396.02 388.443C1396.02 387.351 1396.26 386.415 1396.75 385.635C1397.25 384.855 1397.93 384.266 1398.78 383.867C1399.64 383.451 1400.61 383.243 1401.69 383.243H1409.98V379.343H1393.86V377.055H1415.88V379.343ZM1401.51 391.303C1402.37 391.303 1403.07 391.035 1403.61 390.497C1404.17 389.96 1404.44 389.267 1404.44 388.417C1404.44 387.585 1404.17 386.901 1403.61 386.363C1403.06 385.809 1402.35 385.531 1401.51 385.531C1400.62 385.531 1399.89 385.809 1399.32 386.363C1398.77 386.901 1398.49 387.594 1398.49 388.443C1398.49 389.293 1398.77 389.986 1399.32 390.523C1399.88 391.043 1400.6 391.303 1401.51 391.303ZM1423.7 377.055V379.343H1420.53V396.295H1417.8V379.343H1414.63V377.055H1417.88V375.989C1417.88 374.984 1417.69 374.143 1417.31 373.467C1416.93 372.774 1416.25 372.427 1415.28 372.427C1414.31 372.427 1413.63 372.774 1413.23 373.467C1412.83 374.143 1412.63 374.984 1412.63 375.989V377.679H1409.98V376.119C1409.98 374.299 1410.4 372.852 1411.25 371.777C1412.1 370.685 1413.44 370.139 1415.28 370.139C1417.15 370.139 1418.5 370.677 1419.31 371.751C1420.13 372.826 1420.53 374.282 1420.53 376.119V377.055H1423.7ZM1434.74 388.235V390.783C1434.74 391.789 1434.98 392.603 1435.45 393.227C1435.93 393.834 1436.67 394.137 1437.66 394.137C1438.52 394.137 1439.2 393.86 1439.68 393.305C1440.17 392.733 1440.41 391.988 1440.41 391.069V390.705H1443.06V391.095C1443.06 392.777 1442.59 394.103 1441.63 395.073C1440.68 396.027 1439.38 396.503 1437.73 396.503C1435.91 396.503 1434.5 395.975 1433.5 394.917C1432.49 393.843 1431.99 392.404 1431.99 390.601V385.921H1435.73C1437.15 385.921 1438.31 385.618 1439.22 385.011C1440.13 384.405 1440.59 383.477 1440.59 382.229C1440.59 381.293 1440.34 380.557 1439.84 380.019C1439.34 379.465 1438.65 379.187 1437.79 379.187C1436.92 379.187 1436.23 379.465 1435.73 380.019C1435.23 380.557 1434.98 381.293 1434.98 382.229C1434.98 382.455 1434.99 382.81 1435.03 383.295H1432.33C1432.26 382.775 1432.22 382.394 1432.22 382.151C1432.22 381.094 1432.45 380.167 1432.9 379.369C1433.35 378.555 1433.99 377.931 1434.82 377.497C1435.67 377.047 1436.66 376.821 1437.79 376.821C1439.47 376.821 1440.81 377.315 1441.82 378.303C1442.84 379.274 1443.35 380.643 1443.35 382.411C1443.35 384.301 1442.73 385.748 1441.48 386.753C1440.25 387.741 1438.65 388.235 1436.69 388.235H1434.74ZM1451.93 377.055V379.343H1448.76V396.295H1446V377.055H1451.93ZM1451.39 399.805C1451.39 401.227 1450.92 402.345 1449.98 403.159C1449.03 403.974 1447.73 404.381 1446.08 404.381C1444.28 404.381 1442.79 403.913 1441.61 402.977C1440.42 402.059 1439.84 400.655 1439.9 398.765H1442.31C1442.26 399.927 1442.58 400.793 1443.28 401.365C1443.95 401.955 1444.86 402.249 1446.01 402.249C1446.96 402.249 1447.71 402.033 1448.27 401.599C1448.8 401.166 1449.07 400.559 1449.07 399.779C1449.07 399.155 1448.87 398.627 1448.45 398.193C1448.03 397.777 1447.46 397.569 1446.73 397.569H1446.03V395.437H1446.73C1448.22 395.437 1449.38 395.836 1450.19 396.633C1450.99 397.431 1451.39 398.488 1451.39 399.805ZM1462.96 381.345C1462.96 383.009 1462.52 384.37 1461.66 385.427H1466.31C1468.08 385.427 1469.42 385.835 1470.34 386.649C1471.26 387.464 1471.72 388.625 1471.72 390.133C1471.72 391.485 1471.29 392.56 1470.42 393.357C1469.57 394.155 1468.42 394.553 1466.96 394.553C1466.55 394.553 1466.06 394.501 1465.51 394.397V392.187C1465.9 392.291 1466.31 392.343 1466.73 392.343C1467.52 392.343 1468.15 392.144 1468.6 391.745C1469.05 391.329 1469.28 390.757 1469.28 390.029C1469.28 389.284 1469.02 388.703 1468.52 388.287C1468.04 387.854 1467.37 387.637 1466.52 387.637H1455.99V391.043C1455.99 391.997 1456.21 392.759 1456.64 393.331C1457.07 393.903 1457.71 394.189 1458.56 394.189C1459.34 394.189 1459.96 393.929 1460.41 393.409C1460.88 392.872 1461.11 392.17 1461.11 391.303V390.861H1463.74V391.225C1463.74 392.855 1463.28 394.146 1462.36 395.099C1461.46 396.053 1460.21 396.529 1458.62 396.529C1456.9 396.529 1455.58 396.018 1454.66 394.995C1453.76 393.955 1453.31 392.595 1453.31 390.913V385.427H1456.02C1457.45 385.427 1458.52 385.089 1459.21 384.413C1459.91 383.72 1460.25 382.697 1460.25 381.345V379.343H1450.69V377.055H1473.88V379.343H1462.96V381.345ZM1502.9 379.343H1499.72V396.295H1496.99V379.343H1491.87V396.295H1489.17V388.287L1485.58 388.261C1485.75 388.764 1485.84 389.293 1485.84 389.847C1485.84 391.355 1485.36 392.569 1484.38 393.487C1483.41 394.406 1482.13 394.865 1480.54 394.865C1479.39 394.865 1478.37 394.64 1477.47 394.189C1476.58 393.739 1475.89 393.115 1475.39 392.317C1474.9 391.503 1474.66 390.575 1474.66 389.535H1477.21C1477.21 390.402 1477.49 391.121 1478.07 391.693C1478.66 392.248 1479.42 392.525 1480.35 392.525C1481.27 392.525 1482 392.257 1482.54 391.719C1483.08 391.182 1483.34 390.471 1483.34 389.587C1483.34 389.085 1483.25 388.643 1483.06 388.261H1483.01V388.131C1482.45 387.143 1481.47 386.649 1480.07 386.649H1479V384.439H1480.07C1481.02 384.439 1481.76 384.188 1482.28 383.685C1482.82 383.165 1483.08 382.55 1483.08 381.839C1483.08 381.025 1482.82 380.375 1482.28 379.889C1481.76 379.387 1481.1 379.135 1480.3 379.135C1479.47 379.135 1478.77 379.378 1478.2 379.863C1477.64 380.331 1477.36 380.964 1477.36 381.761H1474.84C1474.84 380.773 1475.07 379.907 1475.52 379.161C1475.99 378.416 1476.64 377.844 1477.47 377.445C1478.3 377.029 1479.25 376.821 1480.3 376.821C1481.86 376.821 1483.12 377.246 1484.07 378.095C1485.04 378.945 1485.53 380.071 1485.53 381.475C1485.53 382.463 1485.27 383.313 1484.75 384.023C1484.23 384.717 1483.47 385.193 1482.49 385.453V385.505C1482.97 385.609 1483.42 385.783 1483.84 386.025H1489.17V377.055H1502.9V379.343ZM1520.89 379.343H1517.72V396.295H1514.99V385.739H1511.35C1509.86 385.739 1508.69 386.095 1507.84 386.805C1506.99 387.516 1506.56 388.547 1506.56 389.899C1506.56 391.217 1506.93 392.248 1507.68 392.993C1508.44 393.721 1509.53 394.085 1510.96 394.085H1511.5V396.243H1510.57C1508.52 396.243 1506.88 395.706 1505.65 394.631C1504.42 393.539 1503.81 391.945 1503.81 389.847C1503.81 387.698 1504.48 386.086 1505.83 385.011C1507.19 383.937 1508.98 383.399 1511.22 383.399H1514.99V379.343H1501.49V377.055H1520.89V379.343ZM1541.32 379.343V384.413C1541.71 383.668 1542.25 383.079 1542.96 382.645C1543.69 382.195 1544.57 381.969 1545.59 381.969C1546.65 381.969 1547.58 382.229 1548.4 382.749C1549.21 383.252 1549.84 383.954 1550.29 384.855C1550.75 385.739 1550.97 386.753 1550.97 387.897C1550.97 389.128 1550.74 390.194 1550.27 391.095C1549.8 391.979 1549.16 392.664 1548.34 393.149C1547.53 393.617 1546.6 393.851 1545.56 393.851C1544.94 393.851 1544.38 393.791 1543.9 393.669V391.511C1544.16 391.581 1544.48 391.615 1544.86 391.615C1545.83 391.615 1546.63 391.295 1547.25 390.653C1547.89 389.995 1548.21 389.093 1548.21 387.949C1548.21 386.875 1547.89 385.999 1547.23 385.323C1546.59 384.647 1545.77 384.309 1544.78 384.309C1543.64 384.309 1542.77 384.691 1542.18 385.453C1541.61 386.216 1541.32 387.126 1541.32 388.183V396.295H1538.7V391.537C1538.3 392.283 1537.72 392.881 1536.96 393.331C1536.19 393.782 1535.28 394.007 1534.2 394.007C1533.13 394.007 1532.17 393.756 1531.34 393.253C1530.51 392.751 1529.86 392.049 1529.39 391.147C1528.94 390.229 1528.71 389.163 1528.71 387.949C1528.71 386.753 1528.95 385.705 1529.42 384.803C1529.88 383.902 1530.54 383.209 1531.39 382.723C1532.24 382.221 1533.21 381.969 1534.3 381.969C1535.34 381.969 1536.24 382.186 1536.98 382.619C1537.73 383.053 1538.3 383.633 1538.7 384.361V379.343H1526.4V377.055H1553.26V379.343H1541.32ZM1535.08 391.719C1535.86 391.719 1536.52 391.537 1537.06 391.173C1537.62 390.809 1538.02 390.341 1538.28 389.769C1538.56 389.197 1538.7 388.608 1538.7 388.001C1538.7 387.013 1538.39 386.155 1537.76 385.427C1537.14 384.682 1536.25 384.309 1535.08 384.309C1534.06 384.309 1533.2 384.647 1532.51 385.323C1531.82 385.982 1531.47 386.866 1531.47 387.975C1531.47 389.119 1531.81 390.029 1532.48 390.705C1533.16 391.381 1534.03 391.719 1535.08 391.719ZM1557.35 387.793V391.043C1557.35 391.997 1557.57 392.759 1558 393.331C1558.43 393.903 1559.07 394.189 1559.92 394.189C1560.7 394.189 1561.32 393.929 1561.77 393.409C1562.24 392.872 1562.47 392.161 1562.47 391.277V390.705H1565.1V391.199C1565.1 392.829 1564.64 394.129 1563.72 395.099C1562.82 396.053 1561.57 396.529 1559.97 396.529C1558.26 396.529 1556.94 396.018 1556.02 394.995C1555.12 393.955 1554.67 392.595 1554.67 390.913V385.557H1557.37C1560.2 385.557 1561.61 384.205 1561.61 381.501V379.343H1552.04V377.055H1567.18V379.343H1564.32V381.501C1564.32 383.512 1563.83 385.063 1562.86 386.155C1561.89 387.247 1560.38 387.793 1558.34 387.793H1557.35ZM1561.74 377.159C1560.89 375.825 1560.2 374.871 1559.66 374.299C1559.12 373.71 1558.6 373.329 1558.1 373.155C1557.58 372.965 1556.87 372.869 1555.97 372.869H1554.8V370.633H1555.92C1557.25 370.651 1558.31 370.798 1559.09 371.075C1559.85 371.335 1560.63 371.916 1561.43 372.817C1562.21 373.719 1563.17 375.166 1564.31 377.159H1561.74ZM1567.98 373.181C1567.98 373.667 1567.82 374.074 1567.49 374.403C1567.16 374.733 1566.75 374.897 1566.26 374.897C1565.78 374.897 1565.37 374.733 1565.04 374.403C1564.7 374.074 1564.52 373.667 1564.52 373.181C1564.52 372.696 1564.7 372.289 1565.04 371.959C1565.37 371.63 1565.78 371.465 1566.26 371.465C1566.75 371.465 1567.16 371.63 1567.49 371.959C1567.82 372.289 1567.98 372.696 1567.98 373.181ZM1423.99 414.343H1420.82V431.295H1418.11V424.483C1417.68 425.107 1417.11 425.593 1416.4 425.939C1415.69 426.286 1414.85 426.459 1413.9 426.459C1412.06 426.459 1410.66 425.87 1409.69 424.691C1408.73 423.513 1408.26 421.927 1408.26 419.933V414.343H1405.55V412.055H1423.99V414.343ZM1418.11 414.343H1410.99V419.933C1410.99 421.251 1411.28 422.282 1411.87 423.027C1412.46 423.773 1413.36 424.145 1414.58 424.145C1415.69 424.145 1416.55 423.79 1417.18 423.079C1417.8 422.351 1418.11 421.459 1418.11 420.401V414.343ZM1434.42 405.139C1436.01 405.139 1437.44 405.417 1438.71 405.971C1439.99 406.509 1441 407.315 1441.75 408.389C1442.49 409.464 1442.87 410.747 1442.87 412.237V412.679H1440.19V412.289C1440.19 411.163 1439.9 410.235 1439.33 409.507C1438.78 408.762 1438.06 408.225 1437.17 407.895C1436.29 407.549 1435.37 407.375 1434.42 407.375C1432.84 407.375 1431.49 407.739 1430.36 408.467C1429.25 409.195 1428.67 410.391 1428.62 412.055H1431.82V414.343H1428.65V431.295H1425.92V414.343H1422.74V412.055H1425.92C1425.95 410.53 1426.34 409.247 1427.09 408.207C1427.85 407.167 1428.86 406.396 1430.13 405.893C1431.39 405.391 1432.82 405.139 1434.42 405.139ZM1435.87 422.793V426.043C1435.87 426.997 1436.08 427.759 1436.52 428.331C1436.95 428.903 1437.59 429.189 1438.44 429.189C1439.22 429.189 1439.84 428.929 1440.29 428.409C1440.76 427.872 1440.99 427.161 1440.99 426.277V425.705H1443.62V426.199C1443.62 427.829 1443.16 429.129 1442.24 430.099C1441.34 431.053 1440.09 431.529 1438.49 431.529C1436.78 431.529 1435.46 431.018 1434.54 429.995C1433.64 428.955 1433.19 427.595 1433.19 425.913V420.557H1435.89C1438.72 420.557 1440.13 419.205 1440.13 416.501V414.343H1430.56V412.055H1445.7V414.343H1442.84V416.501C1442.84 418.512 1442.35 420.063 1441.38 421.155C1440.41 422.247 1438.9 422.793 1436.86 422.793H1435.87ZM1465.02 414.343H1461.85V431.295H1459.12V426.095C1458.6 426.858 1457.88 427.473 1456.96 427.941C1456.04 428.392 1454.95 428.617 1453.68 428.617C1451.48 428.617 1449.77 427.959 1448.56 426.641C1447.36 425.324 1446.77 423.539 1446.77 421.285C1446.77 420.835 1446.79 420.393 1446.84 419.959H1447.18C1448.67 419.959 1449.78 419.647 1450.51 419.023C1451.24 418.382 1451.6 417.359 1451.6 415.955V414.343H1444.45V412.055H1465.02V414.343ZM1459.12 414.343H1454.31V416.423C1454.31 419.578 1452.69 421.251 1449.44 421.441V421.545C1449.44 423.001 1449.87 424.163 1450.72 425.029C1451.57 425.896 1452.75 426.329 1454.25 426.329C1455.17 426.329 1456 426.13 1456.75 425.731C1457.5 425.333 1458.08 424.778 1458.49 424.067C1458.91 423.357 1459.12 422.551 1459.12 421.649V414.343ZM1472.85 412.055V414.343H1469.68V431.295H1466.95V414.343H1463.77V412.055H1467.02C1466.19 410.755 1465.51 409.819 1464.97 409.247C1464.45 408.675 1463.94 408.303 1463.44 408.129C1462.92 407.956 1462.21 407.869 1461.33 407.869H1460.16V405.633H1461.28C1462.6 405.651 1463.64 405.789 1464.4 406.049C1465.18 406.309 1465.96 406.89 1466.74 407.791C1467.54 408.675 1468.5 410.097 1469.62 412.055H1472.85ZM1494.86 414.343H1491.69V431.295H1488.96V420.739H1484.59V422.715C1484.59 424.327 1484.12 425.636 1483.16 426.641C1482.21 427.629 1480.92 428.123 1479.29 428.123C1477.63 428.123 1476.33 427.629 1475.39 426.641C1474.47 425.653 1474.01 424.345 1474.01 422.715V418.399H1476.77V422.663C1476.77 423.599 1476.99 424.345 1477.44 424.899C1477.89 425.454 1478.52 425.731 1479.32 425.731C1480.13 425.731 1480.77 425.454 1481.24 424.899C1481.71 424.345 1481.94 423.599 1481.94 422.663V418.399H1488.96V414.343H1471.62V412.055H1494.86V414.343ZM1515.63 414.343H1512.46V431.295H1509.73V420.531H1505.2C1505.98 421.433 1506.37 422.516 1506.37 423.781C1506.37 424.769 1506.15 425.636 1505.7 426.381C1505.25 427.109 1504.62 427.664 1503.83 428.045C1503.05 428.427 1502.17 428.617 1501.2 428.617C1500.2 428.617 1499.28 428.409 1498.44 427.993C1497.61 427.56 1496.95 426.953 1496.47 426.173C1496 425.393 1495.77 424.483 1495.77 423.443C1495.77 422.351 1496.01 421.415 1496.49 420.635C1497 419.855 1497.67 419.266 1498.52 418.867C1499.39 418.451 1500.36 418.243 1501.43 418.243H1509.73V414.343H1493.61V412.055H1515.63V414.343ZM1501.25 426.303C1502.12 426.303 1502.82 426.035 1503.36 425.497C1503.91 424.96 1504.19 424.267 1504.19 423.417C1504.19 422.585 1503.91 421.901 1503.36 421.363C1502.8 420.809 1502.1 420.531 1501.25 420.531C1500.37 420.531 1499.64 420.809 1499.07 421.363C1498.51 421.901 1498.24 422.594 1498.24 423.443C1498.24 424.293 1498.51 424.986 1499.07 425.523C1499.62 426.043 1500.35 426.303 1501.25 426.303ZM1517.55 431.295V414.343H1514.38V412.055H1523.45V414.343H1520.28V431.295H1517.55Z" fill="#222222"/>
<circle cx="1467.5" cy="253" r="9" fill="#EE2E5D"/>
</g>
<defs>
<linearGradient id="paint0_linear_210_118" x1="98.2661" y1="56.5609" x2="242.968" y2="120.644" gradientUnits="userSpaceOnUse">
<stop stop-color="#EA384F"/>
<stop offset="1" stop-color="#F4951B"/>
</linearGradient>
<linearGradient id="paint1_linear_210_118" x1="125.383" y1="45.4342" x2="267.87" y2="99.2208" gradientUnits="userSpaceOnUse">
<stop stop-color="#EA384F"/>
<stop offset="1" stop-color="#F4951B"/>
</linearGradient>
<linearGradient id="paint2_linear_210_118" x1="516.737" y1="56.4094" x2="661.55" y2="120.02" gradientUnits="userSpaceOnUse">
<stop stop-color="#EA384F"/>
<stop offset="1" stop-color="#F4951B"/>
</linearGradient>
<linearGradient id="paint3_linear_210_118" x1="543.882" y1="45.4264" x2="686.333" y2="99.1984" gradientUnits="userSpaceOnUse">
<stop stop-color="#EA384F"/>
<stop offset="1" stop-color="#F4951B"/>
</linearGradient>
<linearGradient id="paint4_linear_210_118" x1="934.764" y1="56.5609" x2="1079.47" y2="120.644" gradientUnits="userSpaceOnUse">
<stop stop-color="#EA384F"/>
<stop offset="1" stop-color="#F4951B"/>
</linearGradient>
<linearGradient id="paint5_linear_210_118" x1="961.881" y1="45.4342" x2="1104.37" y2="99.2208" gradientUnits="userSpaceOnUse">
<stop stop-color="#EA384F"/>
<stop offset="1" stop-color="#F4951B"/>
</linearGradient>
<linearGradient id="paint6_linear_210_118" x1="1352.84" y1="55.9109" x2="1497.66" y2="119.521" gradientUnits="userSpaceOnUse">
<stop stop-color="#EA384F"/>
<stop offset="1" stop-color="#F4951B"/>
</linearGradient>
<linearGradient id="paint7_linear_210_118" x1="1380.38" y1="45.4264" x2="1522.83" y2="99.1984" gradientUnits="userSpaceOnUse">
<stop stop-color="#EA384F"/>
<stop offset="1" stop-color="#F4951B"/>
</linearGradient>
<clipPath id="clip0_210_118">
<rect width="1673" height="493.795" fill="white"/>
</clipPath>
<clipPath id="clip1_210_118">
<rect width="178.132" height="168.526" fill="white" transform="translate(120.053)"/>
</clipPath>
<clipPath id="clip2_210_118">
<rect width="178.561" height="168.526" fill="white" transform="translate(538.088)"/>
</clipPath>
<clipPath id="clip3_210_118">
<rect width="178.132" height="168.526" fill="white" transform="translate(956.551)"/>
</clipPath>
<clipPath id="clip4_210_118">
<rect width="178.561" height="168.526" fill="white" transform="translate(1374.59)"/>
</clipPath>
</defs>
</svg>
