<svg width="55" height="54" viewBox="0 0 55 54" fill="none" xmlns="http://www.w3.org/2000/svg">
<path fill-rule="evenodd" clip-rule="evenodd" d="M52.8256 39.4549L46.9435 33.6597C46.5837 33.2758 46.1473 32.9694 45.6615 32.7599C45.1757 32.5504 44.6511 32.4422 44.1208 32.4422C43.5905 32.4422 43.0659 32.5504 42.5801 32.7599C42.0944 32.9694 41.6578 33.2758 41.2981 33.6597L35.416 39.2217C30.2577 37.9686 25.551 35.3361 21.8151 31.6145C18.0792 27.893 15.4592 23.227 14.2443 18.1314L19.8897 12.5694C20.2793 12.215 20.5902 11.7849 20.8029 11.3063C21.0156 10.8277 21.1253 10.3109 21.1253 9.78844C21.1253 9.26596 21.0156 8.74914 20.8029 8.27053C20.5902 7.79191 20.2793 7.36186 19.8897 7.00743L13.7751 1.21642C13.4389 0.834567 13.0234 0.528347 12.5566 0.318479C12.0899 0.10861 11.5828 0 11.0697 0C10.5566 0 10.0496 0.10861 9.58281 0.318479C9.11606 0.528347 8.70054 0.834567 8.36435 1.21642C6.24653 3.30296 4.36544 5.15626 2.24762 7.01167C-3.63448 13.0381 2.71899 27.1752 13.3038 38.0681C24.5966 49.4254 40.5922 57.305 46.9435 51.0475C48.8245 48.961 50.7078 47.1077 52.8256 45.0212C53.2149 44.6666 53.5256 44.2364 53.7381 43.7579C53.9506 43.2793 54.0603 42.7625 54.0603 42.2402C54.0603 41.7178 53.9506 41.201 53.7381 40.7225C53.5256 40.2439 53.2149 39.8137 52.8256 39.4592V39.4549ZM49.0613 23.6934C49.0945 24.1742 49.3034 24.6268 49.6492 24.9675C49.995 25.3082 50.4544 25.514 50.9424 25.5467C51.468 25.5597 51.9791 25.3756 52.3722 25.0315C52.7654 24.6875 53.0113 24.2092 53.0602 23.6934C53.0505 20.7367 52.4096 17.815 51.1791 15.1182C50.065 12.3389 48.3835 9.81461 46.2389 7.70163C44.0942 5.58865 41.5321 3.93201 38.7111 2.83434C35.974 1.62177 33.0085 0.990316 30.0074 0.981045C29.4839 1.02925 28.9984 1.27152 28.6492 1.65885C28.3 2.04619 28.1131 2.54969 28.1263 3.06759C28.1595 3.54834 28.3684 4.00096 28.7142 4.34169C29.06 4.68241 29.5195 4.88817 30.0074 4.92089C32.5068 4.91179 34.9839 5.38433 37.2992 6.31191C41.8897 8.36271 45.5679 11.9865 47.6494 16.5093C48.5909 18.7904 49.0705 21.2309 49.0613 23.6934ZM41.5284 24.1578C41.5152 24.6757 41.7021 25.1792 42.0513 25.5666C42.4005 25.9539 42.8859 26.1962 43.4095 26.2444C43.6758 26.2401 43.9383 26.1814 44.1803 26.072C44.4224 25.9625 44.6387 25.8047 44.8156 25.6085C44.9925 25.4123 45.126 25.1821 45.2078 24.9323C45.2895 24.6826 45.3177 24.4188 45.2906 24.1578C45.357 22.0878 44.9548 20.0292 44.1133 18.1314C43.4075 16.2147 42.2832 14.474 40.8198 13.0322C39.3565 11.5904 37.5896 10.4827 35.6441 9.78737C33.7179 8.95828 31.6285 8.56207 29.5274 8.62748C29.2625 8.6007 28.9948 8.62847 28.7413 8.70903C28.4879 8.78958 28.2541 8.92117 28.055 9.09542C27.8559 9.26968 27.6957 9.4828 27.5846 9.72128C27.4735 9.95976 27.4139 10.2184 27.4096 10.4808C27.4586 10.9966 27.7045 11.4749 28.0976 11.8189C28.4907 12.1629 29.0018 12.3471 29.5274 12.3341C31.0695 12.306 32.5979 12.6228 33.9977 13.2607C35.5088 13.8 36.8761 14.67 37.9966 15.8053C39.0709 16.9702 39.9434 18.3012 40.5793 19.7451C41.25 21.1165 41.5728 22.6279 41.5198 24.1493L41.5284 24.1578Z" fill="#F37021"/>
</svg>
