<svg width="25" height="26" viewBox="0 0 25 26" fill="none" xmlns="http://www.w3.org/2000/svg">
<rect x="0.337891" y="0.228516" width="23.7954" height="24.7869" fill="#F5F7F9"/>
<path d="M17.1442 18.2015C16.9728 18.3821 16.7404 18.4835 16.498 18.4835C16.2556 18.4835 16.0231 18.3821 15.8517 18.2015L11.7588 13.8893L7.66586 18.2015C7.49446 18.3821 7.262 18.4835 7.0196 18.4835C6.77721 18.4835 6.54475 18.3821 6.37335 18.2015C6.20195 18.0209 6.10566 17.776 6.10566 17.5206C6.10566 17.2653 6.20195 17.0204 6.37335 16.8398L10.4663 12.5276L6.37335 8.21538C6.20195 8.0348 6.10566 7.78988 6.10566 7.5345C6.10566 7.27913 6.20195 7.03421 6.37335 6.85363C6.54475 6.67305 6.77721 6.5716 7.0196 6.5716C7.262 6.5716 7.49446 6.67305 7.66586 6.85363L11.7588 11.1658L15.8517 6.85363C16.0231 6.67305 16.2556 6.5716 16.498 6.5716C16.7404 6.5716 16.9728 6.67305 17.1442 6.85363C17.3156 7.03421 17.4119 7.27913 17.4119 7.5345C17.4119 7.78988 17.3156 8.0348 17.1442 8.21538L13.0513 12.5276L17.1442 16.8398C17.3156 17.0204 17.4119 17.2653 17.4119 17.5206C17.4119 17.776 17.3156 18.0209 17.1442 18.2015Z" fill="black"/>
</svg>
