<svg width="17" height="13" viewBox="0 0 17 13" fill="none" xmlns="http://www.w3.org/2000/svg">
<path d="M16.3968 4.9847C16.2566 4.9847 16.122 5.04042 16.0229 5.1396C15.9236 5.2388 15.8679 5.37332 15.8679 5.5136V7.10029H14.8101V6.04249C14.8101 5.76195 14.6987 5.49289 14.5003 5.29452C14.3019 5.09615 14.0329 4.9847 13.7523 4.9847H12.9134L10.5789 2.65027C10.4811 2.55162 10.3645 2.4734 10.2362 2.42017C10.1078 2.36695 9.9702 2.33976 9.83118 2.3402H8.46335V1.28241H10.05C10.1903 1.28241 10.3248 1.22669 10.424 1.1275C10.5233 1.0283 10.5789 0.893783 10.5789 0.753508C10.5789 0.613233 10.5233 0.478711 10.424 0.379517C10.3248 0.28033 10.1903 0.224609 10.05 0.224609H5.81886C5.67859 0.224609 5.54406 0.28033 5.44487 0.379517C5.34568 0.478711 5.28996 0.613233 5.28996 0.753508C5.28996 0.893783 5.34568 1.0283 5.44487 1.1275C5.54406 1.22669 5.67859 1.28241 5.81886 1.28241H7.40556V2.3402H3.17437C2.89383 2.3402 2.62477 2.45165 2.42639 2.65003C2.22802 2.8484 2.11657 3.11746 2.11657 3.398V7.10029H1.05877V5.5136C1.05877 5.37332 1.00305 5.2388 0.903866 5.1396C0.804672 5.04042 0.670148 4.9847 0.529875 4.9847C0.389603 4.9847 0.255075 5.04042 0.155887 5.1396C0.0566996 5.2388 0.000976562 5.37332 0.000976562 5.5136V9.74478C0.000976562 9.88503 0.0566996 10.0196 0.155887 10.1187C0.255075 10.218 0.389603 10.2737 0.529875 10.2737C0.670148 10.2737 0.804672 10.218 0.903866 10.1187C1.00305 10.0196 1.05877 9.88503 1.05877 9.74478V8.15809H2.11657V9.52592C2.11612 9.66493 2.14331 9.80256 2.19654 9.93096C2.24977 10.0593 2.32798 10.1758 2.42664 10.2737L4.76106 12.6081C4.85894 12.7068 4.97544 12.785 5.1038 12.8382C5.23216 12.8914 5.36983 12.9186 5.50879 12.9182H9.83118C9.9702 12.9186 10.1078 12.8914 10.2362 12.8382C10.3645 12.785 10.4811 12.7068 10.5789 12.6081L12.9134 10.2737H13.7523C14.0329 10.2737 14.3019 10.1622 14.5003 9.96388C14.6987 9.76548 14.8101 9.49645 14.8101 9.21589V8.15809H15.8679V9.74478C15.8679 9.88503 15.9236 10.0196 16.0229 10.1187C16.122 10.218 16.2566 10.2737 16.3968 10.2737C16.5371 10.2737 16.6716 10.218 16.7708 10.1187C16.87 10.0196 16.9257 9.88503 16.9257 9.74478V5.5136C16.9257 5.37332 16.87 5.2388 16.7708 5.1396C16.6716 5.04042 16.5371 4.9847 16.3968 4.9847ZM13.7523 9.21589H12.9134C12.7744 9.21542 12.6368 9.24266 12.5084 9.29582C12.38 9.34905 12.2635 9.42729 12.1656 9.52592L9.83118 11.8604H5.50879L3.17437 9.52592V3.398H9.83118L12.1656 5.73242C12.2635 5.83109 12.38 5.90933 12.5084 5.96249C12.6368 6.01572 12.7744 6.04296 12.9134 6.04249H13.7523V9.21589Z" fill="black"/>
<path d="M8.83796 5.02703L5.97769 7.75817C5.80098 7.92888 5.90038 8.24375 6.13782 8.26729L8.37137 8.49686L7.03234 10.4864C6.9716 10.5776 6.97988 10.7042 7.05442 10.7836C7.13725 10.8719 7.26701 10.8749 7.3526 10.7895L10.2129 8.05835C10.3896 7.88764 10.2902 7.57276 10.0528 7.54922L7.81916 7.31966L9.15822 5.33016C9.21892 5.23892 9.21068 5.11237 9.13614 5.03291C9.09706 4.99042 9.04398 4.96598 8.9882 4.96488C8.93235 4.96378 8.87842 4.9861 8.83796 5.02703Z" fill="black"/>
</svg>
