<svg width="13" height="17" viewBox="0 0 13 17" fill="none" xmlns="http://www.w3.org/2000/svg">
<path d="M9.55983 11.9021C8.3154 13.8332 7.0456 15.4664 6.78535 15.7964C6.52244 15.462 5.25386 13.8301 4.01065 11.9011C3.34085 10.8618 2.68413 9.74512 2.19635 8.70428C1.70195 7.6493 1.4077 6.7266 1.4077 6.0579C1.4077 3.11556 3.81775 0.713361 6.78525 0.713361C9.75287 0.713361 12.1628 3.11316 12.1628 6.0579C12.1628 6.72661 11.8685 7.64947 11.3741 8.70466C10.8863 9.74571 10.2296 10.8627 9.55983 11.9021ZM6.78525 3.0519C4.99701 3.0519 3.54137 4.49572 3.54137 6.27984C3.54137 8.06673 4.99727 9.50777 6.78525 9.50777C8.57349 9.50777 10.0291 8.06396 10.0291 6.27984C10.0291 4.49572 8.57349 3.0519 6.78525 3.0519Z" stroke="black" stroke-width="0.872035"/>
</svg>
