<svg width="23" height="19" viewBox="0 0 23 19" fill="none" xmlns="http://www.w3.org/2000/svg">
<path d="M11.8289 10.5895L4.41916 17.9992C3.87433 18.544 3.05708 18.544 2.56674 17.9992L1.31363 16.8006C0.823279 16.2557 0.823279 15.4385 1.31363 14.9481L6.59848 9.71776L1.31363 4.4329C0.823279 3.94255 0.823279 3.12531 1.31363 2.58048L2.56674 1.32737C3.05708 0.83702 3.87433 0.83702 4.41916 1.32737L11.8289 8.73706C12.3192 9.28189 12.3192 10.0991 11.8289 10.5895ZM22.2896 8.73706C22.78 9.28189 22.78 10.0991 22.2896 10.5895L14.8799 17.9992C14.3896 18.544 13.5178 18.544 13.0275 17.9992L11.7744 16.8006C11.284 16.2557 11.284 15.4385 11.7744 14.9481L17.0592 9.66328L11.7744 4.4329C11.284 3.94255 11.284 3.07083 11.7744 2.58048L13.0275 1.32737C13.5178 0.83702 14.3351 0.83702 14.8799 1.32737L22.2896 8.73706Z" fill="#071C1F"/>
</svg>
