<svg width="27" height="27" viewBox="0 0 27 27" fill="none" xmlns="http://www.w3.org/2000/svg">
<path fill-rule="evenodd" clip-rule="evenodd" d="M26.3833 20.0024L23.4456 17.0643C23.2659 16.8697 23.0479 16.7144 22.8053 16.6082C22.5627 16.502 22.3007 16.4471 22.0358 16.4471C21.771 16.4471 21.509 16.502 21.2663 16.6082C21.0237 16.7144 20.8057 16.8697 20.626 17.0643L17.6883 19.8841C15.112 19.2488 12.7613 17.9142 10.8954 16.0275C9.02952 14.1408 7.721 11.7754 7.11421 9.19205L9.93375 6.37229C10.1283 6.19262 10.2836 5.97458 10.3899 5.73194C10.4961 5.4893 10.5509 5.22729 10.5509 4.96242C10.5509 4.69754 10.4961 4.43553 10.3899 4.19289C10.2836 3.95024 10.1283 3.73222 9.93375 3.55254L6.87987 0.616684C6.71197 0.423098 6.50442 0.267855 6.27131 0.161458C6.03819 0.0550619 5.78493 0 5.52869 0C5.27244 0 5.01918 0.0550619 4.78606 0.161458C4.55295 0.267855 4.34542 0.423098 4.17751 0.616684C3.11979 1.67449 2.18029 2.61406 1.12256 3.55469C-1.81522 6.60987 1.35798 13.777 6.64447 19.2993C12.2846 25.057 20.2735 29.0518 23.4456 25.8794C24.3851 24.8216 25.3256 23.8821 26.3833 22.8243C26.5778 22.6445 26.733 22.4264 26.8391 22.1838C26.9452 21.9412 27 21.6792 27 21.4144C27 21.1496 26.9452 20.8876 26.8391 20.645C26.733 20.4023 26.5778 20.1843 26.3833 20.0045V20.0024ZM24.5033 12.0118C24.5199 12.2555 24.6242 12.485 24.7969 12.6577C24.9696 12.8305 25.1991 12.9348 25.4428 12.9514C25.7053 12.9579 25.9606 12.8646 26.1569 12.6902C26.3533 12.5158 26.4761 12.2733 26.5005 12.0118C26.4957 10.5128 26.1756 9.03164 25.561 7.66445C25.0046 6.25544 24.1648 4.97569 23.0937 3.90448C22.0225 2.83326 20.7429 1.9934 19.334 1.43692C17.9669 0.822182 16.4859 0.502058 14.987 0.497358C14.7255 0.521796 14.483 0.644618 14.3086 0.840984C14.1342 1.03735 14.0409 1.29261 14.0475 1.55517C14.0641 1.79889 14.1684 2.02836 14.3411 2.20109C14.5138 2.37383 14.7433 2.47814 14.987 2.49473C16.2353 2.49012 17.4724 2.72968 18.6288 3.19993C20.9215 4.23962 22.7585 6.07678 23.7981 8.36966C24.2684 9.52612 24.5079 10.7634 24.5033 12.0118ZM20.7411 12.2472C20.7345 12.5098 20.8278 12.7651 21.0022 12.9614C21.1766 13.1578 21.4191 13.2806 21.6805 13.305C21.8135 13.3029 21.9447 13.2731 22.0655 13.2176C22.1864 13.1622 22.2945 13.0821 22.3828 12.9827C22.4711 12.8832 22.5379 12.7665 22.5787 12.6399C22.6195 12.5133 22.6336 12.3796 22.62 12.2472C22.6532 11.1978 22.4524 10.1542 22.032 9.19205C21.6795 8.22032 21.118 7.33782 20.3872 6.60689C19.6563 5.87595 18.7739 5.3144 17.8022 4.96188C16.8401 4.54155 15.7966 4.34069 14.7473 4.37385C14.6149 4.36028 14.4812 4.37436 14.3546 4.41519C14.2281 4.45603 14.1113 4.52274 14.0119 4.61108C13.9124 4.69943 13.8324 4.80747 13.7769 4.92837C13.7214 5.04928 13.6917 5.1804 13.6895 5.31341C13.714 5.57491 13.8368 5.81738 14.0331 5.99179C14.2295 6.16621 14.4847 6.25956 14.7473 6.25297C15.5174 6.23874 16.2808 6.39935 16.9799 6.72274C17.7346 6.99616 18.4175 7.43723 18.9771 8.01276C19.5137 8.60333 19.9494 9.27812 20.267 10.0101C20.602 10.7054 20.7632 11.4716 20.7368 12.2429L20.7411 12.2472Z" fill="white"/>
</svg>
