<svg width="23" height="19" viewBox="0 0 23 19" fill="none" xmlns="http://www.w3.org/2000/svg">
<path d="M11.7834 8.73706L19.1931 1.32737C19.7379 0.83702 20.5552 0.83702 21.0455 1.32737L22.2986 2.58048C22.789 3.07083 22.789 3.94255 22.2986 4.4329L17.0138 9.66328L22.2986 14.9481C22.789 15.4385 22.789 16.2557 22.2986 16.8006L21.0455 17.9992C20.5552 18.544 19.7379 18.544 19.1931 17.9992L11.7834 10.5895C11.2931 10.0991 11.2931 9.28189 11.7834 8.73706ZM1.32266 10.5895C0.832312 10.0991 0.832312 9.28189 1.32266 8.73706L8.73236 1.32737C9.27719 0.83702 10.0944 0.83702 10.5848 1.32737L11.8379 2.58048C12.3282 3.07083 12.3282 3.94255 11.8379 4.4329L6.55303 9.66328L11.8379 14.9481C12.3282 15.4385 12.3282 16.2557 11.8379 16.8006L10.5848 17.9992C10.0944 18.544 9.27719 18.544 8.73236 17.9992L1.32266 10.5895Z" fill="#071C1F"/>
</svg>
