<svg width="12" height="12" viewBox="0 0 12 12" fill="none" xmlns="http://www.w3.org/2000/svg">
<path d="M5.40774 3.12842L5.40652 3.13882L5.40589 3.14928L5.40207 3.21319L5.40142 3.22405V3.23493V5.96602V5.97851L5.40228 5.99098L5.40719 6.06253L5.40797 6.07381L5.40944 6.08502C5.4302 6.24297 5.49204 6.3927 5.58878 6.51926L5.59579 6.52843L5.60336 6.53713L5.65088 6.59175L5.65918 6.60129L5.66812 6.61023L7.30677 8.24888L7.31554 8.25765L7.32488 8.2658L7.37622 8.31059L7.38411 8.31747L7.39238 8.32389C7.55203 8.44776 7.74836 8.51499 7.95043 8.51499C8.15251 8.51499 8.34883 8.44776 8.50849 8.32389L8.51762 8.3168L8.52629 8.30915L8.57763 8.26381L8.59459 8.24883L8.60957 8.23187L8.65491 8.18053L8.66256 8.17186L8.66965 8.16272C8.79352 8.00307 8.86075 7.80674 8.86075 7.60467C8.86075 7.4026 8.79352 7.20627 8.66965 7.04662L8.66256 7.03748L8.65491 7.02882L8.60957 6.97747L8.60211 6.96902L8.59415 6.96105L7.22214 5.58854V5.58807V5.5826V5.57713V5.57167V5.56622V5.56078V5.55535V5.54993V5.54452V5.53911V5.53371V5.52832V5.52294V5.51757V5.51221V5.50685V5.5015V5.49617V5.49083V5.48551V5.4802V5.47489V5.46959V5.4643V5.45902V5.45374V5.44847V5.44322V5.43796V5.43272V5.42748V5.42225V5.41703V5.41182V5.40661V5.40142V5.39622V5.39104V5.38586V5.3807V5.37553V5.37038V5.36523V5.36009V5.35496V5.34983V5.34472V5.3396V5.3345V5.3294V5.32431V5.31923V5.31415V5.30908V5.30402V5.29896V5.29391V5.28887V5.28383V5.2788V5.27378V5.26876V5.26375V5.25874V5.25375V5.24875V5.24377V5.23879V5.23382V5.22885V5.22389V5.21894V5.21399V5.20905V5.20411V5.19918V5.19425V5.18934V5.18442V5.17952V5.17462V5.16972V5.16483V5.15995V5.15507V5.15019V5.14533V5.14047V5.13561V5.13076V5.12591V5.12107V5.11624V5.11141V5.10658V5.10176V5.09695V5.09214V5.08734V5.08254V5.07774V5.07296V5.06817V5.06339V5.05862V5.05385V5.04908V5.04432V5.03957V5.03482V5.03007V5.02533V5.02059V5.01586V5.01113V5.00641V5.00169V4.99697V4.99226V4.98756V4.98285V4.97816V4.97346V4.96877V4.96409V4.95941V4.95473V4.95006V4.94539V4.94072V4.93606V4.9314V4.92675V4.92209V4.91745V4.9128V4.90816V4.90353V4.8989V4.89427V4.88964V4.88502V4.8804V4.87578V4.87117V4.86656V4.86196V4.85735V4.85276V4.84816V4.84357V4.83898V4.83439V4.8298V4.82522V4.82064V4.81607V4.8115V4.80693V4.80236V4.79779V4.79323V4.78867V4.78412V4.77956V4.77501V4.77046V4.76591V4.76137V4.75683V4.75229V4.74775V4.74322V4.73868V4.73415V4.72962V4.7251V4.72057V4.71605V4.71153V4.70701V4.70249V4.69798V4.69346V4.68895V4.68444V4.67993V4.67543V4.67092V4.66642V4.66192V4.65742V4.65292V4.64842V4.64392V4.63943V4.63494V4.63044V4.62595V4.62146V4.61698V4.61249V4.608V4.60352V4.59903V4.59455V4.59007V4.58558V4.5811V4.57662V4.57214V4.56767V4.56319V4.55871V4.55424V4.54976V4.54528V4.54081V4.53634V4.53186V4.52739V4.52291V4.51844V4.51397V4.5095V4.50502V4.50055V4.49608V4.49161V4.48714V4.48267V4.47819V4.47372V4.46925V4.46478V4.4603V4.45583V4.45136V4.44689V4.44241V4.43794V4.43346V4.42899V4.42451V4.42004V4.41556V4.41108V4.40661V4.40213V4.39765V4.39317V4.38869V4.38421V4.37973V4.37524V4.37076V4.36627V4.36179V4.3573V4.35281V4.34832V4.34383V4.33934V4.33484V4.33035V4.32585V4.32136V4.31686V4.31236V4.30786V4.30335V4.29885V4.29434V4.28983V4.28532V4.28081V4.2763V4.27178V4.26727V4.26275V4.25823V4.2537V4.24918V4.24465V4.24012V4.23559V4.23106V4.22652V4.22199V4.21745V4.2129V4.20836V4.20381V4.19926V4.19471V4.19016V4.1856V4.18104V4.17648V4.17191V4.16735V4.16278V4.1582V4.15363V4.14905V4.14447V4.13989V4.1353V4.13071V4.12611V4.12152V4.11692V4.11232V4.10771V4.1031V4.09849V4.09387V4.08926V4.08463V4.08001V4.07538V4.07075V4.06611V4.06147V4.05683V4.05218V4.04753V4.04287V4.03822V4.03355V4.02889V4.02422V4.01954V4.01487V4.01019V4.0055V4.00081V3.99612V3.99142V3.98672V3.98201V3.9773V3.97258V3.96787V3.96314V3.95841V3.95368V3.94894V3.9442V3.93946V3.93471V3.92995V3.92519V3.92043V3.91566V3.91088V3.9061V3.90132V3.89653V3.89174V3.88694V3.88213V3.87732V3.87251V3.86769V3.86287V3.85804V3.8532V3.84836V3.84352V3.83866V3.83381V3.82895V3.82408V3.81921V3.81433V3.80944V3.80455V3.79966V3.79476V3.78985V3.78494V3.78002V3.77509V3.77016V3.76523V3.76029V3.75534V3.75038V3.74542V3.74046V3.73548V3.7305V3.72552V3.72053V3.71553V3.71053V3.70551V3.7005V3.69547V3.69044V3.68541V3.68036V3.67531V3.67026V3.66519V3.66012V3.65505V3.64996V3.64487V3.63977V3.63467V3.62956V3.62444V3.61931V3.61418V3.60904V3.60389V3.59874V3.59358V3.58841V3.58323V3.57805V3.57286V3.56766V3.56245V3.55724V3.55202V3.54679V3.54155V3.53631V3.53106V3.5258V3.52053V3.51526V3.50997V3.50468V3.49938V3.49408V3.48876V3.48344V3.47811V3.47277V3.46742V3.46207V3.4567V3.45133V3.44595V3.44056V3.43516V3.42976V3.42434V3.41892V3.41349V3.40805V3.4026V3.39714V3.39168V3.3862V3.38072V3.37523V3.36973V3.36422V3.3587V3.35317V3.34763V3.34208V3.33653V3.33097V3.32539V3.31981V3.31422V3.30862V3.303V3.29738V3.29175V3.28612V3.28047V3.27481V3.26914V3.26346V3.25778V3.25208V3.24638V3.24066V3.23493V3.22405L7.22149 3.21318L7.21767 3.14928L7.21704 3.13882L7.21582 3.12842C7.18973 2.90697 7.08328 2.7028 6.91665 2.55463C6.75002 2.40646 6.53481 2.3246 6.31183 2.32457H6.31173C6.08876 2.3246 5.87354 2.40646 5.70691 2.55463C5.54029 2.7028 5.43383 2.90697 5.40774 3.12842ZM8.86079 1.55113C9.62971 1.9951 10.2693 2.63218 10.7164 3.39932C11.1634 4.16646 11.4023 5.03705 11.4095 5.9249C11.4167 6.81276 11.1918 7.68709 10.7573 8.46135C10.3227 9.23561 9.69342 9.88295 8.93177 10.3393C8.17013 10.7956 7.30251 11.0451 6.4148 11.0631C5.5271 11.081 4.6501 10.8668 3.87061 10.4417C3.09112 10.0166 2.43619 9.39523 1.97063 8.63918C1.50561 7.884 1.24564 7.02059 1.21639 6.13423L1.2138 5.96602L1.21639 5.79781C1.24543 4.91844 1.50157 4.06154 1.95991 3.31046C2.41878 2.55851 3.06466 1.9383 3.83459 1.51029C4.60451 1.08227 5.4722 0.861061 6.35307 0.86822C7.23394 0.875378 8.09792 1.11066 8.86079 1.55113Z" stroke="black" stroke-width="0.72829"/>
</svg>
