<svg width="12" height="12" viewBox="0 0 12 12" fill="none" xmlns="http://www.w3.org/2000/svg">
<g clip-path="url(#clip0_1054_10397)">
<g clip-path="url(#clip1_1054_10397)">
<path d="M10.2922 5.85809C10.2922 8.51749 9.32196 10.6732 8.12542 10.6732M8.12542 1.04297C9.01381 1.04297 9.77751 2.23134 10.1121 3.93204M1.625 5.85809C1.625 3.1987 2.59525 1.04297 3.79181 1.04297C4.98836 1.04297 5.95861 3.1987 5.95861 5.85809C5.95861 8.51749 4.98836 10.6732 3.79181 10.6732C2.90342 10.6732 2.13974 9.48487 1.80509 7.78413" stroke="black" stroke-width="0.866723" stroke-linecap="round"/>
<path d="M3.79199 10.6732C4.98855 10.6732 5.9588 8.51749 5.9588 5.85809C5.9588 3.1987 4.98855 1.04297 3.79199 1.04297" stroke="black" stroke-width="0.866723"/>
<path d="M3.79258 1.04297H8.1262M3.79258 10.6732H8.1262M4.51485 5.85809C4.51485 7.45385 4.19127 8.74717 3.79258 8.74717C3.39389 8.74717 3.07031 7.45385 3.07031 5.85809C3.07031 4.26236 3.39389 2.96902 3.79258 2.96902C4.19127 2.96902 4.51485 4.26236 4.51485 5.85809Z" stroke="black" stroke-width="0.866723"/>
<path d="M4.51246 5.85547H4.0332" stroke="black" stroke-width="0.866723" stroke-linecap="round"/>
</g>
</g>
<defs>
<clipPath id="clip0_1054_10397">
<rect width="11.5563" height="11.5563" fill="white" transform="translate(0.181641 0.0820312)"/>
</clipPath>
<clipPath id="clip1_1054_10397">
<rect width="10.4007" height="11.5563" fill="white" transform="translate(0.758789 0.0820312)"/>
</clipPath>
</defs>
</svg>
