<svg width="25" height="26" viewBox="0 0 25 26" fill="none" xmlns="http://www.w3.org/2000/svg">
<path d="M23.6744 18.0919C24.0554 18.2824 24.3413 18.7112 24.3413 19.1875C24.3413 19.2351 24.3413 19.3304 24.3413 19.4257L23.198 24.3797C23.0551 24.9036 22.6264 25.2371 22.1024 25.2371C9.86035 25.2371 0 15.3767 0 3.13466C0 2.61068 0.333442 2.18197 0.857422 2.03906L5.81141 0.895835C5.90668 0.895835 6.00195 0.8482 6.04959 0.8482C6.52593 0.8482 6.95464 1.13401 7.14518 1.56272L9.43164 6.89779C9.47927 7.04069 9.52691 7.18359 9.52691 7.3265C9.52691 7.70757 9.33637 8.04102 9.0982 8.23155L6.19249 10.6133C7.95497 14.3288 10.9083 17.2821 14.6238 19.0446L17.0055 16.1389C17.1961 15.9007 17.5295 15.7102 17.863 15.7102C18.0535 15.7102 18.1964 15.7578 18.3393 15.8054L23.6744 18.0919Z" fill="#652178"/>
</svg>
