<svg width="55" height="54" viewBox="0 0 55 54" fill="none" xmlns="http://www.w3.org/2000/svg">
<g filter="url(#filter0_d_3001_16)">
<rect x="8" y="7" width="38.9123" height="38.9123" rx="8.00517" fill="#2263C5" shape-rendering="crispEdges"/>
<path d="M31.4593 27.8979H29.0164V35.194H25.7592V27.8979H23.0883V24.9013H25.7592V22.5887C25.7592 19.983 27.3227 18.5173 29.7004 18.5173C30.8404 18.5173 32.0456 18.7453 32.0456 18.7453V21.3184H30.7101C29.4073 21.3184 29.0164 22.1001 29.0164 22.947V24.9013H31.9153L31.4593 27.8979Z" fill="white"/>
<g filter="url(#filter1_d_3001_16)">
<rect x="8.21094" y="7.51172" width="38.9123" height="38.9123" rx="8.00517" fill="#0066FF" shape-rendering="crispEdges"/>
<path d="M34.3975 23.9799C34.3975 24.1427 34.3975 24.273 34.3975 24.4359C34.3975 28.9633 30.9775 34.1422 24.6912 34.1422C22.7369 34.1422 20.9454 33.5885 19.4471 32.6114C19.7077 32.6439 19.9683 32.6765 20.2614 32.6765C21.8574 32.6765 23.3231 32.1228 24.4957 31.2108C22.9974 31.1782 21.7271 30.2011 21.3037 28.8331C21.5317 28.8656 21.7271 28.8982 21.9551 28.8982C22.2483 28.8982 22.574 28.8331 22.8346 28.7679C21.2711 28.4422 20.0985 27.0742 20.0985 25.413V25.3805C20.5546 25.641 21.1083 25.7713 21.662 25.8039C20.7174 25.185 20.1311 24.1427 20.1311 22.9702C20.1311 22.3187 20.294 21.7324 20.5871 21.2439C22.2809 23.2959 24.8214 24.6639 27.6552 24.8267C27.59 24.5662 27.5575 24.3056 27.5575 24.045C27.5575 22.1559 29.0883 20.625 30.9775 20.625C31.9546 20.625 32.8341 21.0159 33.4855 21.6999C34.2347 21.537 34.9838 21.2439 35.6352 20.853C35.3747 21.6673 34.8535 22.3187 34.1369 22.7422C34.8209 22.677 35.505 22.4816 36.0912 22.221C35.6352 22.905 35.049 23.4913 34.3975 23.9799Z" fill="white"/>
<rect x="7.5" y="7.02344" width="39.91" height="39.91" rx="8.00517" fill="url(#paint0_linear_3001_16)"/>
<path d="M27.0467 23.1333C29.0988 23.1333 30.7925 24.827 30.7925 26.879C30.7925 28.9636 29.0988 30.6248 27.0467 30.6248C24.9621 30.6248 23.301 28.9636 23.301 26.879C23.301 24.827 24.9621 23.1333 27.0467 23.1333ZM27.0467 29.3219C28.3822 29.3219 29.457 28.2471 29.457 26.879C29.457 25.5436 28.3822 24.4687 27.0467 24.4687C25.6787 24.4687 24.6039 25.5436 24.6039 26.879C24.6039 28.2471 25.7113 29.3219 27.0467 29.3219ZM31.8022 23.003C31.8022 23.4916 31.4113 23.8825 30.9228 23.8825C30.4342 23.8825 30.0433 23.4916 30.0433 23.003C30.0433 22.5144 30.4342 22.1236 30.9228 22.1236C31.4113 22.1236 31.8022 22.5144 31.8022 23.003ZM34.2776 23.8825C34.3428 25.0876 34.3428 28.7031 34.2776 29.9082C34.2125 31.0808 33.9519 32.0905 33.1051 32.97C32.2582 33.8168 31.2159 34.0774 30.0433 34.1425C28.8382 34.2077 25.2227 34.2077 24.0176 34.1425C22.845 34.0774 21.8353 33.8168 20.9558 32.97C20.109 32.0905 19.8484 31.0808 19.7832 29.9082C19.7181 28.7031 19.7181 25.0876 19.7832 23.8825C19.8484 22.7099 20.109 21.6676 20.9558 20.8207C21.8353 19.9739 22.845 19.7133 24.0176 19.6481C25.2227 19.583 28.8382 19.583 30.0433 19.6481C31.2159 19.7133 32.2582 19.9739 33.1051 20.8207C33.9519 21.6676 34.2125 22.7099 34.2776 23.8825ZM32.7142 31.1785C33.1051 30.2339 33.0074 27.9539 33.0074 26.879C33.0074 25.8368 33.1051 23.5567 32.7142 22.5796C32.4536 21.9607 31.9651 21.4396 31.3462 21.2116C30.369 20.8207 28.089 20.9184 27.0467 20.9184C25.9719 20.9184 23.6919 20.8207 22.7473 21.2116C22.0958 21.4722 21.6073 21.9607 21.3467 22.5796C20.9558 23.5567 21.0535 25.8368 21.0535 26.879C21.0535 27.9539 20.9558 30.2339 21.3467 31.1785C21.6073 31.8299 22.0958 32.3185 22.7473 32.5791C23.6919 32.97 25.9719 32.8722 27.0467 32.8722C28.089 32.8722 30.369 32.97 31.3462 32.5791C31.9651 32.3185 32.4862 31.8299 32.7142 31.1785Z" fill="white"/>
</g>
</g>
<defs>
<filter id="filter0_d_3001_16" x="0.638429" y="0.138429" width="53.6333" height="53.6567" filterUnits="userSpaceOnUse" color-interpolation-filters="sRGB">
<feFlood flood-opacity="0" result="BackgroundImageFix"/>
<feColorMatrix in="SourceAlpha" type="matrix" values="0 0 0 0 0 0 0 0 0 0 0 0 0 0 0 0 0 0 127 0" result="hardAlpha"/>
<feMorphology radius="1.1436" operator="dilate" in="SourceAlpha" result="effect1_dropShadow_3001_16"/>
<feOffset/>
<feGaussianBlur stdDeviation="2.85899"/>
<feComposite in2="hardAlpha" operator="out"/>
<feColorMatrix type="matrix" values="0 0 0 0 0.815686 0 0 0 0 0.815686 0 0 0 0 0.815686 0 0 0 0.62 0"/>
<feBlend mode="normal" in2="BackgroundImageFix" result="effect1_dropShadow_3001_16"/>
<feBlend mode="normal" in="SourceGraphic" in2="effect1_dropShadow_3001_16" result="shape"/>
</filter>
<filter id="filter1_d_3001_16" x="0.638429" y="0.161866" width="53.6333" height="53.6333" filterUnits="userSpaceOnUse" color-interpolation-filters="sRGB">
<feFlood flood-opacity="0" result="BackgroundImageFix"/>
<feColorMatrix in="SourceAlpha" type="matrix" values="0 0 0 0 0 0 0 0 0 0 0 0 0 0 0 0 0 0 127 0" result="hardAlpha"/>
<feMorphology radius="1.1436" operator="dilate" in="SourceAlpha" result="effect1_dropShadow_3001_16"/>
<feOffset/>
<feGaussianBlur stdDeviation="2.85899"/>
<feComposite in2="hardAlpha" operator="out"/>
<feColorMatrix type="matrix" values="0 0 0 0 0.815686 0 0 0 0 0.815686 0 0 0 0 0.815686 0 0 0 0.62 0"/>
<feBlend mode="normal" in2="BackgroundImageFix" result="effect1_dropShadow_3001_16"/>
<feBlend mode="normal" in="SourceGraphic" in2="effect1_dropShadow_3001_16" result="shape"/>
</filter>
<linearGradient id="paint0_linear_3001_16" x1="27.455" y1="7.02344" x2="27.455" y2="46.9334" gradientUnits="userSpaceOnUse">
<stop stop-color="#B131B9"/>
<stop offset="1" stop-color="#FFB74E"/>
</linearGradient>
</defs>
</svg>
