<svg width="53" height="53" viewBox="0 0 53 53" fill="none" xmlns="http://www.w3.org/2000/svg">
<g filter="url(#filter0_d_1571_1034)">
<path d="M32.8975 23.9564C32.8975 24.1193 32.8975 24.2496 32.8975 24.4124C32.8975 28.9399 29.4775 34.1188 23.1912 34.1188C21.2369 34.1188 19.4454 33.5651 17.9471 32.5879C18.2077 32.6205 18.4683 32.6531 18.7614 32.6531C20.3574 32.6531 21.8231 32.0994 22.9957 31.1874C21.4974 31.1548 20.2271 30.1776 19.8037 28.8096C20.0317 28.8422 20.2271 28.8748 20.4551 28.8748C20.7483 28.8748 21.074 28.8096 21.3346 28.7445C19.7711 28.4188 18.5985 27.0507 18.5985 25.3896V25.357C19.0546 25.6176 19.6083 25.7479 20.162 25.7805C19.2174 25.1616 18.6311 24.1193 18.6311 22.9467C18.6311 22.2953 18.794 21.709 19.0871 21.2204C20.7809 23.2724 23.3214 24.6404 26.1552 24.8033C26.09 24.5427 26.0575 24.2822 26.0575 24.0216C26.0575 22.1324 27.5883 20.6016 29.4775 20.6016C30.4546 20.6016 31.3341 20.9924 31.9855 21.6764C32.7347 21.5136 33.4838 21.2204 34.1352 20.8296C33.8747 21.6438 33.3535 22.2953 32.6369 22.7187C33.3209 22.6536 34.005 22.4581 34.5912 22.1976C34.1352 22.8816 33.549 23.4679 32.8975 23.9564Z" fill="white"/>
<rect x="7" y="7" width="38.9123" height="38.9123" rx="8.00517" fill="url(#paint0_linear_1571_1034)"/>
<path d="M26.5467 23.1099C28.5988 23.1099 30.2925 24.8036 30.2925 26.8556C30.2925 28.9402 28.5988 30.6014 26.5467 30.6014C24.4621 30.6014 22.801 28.9402 22.801 26.8556C22.801 24.8036 24.4621 23.1099 26.5467 23.1099ZM26.5467 29.2985C27.8822 29.2985 28.957 28.2236 28.957 26.8556C28.957 25.5202 27.8822 24.4453 26.5467 24.4453C25.1787 24.4453 24.1039 25.5202 24.1039 26.8556C24.1039 28.2236 25.2113 29.2985 26.5467 29.2985ZM31.3022 22.9796C31.3022 23.4682 30.9113 23.859 30.4228 23.859C29.9342 23.859 29.5433 23.4682 29.5433 22.9796C29.5433 22.491 29.9342 22.1001 30.4228 22.1001C30.9113 22.1001 31.3022 22.491 31.3022 22.9796ZM33.7776 23.859C33.8428 25.0642 33.8428 28.6796 33.7776 29.8848C33.7125 31.0574 33.4519 32.0671 32.6051 32.9465C31.7582 33.7934 30.7159 34.054 29.5433 34.1191C28.3382 34.1842 24.7227 34.1842 23.5176 34.1191C22.345 34.054 21.3353 33.7934 20.4558 32.9465C19.609 32.0671 19.3484 31.0574 19.2832 29.8848C19.2181 28.6796 19.2181 25.0642 19.2832 23.859C19.3484 22.6864 19.609 21.6441 20.4558 20.7973C21.3353 19.9504 22.345 19.6898 23.5176 19.6247C24.7227 19.5596 28.3382 19.5596 29.5433 19.6247C30.7159 19.6898 31.7582 19.9504 32.6051 20.7973C33.4519 21.6441 33.7125 22.6864 33.7776 23.859ZM32.2142 31.1551C32.6051 30.2105 32.5074 27.9305 32.5074 26.8556C32.5074 25.8133 32.6051 23.5333 32.2142 22.5562C31.9536 21.9373 31.4651 21.4161 30.8462 21.1881C29.869 20.7973 27.589 20.895 26.5467 20.895C25.4719 20.895 23.1919 20.7973 22.2473 21.1881C21.5958 21.4487 21.1073 21.9373 20.8467 22.5562C20.4558 23.5333 20.5535 25.8133 20.5535 26.8556C20.5535 27.9305 20.4558 30.2105 20.8467 31.1551C21.1073 31.8065 21.5958 32.2951 22.2473 32.5557C23.1919 32.9465 25.4719 32.8488 26.5467 32.8488C27.589 32.8488 29.869 32.9465 30.8462 32.5557C31.4651 32.2951 31.9862 31.8065 32.2142 31.1551Z" fill="white"/>
</g>
<defs>
<filter id="filter0_d_1571_1034" x="-0.150634" y="0.138429" width="52.9263" height="53.1255" filterUnits="userSpaceOnUse" color-interpolation-filters="sRGB">
<feFlood flood-opacity="0" result="BackgroundImageFix"/>
<feColorMatrix in="SourceAlpha" type="matrix" values="0 0 0 0 0 0 0 0 0 0 0 0 0 0 0 0 0 0 127 0" result="hardAlpha"/>
<feMorphology radius="1.1436" operator="dilate" in="SourceAlpha" result="effect1_dropShadow_1571_1034"/>
<feOffset/>
<feGaussianBlur stdDeviation="2.85899"/>
<feComposite in2="hardAlpha" operator="out"/>
<feColorMatrix type="matrix" values="0 0 0 0 0.815686 0 0 0 0 0.815686 0 0 0 0 0.815686 0 0 0 0.62 0"/>
<feBlend mode="normal" in2="BackgroundImageFix" result="effect1_dropShadow_1571_1034"/>
<feBlend mode="normal" in="SourceGraphic" in2="effect1_dropShadow_1571_1034" result="shape"/>
</filter>
<linearGradient id="paint0_linear_1571_1034" x1="26.4562" y1="7" x2="26.4562" y2="45.9123" gradientUnits="userSpaceOnUse">
<stop stop-color="#B131B9"/>
<stop offset="1" stop-color="#FFB74E"/>
</linearGradient>
</defs>
</svg>
