<svg width="25" height="20" viewBox="0 0 25 20" fill="none" xmlns="http://www.w3.org/2000/svg">
<path d="M22.1024 0.921225C23.3409 0.921225 24.3889 1.96919 24.3889 3.20768V16.9264C24.3889 18.2126 23.3409 19.2129 22.1024 19.2129H2.28646C1.00033 19.2129 0 18.2126 0 16.9264V3.20768C0 1.96919 1.00033 0.921225 2.28646 0.921225H22.1024ZM22.1024 3.20768H2.28646V5.1607C3.33442 6.06576 5.04926 7.39952 8.66949 10.2576C9.47927 10.8768 11.0512 12.4012 12.1944 12.3535C13.29 12.4012 14.862 10.8768 15.6718 10.2576C19.292 7.39952 21.0068 6.06576 22.1024 5.1607V3.20768ZM2.28646 16.9264H22.1024V8.11404C21.0068 8.97146 19.4349 10.21 17.1008 12.0677C16.0052 12.8775 14.1951 14.6876 12.1944 14.64C10.1462 14.6876 8.28841 12.8775 7.24045 12.0677C4.90636 10.21 3.33442 8.97146 2.28646 8.11404V16.9264Z" fill="#652178"/>
</svg>
