<svg width="15" height="15" viewBox="0 0 15 15" fill="none" xmlns="http://www.w3.org/2000/svg">
<path fill-rule="evenodd" clip-rule="evenodd" d="M14.6574 11.1124L13.0253 9.48019C12.9255 9.37208 12.8044 9.28579 12.6696 9.22678C12.5348 9.16777 12.3893 9.1373 12.2421 9.1373C12.095 9.1373 11.9494 9.16777 11.8146 9.22678C11.6798 9.28579 11.5587 9.37208 11.4589 9.48019L9.82681 11.0467C8.39555 10.6938 7.0896 9.95235 6.053 8.90419C5.0164 7.85602 4.28944 6.54186 3.95234 5.10669L5.51875 3.54016C5.62686 3.44034 5.71313 3.31921 5.77214 3.18441C5.83115 3.04961 5.86161 2.90405 5.86161 2.7569C5.86161 2.60975 5.83115 2.46418 5.77214 2.32938C5.71313 2.19458 5.62686 2.07346 5.51875 1.97363L3.82215 0.342602C3.72887 0.235055 3.61357 0.148808 3.48406 0.089699C3.35455 0.0305899 3.21385 0 3.07149 0C2.92913 0 2.78843 0.0305899 2.65892 0.089699C2.52941 0.148808 2.41412 0.235055 2.32084 0.342602C1.73321 0.930275 1.21127 1.45225 0.623644 1.97483C-1.00845 3.67215 0.754432 7.65387 3.69137 10.7218C6.82478 13.9206 11.263 16.1399 13.0253 14.3775C13.5473 13.7898 14.0698 13.2678 14.6574 12.6801C14.7654 12.5803 14.8517 12.4591 14.9106 12.3243C14.9696 12.1895 15 12.044 15 11.8969C15 11.7498 14.9696 11.6042 14.9106 11.4694C14.8517 11.3346 14.7654 11.2135 14.6574 11.1136V11.1124ZM13.6129 6.67322C13.6222 6.80862 13.6801 6.9361 13.7761 7.03206C13.872 7.12803 13.9995 7.18598 14.1349 7.1952C14.2807 7.19886 14.4225 7.147 14.5316 7.0501C14.6407 6.9532 14.7089 6.8185 14.7225 6.67322C14.7198 5.84046 14.542 5.01758 14.2006 4.25803C13.8914 3.47524 13.4249 2.76427 12.8298 2.16915C12.2347 1.57403 11.5238 1.10745 10.7411 0.798288C9.98163 0.456768 9.1588 0.278921 8.3261 0.27631C8.18083 0.289887 8.04613 0.358121 7.94924 0.467213C7.85236 0.576305 7.8005 0.718118 7.80416 0.863983C7.81337 0.999384 7.87132 1.12686 7.96728 1.22283C8.06323 1.31879 8.19071 1.37675 8.3261 1.38596C9.01961 1.3834 9.70691 1.51649 10.3493 1.77774C11.6231 2.35535 12.6436 3.37599 13.2212 4.64981C13.4824 5.29229 13.6155 5.97966 13.6129 6.67322ZM11.5228 6.80401C11.5192 6.94988 11.571 7.09169 11.6679 7.20079C11.7648 7.30988 11.8995 7.37811 12.0447 7.39169C12.1186 7.3905 12.1915 7.37397 12.2586 7.34314C12.3258 7.31231 12.3858 7.26786 12.4349 7.2126C12.484 7.15735 12.521 7.09249 12.5437 7.02215C12.5664 6.95182 12.5742 6.87753 12.5667 6.80401C12.5851 6.221 12.4735 5.6412 12.24 5.10669C12.0442 4.56684 11.7322 4.07657 11.3262 3.67049C10.9202 3.26442 10.4299 2.95244 9.89011 2.7566C9.35564 2.52309 8.77589 2.41149 8.19292 2.42992C8.11941 2.42238 8.04514 2.4302 7.9748 2.45289C7.90447 2.47557 7.83962 2.51263 7.78437 2.56171C7.72912 2.61079 7.68467 2.67082 7.65384 2.73798C7.62302 2.80515 7.60649 2.878 7.6053 2.95189C7.61888 3.09717 7.6871 3.23188 7.79619 3.32877C7.90527 3.42567 8.04707 3.47753 8.19292 3.47387C8.62079 3.46596 9.04487 3.5552 9.43327 3.73486C9.85256 3.88675 10.2319 4.1318 10.5428 4.45153C10.8409 4.77963 11.083 5.15451 11.2594 5.56118C11.4456 5.94744 11.5351 6.37311 11.5204 6.80163L11.5228 6.80401Z" fill="#722875"/>
</svg>
