<svg width="51" height="51" viewBox="0 0 51 51" fill="none" xmlns="http://www.w3.org/2000/svg">
<rect width="51" height="51" rx="25.5" fill="#F5F7F9"/>
<path d="M34.5107 34.6972C34.2238 34.9842 33.8346 35.1454 33.4289 35.1454C33.0231 35.1454 32.6339 34.9842 32.347 34.6972L25.4951 27.8454L18.6433 34.6972C18.3563 34.9842 17.9672 35.1454 17.5614 35.1454C17.1556 35.1454 16.7664 34.9842 16.4795 34.6972C16.1926 34.4103 16.0314 34.0211 16.0314 33.6154C16.0314 33.2096 16.1926 32.8204 16.4795 32.5335L23.3314 25.6816L16.4795 18.8297C16.1926 18.5428 16.0314 18.1537 16.0314 17.7479C16.0314 17.3421 16.1926 16.9529 16.4795 16.666C16.7664 16.3791 17.1556 16.2179 17.5614 16.2179C17.9672 16.2179 18.3563 16.3791 18.6433 16.666L25.4951 23.5179L32.347 16.666C32.6339 16.3791 33.0231 16.2179 33.4289 16.2179C33.8346 16.2179 34.2238 16.3791 34.5107 16.666C34.7977 16.9529 34.9589 17.3421 34.9589 17.7479C34.9589 18.1537 34.7977 18.5428 34.5107 18.8297L27.6589 25.6816L34.5107 32.5335C34.7977 32.8204 34.9589 33.2096 34.9589 33.6154C34.9589 34.0211 34.7977 34.4103 34.5107 34.6972Z" fill="black"/>
</svg>
