<svg width="35" height="35" viewBox="0 0 35 35" fill="none" xmlns="http://www.w3.org/2000/svg">
<path d="M1.02426 0C0.826664 0.00100297 0.63353 0.0588515 0.467918 0.166639C0.302305 0.274426 0.171212 0.427599 0.0902895 0.607868C0.00936675 0.788137 -0.0179664 0.987887 0.0115535 1.18327C0.0410733 1.37865 0.126199 1.56141 0.256767 1.70973L13.3723 16.3678V33.9666C13.3716 34.1535 13.4218 34.3371 13.5175 34.4977C13.6133 34.6583 13.7509 34.7898 13.9157 34.8781C14.0806 34.9663 14.2663 35.008 14.453 34.9987C14.6397 34.9894 14.8204 34.9294 14.9756 34.8252L21.161 30.7067C21.3019 30.6122 21.4172 30.4844 21.4967 30.3346C21.5763 30.1848 21.6176 30.0176 21.617 29.848V16.3678L34.7324 1.70973C34.863 1.56141 34.9481 1.37866 34.9777 1.18328C35.0072 0.9879 34.9798 0.788153 34.8989 0.607885C34.818 0.427617 34.6869 0.274445 34.5213 0.166655C34.3557 0.0588643 34.1626 0.00101036 33.965 0H1.02426ZM3.3267 2.05927H31.6625L19.8236 15.2811C19.6522 15.4706 19.5573 15.7171 19.5575 15.9726V29.3009L15.4314 32.0441V15.9726C15.4316 15.7171 15.3367 15.4706 15.1653 15.2811L3.3267 2.05927Z" fill="#722875"/>
</svg>
