<svg width="68" height="50" viewBox="0 0 68 50" fill="none" xmlns="http://www.w3.org/2000/svg">
<path d="M0.5 0.5H62C65.0376 0.5 67.5 2.96243 67.5 6V44C67.5 47.0376 65.0376 49.5 62 49.5H0.5V0.5Z" fill="#652178" stroke="#DDDDDD"/>
<path d="M25.1011 13H30.3525C31.5165 13 32.4536 13.9371 32.4536 15.1011V20.3525C32.4536 21.5165 31.5165 22.4536 30.3525 22.4536H25.1011C23.9371 22.4536 23 21.5165 23 20.3525V15.1011C23 13.9371 23.9371 13 25.1011 13Z" fill="#FCFCFC"/>
<path d="M38.3364 13H43.5879C44.7519 13 45.689 13.9371 45.689 15.1011V20.3525C45.689 21.5165 44.7519 22.4536 43.5879 22.4536H38.3364C37.1724 22.4536 36.2354 21.5165 36.2354 20.3525V15.1011C36.2354 13.9371 37.1725 13 38.3364 13Z" fill="#FCFCFC"/>
<path d="M25.1011 26.2344H30.3525C31.5165 26.2344 32.4536 27.1715 32.4536 28.3355V33.5869C32.4536 34.7509 31.5165 35.688 30.3525 35.688H25.1011C23.9371 35.688 23 34.7509 23 33.5869V28.3355C23 27.1715 23.9371 26.2344 25.1011 26.2344Z" fill="#FCFCFC"/>
<path d="M38.3364 26.2344H43.5879C44.7519 26.2344 45.689 27.1715 45.689 28.3355V33.5869C45.689 34.7509 44.7519 35.688 43.5879 35.688H38.3364C37.1724 35.688 36.2354 34.7509 36.2354 33.5869V28.3355C36.2354 27.1715 37.1725 26.2344 38.3364 26.2344Z" fill="#FCFCFC"/>
</svg>
