<svg width="69" height="50" viewBox="0 0 69 50" fill="none" xmlns="http://www.w3.org/2000/svg">
<path opacity="0.72" d="M0.5 0.5H63C66.0376 0.5 68.5 2.96243 68.5 6V44C68.5 47.0376 66.0376 49.5 63 49.5H0.5V0.5Z" fill="white" stroke="#DDDDDD"/>
<path d="M26.1011 13H31.3525C32.5165 13 33.4536 13.9371 33.4536 15.1011V20.3525C33.4536 21.5165 32.5165 22.4536 31.3525 22.4536H26.1011C24.9371 22.4536 24 21.5165 24 20.3525V15.1011C24 13.9371 24.9371 13 26.1011 13Z" fill="#652178"/>
<path d="M39.3362 13H44.5876C45.7517 13 46.6887 13.9371 46.6887 15.1011V20.3525C46.6887 21.5165 45.7516 22.4536 44.5876 22.4536H39.3362C38.1722 22.4536 37.2351 21.5165 37.2351 20.3525V15.1011C37.2351 13.9371 38.1722 13 39.3362 13Z" fill="#652178"/>
<path d="M26.1008 26.2344H31.3523C32.5163 26.2344 33.4534 27.1715 33.4534 28.3355V33.5869C33.4534 34.7509 32.5163 35.688 31.3523 35.688H26.1008C24.9368 35.688 23.9998 34.7509 23.9998 33.5869V28.3355C23.9998 27.1715 24.9369 26.2344 26.1008 26.2344Z" fill="#652178"/>
<path d="M39.3362 26.2344H44.5876C45.7517 26.2344 46.6887 27.1715 46.6887 28.3355V33.5869C46.6887 34.7509 45.7516 35.688 44.5876 35.688H39.3362C38.1722 35.688 37.2351 34.7509 37.2351 33.5869V28.3355C37.2351 27.1715 38.1722 26.2344 39.3362 26.2344Z" fill="#652178"/>
</svg>
