<svg width="68" height="50" viewBox="0 0 68 50" fill="none" xmlns="http://www.w3.org/2000/svg">
<path opacity="0.72" d="M6 0.5H67.5V49.5H6C2.96244 49.5 0.5 47.0376 0.5 44V6C0.5 2.96243 2.96243 0.5 6 0.5Z" fill="white" stroke="#DDDDDD"/>
<path d="M17.1011 26H22.3525C23.5165 26 24.4536 26.9371 24.4536 28.1011V33.3525C24.4536 34.5165 23.5165 35.4536 22.3525 35.4536H17.1011C15.9371 35.4536 15 34.5165 15 33.3525V28.1011C15 26.9371 15.9371 26 17.1011 26Z" fill="#652178"/>
<path d="M17.1011 14H22.3525C23.5165 14 24.4536 14.9371 24.4536 16.1011V21.3525C24.4536 22.5165 23.5165 23.4536 22.3525 23.4536H17.1011C15.9371 23.4536 15 22.5165 15 21.3525V16.1011C15 14.9371 15.9371 14 17.1011 14Z" fill="#652178"/>
<path d="M29.3364 28H48.5879C49.7519 28 50.689 28.9371 50.689 30.1011V31.3525C50.689 32.5165 49.7519 33.4536 48.5879 33.4536H29.3364C28.1724 33.4536 27.2354 32.5165 27.2354 31.3525V30.1011C27.2354 28.9371 28.1725 28 29.3364 28Z" fill="#652178"/>
<path d="M29.3364 16H48.5879C49.7519 16 50.689 16.9371 50.689 18.1011V19.3525C50.689 20.5165 49.7519 21.4536 48.5879 21.4536H29.3364C28.1724 21.4536 27.2354 20.5165 27.2354 19.3525V18.1011C27.2354 16.9371 28.1725 16 29.3364 16Z" fill="#652178"/>
</svg>
