<svg width="25" height="35" viewBox="0 0 25 35" fill="none" xmlns="http://www.w3.org/2000/svg">
<path d="M12.3925 34.2739C12.6412 34.2739 12.8737 34.1604 13.0305 33.9657C13.5117 33.3602 24.7849 18.9942 24.7849 12.3925C24.7849 5.55822 19.2267 0 12.3925 0C5.55822 0 0 5.56363 0 12.3925C0 18.9942 11.2732 33.3547 11.7544 33.9657C11.9112 34.1604 12.1437 34.2739 12.3925 34.2739ZM6.40709 12.8683C6.40709 9.56469 9.08888 6.8829 12.3925 6.8829C15.696 6.8829 18.3778 9.56469 18.3778 12.8683C18.3778 16.1718 15.696 18.8536 12.3925 18.8536C9.08888 18.8536 6.40709 16.1772 6.40709 12.8683Z" fill="#E35F26"/>
</svg>
