<svg width="65" height="58" viewBox="0 0 65 58" fill="none" xmlns="http://www.w3.org/2000/svg">
<rect x="1.08912" y="1.28932" width="63.0427" height="55.5376" fill="white" stroke="#652178" stroke-width="0.750508"/>
<path d="M45.3594 39.9853L39.828 34.4701C40.617 33.4953 41.2344 32.4008 41.6804 31.1866C42.1263 29.9724 42.3493 28.6898 42.3493 27.3388C42.3493 25.7655 42.0492 24.2862 41.4488 22.901C40.8485 21.5158 40.0295 20.3059 38.9919 19.2712C37.9542 18.2366 36.7407 17.42 35.3514 16.8214C33.9621 16.2229 32.4871 15.9236 30.9263 15.9236C29.3483 15.9236 27.8647 16.2229 26.4754 16.8214C25.0861 17.42 23.8727 18.2366 22.835 19.2712C21.7973 20.3059 20.9783 21.5158 20.378 22.901C19.7777 24.2862 19.4775 25.7655 19.4775 27.3388C19.4775 28.895 19.7777 30.3658 20.378 31.751C20.9783 33.1362 21.7973 34.3461 22.835 35.3808C23.8727 36.4154 25.0861 37.232 26.4754 37.8305C27.8647 38.4291 29.3483 38.7284 30.9263 38.7284C32.2641 38.7284 33.5376 38.5103 34.7468 38.0742C35.956 37.6382 37.0409 37.0353 38.0014 36.2658L37.9756 36.2914L43.5328 41.8066C43.6528 41.9263 43.79 42.0204 43.9444 42.0888C44.0988 42.1572 44.2617 42.1914 44.4332 42.1914C44.7934 42.1914 45.1021 42.0631 45.3594 41.8066C45.6167 41.5501 45.7453 41.2508 45.7453 40.9088C45.7453 40.7207 45.711 40.5497 45.6424 40.3958C45.5738 40.2418 45.4795 40.105 45.3594 39.9853ZM22.076 27.3388C22.076 26.1075 22.3076 24.9617 22.7707 23.9014C23.2338 22.824 23.8641 21.8877 24.6616 21.0925C25.4592 20.2973 26.3982 19.6688 27.4788 19.2071C28.5422 18.7453 29.6914 18.5145 30.9263 18.5145C32.1441 18.5145 33.2846 18.7453 34.348 19.2071C35.4286 19.6688 36.3677 20.2973 37.1652 21.0925C37.9628 21.8877 38.5931 22.824 39.0562 23.9014C39.5364 24.9617 39.7766 26.1075 39.7766 27.3388C39.7766 28.553 39.5364 29.6903 39.0562 30.7505C38.5931 31.8279 37.9628 32.7642 37.1652 33.5595C36.3677 34.3547 35.4286 34.9832 34.348 35.4449C33.2846 35.9237 32.1441 36.1632 30.9263 36.1632C29.6914 36.1632 28.5422 35.9237 27.4788 35.4449C26.3982 34.9832 25.4592 34.3547 24.6616 33.5595C23.8641 32.7642 23.2338 31.8279 22.7707 30.7505C22.3076 29.6903 22.076 28.553 22.076 27.3388Z" fill="#1A1A1A"/>
</svg>
