<svg width="44" height="37" viewBox="0 0 44 37" fill="none" xmlns="http://www.w3.org/2000/svg">
<path d="M42.715 31.9233L38.09 36.5483C37.7889 36.8494 37.3945 37 37 37C36.6056 37 36.2111 36.8494 35.91 36.5483L31.285 31.9233C30.6828 31.3211 30.6828 30.3455 31.285 29.7433C31.8872 29.1411 32.8628 29.1411 33.465 29.7433L35.4583 31.7367V7.70833C35.4583 6.85695 36.1486 6.16667 37 6.16667C37.8514 6.16667 38.5417 6.85695 38.5417 7.70833V31.7367L40.535 29.7433C41.1372 29.1411 42.1128 29.1411 42.715 29.7433C43.3172 30.3455 43.3172 31.3211 42.715 31.9233ZM18.5 23.125H1.54167C0.690287 23.125 0 23.8153 0 24.6667C0 25.518 0.690287 26.2083 1.54167 26.2083H18.5C19.3514 26.2083 20.0417 25.518 20.0417 24.6667C20.0417 23.8153 19.3514 23.125 18.5 23.125ZM23.125 15.4167H1.54167C0.690287 15.4167 0 16.107 0 16.9583C0 17.8097 0.690287 18.5 1.54167 18.5H23.125C23.9764 18.5 24.6667 17.8097 24.6667 16.9583C24.6667 16.107 23.9764 15.4167 23.125 15.4167ZM27.75 7.70833H1.54167C0.690287 7.70833 0 8.39862 0 9.25C0 10.1014 0.690287 10.7917 1.54167 10.7917H27.75C28.6014 10.7917 29.2917 10.1014 29.2917 9.25C29.2917 8.39862 28.6014 7.70833 27.75 7.70833ZM1.54167 3.08333H37C37.8514 3.08333 38.5417 2.39305 38.5417 1.54167C38.5417 0.690287 37.8514 0 37 0H1.54167C0.690287 0 0 0.690287 0 1.54167C0 2.39305 0.690287 3.08333 1.54167 3.08333Z" fill="#722875"/>
</svg>
