<svg width="20" height="21" viewBox="0 0 20 21" fill="none" xmlns="http://www.w3.org/2000/svg">
<path d="M9.86567 5.38825C12.594 5.38825 14.846 7.64023 14.846 10.3686C14.846 13.1403 12.594 15.3489 9.86567 15.3489C7.094 15.3489 4.88533 13.1403 4.88533 10.3686C4.88533 7.64023 7.094 5.38825 9.86567 5.38825ZM9.86567 13.6166C11.6413 13.6166 13.0704 12.1875 13.0704 10.3686C13.0704 8.59299 11.6413 7.16385 9.86567 7.16385C8.04676 7.16385 6.61762 8.59299 6.61762 10.3686C6.61762 12.1875 8.09007 13.6166 9.86567 13.6166ZM16.1885 5.21502C16.1885 5.86463 15.6689 6.38431 15.0192 6.38431C14.3696 6.38431 13.8499 5.86463 13.8499 5.21502C13.8499 4.56541 14.3696 4.04572 15.0192 4.04572C15.6689 4.04572 16.1885 4.56541 16.1885 5.21502ZM19.4799 6.38431C19.5665 7.98668 19.5665 12.7938 19.4799 14.3962C19.3933 15.9552 19.0468 17.2978 17.9208 18.4671C16.7948 19.593 15.409 19.9395 13.8499 20.0261C12.2476 20.1127 7.44046 20.1127 5.83809 20.0261C4.27902 19.9395 2.9365 19.593 1.7672 18.4671C0.64121 17.2978 0.294751 15.9552 0.208137 14.3962C0.121522 12.7938 0.121522 7.98668 0.208137 6.38431C0.294751 4.82525 0.64121 3.43942 1.7672 2.31343C2.9365 1.18744 4.27902 0.840977 5.83809 0.754362C7.44046 0.667747 12.2476 0.667747 13.8499 0.754362C15.409 0.840977 16.7948 1.18744 17.9208 2.31343C19.0468 3.43942 19.3933 4.82525 19.4799 6.38431ZM17.4011 16.0852C17.9208 14.8292 17.7909 11.7977 17.7909 10.3686C17.7909 8.98275 17.9208 5.95124 17.4011 4.65202C17.0547 3.82918 16.4051 3.13626 15.5822 2.83311C14.283 2.31343 11.2515 2.44335 9.86567 2.44335C8.43653 2.44335 5.40502 2.31343 4.1491 2.83311C3.28296 3.17957 2.63335 3.82918 2.28689 4.65202C1.7672 5.95124 1.89712 8.98275 1.89712 10.3686C1.89712 11.7977 1.7672 14.8292 2.28689 16.0852C2.63335 16.9513 3.28296 17.6009 4.1491 17.9474C5.40502 18.4671 8.43653 18.3371 9.86567 18.3371C11.2515 18.3371 14.283 18.4671 15.5822 17.9474C16.4051 17.6009 17.098 16.9513 17.4011 16.0852Z" fill="white"/>
</svg>
