<svg width="14" height="17" viewBox="0 0 14 17" fill="none" xmlns="http://www.w3.org/2000/svg">
<path d="M6.84896 16.6571C6.74421 16.6571 6.63948 16.6361 6.53473 16.594C6.42999 16.5519 6.33834 16.4958 6.25979 16.4257C4.34825 14.6167 2.92114 12.9375 1.97847 11.3882C1.03579 9.83831 0.564453 8.39028 0.564453 7.04404C0.564453 4.94054 1.19631 3.26473 2.46002 2.01665C3.72321 0.768572 5.18619 0.144531 6.84896 0.144531C8.51173 0.144531 9.97469 0.768572 11.2379 2.01665C12.5016 3.26473 13.1335 4.94054 13.1335 7.04404C13.1335 8.39028 12.6621 9.83831 11.7195 11.3882C10.7768 12.9375 9.34967 14.6167 7.43813 16.4257C7.35957 16.4958 7.26793 16.5519 7.16318 16.594C7.05844 16.6361 6.9537 16.6571 6.84896 16.6571Z" fill="#652178"/>
<path d="M8.73124 7.73986C8.29932 8.18119 7.78037 8.40186 7.17436 8.40186C6.56835 8.40186 6.04977 8.18119 5.61858 7.73986C5.18666 7.29927 4.9707 6.76938 4.9707 6.15015C4.9707 5.53093 5.18666 5.00065 5.61858 4.55932C6.04977 4.11874 6.56835 3.89844 7.17436 3.89844C7.78037 3.89844 8.29932 4.11874 8.73124 4.55932C9.16243 5.00065 9.37802 5.53093 9.37802 6.15015C9.37802 6.76938 9.16243 7.29927 8.73124 7.73986Z" fill="white"/>
</svg>
