<svg width="15" height="13" viewBox="0 0 15 13" fill="none" xmlns="http://www.w3.org/2000/svg">
<path d="M14.5143 3.58139L14.4925 12.5219C14.4925 12.7227 14.3589 12.8859 14.1977 12.8859H0.858381C0.778602 12.8859 0.705538 12.8482 0.650112 12.7792C0.593846 12.7091 0.564453 12.616 0.564453 12.5198L0.586287 3.57422L6.99312 7.75677C7.16947 7.87182 7.36515 7.9283 7.5583 7.9283C7.75145 7.9283 7.94545 7.87182 8.1218 7.75677L14.5151 3.58252L14.5143 3.58139Z" fill="#652178"/>
<path d="M14.523 1.28688V2.22401L7.67776 6.69011C7.6047 6.73823 7.51653 6.73823 7.44347 6.69011L0.595703 2.22107V1.31636C0.595703 1.07267 0.754424 0.875 0.950088 0.875H14.1718C14.3591 0.875 14.5094 1.05699 14.522 1.2871L14.523 1.28688Z" fill="#652178"/>
</svg>
