<svg width="13" height="13" viewBox="0 0 13 13" fill="none" xmlns="http://www.w3.org/2000/svg">
<path fill-rule="evenodd" clip-rule="evenodd" d="M11.9966 9.14669L10.6899 7.83992C10.61 7.75336 10.513 7.68428 10.4051 7.63703C10.2972 7.58979 10.1807 7.5654 10.0629 7.5654C9.94505 7.5654 9.82852 7.58979 9.72061 7.63703C9.61269 7.68428 9.51573 7.75336 9.43581 7.83992L8.12914 9.0941C6.98327 8.81154 5.93771 8.21793 5.1078 7.37876C4.27789 6.53959 3.69588 5.48747 3.42599 4.33846L4.68007 3.08428C4.76663 3.00437 4.8357 2.90739 4.88294 2.79947C4.93018 2.69154 4.95457 2.57501 4.95457 2.4572C4.95457 2.33938 4.93018 2.22285 4.88294 2.11492C4.8357 2.007 4.76663 1.91003 4.68007 1.83011L3.32176 0.52429C3.24708 0.438187 3.15477 0.369137 3.05108 0.321814C2.9474 0.274491 2.83475 0.25 2.72078 0.25C2.60681 0.25 2.49416 0.274491 2.39048 0.321814C2.28679 0.369137 2.19448 0.438187 2.1198 0.52429C1.64934 0.994786 1.23147 1.41269 0.761013 1.83106C-0.545657 3.18995 0.865723 6.37775 3.21706 8.83398C5.7257 11.3949 9.27899 13.1717 10.6899 11.7607C11.1078 11.2902 11.5261 10.8723 11.9966 10.4018C12.0831 10.3219 12.1521 10.2249 12.1993 10.117C12.2465 10.009 12.2708 9.89253 12.2708 9.77474C12.2708 9.65695 12.2465 9.54043 12.1993 9.43251C12.1521 9.32459 12.0831 9.2276 11.9966 9.14765V9.14669ZM11.1604 5.59263C11.1677 5.70104 11.2141 5.8031 11.2909 5.87993C11.3678 5.95676 11.4698 6.00315 11.5782 6.01053C11.695 6.01346 11.8085 5.97194 11.8959 5.89437C11.9832 5.81679 12.0378 5.70894 12.0487 5.59263C12.0465 4.92592 11.9042 4.26711 11.6308 3.65901C11.3833 3.03231 11.0098 2.4631 10.5334 1.98664C10.057 1.51018 9.48779 1.13663 8.86113 0.889116C8.2531 0.615692 7.59433 0.473306 6.92766 0.471216C6.81136 0.482086 6.70352 0.536715 6.62595 0.624055C6.54838 0.711395 6.50686 0.824931 6.50979 0.941712C6.51717 1.05012 6.56356 1.15218 6.64039 1.22901C6.71721 1.30584 6.81927 1.35223 6.92766 1.35961C7.48289 1.35756 8.03315 1.46411 8.54749 1.67327C9.56724 2.13571 10.3843 2.95284 10.8467 3.97268C11.0559 4.48705 11.1624 5.03736 11.1604 5.59263ZM9.48698 5.69735C9.48405 5.81413 9.52556 5.92767 9.60313 6.01501C9.6807 6.10235 9.78854 6.15697 9.90484 6.16784C9.964 6.16689 10.0223 6.15366 10.0761 6.12897C10.1299 6.10429 10.1779 6.06871 10.2172 6.02447C10.2565 5.98023 10.2862 5.92831 10.3043 5.87199C10.3225 5.81568 10.3287 5.75621 10.3227 5.69735C10.3375 5.23059 10.2481 4.76639 10.0612 4.33846C9.9044 3.90625 9.65465 3.51373 9.32957 3.18863C9.00449 2.86352 8.612 2.61375 8.17982 2.45695C7.75192 2.27 7.28777 2.18066 6.82104 2.19541C6.76219 2.18937 6.70272 2.19564 6.64641 2.2138C6.5901 2.23196 6.53818 2.26163 6.49395 2.30093C6.44971 2.34022 6.41413 2.38828 6.38945 2.44205C6.36477 2.49583 6.35154 2.55415 6.35058 2.61331C6.36145 2.72962 6.41607 2.83747 6.50341 2.91504C6.59074 2.99262 6.70427 3.03414 6.82104 3.03121C7.16359 3.02488 7.50311 3.09632 7.81407 3.24016C8.14976 3.36177 8.45349 3.55795 8.7024 3.81393C8.94104 4.07661 9.13487 4.37674 9.27612 4.70233C9.42514 5.01156 9.49684 5.35237 9.48506 5.69544L9.48698 5.69735Z" fill="#652178"/>
</svg>
