<svg width="23" height="19" viewBox="0 0 23 19" fill="none" xmlns="http://www.w3.org/2000/svg">
<path d="M20.3235 4.76369C20.3235 4.98193 20.3235 5.15653 20.3235 5.37477C20.3235 11.4419 15.7404 18.382 7.31627 18.382C4.69737 18.382 2.29671 17.6399 0.288891 16.3305C0.638077 16.3741 0.987264 16.4178 1.3801 16.4178C3.51887 16.4178 5.48304 15.6758 7.05438 14.4536C5.04656 14.41 3.34427 13.1005 2.77685 11.2673C3.08238 11.3109 3.34427 11.3546 3.64981 11.3546C4.04265 11.3546 4.47913 11.2673 4.82832 11.18C2.7332 10.7435 1.16186 8.91028 1.16186 6.68422V6.64057C1.77293 6.98976 2.51496 7.16435 3.25698 7.208C1.99118 6.37868 1.20551 4.98193 1.20551 3.41059C1.20551 2.53763 1.42375 1.75196 1.81658 1.09723C4.08629 3.84708 7.49086 5.68031 11.2883 5.89855C11.201 5.54936 11.1573 5.20017 11.1573 4.85099C11.1573 2.31938 13.2088 0.267914 15.7404 0.267914C17.0498 0.267914 18.2284 0.791693 19.1013 1.70831C20.1052 1.49007 21.1091 1.09723 21.9821 0.573452C21.6329 1.66466 20.9345 2.53763 19.9743 3.10505C20.8909 3.01776 21.8075 2.75587 22.5932 2.40668C21.9821 3.3233 21.1964 4.10897 20.3235 4.76369Z" fill="white"/>
</svg>
