<svg width="384" height="371" viewBox="0 0 384 371" fill="none" xmlns="http://www.w3.org/2000/svg">
<path d="M0 9.97884C0 4.60574 4.35575 0.25 9.72885 0.25H374.041C379.415 0.25 383.77 4.60575 383.77 9.97885V361.012C383.77 366.385 379.415 370.741 374.041 370.741H9.72884C4.35575 370.741 0 366.385 0 361.012V9.97884Z" fill="#FBFBFB"/>
<path d="M109.074 341.807C107.878 341.807 106.804 341.599 105.85 341.183C104.914 340.75 104.178 340.16 103.64 339.415C103.103 338.652 102.826 337.777 102.808 336.789H105.33C105.417 337.638 105.764 338.358 106.37 338.947C106.994 339.519 107.896 339.805 109.074 339.805C110.201 339.805 111.085 339.528 111.726 338.973C112.385 338.401 112.714 337.673 112.714 336.789C112.714 336.096 112.524 335.532 112.142 335.099C111.761 334.666 111.284 334.336 110.712 334.111C110.14 333.886 109.369 333.643 108.398 333.383C107.202 333.071 106.24 332.759 105.512 332.447C104.802 332.135 104.186 331.65 103.666 330.991C103.164 330.315 102.912 329.414 102.912 328.287C102.912 327.299 103.164 326.424 103.666 325.661C104.169 324.898 104.871 324.309 105.772 323.893C106.691 323.477 107.74 323.269 108.918 323.269C110.617 323.269 112.004 323.694 113.078 324.543C114.17 325.392 114.786 326.519 114.924 327.923H112.324C112.238 327.23 111.874 326.623 111.232 326.103C110.591 325.566 109.742 325.297 108.684 325.297C107.696 325.297 106.89 325.557 106.266 326.077C105.642 326.58 105.33 327.29 105.33 328.209C105.33 328.868 105.512 329.405 105.876 329.821C106.258 330.237 106.717 330.558 107.254 330.783C107.809 330.991 108.58 331.234 109.568 331.511C110.764 331.84 111.726 332.17 112.454 332.499C113.182 332.811 113.806 333.305 114.326 333.981C114.846 334.64 115.106 335.541 115.106 336.685C115.106 337.569 114.872 338.401 114.404 339.181C113.936 339.961 113.243 340.594 112.324 341.079C111.406 341.564 110.322 341.807 109.074 341.807ZM131.831 333.955C131.831 334.406 131.805 334.882 131.753 335.385H120.365C120.452 336.789 120.929 337.89 121.795 338.687C122.679 339.467 123.745 339.857 124.993 339.857C126.016 339.857 126.865 339.623 127.541 339.155C128.235 338.67 128.72 338.028 128.997 337.231H131.545C131.164 338.6 130.401 339.718 129.257 340.585C128.113 341.434 126.692 341.859 124.993 341.859C123.641 341.859 122.428 341.556 121.353 340.949C120.296 340.342 119.464 339.484 118.857 338.375C118.251 337.248 117.947 335.948 117.947 334.475C117.947 333.002 118.242 331.71 118.831 330.601C119.421 329.492 120.244 328.642 121.301 328.053C122.376 327.446 123.607 327.143 124.993 327.143C126.345 327.143 127.541 327.438 128.581 328.027C129.621 328.616 130.419 329.431 130.973 330.471C131.545 331.494 131.831 332.655 131.831 333.955ZM129.387 333.461C129.387 332.56 129.188 331.788 128.789 331.147C128.391 330.488 127.845 329.994 127.151 329.665C126.475 329.318 125.721 329.145 124.889 329.145C123.693 329.145 122.671 329.526 121.821 330.289C120.989 331.052 120.513 332.109 120.391 333.461H129.387ZM137.564 322.385V341.625H135.198V322.385H137.564ZM154.839 333.955C154.839 334.406 154.813 334.882 154.761 335.385H143.373C143.46 336.789 143.937 337.89 144.803 338.687C145.687 339.467 146.753 339.857 148.001 339.857C149.024 339.857 149.873 339.623 150.549 339.155C151.243 338.67 151.728 338.028 152.005 337.231H154.553C154.172 338.6 153.409 339.718 152.265 340.585C151.121 341.434 149.7 341.859 148.001 341.859C146.649 341.859 145.436 341.556 144.361 340.949C143.304 340.342 142.472 339.484 141.865 338.375C141.259 337.248 140.955 335.948 140.955 334.475C140.955 333.002 141.25 331.71 141.839 330.601C142.429 329.492 143.252 328.642 144.309 328.053C145.384 327.446 146.615 327.143 148.001 327.143C149.353 327.143 150.549 327.438 151.589 328.027C152.629 328.616 153.427 329.431 153.981 330.471C154.553 331.494 154.839 332.655 154.839 333.955ZM152.395 333.461C152.395 332.56 152.196 331.788 151.797 331.147C151.399 330.488 150.853 329.994 150.159 329.665C149.483 329.318 148.729 329.145 147.897 329.145C146.701 329.145 145.679 329.526 144.829 330.289C143.997 331.052 143.521 332.109 143.399 333.461H152.395ZM157.321 334.475C157.321 333.002 157.616 331.719 158.205 330.627C158.795 329.518 159.609 328.66 160.649 328.053C161.707 327.446 162.911 327.143 164.263 327.143C166.014 327.143 167.453 327.568 168.579 328.417C169.723 329.266 170.477 330.445 170.841 331.953H168.293C168.051 331.086 167.574 330.402 166.863 329.899C166.17 329.396 165.303 329.145 164.263 329.145C162.911 329.145 161.819 329.613 160.987 330.549C160.155 331.468 159.739 332.776 159.739 334.475C159.739 336.191 160.155 337.517 160.987 338.453C161.819 339.389 162.911 339.857 164.263 339.857C165.303 339.857 166.17 339.614 166.863 339.129C167.557 338.644 168.033 337.95 168.293 337.049H170.841C170.46 338.505 169.697 339.675 168.553 340.559C167.409 341.426 165.979 341.859 164.263 341.859C162.911 341.859 161.707 341.556 160.649 340.949C159.609 340.342 158.795 339.484 158.205 338.375C157.616 337.266 157.321 335.966 157.321 334.475ZM177.128 329.327V337.725C177.128 338.418 177.275 338.912 177.57 339.207C177.864 339.484 178.376 339.623 179.104 339.623H180.846V341.625H178.714C177.396 341.625 176.408 341.322 175.75 340.715C175.091 340.108 174.762 339.112 174.762 337.725V329.327H172.916V327.377H174.762V323.789H177.128V327.377H180.846V329.327H177.128ZM202.284 323.503V325.427H197.344V341.625H194.978V325.427H190.012V323.503H202.284ZM207.806 329.691C208.222 328.876 208.811 328.244 209.574 327.793C210.354 327.342 211.299 327.117 212.408 327.117V329.561H211.784C209.132 329.561 207.806 331 207.806 333.877V341.625H205.44V327.377H207.806V329.691ZM214.499 334.449C214.499 332.993 214.793 331.719 215.383 330.627C215.972 329.518 216.778 328.66 217.801 328.053C218.841 327.446 219.993 327.143 221.259 327.143C222.507 327.143 223.59 327.412 224.509 327.949C225.427 328.486 226.112 329.162 226.563 329.977V327.377H228.955V341.625H226.563V338.973C226.095 339.805 225.393 340.498 224.457 341.053C223.538 341.59 222.463 341.859 221.233 341.859C219.967 341.859 218.823 341.547 217.801 340.923C216.778 340.299 215.972 339.424 215.383 338.297C214.793 337.17 214.499 335.888 214.499 334.449ZM226.563 334.475C226.563 333.4 226.346 332.464 225.913 331.667C225.479 330.87 224.89 330.263 224.145 329.847C223.417 329.414 222.611 329.197 221.727 329.197C220.843 329.197 220.037 329.405 219.309 329.821C218.581 330.237 218 330.844 217.567 331.641C217.133 332.438 216.917 333.374 216.917 334.449C216.917 335.541 217.133 336.494 217.567 337.309C218 338.106 218.581 338.722 219.309 339.155C220.037 339.571 220.843 339.779 221.727 339.779C222.611 339.779 223.417 339.571 224.145 339.155C224.89 338.722 225.479 338.106 225.913 337.309C226.346 336.494 226.563 335.55 226.563 334.475ZM232.312 334.475C232.312 333.002 232.607 331.719 233.196 330.627C233.785 329.518 234.6 328.66 235.64 328.053C236.697 327.446 237.902 327.143 239.254 327.143C241.005 327.143 242.443 327.568 243.57 328.417C244.714 329.266 245.468 330.445 245.832 331.953H243.284C243.041 331.086 242.565 330.402 241.854 329.899C241.161 329.396 240.294 329.145 239.254 329.145C237.902 329.145 236.81 329.613 235.978 330.549C235.146 331.468 234.73 332.776 234.73 334.475C234.73 336.191 235.146 337.517 235.978 338.453C236.81 339.389 237.902 339.857 239.254 339.857C240.294 339.857 241.161 339.614 241.854 339.129C242.547 338.644 243.024 337.95 243.284 337.049H245.832C245.451 338.505 244.688 339.675 243.544 340.559C242.4 341.426 240.97 341.859 239.254 341.859C237.902 341.859 236.697 341.556 235.64 340.949C234.6 340.342 233.785 339.484 233.196 338.375C232.607 337.266 232.312 335.966 232.312 334.475ZM252.118 329.327V337.725C252.118 338.418 252.266 338.912 252.56 339.207C252.855 339.484 253.366 339.623 254.094 339.623H255.836V341.625H253.704C252.387 341.625 251.399 341.322 250.74 340.715C250.082 340.108 249.752 339.112 249.752 337.725V329.327H247.906V327.377H249.752V323.789H252.118V327.377H255.836V329.327H252.118ZM265.16 341.859C263.825 341.859 262.612 341.556 261.52 340.949C260.445 340.342 259.596 339.484 258.972 338.375C258.365 337.248 258.062 335.948 258.062 334.475C258.062 333.019 258.374 331.736 258.998 330.627C259.639 329.5 260.506 328.642 261.598 328.053C262.69 327.446 263.912 327.143 265.264 327.143C266.616 327.143 267.838 327.446 268.93 328.053C270.022 328.642 270.88 329.492 271.504 330.601C272.145 331.71 272.466 333.002 272.466 334.475C272.466 335.948 272.137 337.248 271.478 338.375C270.837 339.484 269.961 340.342 268.852 340.949C267.743 341.556 266.512 341.859 265.16 341.859ZM265.16 339.779C266.009 339.779 266.807 339.58 267.552 339.181C268.297 338.782 268.895 338.184 269.346 337.387C269.814 336.59 270.048 335.619 270.048 334.475C270.048 333.331 269.823 332.36 269.372 331.563C268.921 330.766 268.332 330.176 267.604 329.795C266.876 329.396 266.087 329.197 265.238 329.197C264.371 329.197 263.574 329.396 262.846 329.795C262.135 330.176 261.563 330.766 261.13 331.563C260.697 332.36 260.48 333.331 260.48 334.475C260.48 335.636 260.688 336.616 261.104 337.413C261.537 338.21 262.109 338.808 262.82 339.207C263.531 339.588 264.311 339.779 265.16 339.779ZM278.186 329.691C278.602 328.876 279.192 328.244 279.954 327.793C280.734 327.342 281.679 327.117 282.788 327.117V329.561H282.164C279.512 329.561 278.186 331 278.186 333.877V341.625H275.82V327.377H278.186V329.691Z" fill="#652178"/>
<rect x="39.8379" y="45.3984" width="302.807" height="243.223" fill="#F3F3F4"/>
<path d="M121.676 181.516C110.767 181.516 101.906 190.39 101.906 201.292C101.906 212.194 110.769 221.066 121.676 221.066C132.584 221.066 141.447 212.194 141.447 201.295C141.452 190.39 132.584 181.516 121.676 181.516Z" fill="#D8D8D9"/>
<path d="M121.7 149.992C93.4008 149.992 70.3789 173.009 70.3789 201.313C70.3789 229.615 93.4033 252.641 121.7 252.641C150.004 252.641 173.038 229.612 173.038 201.313C173.04 173.009 150.004 149.992 121.7 149.992ZM121.707 230.215C105.772 230.215 92.8048 217.253 92.8048 201.311C92.8048 185.368 105.77 172.404 121.707 172.404C137.645 172.404 150.609 185.371 150.609 201.311C150.609 217.251 137.645 230.215 121.707 230.215Z" fill="#D8D8D9"/>
<path d="M275.115 179.516C254.955 179.516 238.568 195.912 238.568 216.067C238.568 236.225 254.952 252.628 275.115 252.628C295.268 252.628 311.676 236.225 311.676 216.067C311.678 195.912 295.268 179.516 275.115 179.516ZM275.115 233.271C265.613 233.271 257.913 225.572 257.913 216.069C257.913 206.567 265.61 198.872 275.115 198.872C284.617 198.872 292.322 206.565 292.322 216.069C292.322 225.569 284.617 233.271 275.115 233.271Z" fill="#D8D8D9"/>
<path d="M245.517 183.001C237.873 177.02 225.569 169.634 208.889 166.002V161.364C227.618 165.206 241.128 173.463 249.226 179.995C256.53 174.715 265.463 171.566 275.141 171.566C280.392 171.566 285.406 172.529 290.072 174.213C289.583 162.754 288.166 150.685 284.349 149.239C265.562 142.244 241.082 138.06 221.342 136.294V99.9091C221.342 94.8009 223.888 93.6161 224.245 93.4713C226.677 92.7885 228.091 90.2597 227.398 87.8347C226.713 85.4145 224.218 84.0174 221.764 84.6906C218.215 85.6968 212.211 90.0232 212.211 99.9091V135.618C210.814 135.539 209.497 135.49 208.187 135.437L197.507 89.4876C197.089 87.7044 195.656 86.3411 193.856 86.025C191.655 85.6389 139.514 76.5735 100.296 84.4686C97.828 84.9657 96.2234 87.3714 96.7156 89.8447C97.2127 92.3155 99.6087 93.9298 102.094 93.4182C102.639 93.3097 103.206 93.2349 103.754 93.1335L96.5539 135.017C96.5419 135.104 96.5732 135.191 96.5612 135.285H94.9421C86.3134 135.285 84.5954 140.85 84.5954 140.85L79.3086 154.101L83.7026 156.285C93.9793 147.589 107.251 142.317 121.728 142.317C154.269 142.317 180.732 168.787 180.732 201.311C180.732 207.017 179.878 212.517 178.358 217.738H230.868C230.847 217.135 230.779 216.541 230.779 215.928C230.779 202.858 236.49 191.131 245.517 183.001ZM262.946 150.996C264.114 150.54 265.436 151.114 265.911 152.287L269.613 161.724C270.074 162.894 269.49 164.217 268.322 164.682C268.047 164.784 267.769 164.837 267.485 164.837C266.577 164.837 265.721 164.287 265.361 163.391L261.655 153.954C261.197 152.782 261.773 151.454 262.946 150.996ZM252.189 150.996C253.345 150.54 254.682 151.114 255.147 152.287L258.854 161.724C259.312 162.894 258.731 164.217 257.56 164.682C257.285 164.784 257.005 164.837 256.723 164.837C255.808 164.837 254.954 164.287 254.597 163.391L250.896 153.954C250.435 152.782 251.012 151.454 252.189 150.996ZM145.098 137.549C141.51 136.374 138.045 135.527 135.002 135.285H105.774L112.518 96.058H145.098V137.549ZM199.753 172.7L183.217 172.681C177.728 157.943 165.962 147.413 154.223 141.327V96.0604H189.66L199.748 139.491V172.703L199.753 172.7Z" fill="#D8D8D9"/>
<rect x="298" y="68.8818" width="26" height="26" rx="12.5" transform="rotate(-40.489 298 68.8818)" fill="#D8D8D9"/>
<path d="M322.958 70.2769C322.966 70.4799 322.894 70.674 322.756 70.8162C322.619 70.9585 322.427 71.0373 322.224 71.0355L317.37 70.9905L317.37 75.8366C317.379 76.0396 317.307 76.2336 317.169 76.3759C317.032 76.5182 316.84 76.597 316.637 76.5952C316.434 76.5933 316.235 76.5108 316.085 76.3659C315.936 76.221 315.846 76.0254 315.838 75.8224L315.838 70.9763L310.984 70.9314C310.781 70.9295 310.583 70.847 310.433 70.7021C310.283 70.5572 310.194 70.3617 310.185 70.1586C310.176 69.9556 310.249 69.7615 310.386 69.6193C310.524 69.477 310.715 69.3982 310.918 69.4L315.772 69.445L315.772 64.555C315.763 64.3519 315.835 64.1579 315.973 64.0157C316.11 63.8734 316.302 63.7945 316.505 63.7964C316.708 63.7983 316.907 63.8808 317.057 64.0257C317.207 64.1706 317.296 64.3661 317.304 64.5692L317.305 69.4592L322.158 69.5041C322.362 69.506 322.56 69.5885 322.71 69.7334C322.86 69.8783 322.949 70.0738 322.958 70.2769Z" fill="white"/>
</svg>
