<svg width="22" height="20" viewBox="0 0 22 20" fill="none" xmlns="http://www.w3.org/2000/svg">
<path d="M20.709 11.2473C21.3978 11.2473 21.9562 10.6888 21.9562 10C21.9562 9.31116 21.3978 8.75275 20.709 8.75275V11.2473ZM1.11825 9.11806C0.631171 9.60514 0.631171 10.3949 1.11825 10.8819L9.05572 18.8194C9.5428 19.3065 10.3325 19.3065 10.8196 18.8194C11.3067 18.3323 11.3067 17.5426 10.8196 17.0555L3.76408 10L10.8196 2.94447C11.3067 2.45739 11.3067 1.66767 10.8196 1.18059C10.3325 0.693509 9.5428 0.693509 9.05572 1.18059L1.11825 9.11806ZM20.709 8.75275L2.00019 8.75275V11.2473L20.709 11.2473V8.75275Z" fill="black"/>
</svg>
