<svg width="67" height="50" viewBox="0 0 67 50" fill="none" xmlns="http://www.w3.org/2000/svg">
<rect x="0.888766" y="0.9332" width="64.9445" height="48.721" fill="white" stroke="#DDDDDD" stroke-width="0.658391"/>
<path d="M44.5352 34.8801L39.6827 30.0418C40.3749 29.1867 40.9166 28.2265 41.3078 27.1614C41.699 26.0962 41.8946 24.971 41.8946 23.7858C41.8946 22.4056 41.6313 21.1079 41.1046 19.8927C40.578 18.6775 39.8595 17.6161 38.9492 16.7084C38.0389 15.8008 36.9744 15.0844 35.7556 14.5594C34.5368 14.0343 33.2428 13.7717 31.8736 13.7717C30.4893 13.7717 29.1878 14.0343 27.969 14.5594C26.7503 15.0844 25.6857 15.8008 24.7754 16.7084C23.8651 17.6161 23.1466 18.6775 22.62 19.8927C22.0934 21.1079 21.8301 22.4056 21.8301 23.7858C21.8301 25.1511 22.0934 26.4413 22.62 27.6565C23.1466 28.8717 23.8651 29.9331 24.7754 30.8407C25.6857 31.7484 26.7503 32.4647 27.969 32.9898C29.1878 33.5149 30.4893 33.7774 31.8736 33.7774C33.0472 33.7774 34.1644 33.5862 35.2252 33.2036C36.286 32.821 37.2377 32.2922 38.0803 31.6171L38.0577 31.6396L42.9328 36.4779C43.0381 36.5829 43.1585 36.6654 43.2939 36.7254C43.4293 36.7854 43.5723 36.8154 43.7227 36.8154C44.0387 36.8154 44.3095 36.7029 44.5352 36.4779C44.7609 36.2528 44.8738 35.9903 44.8738 35.6902C44.8738 35.5252 44.8437 35.3752 44.7835 35.2402C44.7233 35.1052 44.6406 34.9851 44.5352 34.8801ZM24.1096 23.7858C24.1096 22.7057 24.3127 21.7005 24.719 20.7704C25.1253 19.8252 25.6782 19.0038 26.3779 18.3062C27.0775 17.6086 27.9013 17.0573 28.8493 16.6522C29.7821 16.2471 30.7903 16.0446 31.8736 16.0446C32.9419 16.0446 33.9425 16.2471 34.8754 16.6522C35.8233 17.0573 36.6471 17.6086 37.3468 18.3062C38.0464 19.0038 38.5994 19.8252 39.0057 20.7704C39.427 21.7005 39.6376 22.7057 39.6376 23.7858C39.6376 24.851 39.427 25.8487 39.0057 26.7788C38.5994 27.724 38.0464 28.5454 37.3468 29.243C36.6471 29.9406 35.8233 30.4919 34.8754 30.897C33.9425 31.317 32.9419 31.5271 31.8736 31.5271C30.7903 31.5271 29.7821 31.317 28.8493 30.897C27.9013 30.4919 27.0775 29.9406 26.3779 29.243C25.6782 28.5454 25.1253 27.724 24.719 26.7788C24.3127 25.8487 24.1096 24.851 24.1096 23.7858Z" fill="#1A1A1A"/>
</svg>
