<svg width="28" height="28" viewBox="0 0 28 28" fill="none" xmlns="http://www.w3.org/2000/svg">
<rect x="0.301758" y="0.664551" width="26.7721" height="26.7721" rx="13.386" fill="#652178"/>
<path d="M14.9093 10.201L12.0929 17.665H10.9685L8.15207 10.201H9.19083L11.5361 16.637L13.8813 10.201H14.9093ZM17.7208 17.7614C17.271 17.7614 16.8676 17.6865 16.5107 17.5365C16.1537 17.3795 15.8717 17.1653 15.6647 16.894C15.4576 16.6156 15.3434 16.2979 15.322 15.9409H16.3286C16.3572 16.2336 16.4928 16.4728 16.7355 16.6584C16.9854 16.844 17.3102 16.9368 17.71 16.9368C18.0813 16.9368 18.374 16.8547 18.5882 16.6905C18.8023 16.5263 18.9094 16.3193 18.9094 16.0694C18.9094 15.8124 18.7952 15.6232 18.5667 15.5019C18.3383 15.3733 17.9849 15.2484 17.5066 15.127C17.0711 15.0128 16.7141 14.8986 16.4357 14.7844C16.1644 14.663 15.9288 14.4881 15.7289 14.2596C15.5361 14.024 15.4398 13.717 15.4398 13.3387C15.4398 13.0388 15.529 12.764 15.7075 12.5141C15.886 12.2642 16.1394 12.0679 16.4678 11.9251C16.7962 11.7752 17.171 11.7002 17.5922 11.7002C18.2419 11.7002 18.7666 11.8644 19.1664 12.1928C19.5662 12.5212 19.7804 12.971 19.809 13.5421H18.8345C18.8131 13.2351 18.6881 12.9888 18.4597 12.8032C18.2383 12.6176 17.9385 12.5248 17.5601 12.5248C17.2103 12.5248 16.9319 12.5998 16.7248 12.7497C16.5178 12.8996 16.4143 13.0959 16.4143 13.3387C16.4143 13.5314 16.475 13.6921 16.5963 13.8206C16.7248 13.9419 16.8819 14.0419 17.0675 14.1204C17.2603 14.1918 17.5244 14.2739 17.86 14.3667C18.2812 14.4809 18.6239 14.5952 18.888 14.7094C19.1522 14.8165 19.3771 14.9807 19.5627 15.202C19.7554 15.4233 19.8554 15.7125 19.8625 16.0694C19.8625 16.3907 19.7733 16.6798 19.5948 16.9368C19.4163 17.1939 19.1629 17.3973 18.8345 17.5472C18.5132 17.69 18.142 17.7614 17.7208 17.7614Z" fill="white"/>
</svg>
