<svg width="28" height="28" viewBox="0 0 28 28" fill="none" xmlns="http://www.w3.org/2000/svg">
<path fill-rule="evenodd" clip-rule="evenodd" d="M26.7152 20.2523L23.7404 17.2776C23.5585 17.0806 23.3378 16.9233 23.0921 16.8158C22.8464 16.7082 22.5811 16.6527 22.3129 16.6527C22.0448 16.6527 21.7795 16.7082 21.5338 16.8158C21.2881 16.9233 21.0674 17.0806 20.8854 17.2776L17.9107 20.1326C15.3021 19.4894 12.9218 18.1381 11.0324 16.2278C9.14308 14.3176 7.81811 11.9225 7.20368 9.30693L10.0587 6.45194C10.2557 6.27001 10.413 6.04926 10.5205 5.80358C10.6281 5.5579 10.6836 5.29263 10.6836 5.02444C10.6836 4.75625 10.6281 4.49097 10.5205 4.24529C10.413 3.99961 10.2557 3.77887 10.0587 3.59694L6.9664 0.624392C6.79638 0.428386 6.58623 0.271202 6.35018 0.163476C6.11413 0.05575 5.85769 0 5.59822 0C5.33875 0 5.08231 0.05575 4.84626 0.163476C4.61021 0.271202 4.40007 0.428386 4.23005 0.624392C3.15902 1.69542 2.20771 2.64673 1.13668 3.59912C-1.83805 6.69248 1.37506 13.9491 6.72804 19.5405C12.4391 25.3702 20.5284 29.4149 23.7404 26.2029C24.6917 25.1318 25.6441 24.1806 26.7152 23.1095C26.9121 22.9275 27.0692 22.7067 27.1766 22.4611C27.2841 22.2154 27.3396 21.9502 27.3396 21.682C27.3396 21.4139 27.2841 21.1486 27.1766 20.903C27.0692 20.6573 26.9121 20.4365 26.7152 20.2545V20.2523ZM24.8115 12.1619C24.8283 12.4087 24.9339 12.641 25.1088 12.8159C25.2837 12.9908 25.516 13.0964 25.7628 13.1132C26.0286 13.1199 26.2871 13.0254 26.4859 12.8488C26.6847 12.6722 26.8091 12.4267 26.8338 12.1619C26.8289 10.6442 26.5048 9.14452 25.8825 7.76025C25.3191 6.33362 24.4687 5.03788 23.3841 3.95327C22.2995 2.86867 21.0038 2.01832 19.5771 1.45488C18.1929 0.832458 16.6932 0.508333 15.1755 0.503574C14.9107 0.528317 14.6652 0.652674 14.4886 0.851495C14.312 1.05031 14.2175 1.30877 14.2242 1.57461C14.241 1.82137 14.3466 2.05371 14.5215 2.2286C14.6964 2.4035 14.9287 2.50911 15.1755 2.52591C16.4395 2.52124 17.6922 2.7638 18.8631 3.23993C21.1846 4.29261 23.0448 6.15273 24.0975 8.47426C24.5736 9.64518 24.8161 10.8979 24.8115 12.1619ZM21.0019 12.4003C20.9952 12.6661 21.0898 12.9246 21.2664 13.1234C21.443 13.3222 21.6884 13.4466 21.9532 13.4713C22.0879 13.4692 22.2206 13.439 22.3431 13.3828C22.4655 13.3267 22.5749 13.2456 22.6643 13.1449C22.7538 13.0442 22.8213 12.926 22.8627 12.7979C22.904 12.6697 22.9183 12.5343 22.9045 12.4003C22.9381 11.3378 22.7347 10.2811 22.3091 9.30693C21.9522 8.32306 21.3836 7.42953 20.6436 6.68946C19.9035 5.94939 19.01 5.38082 18.0261 5.02389C17.0519 4.59832 15.9953 4.39494 14.9327 4.42851C14.7987 4.41477 14.6634 4.42903 14.5352 4.47038C14.407 4.51172 14.2888 4.57927 14.1881 4.66871C14.0874 4.75816 14.0064 4.86755 13.9502 4.98997C13.894 5.11238 13.8639 5.24514 13.8617 5.37982C13.8865 5.64459 14.0108 5.89009 14.2096 6.06668C14.4084 6.24328 14.6669 6.33779 14.9327 6.33112C15.7126 6.31671 16.4855 6.47933 17.1934 6.80677C17.9577 7.08359 18.6491 7.53018 19.2158 8.11291C19.7591 8.71086 20.2003 9.39408 20.5219 10.1352C20.8611 10.8392 21.0244 11.615 20.9976 12.3959L21.0019 12.4003Z" fill="#FF2800"/>
</svg>
