<svg width="176" height="176" viewBox="0 0 176 176" fill="none" xmlns="http://www.w3.org/2000/svg">
<rect x="1.07604" y="1.53308" width="173.265" height="173.265" rx="86.6325" stroke="#722875" stroke-width="1.58959" stroke-dasharray="1.59 1.59"/>
<path d="M51.7959 131.039V45.2833C51.7959 42.8336 53.7818 40.8477 56.2315 40.8477H101.327L122.766 62.4715V131.039C122.766 133.489 120.78 135.475 118.331 135.475H56.2316C53.7818 135.475 51.7959 133.489 51.7959 131.039Z" fill="#78B9EB"/>
<path d="M46.2524 78.1836H109.091C110.316 78.1836 111.309 79.1765 111.309 80.4014V115.517C111.309 116.742 110.316 117.735 109.091 117.735H57.7111L47.2069 128.523C46.0499 129.711 44.0346 128.892 44.0346 127.234V80.4014C44.0346 79.1765 45.0275 78.1836 46.2524 78.1836Z" fill="#FFEB99"/>
<path d="M101.514 58.0373V41.2188L122.398 62.1033H105.58C103.334 62.1033 101.514 60.2829 101.514 58.0373Z" fill="#679FC9"/>
<path d="M128.681 72.2695H65.8428C64.618 72.2695 63.625 73.2625 63.625 74.4874V109.603C63.625 110.828 64.618 111.821 65.8428 111.821H114.635L127.131 124.033C128.535 125.405 130.899 124.41 130.899 122.447V74.4874C130.899 73.2625 129.906 72.2695 128.681 72.2695Z" fill="#FBB040"/>
<rect x="63.625" y="52.6797" width="4.06439" height="4.06439" fill="white"/>
<rect x="71.3867" y="52.6797" width="8.13203" height="4.06601" fill="white"/>
<rect x="63.625" y="60.4375" width="15.8944" height="4.06601" fill="white"/>
<rect x="79.5186" y="82.25" width="43.2476" height="4.06601" fill="white"/>
<rect x="71.3867" y="82.25" width="4.06439" height="4.06439" fill="white"/>
<rect x="51.7959" y="88.1562" width="4.06439" height="4.06439" fill="white"/>
<rect x="51.7959" y="95.9258" width="9.98022" height="4.06601" fill="white"/>
<rect x="51.7959" y="104.059" width="9.98022" height="4.06601" fill="white"/>
<rect x="71.3867" y="90.0117" width="51.3796" height="4.06601" fill="white"/>
<rect x="71.3867" y="98.1445" width="51.3796" height="4.06601" fill="white"/>
</svg>
