<svg width="175" height="175" viewBox="0 0 175 175" fill="none" xmlns="http://www.w3.org/2000/svg">
<rect x="1.09186" y="1.1319" width="172.668" height="172.668" rx="86.3338" stroke="#722875" stroke-width="1.58411" stroke-dasharray="1.58 1.58"/>
<path d="M40.3505 105.929L65.5212 61.8802C65.9005 61.2164 66.5511 60.7517 67.302 60.6081L90.8612 56.1041C93.6703 55.5671 96.4397 57.2061 97.3206 59.9271L104.847 83.1759C105.32 84.6364 105.128 86.2308 104.322 87.5371L78.8133 128.864C78.0623 130.081 76.4735 130.47 75.2455 129.737L41.2819 109.475C40.0571 108.744 39.6429 107.167 40.3505 105.929Z" fill="#FF3C63"/>
<path d="M51.0713 107.283L54.9968 100.305L77.0235 112.954L72.6618 120.151L51.0713 107.283Z" fill="#D9D9D9"/>
<rect x="59.7217" y="89.1953" width="19.8428" height="3.3335" rx="1.66675" transform="rotate(31.3674 59.7217 89.1953)" fill="#D9D9D9"/>
<rect x="62.1846" y="83.9453" width="31.963" height="3.3335" rx="1.66675" transform="rotate(31.3674 62.1846 83.9453)" fill="#D9D9D9"/>
<rect x="72.6523" y="83.9453" width="31.963" height="3.3335" rx="1.66675" transform="rotate(31.3674 72.6523 83.9453)" fill="#D9D9D9"/>
<rect x="78.374" y="99.9336" width="10.075" height="3.3335" rx="1.66675" transform="rotate(31.3674 78.374 99.9336)" fill="#D9D9D9"/>
<circle cx="89.6718" cy="72.1767" r="6.10641" fill="#FEFDFD"/>
<path d="M90.9435 71.748C87.3002 71.8016 82.0173 67.6184 83.3601 50.767C83.856 44.5435 85.2836 32.4026 90.6089 35.6613C92.2214 36.648 93.866 40.006 95.2445 47.4377L95.6766 53.0491" stroke="#FFCE00" stroke-width="2.61803" stroke-linecap="round"/>
<circle cx="107.773" cy="110.343" r="28.5693" fill="#FFD76C"/>
<circle cx="107.774" cy="110.34" r="22.899" fill="#FFC338"/>
<path d="M117.136 103.203L116.208 106.517H98.8301L99.758 103.203H117.136ZM108.679 124.08L99.188 112.421L99.1615 109.804H103.867C105.043 109.804 106.037 109.621 106.85 109.254C107.663 108.887 108.281 108.355 108.705 107.658C109.13 106.951 109.342 106.092 109.342 105.081C109.342 103.579 108.9 102.384 108.016 101.499C107.133 100.613 105.75 100.171 103.867 100.171H98.8301L99.7977 96.6016H103.867C106.059 96.6016 107.866 96.9549 109.289 97.6615C110.712 98.3682 111.772 99.3477 112.47 100.6C113.168 101.852 113.517 103.297 113.517 104.934C113.517 106.392 113.23 107.711 112.656 108.892C112.081 110.073 111.167 111.034 109.912 111.777C108.657 112.519 107.009 112.953 104.967 113.078L104.848 113.105L113.517 123.852V124.08H108.679ZM117.149 96.6016L116.208 99.9425L102.316 99.862L103.257 96.6016H117.149Z" fill="#FF9100"/>
</svg>
