<svg width="176" height="176" viewBox="0 0 176 176" fill="none" xmlns="http://www.w3.org/2000/svg">
<rect x="1.32799" y="1.53697" width="173.264" height="173.264" rx="86.6318" stroke="#722875" stroke-width="1.58957" stroke-dasharray="1.59 1.59"/>
<path d="M58.457 118.895V42.2601C58.457 38.6388 61.3927 35.7031 65.014 35.7031H105.995L120.339 51.276V118.895C120.339 122.516 117.403 125.452 113.782 125.452H65.014C61.3927 125.452 58.457 122.516 58.457 118.895Z" fill="#FFDAAA"/>
<path d="M78.1636 80.6089L77.4971 82.9894H65.0146L65.6811 80.6089H78.1636ZM72.089 95.6049L65.2717 87.2299L65.2527 85.3506H68.6328C69.477 85.3506 70.1911 85.2188 70.7751 84.9554C71.359 84.692 71.8034 84.3097 72.1081 83.8085C72.4127 83.301 72.5651 82.6842 72.5651 81.9581C72.5651 80.8787 72.2477 80.021 71.6129 79.3849C70.9782 78.7488 69.9848 78.4308 68.6328 78.4308H65.0146L65.7097 75.8672H68.6328C70.207 75.8672 71.505 76.121 72.527 76.6286C73.5489 77.1361 74.3107 77.8397 74.8121 78.7392C75.3136 79.6387 75.5643 80.6763 75.5643 81.8521C75.5643 82.8994 75.358 83.8471 74.9454 84.6952C74.5328 85.5433 73.8758 86.234 72.9745 86.7673C72.0731 87.3006 70.8893 87.6122 69.423 87.7021L69.3373 87.7214L75.5643 95.4411V95.6049H72.089ZM78.1731 75.8672L77.4971 78.2669L67.5188 78.2091L68.1948 75.8672H78.1731Z" fill="#4E901E"/>
<rect x="86.3242" y="71.3516" width="47.5382" height="68.4387" rx="9.37941" fill="#7CCC92"/>
<path d="M90.833 79.1938C90.833 78.0361 91.7715 77.0977 92.9291 77.0977H127.259C128.417 77.0977 129.355 78.0361 129.355 79.1938V88.1155C129.355 89.2732 128.417 90.2116 127.259 90.2116H92.9291C91.7715 90.2116 90.833 89.2732 90.833 88.1155V79.1938Z" fill="#3D9AE2"/>
<rect x="90.4219" y="95.5781" width="9.22293" height="9.22293" rx="1.25767" fill="#317F46"/>
<rect x="90.4219" y="110.254" width="9.22293" height="9.22293" rx="1.25767" fill="#317F46"/>
<rect x="90.4219" y="124.086" width="9.22293" height="9.22293" rx="1.25767" fill="#317F46"/>
<rect x="105.096" y="95.5781" width="9.22293" height="9.22293" rx="1.25767" fill="#317F46"/>
<rect x="105.096" y="110.254" width="9.22293" height="9.22293" rx="1.25767" fill="#317F46"/>
<rect x="105.096" y="124.086" width="9.22293" height="9.22293" rx="1.25767" fill="#317F46"/>
<rect x="120.188" y="110.254" width="9.22293" height="23.0573" rx="1.25767" fill="#FF9811"/>
<rect x="120.188" y="95.5781" width="9.22293" height="9.22293" rx="1.25767" fill="#FF9811"/>
<path d="M106.036 48.4118L106.201 36.1094L119.93 51.0675L108.97 51.3182C107.345 51.3554 106.014 50.0368 106.036 48.4118Z" fill="#FFB655"/>
<rect x="65.0781" y="63.7422" width="9.57411" height="3.64728" rx="1.82364" fill="#4E901E"/>
<rect x="77.8418" y="63.7422" width="34.1932" height="3.64728" rx="1.82364" fill="#4E901E"/>
<rect x="65.0781" y="55.0781" width="35.1051" height="3.64728" rx="1.82364" fill="#4E901E"/>
<rect x="103.83" y="55.0781" width="8.66229" height="3.64728" rx="1.82364" fill="#4E901E"/>
<rect x="50.7734" y="96.7734" width="35.1668" height="8.68315" rx="4.34157" fill="#FFA733"/>
<rect x="50.7734" y="105.453" width="35.1668" height="8.68315" rx="4.34157" fill="#FF9811"/>
<rect x="50.7734" y="114.141" width="35.1668" height="8.24899" rx="4.1245" fill="#EE8700"/>
<rect x="50.7734" y="122.395" width="35.1668" height="8.68315" rx="4.34157" fill="#CC7400"/>
<rect x="50.7734" y="131.07" width="35.1668" height="8.68315" rx="4.34157" fill="#AA6100"/>
<circle cx="58.3733" cy="123.91" r="15.8467" fill="#EE8700" stroke="#B06400" stroke-width="1.73663"/>
<path d="M64.8523 118.747L64.2048 121.059H52.0791L52.7265 118.747H64.8523ZM58.9513 133.314L52.3288 125.179L52.3103 123.353H55.5938C56.4139 123.353 57.1076 123.225 57.6749 122.969C58.2422 122.713 58.6738 122.342 58.9698 121.855C59.2658 121.362 59.4137 120.763 59.4137 120.057C59.4137 119.009 59.1054 118.176 58.4888 117.558C57.8722 116.94 56.9072 116.631 55.5938 116.631H52.0791L52.7543 114.141H55.5938C57.123 114.141 58.384 114.387 59.3767 114.88C60.3695 115.373 61.1094 116.057 61.5966 116.931C62.0837 117.804 62.3273 118.812 62.3273 119.955C62.3273 120.972 62.1269 121.892 61.7261 122.716C61.3253 123.54 60.6871 124.211 59.8115 124.729C58.9359 125.247 57.7859 125.55 56.3615 125.637L56.2783 125.656L62.3273 133.155V133.314H58.9513ZM64.8615 114.141L64.2048 116.472L54.5117 116.416L55.1683 114.141H64.8615Z" fill="#B06400"/>
</svg>
