<svg width="32" height="34" viewBox="0 0 32 34" fill="none" xmlns="http://www.w3.org/2000/svg">
<path d="M17.9192 1.15556C17.9192 1.21192 17.8911 1.2542 17.8488 1.29648C17.6656 1.45149 17.4824 1.6065 17.2851 1.76152C17.2287 1.80379 17.2287 1.84607 17.2428 1.90244C17.2992 2.12791 17.3556 2.35339 17.4119 2.59296C17.4401 2.67751 17.4119 2.74797 17.3415 2.80434C17.2851 2.84661 17.2005 2.84661 17.116 2.80434C16.9046 2.67751 16.7073 2.55068 16.4959 2.40976C16.4537 2.38157 16.4255 2.38157 16.3832 2.40976C16.1859 2.53659 15.9886 2.66342 15.7913 2.77615C15.735 2.81843 15.6786 2.83252 15.6081 2.81843C15.5095 2.79025 15.4531 2.6916 15.4813 2.59296C15.5377 2.3393 15.6081 2.09973 15.6645 1.84607C15.6786 1.80379 15.6645 1.7897 15.6363 1.76152C15.4531 1.6206 15.284 1.46558 15.1149 1.31057C15.0445 1.2542 14.9881 1.19783 15.0022 1.09919C15.0022 1.00054 15.0726 0.930082 15.1713 0.930082C15.4249 0.91599 15.6927 0.901897 15.9463 0.873713C15.9886 0.873713 16.0027 0.845529 16.0168 0.817344C16.1014 0.605962 16.1859 0.39458 16.2846 0.169106C16.2987 0.155014 16.2987 0.126829 16.3127 0.112737C16.355 0.0422765 16.4114 0 16.4959 0C16.5805 0 16.6369 0.0422765 16.665 0.126829C16.7637 0.352304 16.8482 0.59187 16.9469 0.817344C16.9187 0.873713 16.9469 0.901897 17.0033 0.901897C17.2287 0.91599 17.4542 0.930082 17.6797 0.944174C17.7079 0.944174 17.7501 0.944174 17.7783 0.958266C17.8629 0.98645 17.9192 1.071 17.9192 1.15556Z" fill="#FF2800"/>
<path d="M24.8331 4.16153C24.7908 4.20381 24.7344 4.2179 24.6781 4.20381C24.4385 4.17562 24.1989 4.16153 23.9594 4.13334C23.8889 4.11925 23.8607 4.14744 23.8325 4.20381C23.7198 4.4011 23.593 4.61248 23.4661 4.80977C23.4239 4.88023 23.3534 4.9225 23.2688 4.90841C23.1843 4.89432 23.1279 4.83795 23.1138 4.73931C23.0575 4.49974 23.0011 4.26017 22.9588 4.02061C22.9447 3.96424 22.9306 3.95015 22.8743 3.93605C22.6488 3.87969 22.4233 3.82332 22.1837 3.78104C22.1133 3.76695 22.0569 3.73876 22.0287 3.6824C21.9724 3.59784 22.0005 3.48511 22.0992 3.42874C22.3247 3.30191 22.536 3.16099 22.7615 3.03416C22.7897 3.02007 22.8038 2.99188 22.8038 2.9637C22.7897 2.73822 22.7615 2.49866 22.7474 2.27318C22.7333 2.18863 22.7333 2.10408 22.8038 2.04771C22.8743 1.99134 22.9729 1.97725 23.0434 2.04771C23.2407 2.21681 23.4379 2.38592 23.6211 2.55502C23.6493 2.58321 23.6775 2.56912 23.7057 2.56912C23.9171 2.48456 24.1285 2.38592 24.3539 2.30137C24.368 2.28727 24.3962 2.28727 24.4103 2.27318C24.4808 2.245 24.5512 2.25909 24.6217 2.31546C24.6781 2.37183 24.6921 2.44229 24.664 2.52684C24.5653 2.75231 24.4667 2.97779 24.368 3.21736C24.3539 3.25963 24.3539 3.28782 24.3821 3.33009C24.5371 3.4992 24.6781 3.6683 24.8331 3.8515C24.8613 3.87969 24.8753 3.90787 24.8894 3.93605C24.9176 4.00652 24.9035 4.09107 24.8331 4.16153Z" fill="#FF2800"/>
<path d="M28.6805 9.91925C28.6241 9.91925 28.5818 9.89106 28.5396 9.84879C28.3846 9.66559 28.2295 9.48239 28.0745 9.2851C28.0323 9.22873 27.99 9.22873 27.9336 9.24283C27.7081 9.29919 27.4827 9.35556 27.2431 9.41193C27.1585 9.44012 27.0881 9.41193 27.0317 9.34147C26.9894 9.2851 26.9894 9.20055 27.0317 9.116C27.1585 8.90461 27.2854 8.70732 27.4263 8.49594C27.4545 8.45366 27.4545 8.42548 27.4263 8.3832C27.2995 8.18591 27.1726 7.98862 27.0599 7.79133C27.0176 7.73497 27.0035 7.6786 27.0176 7.60814C27.0458 7.50949 27.1444 7.45312 27.2431 7.48131C27.4967 7.53768 27.7363 7.60814 27.99 7.6645C28.0323 7.6786 28.0463 7.6645 28.0745 7.63632C28.2154 7.45312 28.3705 7.28402 28.5255 7.11491C28.5818 7.04445 28.6382 6.98808 28.7369 7.00217C28.8355 7.00217 28.906 7.07263 28.906 7.17128C28.9201 7.42494 28.9341 7.69269 28.9623 7.94635C28.9623 7.98862 28.9905 8.00272 29.0187 8.01681C29.2301 8.10136 29.4415 8.18591 29.6669 8.28456C29.681 8.29865 29.7092 8.29865 29.7233 8.31274C29.7938 8.35502 29.836 8.41139 29.836 8.49594C29.836 8.58049 29.7938 8.63686 29.7092 8.66505C29.4837 8.76369 29.2442 8.84824 29.0187 8.94689C28.9764 8.96098 28.9482 8.98917 28.9482 9.04554C28.9341 9.27101 28.9201 9.49648 28.906 9.72196C28.906 9.75014 28.906 9.79242 28.8919 9.8206C28.8496 9.86288 28.765 9.91925 28.6805 9.91925Z" fill="#FF2800"/>
<path d="M29.7496 15.8331C29.7073 15.7908 29.6932 15.7344 29.7073 15.6781C29.7355 15.4385 29.7496 15.1989 29.7778 14.9594C29.7919 14.8889 29.7637 14.8607 29.7073 14.8325C29.51 14.7198 29.2986 14.593 29.1013 14.4661C29.0309 14.4239 28.9886 14.3534 29.0027 14.2688C29.0168 14.1843 29.0732 14.1279 29.1718 14.1138C29.4114 14.0575 29.6509 14.0011 29.8905 13.9588C29.9469 13.9447 29.961 13.9306 29.9751 13.8743C30.0314 13.6488 30.0878 13.4233 30.1301 13.1837C30.1442 13.1133 30.1723 13.0569 30.2287 13.0287C30.3133 12.9724 30.426 13.0005 30.4824 13.0992C30.6092 13.3247 30.7501 13.536 30.877 13.7615C30.891 13.7897 30.9192 13.8038 30.9474 13.8038C31.1729 13.7897 31.4125 13.7615 31.6379 13.7474C31.7225 13.7333 31.807 13.7333 31.8634 13.8038C31.9198 13.8743 31.9339 13.9729 31.8634 14.0434C31.6943 14.2407 31.5252 14.4379 31.3561 14.6211C31.3279 14.6493 31.342 14.6775 31.342 14.7057C31.4266 14.9171 31.5252 15.1285 31.6097 15.3539C31.6238 15.368 31.6238 15.3962 31.6379 15.4103C31.6661 15.4808 31.652 15.5512 31.5957 15.6217C31.5393 15.6781 31.4688 15.6921 31.3843 15.664C31.1588 15.5653 30.9333 15.4667 30.6938 15.368C30.6515 15.3539 30.6233 15.3539 30.581 15.3821C30.4119 15.5371 30.2428 15.6781 30.0596 15.8331C30.0314 15.8613 30.0032 15.8753 29.9751 15.8894C29.9046 15.9176 29.82 15.9035 29.7496 15.8331Z" fill="#FF2800"/>
<path d="M10.1615 3.06998C10.2038 3.11225 10.2179 3.16862 10.2038 3.22499C10.1756 3.46456 10.1615 3.70412 10.1333 3.94369C10.1193 4.01415 10.1474 4.04234 10.2038 4.07052C10.4011 4.18326 10.6125 4.31009 10.8098 4.43692C10.8802 4.47919 10.9225 4.54965 10.9084 4.63421C10.8943 4.71876 10.838 4.77513 10.7393 4.78922C10.4997 4.84559 10.2602 4.90196 10.0206 4.94423C9.96424 4.95833 9.95015 4.97242 9.93605 5.02879C9.87969 5.25426 9.82332 5.47974 9.78104 5.7193C9.76695 5.78976 9.73876 5.84613 9.6824 5.87432C9.59784 5.93068 9.48511 5.9025 9.42874 5.80385C9.30191 5.57838 9.16099 5.367 9.03416 5.14152C9.02007 5.11334 8.99188 5.09925 8.9637 5.09925C8.73822 5.11334 8.49866 5.14152 8.27318 5.15562C8.18863 5.16971 8.10408 5.16971 8.04771 5.09925C7.99134 5.02879 7.97725 4.93014 8.04771 4.85968C8.21681 4.66239 8.38592 4.4651 8.55502 4.2819C8.58321 4.25372 8.56912 4.22553 8.56912 4.19735C8.48456 3.98597 8.38592 3.77459 8.30137 3.54911C8.28727 3.53502 8.28727 3.50683 8.27318 3.49274C8.245 3.42228 8.25909 3.35182 8.31546 3.28136C8.37183 3.22499 8.44229 3.2109 8.52684 3.23908C8.75231 3.33773 8.97779 3.43637 9.21736 3.53502C9.25963 3.54911 9.28782 3.54911 9.33009 3.52093C9.4992 3.36591 9.6683 3.22499 9.8515 3.06998C9.87969 3.04179 9.90787 3.0277 9.93605 3.01361C10.0065 2.98543 10.0911 2.99952 10.1615 3.06998Z" fill="#FF2800"/>
<path d="M27.246 16.4741L27.1384 16.3667C27.0846 16.313 27.0846 16.313 27.0308 16.313L26.9771 16.2593C26.9771 16.2593 26.9233 16.2593 26.9233 16.2056L26.762 16.1519C26.7082 16.0981 26.6006 16.0981 26.5468 16.0444C25.2561 15.6147 23.8579 15.8296 22.5672 15.937C22.5134 15.937 22.4597 15.937 22.4059 15.937C22.2983 15.937 22.137 15.937 21.9219 15.937C21.8681 15.937 21.7605 15.937 21.653 15.937C21.5992 15.937 21.5454 15.937 21.4379 15.937C21.169 15.937 20.8463 15.937 20.5774 15.9907C20.5236 15.9907 20.4698 15.9907 20.4161 15.9907C20.3623 15.9907 20.3085 15.9907 20.3085 15.9907C20.2009 15.9907 20.1472 15.9907 20.0396 15.9907C19.8783 15.9907 19.7169 16.0444 19.6094 16.0444C19.5556 16.0444 19.5018 16.0444 19.5018 16.0444C19.448 16.0444 19.448 15.9907 19.448 15.9907L19.8245 14.7016C20.0396 13.8959 20.3085 13.0902 20.5236 12.2845C20.9001 11.1565 21.0076 10.1897 20.9001 9.33024C20.7925 8.20226 20.0934 7.12798 19.1254 6.53714C18.5876 6.21485 17.9422 6 17.2969 6C17.2431 6 17.1893 6 17.1356 6C16.544 6 16.1675 6.37599 16.1138 6.96684C16.06 7.71883 15.9524 8.41711 15.8449 9.11538C15.6835 10.2971 15.3609 11.2639 14.8769 12.0696C14.608 12.5531 14.2853 12.9828 13.9088 13.3588C13.4248 13.8959 12.887 14.4867 12.2955 15.1313L10.951 16.6353C10.6283 17.0113 10.3057 17.3336 9.98299 17.6558C9.92921 17.7095 9.82165 17.817 9.71409 17.8707C9.49898 18.0855 9.23009 18.2467 8.96119 18.3541C8.79986 18.4078 8.58474 18.5153 8.31585 18.569C7.1865 18.8912 6.54115 19.2135 6.48737 19.8581C6.48737 20.2341 6.43359 20.5564 6.43359 20.8786V21.0935C6.43359 21.3621 6.43359 21.6844 6.43359 21.9529V32.4271H8.20829H8.31585C8.90741 32.5345 9.55276 32.6419 10.3594 32.7493L10.7359 32.8031C12.2955 33.0716 13.8013 33.2865 15.2533 33.5013C18.8565 33.931 23.1588 34.9516 25.7939 31.7288C26.8695 30.3859 26.9771 28.506 27.1922 26.8946C27.5686 24.2626 28.0526 21.5769 28.4291 18.945C28.4829 18.0855 28.0526 17.065 27.246 16.4741Z" fill="#FF2800"/>
<path d="M7.28445 16H1.84934C1.11651 16 0.566895 16.5311 0.566895 17.2393V32.7607C0.566895 33.4689 1.11651 34 1.84934 34H7.28445C8.01728 34 8.56689 33.4689 8.56689 32.7607V17.2393C8.56689 16.5311 8.01728 16 7.28445 16Z" fill="#FF2800"/>
</svg>
