<svg width="39" height="27" viewBox="0 0 39 27" fill="none" xmlns="http://www.w3.org/2000/svg">
<path d="M8.57976 15.7969C6.86118 15.7969 5.46533 17.195 5.46533 18.9124C5.46533 20.6299 6.86156 22.0276 8.57976 22.0276C10.2983 22.0276 11.6946 20.6299 11.6946 18.9128C11.6953 17.195 10.2983 15.7969 8.57976 15.7969Z" fill="#FF2800"/>
<path d="M8.57869 10.8281C4.1205 10.8281 0.493652 14.4542 0.493652 18.9132C0.493652 23.3717 4.12088 26.9993 8.57869 26.9993C13.0376 26.9993 16.6664 23.3714 16.6664 18.9132C16.6668 14.4542 13.0376 10.8281 8.57869 10.8281ZM8.57983 23.4664C6.06943 23.4664 4.0266 21.4243 4.0266 18.9128C4.0266 16.4012 6.06905 14.3588 8.57983 14.3588C11.0906 14.3588 13.1331 16.4016 13.1331 18.9128C13.1331 21.4239 11.0906 23.4664 8.57983 23.4664Z" fill="#FF2800"/>
<path d="M32.7467 15.4805C29.5707 15.4805 26.9893 18.0635 26.9893 21.2387C26.9893 24.4143 29.5704 26.9985 32.7467 26.9985C35.9216 26.9985 38.5065 24.4143 38.5065 21.2387C38.5069 18.0635 35.9216 15.4805 32.7467 15.4805ZM32.7467 23.9491C31.2498 23.9491 30.0368 22.7361 30.0368 21.2391C30.0368 19.7421 31.2494 18.5299 32.7467 18.5299C34.2437 18.5299 35.4575 19.7418 35.4575 21.2391C35.4575 22.7357 34.2437 23.9491 32.7467 23.9491Z" fill="#FF2800"/>
<path d="M28.0798 16.0298C26.8755 15.0874 24.9372 13.9238 22.3094 13.3517V12.6211C25.26 13.2263 27.3883 14.5271 28.664 15.5561C29.8147 14.7244 31.222 14.2283 32.7467 14.2283C33.5738 14.2283 34.3638 14.38 35.0989 14.6453C35.0218 12.8401 34.7986 10.9386 34.1973 10.7109C31.2375 9.60894 27.3811 8.9498 24.2712 8.67154V2.93952C24.2712 2.13478 24.6723 1.94814 24.7285 1.92533C25.1117 1.81775 25.3345 1.41937 25.2254 1.03734C25.1174 0.656069 24.7244 0.435972 24.3378 0.542029C23.7786 0.700544 22.8328 1.38212 22.8328 2.93952V8.5651C22.6127 8.55256 22.4052 8.54496 22.1988 8.53659L20.5163 1.29773C20.4505 1.01681 20.2247 0.80204 19.9411 0.752242C19.5945 0.691421 11.3802 -0.736736 5.2019 0.507057C4.81302 0.585364 4.56024 0.964356 4.63778 1.35399C4.71609 1.74325 5.09356 1.99756 5.4851 1.91697C5.57101 1.89986 5.66034 1.88808 5.74663 1.87211L4.61231 8.47045C4.61041 8.48413 4.61535 8.49782 4.61345 8.51264H4.35839C2.99903 8.51264 2.72838 9.38923 2.72838 9.38923L1.89551 11.4769L2.58773 11.8209C4.20671 10.4509 6.29744 9.62035 8.57823 9.62035C13.7047 9.62035 17.8736 13.7904 17.8736 18.9142C17.8736 19.8132 17.739 20.6795 17.4996 21.5021H25.772C25.7686 21.4071 25.7579 21.3136 25.7579 21.217C25.7579 19.1579 26.6577 17.3104 28.0798 16.0298ZM30.8255 10.9877C31.0095 10.9158 31.2178 11.0063 31.2927 11.1911L31.8758 12.6778C31.9484 12.8621 31.8564 13.0704 31.6724 13.1438C31.6291 13.1598 31.5854 13.1681 31.5405 13.1681C31.3976 13.1681 31.2626 13.0815 31.206 12.9404L30.6221 11.4537C30.5499 11.269 30.6407 11.0599 30.8255 10.9877ZM29.1308 10.9877C29.3129 10.9158 29.5235 11.0063 29.5969 11.1911L30.1808 12.6778C30.253 12.8621 30.1614 13.0704 29.977 13.1438C29.9337 13.1598 29.8896 13.1681 29.8451 13.1681C29.701 13.1681 29.5665 13.0815 29.5102 12.9404L28.9271 11.4537C28.8545 11.269 28.9453 11.0599 29.1308 10.9877ZM12.2598 8.86921C11.6946 8.68408 11.1487 8.55066 10.6693 8.51264H6.0648L7.12727 2.33283H12.2598V8.86921ZM20.8702 14.407L18.2651 14.4039C17.4003 12.0821 15.5468 10.4232 13.6975 9.46449V2.33321H19.2801L20.8694 9.17521V14.4074L20.8702 14.407Z" fill="#FF2800"/>
</svg>
