<svg width="174" height="174" viewBox="0 0 174 174" fill="none" xmlns="http://www.w3.org/2000/svg">
<rect x="0.883073" y="1.19069" width="171.859" height="171.859" rx="85.9297" stroke="#722875" stroke-width="1.57669" stroke-dasharray="1.58 1.58"/>
<path d="M48.8963 124.711L63.3782 100.602L81.7273 115.659L69.467 135.572C66.3732 140.246 64.4477 134.667 63.8717 131.293C62.5552 123.921 56.96 125.15 54.327 126.685C49.7849 127.87 48.814 125.863 48.8963 124.711Z" fill="#A269BB"/>
<path d="M127.15 124.129L112.668 100.02L94.3186 115.077L106.579 134.99C109.673 139.664 111.598 134.085 112.174 130.711C113.491 123.339 119.086 124.567 121.719 126.103C126.261 127.288 127.232 125.281 127.15 124.129Z" fill="#A269BB"/>
<path d="M65.3354 54.9189C66.3369 48.143 73.8826 44.5388 79.7825 48.0183C83.1242 49.989 87.3213 49.7668 90.4362 47.4541C95.9356 43.371 103.82 46.158 105.531 52.7903C106.501 56.5468 109.626 59.3574 113.463 59.9246C120.239 60.9262 123.844 68.4718 120.364 74.3717C118.393 77.7135 118.616 81.9105 120.928 85.0254C125.011 90.5249 122.224 98.409 115.592 100.121C111.836 101.09 109.025 104.215 108.458 108.053C107.456 114.829 99.9106 118.433 94.0106 114.953C90.6689 112.983 86.4718 113.205 83.3569 115.517C77.8575 119.601 69.9734 116.814 68.2618 110.181C67.2924 106.425 64.1675 103.614 60.3296 103.047C53.5537 102.045 49.9496 94.4998 53.429 88.5999C55.3998 85.2581 55.1775 81.0611 52.8649 77.9462C48.7817 72.4467 51.5688 64.5626 58.201 62.8511C61.9575 61.8817 64.7682 58.7567 65.3354 54.9189Z" fill="url(#paint0_linear_1054_10016)"/>
<circle cx="86.9129" cy="81.4276" r="17.2303" stroke="url(#paint1_linear_1054_10016)" stroke-width="20.1758"/>
<path d="M83.2599 73.0533C84.6979 69.9358 89.1286 69.9358 90.5666 73.0533C91.1527 74.3239 92.3568 75.1987 93.7463 75.3634C97.1556 75.7677 98.5247 79.9816 96.0042 82.3125C94.9769 83.2625 94.517 84.678 94.7896 86.0504C95.4587 89.4178 91.8742 92.0221 88.8784 90.3452C87.6574 89.6618 86.1691 89.6618 84.9481 90.3452C81.9524 92.0221 78.3678 89.4178 79.0369 86.0504C79.3096 84.678 78.8496 83.2625 77.8224 82.3125C75.3018 79.9816 76.671 75.7677 80.0802 75.3634C81.4697 75.1987 82.6738 74.3239 83.2599 73.0533Z" fill="#FFEFB9"/>
<defs>
<linearGradient id="paint0_linear_1054_10016" x1="67.4319" y1="40.7346" x2="106.361" y2="122.237" gradientUnits="userSpaceOnUse">
<stop stop-color="#FFDE77"/>
<stop offset="1" stop-color="#FEBA3B"/>
</linearGradient>
<linearGradient id="paint1_linear_1054_10016" x1="86.9129" y1="54.1094" x2="86.9129" y2="108.746" gradientUnits="userSpaceOnUse">
<stop stop-color="#FDC644"/>
<stop offset="1" stop-color="#FEA623"/>
</linearGradient>
</defs>
</svg>
