<svg width="14" height="12" viewBox="0 0 14 12" fill="none" xmlns="http://www.w3.org/2000/svg">
<path d="M7.2561 5.61621L11.6389 1.2334C11.9612 0.943359 12.4446 0.943359 12.7346 1.2334L13.4758 1.97461C13.7659 2.26465 13.7659 2.78027 13.4758 3.07031L10.3499 6.16406L13.4758 9.29004C13.7659 9.58008 13.7659 10.0635 13.4758 10.3857L12.7346 11.0947C12.4446 11.417 11.9612 11.417 11.6389 11.0947L7.2561 6.71191C6.96607 6.42188 6.96607 5.93848 7.2561 5.61621ZM1.0686 6.71191C0.778565 6.42188 0.778565 5.93848 1.0686 5.61621L5.45142 1.2334C5.77368 0.943359 6.25708 0.943359 6.54712 1.2334L7.28833 1.97461C7.57837 2.26465 7.57837 2.78027 7.28833 3.07031L4.16235 6.16406L7.28833 9.29004C7.57837 9.58008 7.57837 10.0635 7.28833 10.3857L6.54712 11.0947C6.25708 11.417 5.77368 11.417 5.45142 11.0947L1.0686 6.71191Z" fill="#071C1F"/>
</svg>
