<svg width="14" height="12" viewBox="0 0 14 12" fill="none" xmlns="http://www.w3.org/2000/svg">
<path d="M6.71607 6.71191L2.33325 11.0947C2.01099 11.417 1.52759 11.417 1.23755 11.0947L0.496339 10.3857C0.2063 10.0635 0.2063 9.58008 0.496339 9.29004L3.62232 6.19629L0.496339 3.07031C0.2063 2.78027 0.2063 2.29688 0.496339 1.97461L1.23755 1.2334C1.52759 0.943359 2.01099 0.943359 2.33325 1.2334L6.71607 5.61621C7.0061 5.93848 7.0061 6.42188 6.71607 6.71191ZM12.9036 5.61621C13.1936 5.93848 13.1936 6.42188 12.9036 6.71191L8.52075 11.0947C8.23071 11.417 7.71509 11.417 7.42505 11.0947L6.68384 10.3857C6.3938 10.0635 6.3938 9.58008 6.68384 9.29004L9.80982 6.16406L6.68384 3.07031C6.3938 2.78027 6.3938 2.26465 6.68384 1.97461L7.42505 1.2334C7.71509 0.943359 8.19849 0.943359 8.52075 1.2334L12.9036 5.61621Z" fill="#071C1F"/>
</svg>
