<svg width="12" height="13" viewBox="0 0 12 13" fill="none" xmlns="http://www.w3.org/2000/svg">
<path fill-rule="evenodd" clip-rule="evenodd" d="M11.6703 9.49978L10.4095 8.22147C10.3324 8.13679 10.2389 8.06922 10.1347 8.023C10.0306 7.97679 9.91818 7.95293 9.80452 7.95293C9.69085 7.95293 9.57842 7.97679 9.47429 8.023C9.37017 8.06922 9.2766 8.13679 9.1995 8.22147L7.93873 9.44833C6.8331 9.17193 5.82427 8.59125 5.02351 7.77036C4.22275 6.94946 3.66119 5.92026 3.40078 4.79628L4.61081 3.56942C4.69432 3.49124 4.76097 3.39638 4.80655 3.29081C4.85214 3.18523 4.87566 3.07124 4.87566 2.95599C4.87566 2.84075 4.85214 2.72675 4.80655 2.62117C4.76097 2.5156 4.69432 2.42074 4.61081 2.34256L3.30021 1.06519C3.22815 0.980962 3.13909 0.913417 3.03904 0.867125C2.939 0.820832 2.83031 0.796875 2.72034 0.796875C2.61037 0.796875 2.50168 0.820832 2.40164 0.867125C2.30159 0.913417 2.21253 0.980962 2.14047 1.06519C1.68654 1.52544 1.28335 1.93423 0.829412 2.3435C-0.43136 3.67279 0.930444 6.79115 3.19919 9.19388C5.6197 11.699 9.04819 13.4371 10.4095 12.0569C10.8127 11.5966 11.2164 11.1878 11.6703 10.7276C11.7538 10.6494 11.8203 10.5545 11.8659 10.4489C11.9114 10.3433 11.9349 10.2294 11.9349 10.1141C11.9349 9.99892 11.9114 9.88494 11.8659 9.77937C11.8203 9.6738 11.7538 9.57893 11.6703 9.50071V9.49978ZM10.8635 6.02313C10.8706 6.12918 10.9153 6.22901 10.9895 6.30417C11.0636 6.37933 11.1621 6.42471 11.2666 6.43193C11.3793 6.4348 11.4889 6.39418 11.5731 6.3183C11.6574 6.24241 11.7101 6.13691 11.7206 6.02313C11.7185 5.37094 11.5811 4.72648 11.3174 4.13163C11.0786 3.51858 10.7182 2.96177 10.2585 2.49569C9.79882 2.02961 9.24964 1.66419 8.645 1.42207C8.05832 1.1546 7.4227 1.01532 6.77945 1.01327C6.66723 1.02391 6.56318 1.07734 6.48833 1.16278C6.41349 1.24822 6.37343 1.35928 6.37626 1.47352C6.38338 1.57956 6.42814 1.6794 6.50226 1.75456C6.57639 1.82971 6.67486 1.8751 6.77945 1.88232C7.31517 1.88031 7.84611 1.98454 8.34238 2.18915C9.32631 2.64151 10.1147 3.44085 10.5608 4.43846C10.7626 4.94163 10.8654 5.47996 10.8635 6.02313ZM9.24886 6.12557C9.24604 6.2398 9.28609 6.35087 9.36094 6.43631C9.43579 6.52175 9.53983 6.57518 9.65205 6.58581C9.70913 6.58489 9.7654 6.57194 9.81728 6.54779C9.86916 6.52365 9.91553 6.48884 9.95343 6.44556C9.99135 6.40229 10.02 6.35149 10.0375 6.29641C10.055 6.24132 10.0611 6.18315 10.0552 6.12557C10.0695 5.66897 9.98328 5.21489 9.8029 4.79628C9.65162 4.37348 9.41065 3.98952 9.09699 3.67149C8.78333 3.35347 8.40462 3.10914 7.98763 2.95576C7.57475 2.77288 7.1269 2.68548 6.67657 2.69991C6.61978 2.694 6.56241 2.70013 6.50808 2.7179C6.45375 2.73567 6.40365 2.76469 6.36097 2.80313C6.31829 2.84157 6.28395 2.88858 6.26014 2.94118C6.23633 2.99378 6.22356 3.05083 6.22264 3.10871C6.23313 3.22248 6.28583 3.32798 6.3701 3.40387C6.45436 3.47975 6.5639 3.52037 6.67657 3.5175C7.00709 3.51131 7.33469 3.58119 7.63472 3.7219C7.95862 3.84086 8.25168 4.03277 8.49184 4.28318C8.72211 4.54013 8.90913 4.83373 9.04542 5.15222C9.1892 5.45472 9.25838 5.7881 9.24702 6.1237L9.24886 6.12557Z" fill="#F37021"/>
</svg>
