<svg width="18" height="18" viewBox="0 0 18 18" fill="none" xmlns="http://www.w3.org/2000/svg">
<path d="M13.5002 1.2059C14.8576 1.98967 15.9868 3.11437 16.776 4.46867C17.5652 5.82297 17.987 7.35989 17.9997 8.92731C18.0124 10.4947 17.6154 12.0383 16.8482 13.4051C16.081 14.772 14.9701 15.9148 13.6255 16.7204C12.2809 17.526 10.7492 17.9664 9.182 17.9982C7.61484 18.0299 6.06657 17.6518 4.69046 16.9012C3.31434 16.1507 2.15811 15.0538 1.33622 13.7191C0.514322 12.3844 0.0552691 10.8581 0.00450016 9.2915L0 8.9999L0.00450016 8.7083C0.0549036 7.15399 0.507199 5.63927 1.31729 4.3118C2.12738 2.98432 3.26763 1.88941 4.62686 1.1338C5.98609 0.378183 7.51792 -0.0123397 9.07302 0.000297224C10.6281 0.0129342 12.1534 0.428299 13.5002 1.2059ZM9.00011 3.5999C8.77967 3.59993 8.5669 3.68086 8.40217 3.82735C8.23743 3.97383 8.13219 4.17568 8.1064 4.3946L8.1001 4.4999V8.9999L8.1082 9.1178C8.12872 9.27395 8.18986 9.42198 8.2855 9.5471L8.3638 9.6371L11.0638 12.3371L11.1484 12.4109C11.3063 12.5334 11.5004 12.5998 11.7001 12.5998C11.8999 12.5998 12.094 12.5334 12.2519 12.4109L12.3365 12.3362L12.4112 12.2516C12.5336 12.0938 12.6001 11.8997 12.6001 11.6999C12.6001 11.5001 12.5336 11.306 12.4112 11.1482L12.3365 11.0636L9.90012 8.6264V4.4999L9.89382 4.3946C9.86803 4.17568 9.76279 3.97383 9.59805 3.82735C9.43332 3.68086 9.22055 3.59993 9.00011 3.5999Z" fill="#652178"/>
</svg>
