<svg width="17" height="21" viewBox="0 0 17 21" fill="none" xmlns="http://www.w3.org/2000/svg">
<path d="M8.47439 10.6835C9.0331 10.6835 9.51156 10.4748 9.90977 10.0573C10.3073 9.64064 10.5061 9.13947 10.5061 8.55381C10.5061 7.96815 10.3073 7.46661 9.90977 7.0492C9.51156 6.6325 9.0331 6.42414 8.47439 6.42414C7.91568 6.42414 7.43756 6.6325 7.04002 7.0492C6.64181 7.46661 6.44271 7.96815 6.44271 8.55381C6.44271 9.13947 6.64181 9.64064 7.04002 10.0573C7.43756 10.4748 7.91568 10.6835 8.47439 10.6835ZM8.47439 18.51C10.5399 16.5223 12.0722 14.7163 13.0711 13.0921C14.07 11.4686 14.5694 10.0268 14.5694 8.76677C14.5694 6.83233 13.981 5.24821 12.8039 4.01443C11.6276 2.78135 10.1844 2.16481 8.47439 2.16481C6.76439 2.16481 5.32088 2.78135 4.14386 4.01443C2.96751 5.24821 2.37934 6.83233 2.37934 8.76677C2.37934 10.0268 2.8788 11.4686 3.8777 13.0921C4.87662 14.7163 6.40884 16.5223 8.47439 18.51ZM8.47439 20.9325C8.33894 20.9325 8.2035 20.9059 8.06805 20.8526C7.9326 20.7993 7.81409 20.7284 7.71251 20.6397C5.24062 18.3503 3.39518 16.2252 2.17617 14.2645C0.957161 12.303 0.347656 10.4705 0.347656 8.76677C0.347656 6.1047 1.16473 3.9839 2.79889 2.4044C4.43236 0.824907 6.3242 0.0351562 8.47439 0.0351562C10.6246 0.0351562 12.5164 0.824907 14.1499 2.4044C15.784 3.9839 16.6011 6.1047 16.6011 8.76677C16.6011 10.4705 15.9916 12.303 14.7726 14.2645C13.5536 16.2252 11.7082 18.3503 9.23627 20.6397C9.13469 20.7284 9.01618 20.7993 8.88073 20.8526C8.74528 20.9059 8.60984 20.9325 8.47439 20.9325Z" fill="#F37021"/>
</svg>
