<svg width="14" height="13" viewBox="0 0 14 13" fill="none" xmlns="http://www.w3.org/2000/svg">
<path d="M13.8949 3.00702L13.8737 11.7528C13.8737 11.9492 13.744 12.1088 13.5874 12.1088H0.63119C0.553701 12.1088 0.482736 12.072 0.428902 12.0045C0.374252 11.9359 0.345703 11.8449 0.345703 11.7507L0.36691 3L6.58973 7.09144C6.76103 7.20399 6.95109 7.25924 7.13868 7.25924C7.32629 7.25924 7.51471 7.20399 7.686 7.09144L13.8957 3.00812L13.8949 3.00702Z" fill="#F37021"/>
<path d="M13.9023 0.762286V1.679L7.25366 6.04782C7.1827 6.09489 7.09705 6.09489 7.0261 6.04782L0.375 1.67612V0.791123C0.375 0.552735 0.529162 0.359375 0.719207 0.359375H13.5612C13.7431 0.359375 13.8891 0.537399 13.9013 0.762495L13.9023 0.762286Z" fill="#F37021"/>
</svg>
