<svg width="47" height="47" viewBox="0 0 47 47" fill="none" xmlns="http://www.w3.org/2000/svg">
<circle cx="23.5" cy="23.5" r="23.5" fill="#652178"/>
<path d="M23.2163 33.9929L23.2143 33.9903C22.3495 32.844 20.6902 30.5442 19.2592 28.0077C17.468 24.8315 16.6179 22.3229 16.6179 20.5137C16.6179 16.7485 19.8932 13.6179 24 13.6179C28.1068 13.6179 31.3821 16.7485 31.3821 20.5137C31.3821 22.324 30.5319 24.8327 28.7436 28.008C27.3128 30.5442 25.6521 32.8438 24.7884 33.9907L24.7867 33.9929C24.6977 34.1123 24.5804 34.2104 24.4439 34.2783C24.3073 34.3464 24.1557 34.3821 24.0015 34.3821C23.8473 34.3821 23.6957 34.3464 23.5591 34.2783C23.4226 34.2104 23.3053 34.1123 23.2163 33.9929ZM24 24.6183L24.0007 24.6183C25.0092 24.6173 25.9783 24.2234 26.6947 23.5197C27.4115 22.8156 27.8168 21.8587 27.8179 20.8581V20.8574C27.8179 20.1111 27.5925 19.3825 27.1716 18.7637C26.7508 18.1451 26.1538 17.6646 25.4574 17.3813C24.7612 17.0981 23.9957 17.0241 23.2572 17.1684C22.5187 17.3127 21.8389 17.6691 21.3043 18.1942C20.7695 18.7194 20.404 19.3899 20.2559 20.1216C20.1077 20.8534 20.1838 21.6117 20.4742 22.3003C20.7646 22.9888 21.2555 23.5754 21.8831 23.9873C22.5107 24.3992 23.2473 24.6183 24 24.6183Z" fill="white" stroke="white" stroke-width="1.23585"/>
</svg>
