<svg width="47" height="47" viewBox="0 0 47 47" fill="none" xmlns="http://www.w3.org/2000/svg">
<circle cx="23.5" cy="23.5" r="23.5" fill="#652178"/>
<path fill-rule="evenodd" clip-rule="evenodd" d="M31.0799 27.444L29.3301 25.6698C29.2231 25.5523 29.0932 25.4585 28.9487 25.3944C28.8042 25.3302 28.6481 25.2971 28.4904 25.2971C28.3326 25.2971 28.1766 25.3302 28.0321 25.3944C27.8875 25.4585 27.7577 25.5523 27.6507 25.6698L25.9009 27.3726C24.3664 26.9889 22.9662 26.183 21.8548 25.0437C20.7435 23.9044 19.9641 22.476 19.6027 20.916L21.2821 19.2132C21.398 19.1047 21.4905 18.9731 21.5537 18.8266C21.617 18.68 21.6496 18.5218 21.6496 18.3619C21.6496 18.2019 21.617 18.0437 21.5537 17.8972C21.4905 17.7507 21.398 17.619 21.2821 17.5105L19.4631 15.7376C19.3631 15.6207 19.2395 15.527 19.1006 15.4627C18.9617 15.3985 18.8109 15.3652 18.6583 15.3652C18.5056 15.3652 18.3548 15.3985 18.2159 15.4627C18.0771 15.527 17.9535 15.6207 17.8535 15.7376C17.2235 16.3764 16.6639 16.9438 16.0339 17.5118C14.284 19.3567 16.1741 23.6847 19.3229 27.0194C22.6823 30.4963 27.4407 32.9086 29.3301 30.9929C29.8897 30.3542 30.4499 29.7868 31.0799 29.148C31.1957 29.0395 31.2881 28.9078 31.3514 28.7613C31.4146 28.6148 31.4472 28.4566 31.4472 28.2966C31.4472 28.1367 31.4146 27.9785 31.3514 27.832C31.2881 27.6855 31.1957 27.5538 31.0799 27.4453V27.444ZM29.9601 22.6187C29.97 22.7659 30.0321 22.9045 30.135 23.0088C30.2379 23.1131 30.3745 23.1761 30.5197 23.1861C30.676 23.1901 30.8281 23.1337 30.945 23.0284C31.062 22.9231 31.1351 22.7767 31.1497 22.6187C31.1468 21.7136 30.9562 20.8191 30.5901 19.9935C30.2587 19.1427 29.7585 18.3699 29.1205 17.723C28.4825 17.0761 27.7203 16.569 26.8811 16.2329C26.0668 15.8617 25.1847 15.6684 24.2919 15.6656C24.1362 15.6803 23.9917 15.7545 23.8879 15.8731C23.784 15.9917 23.7284 16.1458 23.7323 16.3043C23.7422 16.4515 23.8043 16.5901 23.9072 16.6944C24.0101 16.7987 24.1467 16.8617 24.2919 16.8717C25.0354 16.8689 25.7723 17.0136 26.4611 17.2976C27.8267 17.9254 28.9209 19.0348 29.5401 20.4194C29.8202 21.1177 29.9628 21.8649 29.9601 22.6187ZM27.7192 22.7609C27.7153 22.9195 27.7709 23.0736 27.8747 23.1922C27.9786 23.3108 28.123 23.3849 28.2788 23.3997C28.358 23.3984 28.4361 23.3804 28.5081 23.3469C28.5801 23.3134 28.6445 23.2651 28.6971 23.205C28.7497 23.145 28.7894 23.0745 28.8137 22.998C28.8381 22.9216 28.8464 22.8408 28.8384 22.7609C28.8581 22.1272 28.7385 21.497 28.4881 20.916C28.2782 20.3292 27.9437 19.7963 27.5084 19.3549C27.0731 18.9135 26.5475 18.5744 25.9687 18.3615C25.3957 18.1077 24.7741 17.9864 24.1491 18.0065C24.0703 17.9983 23.9907 18.0068 23.9153 18.0314C23.8399 18.0561 23.7703 18.0964 23.7111 18.1497C23.6519 18.2031 23.6042 18.2683 23.5712 18.3413C23.5381 18.4143 23.5204 18.4935 23.5191 18.5738C23.5337 18.7317 23.6068 18.8781 23.7238 18.9835C23.8407 19.0888 23.9927 19.1452 24.1491 19.1412C24.6078 19.1326 25.0625 19.2296 25.4789 19.4249C25.9285 19.59 26.3352 19.8563 26.6685 20.2039C26.9881 20.5605 27.2477 20.968 27.4368 21.41C27.6364 21.8298 27.7324 22.2925 27.7166 22.7583L27.7192 22.7609Z" fill="white"/>
</svg>
