<svg width="120" height="178" viewBox="0 0 120 178" fill="none" xmlns="http://www.w3.org/2000/svg">
<rect x="38.8633" width="42.7061" height="43.6345" rx="21.3531" fill="#F37021"/>
<path d="M54.2432 26.836V24.3851L61.5293 13.9573H65.1612V24.1177H67.1219V26.836H65.1612V30H62.0417V26.836H54.2432ZM62.2423 17.2996L57.6746 24.1177H62.2423V17.2996Z" fill="white"/>
<g clip-path="url(#clip0_3001_7)">
<g clip-path="url(#clip1_3001_7)">
<path d="M82.0811 118.567C95.166 118.567 105.773 107.96 105.773 94.875C105.773 81.7901 95.166 71.1826 82.0811 71.1826C68.9961 71.1826 58.3887 81.7901 58.3887 94.875C58.3887 107.96 68.9961 118.567 82.0811 118.567Z" fill="#F4F7FE"/>
<path opacity="0.3" d="M28.5491 167.303C36.4604 167.303 42.8737 160.89 42.8737 152.979C42.8737 145.068 36.4604 138.654 28.5491 138.654C20.6379 138.654 14.2246 145.068 14.2246 152.979C14.2246 160.89 20.6379 167.303 28.5491 167.303Z" fill="#652178"/>
<path d="M103.856 169.454H19.1261C16.8731 169.454 15.0391 167.62 15.0391 165.367V162.6C15.0391 160.347 16.8731 158.513 19.1261 158.513H103.856C106.109 158.513 107.943 160.347 107.943 162.6V165.367C107.943 167.62 106.109 169.454 103.856 169.454ZM19.1261 160.442C17.9324 160.442 16.9601 161.414 16.9601 162.608V165.375C16.9601 166.568 17.9324 167.541 19.1261 167.541H103.856C105.05 167.541 106.022 166.568 106.022 165.375V162.608C106.022 161.414 105.05 160.442 103.856 160.442H19.1261Z" fill="black"/>
<path d="M44.9081 160.442H20.8125L25.7296 151.619H39.9909L44.9081 160.442ZM24.0932 158.513H41.6352L38.8605 153.54H26.8601L24.0932 158.513Z" fill="black"/>
<path d="M102.387 160.442H78.291L83.2082 151.619H97.4694L102.387 160.442ZM81.5638 158.513H99.1059L96.3311 153.54H84.3307L81.5638 158.513Z" fill="black"/>
<path d="M39.9889 115.318H25.7355L20.8184 106.496H44.9139L39.9889 115.318ZM26.8581 113.397H38.8584L41.6332 108.425H24.0912L26.8581 113.397Z" fill="black"/>
<path d="M97.4694 115.318H83.2082L78.291 106.496H102.387L97.4694 115.318ZM84.3386 113.397H96.339L99.1138 108.425H81.5638L84.3386 113.397Z" fill="black"/>
<path d="M40.3237 153.746H25.4062V113.429H40.3237V153.746ZM27.3273 151.817H38.4027V115.35H27.3273V151.817Z" fill="black"/>
<path d="M61.4262 68.4946L60.4102 70.125L106.885 99.0878L107.901 97.4575L61.4262 68.4946Z" fill="black"/>
<path d="M61.4169 68.4855L15.0391 97.4805L16.0574 99.1093L62.4352 70.1143L61.4169 68.4855Z" fill="black"/>
<path d="M46.0089 95.9816H42.8547C42.3962 95.9816 42.0721 95.8789 41.8823 95.6733C41.6847 95.4678 41.5898 95.1437 41.5898 94.701V86.9379C41.5898 86.4794 41.6926 86.1553 41.8902 85.9576C42.0879 85.76 42.412 85.6572 42.8547 85.6572H46.1987C46.6888 85.6572 47.1157 85.6888 47.4793 85.7521C47.843 85.8153 48.1671 85.9339 48.4517 86.1078C48.6968 86.2501 48.9102 86.4399 49.0999 86.6612C49.2897 86.8826 49.432 87.1276 49.5268 87.4043C49.6217 87.681 49.677 87.9577 49.677 88.2581C49.677 89.2937 49.1632 90.0447 48.1276 90.5269C49.4873 90.9617 50.1593 91.7997 50.1593 93.0487C50.1593 93.6258 50.0091 94.1476 49.7166 94.6061C49.4162 95.0725 49.0209 95.4125 48.5149 95.6338C48.1987 95.7682 47.8351 95.8552 47.4319 95.9105C47.0287 95.95 46.5544 95.9816 46.0089 95.9816ZM43.6769 87.2225V89.8945H45.59C46.1117 89.8945 46.5149 89.8471 46.7995 89.7443C47.0841 89.6494 47.2975 89.4597 47.4477 89.183C47.5663 88.9854 47.6216 88.764 47.6216 88.519C47.6216 87.9972 47.4319 87.6494 47.0683 87.4834C46.6967 87.3094 46.1275 87.2304 45.3686 87.2304H43.6769V87.2225ZM45.8587 91.3965H43.6848V94.4085H45.9299C47.345 94.4085 48.0485 93.9025 48.0485 92.8827C48.0485 92.361 47.8667 91.9815 47.5031 91.7523C47.1315 91.5072 46.586 91.3965 45.8587 91.3965Z" fill="black"/>
<path d="M58.0335 94.8118L57.5434 93.5153H53.3378L52.8476 94.8355C52.6579 95.3494 52.4919 95.6972 52.3575 95.8791C52.2152 96.0609 51.9938 96.1557 51.6855 96.1557C51.4247 96.1557 51.1875 96.0609 50.9899 95.8632C50.7843 95.6735 50.6895 95.4522 50.6895 95.2071C50.6895 95.0648 50.7132 94.9225 50.7606 94.7723C50.808 94.6221 50.8871 94.4166 50.9899 94.1478L53.6302 87.444C53.7014 87.2543 53.7963 87.0171 53.899 86.7483C54.0018 86.4796 54.1204 86.2582 54.239 86.0764C54.3575 85.8946 54.5157 85.7523 54.7133 85.6416C54.9109 85.5309 55.1481 85.4756 55.4327 85.4756C55.7252 85.4756 55.9623 85.5309 56.16 85.6416C56.3576 85.7523 56.5157 85.8946 56.6343 86.0685C56.7529 86.2424 56.8556 86.4321 56.9347 86.6298C57.0137 86.8274 57.1244 87.0962 57.2509 87.4282L59.9466 94.0924C60.1601 94.5984 60.2628 94.9699 60.2628 95.1992C60.2628 95.4363 60.1601 95.6577 59.9624 95.8553C59.7648 96.053 59.5276 96.1557 59.2431 96.1557C59.077 96.1557 58.9347 96.1241 58.8241 96.0688C58.7055 96.0134 58.6106 95.9265 58.5316 95.8316C58.4525 95.7288 58.3656 95.5786 58.2707 95.3652C58.1758 95.1518 58.0968 94.9699 58.0335 94.8118ZM53.8911 91.9422H56.9742L55.4169 87.6812L53.8911 91.9422Z" fill="black"/>
<path d="M64.5239 86.7325L68.5477 92.8197V86.6772C68.5477 86.2819 68.6346 85.9815 68.8086 85.776C68.9825 85.5784 69.2117 85.4756 69.5042 85.4756C69.8046 85.4756 70.0418 85.5784 70.2157 85.776C70.3896 85.9736 70.4766 86.274 70.4766 86.6772V94.796C70.4766 95.7051 70.0971 96.1557 69.3461 96.1557C69.1564 96.1557 68.9904 96.132 68.8402 96.0767C68.69 96.0213 68.5477 95.9344 68.4212 95.8237C68.2868 95.7051 68.1682 95.5707 68.0576 95.4126C67.9469 95.2545 67.8283 95.0964 67.7176 94.9304L63.7966 88.9144V94.962C63.7966 95.3573 63.7017 95.6577 63.5199 95.8553C63.3301 96.053 63.093 96.1557 62.8084 96.1557C62.5159 96.1557 62.2787 96.053 62.0969 95.8474C61.9151 95.6419 61.8281 95.3494 61.8281 94.9541V86.9934C61.8281 86.6535 61.8677 86.3926 61.9388 86.195C62.0258 85.9815 62.176 85.8076 62.3815 85.6732C62.587 85.5388 62.8084 85.4756 63.0535 85.4756C63.2432 85.4756 63.4013 85.5072 63.5357 85.5704C63.6701 85.6337 63.7887 85.7127 63.8914 85.8155C63.9942 85.9183 64.097 86.0527 64.1997 86.2187C64.3025 86.3847 64.4132 86.5507 64.5239 86.7325Z" fill="black"/>
<path d="M74.8626 86.7483V90.369L78.9655 86.0843C79.1631 85.8788 79.3291 85.7286 79.4714 85.6258C79.6137 85.5309 79.7955 85.4756 80.0248 85.4756C80.3252 85.4756 80.5703 85.5625 80.7521 85.7365C80.9418 85.9104 81.0288 86.1238 81.0288 86.3768C81.0288 86.6851 80.8707 86.9855 80.5545 87.2859L78.0089 89.6971L80.9418 93.8948C81.1474 94.1873 81.3055 94.4403 81.4082 94.6616C81.511 94.883 81.5584 95.0964 81.5584 95.302C81.5584 95.5312 81.4715 95.7288 81.2897 95.9028C81.1078 96.0688 80.8628 96.1557 80.5545 96.1557C80.262 96.1557 80.0248 96.0925 79.843 95.966C79.6612 95.8395 79.503 95.6735 79.3766 95.468C79.2501 95.2624 79.1394 95.0727 79.0366 94.9067L76.5622 91.1042L74.8468 92.7485V94.883C74.8468 95.3178 74.7519 95.634 74.5543 95.8474C74.3566 96.053 74.1037 96.1636 73.7954 96.1636C73.6135 96.1636 73.4475 96.1162 73.2815 96.0213C73.1155 95.9265 72.989 95.8 72.9021 95.6419C72.8388 95.5075 72.7993 95.3573 72.7835 95.1834C72.7677 95.0095 72.7598 94.7565 72.7598 94.4324V86.7483C72.7598 86.3294 72.8546 86.0052 73.0365 85.7997C73.2262 85.5863 73.4712 85.4835 73.7954 85.4835C74.1116 85.4835 74.3646 85.5863 74.5622 85.7997C74.7598 85.9973 74.8626 86.3215 74.8626 86.7483Z" fill="black"/>
<mask id="mask0_3001_7" style="mask-type:luminance" maskUnits="userSpaceOnUse" x="71" y="110" width="34" height="50">
<path d="M79.9197 129.311V110.014H104.584L103.849 159.478L71.959 158.553V142.434H86.2835V134.742H79.9197V129.311Z" fill="white"/>
</mask>
<g mask="url(#mask0_3001_7)">
<path d="M97.7885 153.746H82.8711V113.429H97.7885V153.746ZM84.7921 151.817H95.8675V115.35H84.7921V151.817Z" fill="black"/>
</g>
<mask id="mask1_3001_7" style="mask-type:luminance" maskUnits="userSpaceOnUse" x="5" y="93" width="109" height="22">
<path d="M11.6236 94.7645H30.723V102.954H37.0868V94.7645L113.745 93.6973V114.354L5.25977 114.386L11.6236 94.7645Z" fill="white"/>
</mask>
<g mask="url(#mask1_3001_7)">
<path d="M103.856 108.425H19.1261C16.8731 108.425 15.0391 106.591 15.0391 104.338V97.4844H107.935V104.338C107.943 106.591 106.109 108.425 103.856 108.425ZM16.968 99.4054V104.338C16.968 105.532 17.9403 106.504 19.134 106.504H103.856C105.05 106.504 106.022 105.532 106.022 104.338V99.4054H16.968Z" fill="black"/>
</g>
<path d="M83.8316 135.706C84.3643 135.706 84.7961 135.274 84.7961 134.742C84.7961 134.209 84.3643 133.777 83.8316 133.777C83.299 133.777 82.8672 134.209 82.8672 134.742C82.8672 135.274 83.299 135.706 83.8316 135.706Z" fill="black"/>
<path d="M83.8316 138.797C84.3643 138.797 84.7961 138.365 84.7961 137.833C84.7961 137.3 84.3643 136.868 83.8316 136.868C83.299 136.868 82.8672 137.3 82.8672 137.833C82.8672 138.365 83.299 138.797 83.8316 138.797Z" fill="black"/>
<path d="M37.0875 99.4045C37.6202 99.4045 38.052 98.9727 38.052 98.44C38.052 97.9074 37.6202 97.4756 37.0875 97.4756C36.5548 97.4756 36.123 97.9074 36.123 98.44C36.123 98.9727 36.5548 99.4045 37.0875 99.4045Z" fill="black"/>
<path d="M30.691 99.4045C31.2237 99.4045 31.6555 98.9727 31.6555 98.44C31.6555 97.9074 31.2237 97.4756 30.691 97.4756C30.1584 97.4756 29.7266 97.9074 29.7266 98.44C29.7266 98.9727 30.1584 99.4045 30.691 99.4045Z" fill="black"/>
<path d="M83.8316 140.243C84.3643 140.243 84.7961 139.812 84.7961 139.279C84.7961 138.746 84.3643 138.314 83.8316 138.314C83.299 138.314 82.8672 138.746 82.8672 139.279C82.8672 139.812 83.299 140.243 83.8316 140.243Z" fill="black"/>
<path d="M83.8316 143.413C84.3643 143.413 84.7961 142.981 84.7961 142.449C84.7961 141.916 84.3643 141.484 83.8316 141.484C83.299 141.484 82.8672 141.916 82.8672 142.449C82.8672 142.981 83.299 143.413 83.8316 143.413Z" fill="black"/>
<path d="M84.7882 137.833H82.8672V139.272H84.7882V137.833Z" fill="black"/>
</g>
</g>
<defs>
<clipPath id="clip0_3001_7">
<rect width="118.581" height="118.581" fill="white" transform="translate(0.925781 59)"/>
</clipPath>
<clipPath id="clip1_3001_7">
<rect width="118.581" height="118.581" fill="white" transform="translate(0.925781 59)"/>
</clipPath>
</defs>
</svg>
