<svg width="119" height="178" viewBox="0 0 119 178" fill="none" xmlns="http://www.w3.org/2000/svg">
<rect x="38.2109" width="42.7061" height="43.6345" rx="21.3531" fill="#F37021"/>
<path d="M56.0563 18.0349C56.1305 16.5494 56.6504 15.4056 57.616 14.6035C58.5964 13.7865 59.8813 13.378 61.4707 13.378C62.555 13.378 63.4834 13.5711 64.2559 13.9573C65.0283 14.3287 65.6076 14.8412 65.9938 15.4948C66.3949 16.1335 66.5954 16.8614 66.5954 17.6784C66.5954 18.6142 66.3503 19.4089 65.8601 20.0625C65.3848 20.7012 64.8129 21.132 64.1444 21.3548V21.4439C65.006 21.7113 65.6744 22.1866 66.1498 22.8699C66.64 23.5532 66.8851 24.4296 66.8851 25.4991C66.8851 26.3904 66.6771 27.1851 66.2612 27.8833C65.8601 28.5814 65.2585 29.131 64.4564 29.5321C63.6691 29.9183 62.7184 30.1114 61.6044 30.1114C59.9258 30.1114 58.5592 29.6881 57.5046 28.8414C56.4499 27.9947 55.8929 26.7469 55.8335 25.0981H58.8637C58.8934 25.8259 59.1385 26.4127 59.599 26.8583C60.0744 27.2891 60.7205 27.5045 61.5375 27.5045C62.2951 27.5045 62.8744 27.2965 63.2755 26.8806C63.6914 26.4498 63.8993 25.9002 63.8993 25.2318C63.8993 24.3405 63.6171 23.7018 63.0527 23.3156C62.4882 22.9293 61.6118 22.7362 60.4234 22.7362H59.7773V20.1739H60.4234C62.5328 20.1739 63.5874 19.4683 63.5874 18.0571C63.5874 17.4184 63.3943 16.9208 63.0081 16.5643C62.6367 16.2078 62.0945 16.0295 61.3815 16.0295C60.6834 16.0295 60.1412 16.2226 59.755 16.6088C59.3836 16.9802 59.1683 17.4555 59.1088 18.0349H56.0563Z" fill="white"/>
<g clip-path="url(#clip0_3001_6)">
<g clip-path="url(#clip1_3001_6)">
<g clip-path="url(#clip2_3001_6)">
<path d="M81.4307 118.567C94.5156 118.567 105.123 107.96 105.123 94.875C105.123 81.7901 94.5156 71.1826 81.4307 71.1826C68.3457 71.1826 57.7383 81.7901 57.7383 94.875C57.7383 107.96 68.3457 118.567 81.4307 118.567Z" fill="#F4F7FE"/>
<path opacity="0.3" d="M27.8987 167.303C35.81 167.303 42.2233 160.89 42.2233 152.979C42.2233 145.068 35.81 138.654 27.8987 138.654C19.9875 138.654 13.5742 145.068 13.5742 152.979C13.5742 160.89 19.9875 167.303 27.8987 167.303Z" fill="#652178"/>
<path d="M29.2161 105.136V108.378H34.1649V105.136C34.1649 104.67 34.2676 104.322 34.4811 104.093C34.6945 103.864 34.9633 103.745 35.3032 103.745C35.6511 103.745 35.9278 103.864 36.1412 104.085C36.3547 104.306 36.4653 104.662 36.4653 105.129V114.046C36.4653 114.512 36.3547 114.868 36.1412 115.097C35.9278 115.326 35.6511 115.445 35.3111 115.445C34.9633 115.445 34.6945 115.326 34.489 115.097C34.2834 114.868 34.1807 114.512 34.1807 114.054V110.251H29.2319V114.054C29.2319 114.52 29.1212 114.876 28.9078 115.105C28.6944 115.334 28.4177 115.453 28.0777 115.453C27.7299 115.453 27.4611 115.334 27.2556 115.105C27.05 114.876 26.9473 114.52 26.9473 114.062V105.136C26.9473 104.67 27.05 104.322 27.2556 104.093C27.4611 103.864 27.7378 103.745 28.0856 103.745C28.4335 103.745 28.7102 103.864 28.9236 104.085C29.1371 104.306 29.2161 104.67 29.2161 105.136Z" fill="black"/>
<path d="M46.1551 113.975L45.6175 112.552H41.0166L40.479 114.006C40.2656 114.575 40.0917 114.955 39.9415 115.153C39.7913 115.35 39.5462 115.453 39.2063 115.453C38.9217 115.453 38.6608 115.35 38.4394 115.137C38.2181 114.923 38.1074 114.686 38.1074 114.417C38.1074 114.259 38.1311 114.101 38.1865 113.935C38.2418 113.769 38.3209 113.54 38.4394 113.247L41.3328 105.895C41.4119 105.682 41.5146 105.429 41.6332 105.136C41.7518 104.844 41.8704 104.591 42.0048 104.401C42.1392 104.212 42.3052 104.046 42.5186 103.927C42.7321 103.808 42.9929 103.745 43.3092 103.745C43.6254 103.745 43.8942 103.808 44.1076 103.927C44.321 104.046 44.495 104.204 44.6214 104.393C44.7479 104.583 44.8665 104.789 44.9535 105.01C45.0404 105.231 45.159 105.524 45.2934 105.887L48.25 113.192C48.4793 113.745 48.5978 114.149 48.5978 114.402C48.5978 114.662 48.4872 114.907 48.2658 115.121C48.0445 115.334 47.7836 115.453 47.4753 115.453C47.2935 115.453 47.1433 115.421 47.0089 115.358C46.8745 115.295 46.7717 115.208 46.6847 115.097C46.5978 114.987 46.5029 114.821 46.4002 114.591C46.2974 114.362 46.2262 114.149 46.1551 113.975ZM41.6174 110.836H45.0009L43.2933 106.164L41.6174 110.836Z" fill="black"/>
<path d="M58.8812 111.864C58.8812 112.552 58.7072 113.16 58.3515 113.706C57.9958 114.251 57.4819 114.678 56.8021 114.987C56.1222 115.295 55.3158 115.453 54.383 115.453C53.2684 115.453 52.3434 115.24 51.6161 114.821C51.1023 114.52 50.6833 114.109 50.3592 113.603C50.0351 113.097 49.877 112.607 49.877 112.125C49.877 111.848 49.9718 111.611 50.1695 111.413C50.3671 111.216 50.6122 111.113 50.9047 111.113C51.1497 111.113 51.3474 111.192 51.5213 111.342C51.6952 111.492 51.8296 111.722 51.9482 112.03C52.0905 112.394 52.2486 112.694 52.4146 112.931C52.5806 113.168 52.8177 113.374 53.1182 113.532C53.4186 113.69 53.8217 113.769 54.3119 113.769C54.9917 113.769 55.5451 113.611 55.9641 113.295C56.3831 112.979 56.6044 112.583 56.6044 112.109C56.6044 111.73 56.4858 111.429 56.2645 111.192C56.0431 110.955 55.7427 110.781 55.3791 110.654C55.0154 110.528 54.5332 110.401 53.9245 110.259C53.1261 110.077 52.4462 109.848 51.8928 109.595C51.3394 109.342 50.9126 108.994 50.5884 108.552C50.2643 108.109 50.1062 107.563 50.1062 106.907C50.1062 106.283 50.2722 105.729 50.6122 105.247C50.9521 104.765 51.4422 104.393 52.0905 104.132C52.7387 103.872 53.4897 103.745 54.3593 103.745C55.055 103.745 55.6558 103.832 56.1617 104.006C56.6677 104.18 57.0867 104.409 57.4266 104.694C57.7665 104.978 58.0037 105.279 58.1618 105.595C58.3199 105.911 58.391 106.212 58.391 106.512C58.391 106.789 58.2962 107.034 58.0985 107.247C57.9009 107.461 57.6637 107.579 57.3791 107.579C57.1183 107.579 56.9206 107.516 56.7783 107.382C56.636 107.247 56.4937 107.034 56.3356 106.733C56.1301 106.306 55.885 105.974 55.5925 105.737C55.3 105.5 54.8415 105.382 54.2012 105.382C53.6083 105.382 53.134 105.508 52.7703 105.769C52.4067 106.03 52.2248 106.338 52.2248 106.71C52.2248 106.939 52.2881 107.129 52.4067 107.295C52.5252 107.461 52.6992 107.603 52.9126 107.722C53.1261 107.84 53.3474 107.935 53.5688 107.998C53.7901 108.061 54.1538 108.164 54.6676 108.291C55.3079 108.441 55.885 108.607 56.3989 108.781C56.9127 108.955 57.3554 109.176 57.7191 109.437C58.0827 109.698 58.3673 110.022 58.5649 110.417C58.7626 110.813 58.8812 111.295 58.8812 111.864Z" fill="black"/>
<path d="M69.4339 111.864C69.4339 112.552 69.26 113.16 68.9042 113.706C68.5485 114.251 68.0347 114.678 67.3548 114.987C66.6749 115.295 65.8686 115.453 64.9358 115.453C63.8211 115.453 62.8962 115.24 62.1689 114.821C61.655 114.52 61.236 114.109 60.9119 113.603C60.5878 113.097 60.4297 112.607 60.4297 112.125C60.4297 111.848 60.5246 111.611 60.7222 111.413C60.9198 111.216 61.1649 111.113 61.4574 111.113C61.7025 111.113 61.908 111.192 62.074 111.342C62.24 111.5 62.3823 111.722 62.5009 112.03C62.6432 112.394 62.8013 112.694 62.9673 112.931C63.1333 113.176 63.3705 113.374 63.6709 113.532C63.9713 113.69 64.3745 113.769 64.8646 113.769C65.5445 113.769 66.0978 113.611 66.5168 113.295C66.9358 112.979 67.1572 112.583 67.1572 112.109C67.1572 111.73 67.0465 111.429 66.8172 111.192C66.588 110.955 66.2955 110.781 65.9318 110.654C65.5682 110.528 65.086 110.401 64.4772 110.259C63.663 110.069 62.9831 109.848 62.4377 109.595C61.8922 109.342 61.4574 108.994 61.1333 108.552C60.8092 108.109 60.651 107.563 60.651 106.907C60.651 106.283 60.8171 105.729 61.157 105.247C61.4969 104.765 61.987 104.393 62.6353 104.132C63.2756 103.872 64.0345 103.745 64.9041 103.745C65.5998 103.745 66.2006 103.832 66.7066 104.006C67.2125 104.18 67.6315 104.409 67.9714 104.694C68.3113 104.978 68.5485 105.279 68.7066 105.595C68.8647 105.911 68.9359 106.212 68.9359 106.512C68.9359 106.789 68.841 107.034 68.6434 107.247C68.4457 107.461 68.2086 107.579 67.924 107.579C67.6631 107.579 67.4655 107.516 67.3232 107.382C67.1809 107.247 67.0386 107.034 66.8805 106.733C66.6749 106.306 66.4299 105.974 66.1374 105.737C65.8449 105.5 65.3864 105.382 64.746 105.382C64.1531 105.382 63.6788 105.508 63.3151 105.769C62.9515 106.03 62.7697 106.338 62.7697 106.71C62.7697 106.939 62.8329 107.129 62.9515 107.295C63.0701 107.461 63.244 107.603 63.4574 107.722C63.6709 107.84 63.8922 107.935 64.1136 107.998C64.3349 108.061 64.6986 108.164 65.2124 108.291C65.8528 108.441 66.4299 108.607 66.9437 108.781C67.4576 108.955 67.9003 109.176 68.2639 109.437C68.6276 109.698 68.9121 110.022 69.1098 110.417C69.3074 110.813 69.4339 111.295 69.4339 111.864Z" fill="black"/>
<path d="M73.6284 105.136V113.374H78.2768C78.6483 113.374 78.9329 113.461 79.1305 113.643C79.3282 113.824 79.4309 114.046 79.4309 114.323C79.4309 114.599 79.3361 114.828 79.1384 114.994C78.9408 115.16 78.6562 115.255 78.2847 115.255H72.7509C72.2529 115.255 71.8892 115.145 71.6758 114.923C71.4623 114.702 71.3438 114.346 71.3438 113.848V105.136C71.3438 104.67 71.4465 104.322 71.66 104.093C71.8734 103.864 72.1422 103.745 72.4821 103.745C72.83 103.745 73.1066 103.864 73.3201 104.085C73.5335 104.306 73.6284 104.67 73.6284 105.136Z" fill="black"/>
<path d="M88.3864 105.705H83.2242V108.488H87.9832C88.3311 108.488 88.5919 108.567 88.7659 108.725C88.9398 108.883 89.0267 109.089 89.0267 109.35C89.0267 109.611 88.9398 109.816 88.7738 109.982C88.6078 110.148 88.339 110.227 87.9832 110.227H83.2242V113.445H88.5682C88.9319 113.445 89.2007 113.532 89.3825 113.698C89.5643 113.864 89.6592 114.085 89.6592 114.362C89.6592 114.63 89.5643 114.844 89.3825 115.018C89.2007 115.192 88.9319 115.271 88.5682 115.271H82.3388C81.8408 115.271 81.4771 115.16 81.2637 114.939C81.0502 114.717 80.9316 114.362 80.9316 113.864V105.35C80.9316 105.018 80.9791 104.749 81.0818 104.543C81.1846 104.338 81.3348 104.18 81.5404 104.085C81.7459 103.99 82.0147 103.942 82.3388 103.942H88.3943C88.758 103.942 89.0346 104.021 89.2086 104.187C89.3825 104.353 89.4773 104.559 89.4773 104.828C89.4773 105.097 89.3904 105.31 89.2086 105.476C89.0267 105.642 88.75 105.705 88.3864 105.705Z" fill="black"/>
<path d="M44.7265 127.145H40.2126V130.038H43.9913C44.3392 130.038 44.6001 130.117 44.774 130.275C44.9479 130.433 45.0348 130.639 45.0348 130.908C45.0348 131.177 44.9479 131.382 44.774 131.532C44.6001 131.683 44.3392 131.762 43.9913 131.762H40.2126V135.493C40.2126 135.967 40.1019 136.315 39.8885 136.544C39.675 136.774 39.3983 136.884 39.0663 136.884C38.7264 136.884 38.4497 136.766 38.2362 136.536C38.0228 136.307 37.9121 135.951 37.9121 135.485V126.781C37.9121 126.449 37.9595 126.18 38.0623 125.975C38.1651 125.769 38.3153 125.611 38.5208 125.516C38.7264 125.421 38.9951 125.374 39.3193 125.374H44.7265C45.0902 125.374 45.3669 125.453 45.5408 125.619C45.7147 125.785 45.8096 125.991 45.8096 126.259C45.8096 126.528 45.7226 126.742 45.5408 126.908C45.359 127.074 45.0902 127.145 44.7265 127.145Z" fill="black"/>
<path d="M50.591 131.856H49.7847V135.493C49.7847 135.975 49.6819 136.323 49.4684 136.552C49.255 136.781 48.9783 136.892 48.6463 136.892C48.2826 136.892 47.998 136.774 47.8004 136.536C47.6028 136.299 47.5 135.951 47.5 135.493V126.781C47.5 126.291 47.6107 125.927 47.832 125.706C48.0534 125.485 48.4091 125.374 48.9072 125.374H52.6385C53.1523 125.374 53.595 125.398 53.9587 125.437C54.3223 125.477 54.6544 125.572 54.9469 125.706C55.3026 125.856 55.6188 126.07 55.8876 126.346C56.1564 126.623 56.3698 126.947 56.5121 127.319C56.6544 127.682 56.7256 128.078 56.7256 128.489C56.7256 129.335 56.4884 130.007 56.0141 130.513C55.5398 131.018 54.8125 131.374 53.848 131.588C54.2512 131.801 54.6465 132.125 55.0101 132.544C55.3737 132.963 55.7137 133.414 55.9983 133.888C56.2829 134.362 56.5121 134.797 56.6781 135.177C56.8441 135.556 56.9232 135.825 56.9232 135.967C56.9232 136.117 56.8758 136.268 56.7809 136.41C56.686 136.552 56.5596 136.671 56.3935 136.758C56.2275 136.845 56.0378 136.884 55.8244 136.884C55.5635 136.884 55.35 136.821 55.1761 136.702C55.0022 136.584 54.852 136.426 54.7255 136.244C54.599 136.062 54.4251 135.785 54.2117 135.422L53.2946 133.896C52.9626 133.335 52.6701 132.908 52.4092 132.615C52.1484 132.323 51.8875 132.125 51.6187 132.015C51.3499 131.904 50.9942 131.856 50.591 131.856ZM51.9033 127.097H49.7847V130.212H51.84C52.3934 130.212 52.8519 130.165 53.2314 130.07C53.6108 129.975 53.8954 129.809 54.0931 129.58C54.2907 129.35 54.3935 129.034 54.3935 128.631C54.3935 128.315 54.3144 128.038 54.1563 127.801C53.9982 127.564 53.7769 127.382 53.4923 127.263C53.2156 127.153 52.6859 127.097 51.9033 127.097Z" fill="black"/>
<path d="M66.3395 127.145H61.1773V129.928H65.9364C66.2842 129.928 66.5451 130.007 66.719 130.165C66.8929 130.323 66.9799 130.528 66.9799 130.789C66.9799 131.05 66.8929 131.256 66.7269 131.422C66.5609 131.588 66.2921 131.667 65.9364 131.667H61.1773V134.884H66.5213C66.885 134.884 67.1538 134.971 67.3356 135.137C67.5174 135.303 67.6123 135.525 67.6123 135.801C67.6123 136.07 67.5174 136.283 67.3356 136.457C67.1538 136.631 66.885 136.71 66.5213 136.71H60.2919C59.7939 136.71 59.4302 136.6 59.2168 136.378C59.0033 136.157 58.8848 135.801 58.8848 135.303V126.781C58.8848 126.449 58.9322 126.18 59.035 125.975C59.1377 125.769 59.2879 125.611 59.4935 125.516C59.699 125.421 59.9678 125.374 60.2919 125.374H66.3474C66.7111 125.374 66.9878 125.453 67.1617 125.619C67.3356 125.785 67.4305 125.991 67.4305 126.259C67.4305 126.528 67.3435 126.742 67.1617 126.908C66.9799 127.074 66.7032 127.145 66.3395 127.145Z" fill="black"/>
<path d="M76.8825 127.145H71.7203V129.928H76.4793C76.8272 129.928 77.088 130.007 77.262 130.165C77.4359 130.323 77.5228 130.528 77.5228 130.789C77.5228 131.05 77.4359 131.256 77.2699 131.422C77.1039 131.588 76.8351 131.667 76.4793 131.667H71.7203V134.884H77.0643C77.428 134.884 77.6968 134.971 77.8786 135.137C78.0604 135.303 78.1553 135.525 78.1553 135.801C78.1553 136.07 78.0604 136.283 77.8786 136.457C77.6968 136.631 77.428 136.71 77.0643 136.71H70.8349C70.3369 136.71 69.9732 136.6 69.7598 136.378C69.5463 136.157 69.4277 135.801 69.4277 135.303V126.781C69.4277 126.449 69.4752 126.18 69.5779 125.975C69.6807 125.769 69.8309 125.611 70.0365 125.516C70.242 125.421 70.5108 125.374 70.8349 125.374H76.8904C77.2541 125.374 77.5307 125.453 77.7047 125.619C77.8786 125.785 77.9734 125.991 77.9734 126.259C77.9734 126.528 77.8865 126.742 77.7047 126.908C77.5228 127.074 77.2461 127.145 76.8825 127.145Z" fill="black"/>
<path d="M51.8635 119.579H23.4121V121.16H51.8635V119.579Z" fill="black"/>
<path d="M92.5178 119.579H64.0664V121.16H92.5178V119.579Z" fill="black"/>
<mask id="mask0_3001_6" style="mask-type:luminance" maskUnits="userSpaceOnUse" x="8" y="67" width="96" height="112">
<path d="M68.4299 67.7754L18.8711 72.6451L9.70878 87.4044L8.5625 178.506L67.6077 177.526L100.486 170L103.103 104.583H94.2725V90.0211H103.103L97.0789 71.5383L68.4299 67.7754Z" fill="white"/>
</mask>
<g mask="url(#mask0_3001_6)">
<path d="M58.3006 167.502L57.8895 167.249C56.2847 166.261 54.0554 165.043 51.4703 163.644C39.2328 156.988 18.75 145.857 18.75 133.05V84.2031L19.4457 84.1241C38.1735 81.9185 52.4585 76.3057 57.8104 72.0289L58.2847 71.6494L58.7749 72.0052C64.3244 76.0843 77.7161 81.705 97.187 84.1241L97.8827 84.211V133.043C97.8827 145.849 77.392 156.98 65.1545 163.636C62.5695 165.043 60.3322 166.261 58.7274 167.249L58.3006 167.502ZM20.3232 85.6103V133.043C20.3232 144.908 40.2921 155.763 52.2134 162.245C54.6008 163.549 56.6958 164.68 58.2926 165.644C59.8895 164.68 61.9845 163.541 64.3798 162.245C76.309 155.763 96.2779 144.908 96.2779 133.043V85.6024C77.4236 83.1754 64.4351 77.9105 58.3085 73.6258C52.3952 78.0686 38.6004 83.3652 20.3232 85.6103Z" fill="black"/>
</g>
<path d="M97.0776 90.8516C97.5142 90.8516 97.8682 90.4976 97.8682 90.061C97.8682 89.6244 97.5142 89.2705 97.0776 89.2705C96.641 89.2705 96.2871 89.6244 96.2871 90.061C96.2871 90.4976 96.641 90.8516 97.0776 90.8516Z" fill="black"/>
<path d="M97.0776 93.5947C97.5142 93.5947 97.8682 93.2408 97.8682 92.8042C97.8682 92.3676 97.5142 92.0137 97.0776 92.0137C96.641 92.0137 96.2871 92.3676 96.2871 92.8042C96.2871 93.2408 96.641 93.5947 97.0776 93.5947Z" fill="black"/>
<path d="M97.0776 105.357C97.5142 105.357 97.8682 105.004 97.8682 104.567C97.8682 104.13 97.5142 103.776 97.0776 103.776C96.641 103.776 96.2871 104.13 96.2871 104.567C96.2871 105.004 96.641 105.357 97.0776 105.357Z" fill="black"/>
<path d="M92.5191 121.16C92.9557 121.16 93.3096 120.806 93.3096 120.37C93.3096 119.933 92.9557 119.579 92.5191 119.579C92.0825 119.579 91.7285 119.933 91.7285 120.37C91.7285 120.806 92.0825 121.16 92.5191 121.16Z" fill="black"/>
<path d="M64.062 121.16C64.4986 121.16 64.8526 120.806 64.8526 120.37C64.8526 119.933 64.4986 119.579 64.062 119.579C63.6254 119.579 63.2715 119.933 63.2715 120.37C63.2715 120.806 63.6254 121.16 64.062 121.16Z" fill="black"/>
<path d="M51.8608 121.16C52.2975 121.16 52.6514 120.806 52.6514 120.37C52.6514 119.933 52.2975 119.579 51.8608 119.579C51.4242 119.579 51.0703 119.933 51.0703 120.37C51.0703 120.806 51.4242 121.16 51.8608 121.16Z" fill="black"/>
<path d="M23.4136 121.16C23.8502 121.16 24.2041 120.806 24.2041 120.37C24.2041 119.933 23.8502 119.579 23.4136 119.579C22.977 119.579 22.623 119.933 22.623 120.37C22.623 120.806 22.977 121.16 23.4136 121.16Z" fill="black"/>
<path d="M97.0776 102.259C97.5142 102.259 97.8682 101.905 97.8682 101.468C97.8682 101.032 97.5142 100.678 97.0776 100.678C96.641 100.678 96.2871 101.032 96.2871 101.468C96.2871 101.905 96.641 102.259 97.0776 102.259Z" fill="black"/>
<path d="M97.8682 92.8037H96.2871V101.476H97.8682V92.8037Z" fill="black"/>
</g>
</g>
</g>
<defs>
<clipPath id="clip0_3001_6">
<rect width="118.581" height="118.581" fill="white" transform="translate(0.273438 59)"/>
</clipPath>
<clipPath id="clip1_3001_6">
<rect width="118.581" height="118.581" fill="white" transform="translate(0.273438 59)"/>
</clipPath>
<clipPath id="clip2_3001_6">
<rect width="118.581" height="118.581" fill="white" transform="translate(0.273438 59)"/>
</clipPath>
</defs>
</svg>
