<svg width="120" height="178" viewBox="0 0 120 178" fill="none" xmlns="http://www.w3.org/2000/svg">
<rect x="38.5664" width="42.7061" height="43.6345" rx="21.3531" fill="#F37021"/>
<path d="M56.0287 26.4795C57.4547 25.2912 58.5911 24.3034 59.4378 23.5161C60.2845 22.714 60.9901 21.8821 61.5545 21.0206C62.119 20.159 62.4012 19.3123 62.4012 18.4805C62.4012 17.7229 62.223 17.1287 61.8665 16.698C61.51 16.2672 60.9604 16.0518 60.2176 16.0518C59.4749 16.0518 58.903 16.3043 58.502 16.8094C58.1009 17.2996 57.8929 17.9754 57.8781 18.837H54.8478C54.9072 17.0545 55.4345 15.7027 56.4298 14.7818C57.4399 13.8608 58.7174 13.4003 60.2622 13.4003C61.9556 13.4003 63.2553 13.8534 64.1615 14.7595C65.0676 15.6507 65.5206 16.8317 65.5206 18.3022C65.5206 19.4609 65.2087 20.5675 64.5848 21.6222C63.9609 22.6768 63.2479 23.5978 62.4458 24.3851C61.6437 25.1575 60.5964 26.0933 59.3041 27.1925H65.8771V29.7772H54.8701V27.4599L56.0287 26.4795Z" fill="white"/>
<g clip-path="url(#clip0_3001_4)">
<g clip-path="url(#clip1_3001_4)">
<path d="M81.7842 118.567C94.8691 118.567 105.477 107.96 105.477 94.875C105.477 81.7901 94.8691 71.1826 81.7842 71.1826C68.6992 71.1826 58.0918 81.7901 58.0918 94.875C58.0918 107.96 68.6992 118.567 81.7842 118.567Z" fill="#F4F7FE"/>
<path opacity="0.3" d="M28.2484 167.303C36.1596 167.303 42.5729 160.89 42.5729 152.979C42.5729 145.068 36.1596 138.654 28.2484 138.654C20.3371 138.654 13.9238 145.068 13.9238 152.979C13.9238 160.89 20.3371 167.303 28.2484 167.303Z" fill="#652178"/>
<path d="M80.6281 171.153H28.7768C26.0494 171.153 23.8359 168.932 23.8359 166.212V98.5503C23.8359 98.1313 23.8913 97.7282 23.994 97.325C23.9229 96.155 24.3419 95.0245 25.1798 94.1866L51.6707 67.6957C52.4297 66.9288 53.4415 66.5099 54.5246 66.502H54.5325C55.6155 66.502 56.6353 66.9209 57.4021 67.6957L84.2567 94.5502C85.0393 95.3486 85.4504 96.3684 85.4346 97.4594C85.5215 97.823 85.5611 98.1867 85.5611 98.5503V166.212C85.569 168.932 83.3475 171.153 80.6281 171.153ZM54.5404 68.9605C54.5325 68.9605 54.5325 68.9605 54.5404 68.9605C54.1135 68.9605 53.7182 69.1265 53.4178 69.4269L26.919 95.9257C26.5633 96.2815 26.3894 96.7795 26.4605 97.2855L26.5 97.5542L26.4131 97.8151C26.3419 98.0523 26.3024 98.2973 26.3024 98.5424V166.204C26.3024 167.572 27.4171 168.687 28.7847 168.687H80.636C82.0036 168.687 83.1183 167.572 83.1183 166.204V98.5503C83.1183 98.3448 83.0867 98.1392 83.0313 97.9258L82.976 97.7282L82.9918 97.5226C83.0234 97.0562 82.8574 96.6135 82.5333 96.2815L55.6709 69.4348C55.3704 69.1265 54.9673 68.9605 54.5404 68.9605Z" fill="black"/>
<path d="M54.7036 104.037C50.0948 104.037 46.3477 100.29 46.3477 95.6889C46.3477 91.088 50.0948 87.3408 54.7036 87.3408C59.3125 87.3408 63.0517 91.088 63.0517 95.6889C63.0517 100.29 59.3125 104.037 54.7036 104.037ZM54.7036 89.7915C51.4545 89.7915 48.8062 92.4319 48.8062 95.681C48.8062 98.9301 51.4466 101.57 54.7036 101.57C57.9527 101.57 60.5931 98.9301 60.5931 95.681C60.5931 92.4319 57.9527 89.7915 54.7036 89.7915Z" fill="black"/>
<path d="M54.8894 96.8198C55.5661 96.8198 56.1147 96.2712 56.1147 95.5945C56.1147 94.9177 55.5661 94.3691 54.8894 94.3691C54.2127 94.3691 53.6641 94.9177 53.6641 95.5945C53.6641 96.2712 54.2127 96.8198 54.8894 96.8198Z" fill="black"/>
<path d="M67.1374 120.843C67.8142 120.843 68.3628 120.295 68.3628 119.618C68.3628 118.941 67.8142 118.393 67.1374 118.393C66.4607 118.393 65.9121 118.941 65.9121 119.618C65.9121 120.295 66.4607 120.843 67.1374 120.843Z" fill="black"/>
<path d="M43.4812 155.778C44.1579 155.778 44.7065 155.229 44.7065 154.552C44.7065 153.876 44.1579 153.327 43.4812 153.327C42.8045 153.327 42.2559 153.876 42.2559 154.552C42.2559 155.229 42.8045 155.778 43.4812 155.778Z" fill="black"/>
<path d="M44.2483 136.497C40.6909 136.497 37.9082 132.726 37.9082 127.911C37.9082 123.097 40.6909 119.326 44.2483 119.326C47.8057 119.326 50.5884 123.097 50.5884 127.911C50.5884 132.726 47.8057 136.497 44.2483 136.497ZM44.2483 121.785C42.1455 121.785 40.3668 124.591 40.3668 127.911C40.3668 131.232 42.1455 134.038 44.2483 134.038C46.3511 134.038 48.1298 131.232 48.1298 127.911C48.1298 124.591 46.3511 121.785 44.2483 121.785Z" fill="black"/>
<path d="M64.7737 154.6C61.2163 154.6 58.4336 150.829 58.4336 146.015C58.4336 141.201 61.2163 137.43 64.7737 137.43C68.3311 137.43 71.1138 141.201 71.1138 146.015C71.1138 150.829 68.3232 154.6 64.7737 154.6ZM64.7737 139.888C62.6709 139.888 60.8922 142.695 60.8922 146.015C60.8922 149.335 62.6709 152.142 64.7737 152.142C66.8765 152.142 68.6552 149.335 68.6552 146.015C68.6552 142.695 66.8765 139.888 64.7737 139.888Z" fill="black"/>
<path d="M54.9226 96.8268L54.8594 94.3682C55.1044 94.3603 79.6822 93.467 92.4652 72.5494C93.2716 71.1501 93.8487 69.1422 93.3585 68.6837C93.0739 68.4149 89.9671 66.486 68.678 80.4548L67.3261 78.3994C88.1963 64.7073 93.0976 65.0551 95.0503 66.897C97.2242 68.9524 95.0424 73.0158 94.5759 73.8063C81.0736 95.9177 55.1835 96.8189 54.9226 96.8268Z" fill="black"/>
<path d="M66.1624 118.847L42.4258 153.916L44.4617 155.294L68.1984 120.225L66.1624 118.847Z" fill="black"/>
</g>
</g>
<defs>
<clipPath id="clip0_3001_4">
<rect width="118.581" height="118.581" fill="white" transform="translate(0.628906 59)"/>
</clipPath>
<clipPath id="clip1_3001_4">
<rect width="118.581" height="118.581" fill="white" transform="translate(0.628906 59)"/>
</clipPath>
</defs>
</svg>
