<svg width="120" height="178" viewBox="0 0 120 178" fill="none" xmlns="http://www.w3.org/2000/svg">
<rect x="38.6387" width="42.7061" height="43.6345" rx="21.3531" fill="#F37021"/>
<path d="M56.1281 31V28.6159H59.7377V17.698H61.1192L56.4846 20.4609V17.7425L60.5621 15.2916H62.612V28.6159H65.9988V31H56.1281Z" fill="white"/>
<g clip-path="url(#clip0_3001_2)">
<g clip-path="url(#clip1_3001_2)">
<path d="M81.8545 118.567C94.9394 118.567 105.547 107.96 105.547 94.875C105.547 81.7901 94.9394 71.1826 81.8545 71.1826C68.7696 71.1826 58.1621 81.7901 58.1621 94.875C58.1621 107.96 68.7696 118.567 81.8545 118.567Z" fill="#F4F7FE"/>
<path opacity="0.3" d="M28.3226 167.303C36.2338 167.303 42.6471 160.89 42.6471 152.979C42.6471 145.068 36.2338 138.654 28.3226 138.654C20.4114 138.654 13.998 145.068 13.998 152.979C13.998 160.89 20.4114 167.303 28.3226 167.303Z" fill="#652178"/>
<path d="M90.7086 89.7915C88.8666 89.7915 86.8903 89.7756 85.1037 89.7282C83.1827 89.6729 81.7044 89.0484 80.6925 87.8625C79.1904 86.0996 79.3486 83.7122 79.396 83.23V69.7197H81.5542L81.5462 83.4197C81.5462 83.4355 81.3249 85.2696 82.3447 86.4633C82.9376 87.159 83.8862 87.5226 85.159 87.5621C90.4398 87.7044 97.4044 87.5621 97.4756 87.5621L97.523 89.7203C97.4756 89.7203 94.3529 89.7915 90.7086 89.7915Z" fill="black"/>
<path d="M86.5525 103.167H33.3652V105.325H86.5525V103.167Z" fill="black"/>
<path d="M86.5525 116.726H33.3652V118.884H86.5525V116.726Z" fill="black"/>
<path d="M86.5525 130.283H33.3652V132.441H86.5525V130.283Z" fill="black"/>
<path d="M86.5525 143.841H33.3652V145.999H86.5525V143.841Z" fill="black"/>
<path d="M44.8499 166.964H37.3398V169.122H44.8499V166.964Z" fill="black"/>
<mask id="mask0_3001_2" style="mask-type:luminance" maskUnits="userSpaceOnUse" x="14" y="62" width="89" height="113">
<path d="M57.5032 62V78.9412H62.2702V62H98.3265H102.793V174.035H48.2698V162.114H32.4037V172.62H14V62H57.5032Z" fill="white"/>
</mask>
<g mask="url(#mask0_3001_2)">
<path d="M91.6917 169.131H28.2275C24.0613 169.131 20.6699 165.739 20.6699 161.573V76.203C20.6699 72.0369 24.0613 68.6455 28.2275 68.6455H80.9246L99.2493 86.9702V161.573C99.2493 165.739 95.8579 169.131 91.6917 169.131ZM28.2275 70.8037C25.2471 70.8037 22.8281 73.2227 22.8281 76.203V161.573C22.8281 164.553 25.2471 166.972 28.2275 166.972H91.6917C94.6721 166.972 97.0911 164.553 97.0911 161.573V87.8635L80.0313 70.8037H28.2275Z" fill="black"/>
</g>
<path d="M58.4229 70.8028C59.021 70.8028 59.5059 70.3179 59.5059 69.7198C59.5059 69.1216 59.021 68.6367 58.4229 68.6367C57.8247 68.6367 57.3398 69.1216 57.3398 69.7198C57.3398 70.3179 57.8247 70.8028 58.4229 70.8028Z" fill="black"/>
<path d="M33.3291 169.13C33.9273 169.13 34.4122 168.645 34.4122 168.047C34.4122 167.449 33.9273 166.964 33.3291 166.964C32.731 166.964 32.2461 167.449 32.2461 168.047C32.2461 168.645 32.731 169.13 33.3291 169.13Z" fill="black"/>
<path d="M37.3389 169.13C37.937 169.13 38.4219 168.645 38.4219 168.047C38.4219 167.449 37.937 166.964 37.3389 166.964C36.7407 166.964 36.2559 167.449 36.2559 168.047C36.2559 168.645 36.7407 169.13 37.3389 169.13Z" fill="black"/>
<path d="M44.9073 169.13C45.5054 169.13 45.9903 168.645 45.9903 168.047C45.9903 167.449 45.5054 166.964 44.9073 166.964C44.3091 166.964 43.8242 167.449 43.8242 168.047C43.8242 168.645 44.3091 169.13 44.9073 169.13Z" fill="black"/>
<path d="M49.2647 169.13C49.8628 169.13 50.3477 168.645 50.3477 168.047C50.3477 167.449 49.8628 166.964 49.2647 166.964C48.6665 166.964 48.1816 167.449 48.1816 168.047C48.1816 168.645 48.6665 169.13 49.2647 169.13Z" fill="black"/>
<path d="M63.2217 70.8028C63.8198 70.8028 64.3047 70.3179 64.3047 69.7198C64.3047 69.1216 63.8198 68.6367 63.2217 68.6367C62.6236 68.6367 62.1387 69.1216 62.1387 69.7198C62.1387 70.3179 62.6236 70.8028 63.2217 70.8028Z" fill="black"/>
<path d="M86.4834 105.334C87.0816 105.334 87.5665 104.849 87.5665 104.251C87.5665 103.653 87.0816 103.168 86.4834 103.168C85.8853 103.168 85.4004 103.653 85.4004 104.251C85.4004 104.849 85.8853 105.334 86.4834 105.334Z" fill="black"/>
<path d="M33.3643 105.334C33.9624 105.334 34.4473 104.849 34.4473 104.251C34.4473 103.653 33.9624 103.168 33.3643 103.168C32.7661 103.168 32.2812 103.653 32.2812 104.251C32.2812 104.849 32.7661 105.334 33.3643 105.334Z" fill="black"/>
<path d="M33.21 118.892C33.8081 118.892 34.293 118.407 34.293 117.809C34.293 117.21 33.8081 116.726 33.21 116.726C32.6118 116.726 32.127 117.21 32.127 117.809C32.127 118.407 32.6118 118.892 33.21 118.892Z" fill="black"/>
<path d="M33.3643 132.449C33.9624 132.449 34.4473 131.964 34.4473 131.366C34.4473 130.768 33.9624 130.283 33.3643 130.283C32.7661 130.283 32.2812 130.768 32.2812 131.366C32.2812 131.964 32.7661 132.449 33.3643 132.449Z" fill="black"/>
<path d="M33.3643 146.007C33.9624 146.007 34.4473 145.522 34.4473 144.924C34.4473 144.326 33.9624 143.841 33.3643 143.841C32.7661 143.841 32.2812 144.326 32.2812 144.924C32.2812 145.522 32.7661 146.007 33.3643 146.007Z" fill="black"/>
<path d="M86.5557 146.007C87.1538 146.007 87.6387 145.522 87.6387 144.924C87.6387 144.326 87.1538 143.841 86.5557 143.841C85.9575 143.841 85.4727 144.326 85.4727 144.924C85.4727 145.522 85.9575 146.007 86.5557 146.007Z" fill="black"/>
<path d="M86.5557 132.449C87.1538 132.449 87.6387 131.964 87.6387 131.366C87.6387 130.768 87.1538 130.283 86.5557 130.283C85.9575 130.283 85.4727 130.768 85.4727 131.366C85.4727 131.964 85.9575 132.449 86.5557 132.449Z" fill="black"/>
<path d="M86.5557 118.892C87.1538 118.892 87.6387 118.407 87.6387 117.809C87.6387 117.21 87.1538 116.726 86.5557 116.726C85.9575 116.726 85.4727 117.21 85.4727 117.809C85.4727 118.407 85.9575 118.892 86.5557 118.892Z" fill="black"/>
<path d="M86.5557 105.333C87.1538 105.333 87.6387 104.848 87.6387 104.25C87.6387 103.652 87.1538 103.167 86.5557 103.167C85.9575 103.167 85.4727 103.652 85.4727 104.25C85.4727 104.848 85.9575 105.333 86.5557 105.333Z" fill="black"/>
</g>
</g>
<defs>
<clipPath id="clip0_3001_2">
<rect width="118.581" height="118.581" fill="white" transform="translate(0.701172 59)"/>
</clipPath>
<clipPath id="clip1_3001_2">
<rect width="118.581" height="118.581" fill="white" transform="translate(0.701172 59)"/>
</clipPath>
</defs>
</svg>
