<svg width="20" height="20" viewBox="0 0 20 20" fill="none" xmlns="http://www.w3.org/2000/svg">
<path d="M10 20C15.5 20 20 15.5 20 10C20 4.50001 15.5 0 10 0C4.50001 0 0 4.50001 0 10C0 15.5 4.50001 20 10 20ZM10.3 5.29C10.5 5.11 10.74 5.00002 11 5.00002C11.27 5.00002 11.5 5.11 11.71 5.29C11.9 5.5 12 5.74 12 6.00001C12 6.27001 11.9 6.50002 11.71 6.71002C11.5 6.90001 11.27 7 11 7C10.74 7 10.5 6.90001 10.3 6.71002C10.11 6.50002 10 6.27001 10 6.00001C10 5.74 10.11 5.5 10.3 5.29ZM7.80001 9.97C7.80001 9.97 9.97001 8.25001 10.76 8.18002C11.5 8.12002 11.35 8.97001 11.28 9.41002L11.27 9.47002C11.13 10 10.96 10.64 10.79 11.25C10.41 12.64 10.04 14 10.13 14.25C10.23 14.59 10.85 14.16 11.3 13.86C11.36 13.82 11.41 13.78 11.46 13.75C11.46 13.75 11.54 13.67 11.62 13.78C11.64 13.81 11.66 13.84 11.68 13.86C11.77 14 11.82 14.05 11.7 14.13L11.66 14.15C11.44 14.3 10.5 14.96 10.12 15.2C9.70999 15.47 8.14 16.37 8.38 14.62C8.59 13.39 8.86999 12.33 9.09001 11.5C9.49999 10 9.67999 9.32002 8.76001 9.91C8.38999 10.13 8.17 10.27 8.04001 10.36C7.93 10.44 7.92001 10.44 7.84999 10.31L7.81999 10.25L7.77001 10.17C7.69999 10.07 7.69999 10.06 7.80001 9.97Z" fill="#FF2800"/>
</svg>
